<svg width="50" height="48" viewBox="0 0 50 48" fill="none" xmlns="http://www.w3.org/2000/svg">
<path d="M43.6691 42.9307C39.4858 47.9164 32.0525 48.5664 27.0668 44.3831C22.0799 40.1997 21.4299 32.7664 25.6144 27.7795C29.7977 22.7938 37.2311 22.1438 42.2168 26.3271C47.2025 30.5117 47.8525 37.945 43.6691 42.9307Z" fill="#4E134C"/>
<path d="M25.4559 19.3606C21.2725 24.3463 13.8392 24.9963 8.85348 20.8129C3.86777 16.6296 3.21658 9.19628 7.4011 4.21056C11.5844 -0.776341 19.0178 -1.42634 24.0035 2.75818C28.9892 6.94152 29.6392 14.3749 25.4559 19.3606Z" fill="#813B7F"/>
<path d="M39.3929 1.59984C41.0679 -0.0739684 43.3929 -0.462064 44.5881 0.733174L50 6.14508L10.6071 45.5379C8.93214 47.2117 6.60714 47.5998 5.41071 46.4046L0 40.9939L39.3929 1.59984Z" fill="#E10060"/>
<path d="M32.3497 23.7937L23.0759 33.0663C23.4598 31.1173 24.3323 29.2977 25.6116 27.7782C27.3353 25.7176 29.7137 24.3119 32.3497 23.7937Z" fill="#813B7F"/>
<path d="M17.4712 23.525C19.0106 23.3902 20.5082 22.9529 21.8783 22.2383C23.2484 21.5238 24.4641 20.5459 25.4557 19.3608C27.0102 17.5142 27.9572 15.2331 28.1676 12.8286L17.4712 23.525Z" fill="#813B7F"/>
</svg>
