<svg width="50" height="50" viewBox="0 0 50 50" fill="none" xmlns="http://www.w3.org/2000/svg">
<path d="M16 38C19 38 22 37 22 33C22 29 19.694 27 16 27C16 26.2044 16.3161 25.4413 16.8787 24.8787C17.4413 24.3161 18.2044 24 19 24H23C26.593 25.3 29 28 29 33C29 41 23 44 16 44C9 44 4 41 4 33H11C11 36 13 38 16 38Z" fill="#813B7F"/>
<path d="M23 24H18C17.4696 24 16.9609 23.7893 16.5858 23.4142C16.2107 23.0391 16 22.5304 16 22C20 22 21 19 21 17C21 14 19.036 12 16 12C13 12 11 14 11 16H4C4 9.616 10 6 16 6C22 6 28 10 28 16C28 22 23 24 23 24Z" fill="#E10060"/>
<path d="M23 24L16 27H12V25C12 23 13 22 16 22L23 24Z" fill="#4E134C"/>
<path d="M39 7.33398L32 12.001L31 18.001L39 14.001V7.33398Z" fill="#813B7F"/>
<path d="M39 7.333L41 6H42C44 6 46 8 46 10V11L39 14V7.333Z" fill="#4E134C"/>
<path d="M46 37V11L39 14V37H46Z" fill="#E10060"/>
<path d="M50 34.5C50 35.7476 49.7543 36.9829 49.2769 38.1355C48.7994 39.2881 48.0997 40.3354 47.2175 41.2175C46.3354 42.0997 45.2881 42.7994 44.1355 43.2769C42.9829 43.7543 41.7476 44 40.5 44C39.2524 44 38.0171 43.7543 36.8645 43.2769C35.7119 42.7994 34.6646 42.0997 33.7825 41.2175C32.9003 40.3354 32.2006 39.2881 31.7231 38.1355C31.2457 36.9829 31 35.7476 31 34.5C31 31.9804 32.0009 29.5641 33.7825 27.7825C35.5641 26.0009 37.9804 25 40.5 25C43.0196 25 45.4359 26.0009 47.2175 27.7825C48.9991 29.5641 50 31.9804 50 34.5Z" fill="#4E134C"/>
<path d="M45.6241 30.813L44.5861 29.75L39.4761 34.984L36.4111 31.843L35.3731 32.906C35.1062 33.1825 34.957 33.5517 34.957 33.936C34.957 34.3203 35.1062 34.6895 35.3731 34.966L39.4751 39.171L45.6241 32.873C45.8912 32.5967 46.0405 32.2273 46.0405 31.843C46.0405 31.4587 45.8912 31.0893 45.6241 30.813Z" fill="#FCD9FB"/>
</svg>
