<svg width="54" height="34" viewBox="0 0 54 34" fill="none" xmlns="http://www.w3.org/2000/svg">
<path d="M48.7337 0C52.4732 0.0435568 54.5809 4.753 51.9346 7.39827L42.9853 16.3423L38.7762 19.1225L26.5591 0H48.7337ZM11.6286 17.837C11.2367 18.2289 10.9258 18.6941 10.7136 19.2061C10.5015 19.7182 10.3923 20.267 10.3923 20.8212C10.3923 21.3754 10.5015 21.9242 10.7136 22.4363C10.9258 22.9483 11.2367 23.4135 11.6286 23.8054L20.5875 32.7611C21.3798 33.553 22.4542 33.9978 23.5744 33.9978C24.6946 33.9978 25.7689 33.553 26.5612 32.7611L24.9655 28.6837L15.9355 19.1225L11.6276 17.8349L11.6286 17.837Z" fill="#E10060"/>
<path d="M1.18327 7.39827C-1.46307 4.753 0.645718 0.0435568 4.38522 0H26.5588L42.9839 16.3423C43.3762 16.7342 43.6874 17.1995 43.8997 17.7118C44.112 18.224 44.2213 18.773 44.2213 19.3275C44.2213 19.882 44.112 20.431 43.8997 20.9433C43.6874 21.4555 43.3762 21.9209 42.9839 22.3127L32.5303 32.7589C31.7381 33.5502 30.6642 33.9946 29.5446 33.9946C28.4249 33.9946 27.351 33.5502 26.5588 32.7589L1.18327 7.39827Z" fill="#4E134C"/>
<path d="M26.5588 32.76C26.9511 32.3681 27.2623 31.9027 27.4746 31.3905C27.6869 30.8783 27.7962 30.3292 27.7962 29.7748C27.7962 29.2203 27.6869 28.6712 27.4746 28.159C27.2623 27.6468 26.9511 27.1814 26.5588 26.7895L17.5989 17.836C16.8066 17.0441 15.7323 16.5992 14.6121 16.5992C13.4919 16.5992 12.4175 17.0441 11.6252 17.836L26.5588 32.76ZM18.7186 7.7616L26.5588 0L36.2646 9.62711C35.0761 8.43986 33.465 7.77296 31.7851 7.77296C30.1053 7.77296 28.4941 8.43986 27.3057 9.62711L23.9454 12.9842C23.2522 13.677 22.3122 14.0662 21.332 14.0662C20.3519 14.0662 19.4119 13.677 18.7186 12.9842C18.3756 12.6413 18.1034 12.2342 17.9177 11.7862C17.7321 11.3381 17.6365 10.8579 17.6365 10.3729C17.6365 9.88788 17.7321 9.40763 17.9177 8.95957C18.1034 8.51152 18.3756 8.10444 18.7186 7.7616Z" fill="#813B7F"/>
</svg>
