<svg width="427" height="426" viewBox="0 0 427 426" fill="none" xmlns="http://www.w3.org/2000/svg">
<g clip-path="url(#clip0_3443_9919)">
<path d="M400.041 383.47C388.531 393.06 338.441 399.841 278.761 402.391C187.021 406.32 72.6009 400.271 40.7909 379.1C25.7309 369.09 15.5509 338.15 9.1009 298.56C-6.9291 200.06 0.220901 48.0305 13.1609 31.5505C31.3109 8.46048 323.301 -14.4095 399.911 14.8305C432.741 27.3605 429.231 359.13 400.031 383.47H400.041Z" fill="white"/>
<path d="M373.314 248.34L375.204 242.783L377.358 248.34C377.358 248.34 381.657 249.04 381.712 249.431C381.757 249.813 377.595 250.996 377.595 250.996C377.595 250.996 375.85 256.389 375.204 255.17C374.568 253.951 373.95 251.25 373.95 251.25C373.95 251.25 368.533 250.168 368.533 249.632C368.533 249.059 373.314 248.349 373.314 248.349V248.34Z" fill="white"/>
<path d="M304.094 234.043L305.566 229.723L307.238 234.043C307.238 234.043 310.574 234.588 310.619 234.888C310.656 235.179 307.429 236.098 307.429 236.098C307.429 236.098 306.075 240.282 305.575 239.336C305.075 238.39 304.594 236.289 304.594 236.289C304.594 236.289 300.395 235.443 300.395 235.034C300.395 234.588 304.103 234.043 304.103 234.043H304.094Z" fill="white"/>
<path d="M108.405 358.515C108.405 361.339 88.3377 363.631 63.5844 363.631C38.8309 363.631 18.7637 361.339 18.7637 358.515C18.7637 355.683 38.8309 353.391 63.5844 353.391C88.3377 353.391 108.405 355.683 108.405 358.515Z" fill="#F5F5F5"/>
<path d="M410.208 318.897L9.625 319.015C20.9057 306.388 32.1878 293.754 43.462 281.119C47.703 276.374 52.1182 271.488 57.6391 268.7C66.9512 264.021 77.342 266.439 85.102 271.362C92.8555 276.278 98.8799 283.44 106.196 288.956C129.994 306.87 150.513 298.581 178.985 280.727C204.221 264.911 207.587 289.06 219.995 277.36C249.344 249.689 284.871 274.713 297.183 280.059C323.967 291.7 374.387 254.545 376.784 282.647C378.449 302.155 395.236 311.586 410.208 318.897Z" fill="#F5F5F5"/>
<path d="M179.859 355.09C222.97 355.09 257.919 352.551 257.919 349.419C257.919 346.287 222.97 343.748 179.859 343.748C136.748 343.748 101.799 346.287 101.799 349.419C101.799 352.551 136.748 355.09 179.859 355.09Z" fill="#F5F5F5"/>
<path d="M270.35 106.961L250.74 333.135C249.902 342.807 241.811 350.223 232.11 350.223H223.609C233.31 350.223 241.401 342.807 242.239 333.135L261.84 106.961C262.792 96.0424 254.177 86.6465 243.21 86.6465H251.721C262.687 86.6466 271.293 96.0424 270.35 106.961Z" fill="#A0D2F4"/>
<path d="M266.771 106.961L247.17 333.135C246.332 342.807 238.241 350.223 228.54 350.223H223.609C233.31 350.223 241.401 342.807 242.239 333.135L261.84 106.961C262.792 96.0424 254.177 86.6465 243.21 86.6465H248.141C259.108 86.6465 267.723 96.0423 266.771 106.961Z" fill="#008BCE"/>
<path d="M261.84 106.968L242.237 333.138C241.394 342.803 233.308 350.219 223.602 350.219H125.589C114.618 350.219 106.011 340.835 106.953 329.905L126.564 103.735C127.399 94.0704 135.493 86.6543 145.191 86.6543H243.212C254.176 86.6542 262.79 96.0381 261.84 106.968Z" fill="white"/>
<path d="M257.863 106.619L238.244 332.798C237.582 340.453 231.291 346.216 223.61 346.216H125.589C121.414 346.216 117.569 344.53 114.75 341.454C111.931 338.387 110.583 334.41 110.939 330.259L130.541 104.081C131.219 96.4255 137.511 90.6465 145.192 90.6465H174.726C175.784 90.6465 176.669 91.465 176.743 92.515L177.189 98.6081C177.272 99.6664 178.149 100.485 179.207 100.485H209.557C210.475 100.485 211.285 99.8648 211.517 98.9719L213.303 92.1511C213.534 91.2665 214.336 90.6465 215.254 90.6465H242.832C247.148 90.6465 251.348 92.3662 254.209 95.5905C256.92 98.6413 258.21 102.552 257.863 106.619Z" fill="white"/>
<path d="M256.676 120.308L257.863 106.619C258.21 102.552 256.92 98.6412 254.208 95.5905C251.348 92.3662 247.148 90.6465 242.832 90.6465H215.254C214.336 90.6465 213.534 91.2665 213.303 92.1511L211.517 98.9719C211.285 99.8648 210.475 100.485 209.557 100.485H179.207C178.148 100.485 177.272 99.6664 177.189 98.6081L176.743 92.515C176.669 91.465 175.784 90.6465 174.726 90.6465H145.191C137.511 90.6465 131.219 96.4255 130.541 104.081L129.135 120.308H256.676Z" fill="#F5F5F5"/>
<path d="M261.264 147.966L260.903 152.227C260.814 153.248 261.639 154.116 262.663 154.081C263.525 154.051 264.23 153.382 264.304 152.522L264.665 148.261C264.754 147.24 263.929 146.372 262.905 146.407C262.043 146.437 261.338 147.106 261.264 147.966Z" fill="white"/>
<path d="M240.516 98.811C240.244 100.949 241.76 102.686 243.902 102.686C246.044 102.686 248.002 100.949 248.275 98.811C248.548 96.6686 247.032 94.9316 244.89 94.9316C242.747 94.9316 240.789 96.6686 240.516 98.811Z" fill="#E1E5E2"/>
<path d="M180.392 93.3391C180.264 94.3408 180.973 95.1527 181.974 95.1527H197.419C198.421 95.1527 199.336 94.3408 199.464 93.3391C199.591 92.3375 198.883 91.5254 197.881 91.5254H182.436C181.435 91.5254 180.519 92.3375 180.392 93.3391Z" fill="white"/>
<path d="M203.085 93.3391C202.958 94.3408 203.666 95.1527 204.668 95.1527H206.233C207.235 95.1527 208.15 94.3408 208.278 93.3391C208.406 92.3375 207.697 91.5254 206.695 91.5254H205.13C204.128 91.5254 203.213 92.3375 203.085 93.3391Z" fill="white"/>
<path d="M145.683 329.79C145.513 332.174 147.369 334.111 149.828 334.111C152.287 334.111 154.419 332.174 154.588 329.79C154.758 327.402 152.902 325.465 150.443 325.465C147.984 325.465 145.852 327.402 145.683 329.79Z" fill="white"/>
<path d="M167.786 329.79C167.617 332.174 169.473 334.111 171.932 334.111C174.391 334.111 176.522 332.174 176.692 329.79C176.861 327.402 175.005 325.465 172.546 325.465C170.087 325.465 167.956 327.402 167.786 329.79Z" fill="#E1E5E2"/>
<path d="M189.89 329.791C189.72 332.175 191.577 334.111 194.035 334.111C196.494 334.111 198.626 332.174 198.795 329.791C198.965 327.402 197.109 325.465 194.65 325.465C192.191 325.465 190.059 327.402 189.89 329.791Z" fill="white"/>
<path d="M219.643 165.17C219.019 161.153 217.63 157.413 215.642 154.091L220.069 147.557L213.33 140.447L206.583 144.55C203.371 142.372 199.718 140.802 195.756 139.95L194.423 132.445H184.362L182.247 139.95C178.191 140.802 174.364 142.372 170.924 144.55L164.619 140.447L157.138 147.557L160.886 154.091C158.535 157.413 156.767 161.153 155.725 165.17L148.111 166.882L147.59 176.943L155.015 178.671C155.639 182.687 157.02 186.428 159.024 189.75L154.589 196.276L161.328 203.394L168.075 199.29C171.279 201.468 174.94 203.038 178.901 203.883L180.243 211.395H190.296L192.419 203.883C196.467 203.038 200.286 201.468 203.727 199.29L210.047 203.394L217.528 196.276L213.78 189.75C216.116 186.428 217.891 182.687 218.94 178.671L226.539 176.943L227.06 166.882L219.643 165.17ZM210.431 171.916C209.76 184.69 198.899 195.034 186.133 195.034C173.352 195.034 163.556 184.69 164.219 171.916C164.89 159.151 175.766 148.799 188.555 148.799C201.313 148.799 211.094 159.151 210.431 171.916Z" fill="#008BCE"/>
<path d="M202.931 163.346L201.966 180.497L186.434 189.257L187.399 172.106L202.931 163.346Z" fill="#F5F5F5"/>
<path d="M187.399 172.107L186.434 189.258L171.717 180.497L172.682 163.346L187.399 172.107Z" fill="#F5F5F5"/>
<path d="M202.931 163.345L187.399 172.106L172.682 163.344L188.214 154.584L202.931 163.345Z" fill="#F5F5F5"/>
<path d="M236.068 228.345L233.46 258.746C233.319 260.39 231.872 261.724 230.227 261.724H128.795C127.146 261.724 125.924 260.387 126.066 258.738L128.672 228.345C128.814 226.696 130.265 225.359 131.914 225.359H233.339C234.987 225.359 236.209 226.696 236.068 228.345Z" fill="white"/>
<path d="M228.435 231.292H202.876C202.722 231.292 202.598 231.168 202.598 231.014C202.598 230.861 202.722 230.736 202.876 230.736H228.435C228.589 230.736 228.713 230.861 228.713 231.014C228.713 231.168 228.589 231.292 228.435 231.292Z" fill="#E1E5E2"/>
<path d="M199.466 231.292H165.001C164.847 231.292 164.723 231.168 164.723 231.014C164.723 230.861 164.847 230.736 165.001 230.736H199.466C199.619 230.736 199.744 230.861 199.744 231.014C199.744 231.168 199.619 231.292 199.466 231.292Z" fill="#E1E5E2"/>
<path d="M228.871 236.302H200.112C199.958 236.302 199.834 236.178 199.834 236.024C199.834 235.87 199.958 235.746 200.112 235.746H228.871C229.025 235.746 229.149 235.87 229.149 236.024C229.149 236.177 229.025 236.302 228.871 236.302Z" fill="#E1E5E2"/>
<path d="M177.504 236.302H164.571C164.417 236.302 164.293 236.178 164.293 236.024C164.293 235.87 164.417 235.746 164.571 235.746H177.504C177.657 235.746 177.781 235.87 177.781 236.024C177.781 236.177 177.657 236.302 177.504 236.302Z" fill="#E1E5E2"/>
<path d="M203.713 241.314H164.139C163.986 241.314 163.861 241.189 163.861 241.036C163.861 240.882 163.986 240.758 164.139 240.758H203.713C203.866 240.758 203.991 240.882 203.991 241.036C203.991 241.189 203.866 241.314 203.713 241.314Z" fill="#E1E5E2"/>
<path d="M228.012 246.323H195.924C195.771 246.323 195.646 246.199 195.646 246.045C195.646 245.892 195.771 245.768 195.924 245.768H228.012C228.165 245.768 228.29 245.892 228.29 246.045C228.29 246.199 228.165 246.323 228.012 246.323Z" fill="#E1E5E2"/>
<path d="M192.168 246.323H163.712C163.558 246.323 163.434 246.199 163.434 246.045C163.434 245.892 163.558 245.768 163.712 245.768H192.168C192.322 245.768 192.446 245.892 192.446 246.045C192.446 246.199 192.322 246.323 192.168 246.323Z" fill="#E1E5E2"/>
<path d="M227.58 251.335H209.137C208.984 251.335 208.859 251.211 208.859 251.057C208.859 250.904 208.984 250.779 209.137 250.779H227.58C227.733 250.779 227.858 250.904 227.858 251.057C227.858 251.211 227.733 251.335 227.58 251.335Z" fill="#E1E5E2"/>
<path d="M193.331 251.335H180.217C180.064 251.335 179.939 251.211 179.939 251.057C179.939 250.904 180.064 250.779 180.217 250.779H193.331C193.485 250.779 193.609 250.904 193.609 251.057C193.609 251.211 193.485 251.335 193.331 251.335Z" fill="#E1E5E2"/>
<path d="M175.664 251.335H163.282C163.128 251.335 163.004 251.211 163.004 251.057C163.004 250.904 163.128 250.779 163.282 250.779H175.664C175.817 250.779 175.942 250.904 175.942 251.057C175.942 251.211 175.817 251.335 175.664 251.335Z" fill="#E1E5E2"/>
<path d="M227.151 256.343H209.715C209.562 256.343 209.438 256.219 209.438 256.065C209.438 255.911 209.562 255.787 209.715 255.787H227.151C227.305 255.787 227.429 255.911 227.429 256.065C227.429 256.219 227.305 256.343 227.151 256.343Z" fill="#E1E5E2"/>
<path d="M205.252 256.343H173.715C173.562 256.343 173.438 256.219 173.438 256.065C173.438 255.911 173.562 255.787 173.715 255.787H205.252C205.406 255.787 205.53 255.911 205.53 256.065C205.53 256.219 205.406 256.343 205.252 256.343Z" fill="#E1E5E2"/>
<path d="M157.971 233.269L156.206 253.854C156.116 254.901 155.196 255.748 154.15 255.748H133.565C132.518 255.748 131.743 254.901 131.833 253.854L133.599 233.269C133.688 232.222 134.608 231.375 135.655 231.375H156.24C157.287 231.375 158.061 232.222 157.971 233.269Z" fill="#A0D2F4"/>
<path d="M155.779 231.375L154.153 250.337C154.063 251.383 153.143 252.23 152.097 252.23H131.975L133.601 233.269C133.691 232.222 134.61 231.375 135.657 231.375H155.779Z" fill="#008BCE"/>
<path d="M141.233 246.482C141.158 246.482 141.083 246.452 141.028 246.392L138.647 243.789C138.544 243.675 138.551 243.5 138.664 243.397L141.49 240.792C141.603 240.688 141.779 240.695 141.883 240.808C141.987 240.921 141.98 241.097 141.867 241.201L139.244 243.618L141.438 246.017C141.542 246.13 141.534 246.306 141.421 246.409C141.367 246.458 141.3 246.482 141.233 246.482Z" fill="white"/>
<path d="M148.12 246.482C148.045 246.482 147.97 246.452 147.915 246.392C147.811 246.279 147.818 246.104 147.932 246L150.555 243.584L148.362 241.184C148.259 241.071 148.266 240.895 148.38 240.792C148.493 240.688 148.669 240.696 148.772 240.809L151.152 243.413C151.256 243.527 151.248 243.702 151.135 243.805L148.308 246.409C148.254 246.458 148.187 246.482 148.12 246.482Z" fill="white"/>
<path d="M142.692 248.471C142.652 248.471 142.611 248.462 142.572 248.444C142.434 248.378 142.375 248.212 142.441 248.073L146.863 238.81C146.929 238.672 147.095 238.614 147.233 238.679C147.372 238.746 147.43 238.911 147.364 239.05L142.943 248.313C142.895 248.413 142.795 248.471 142.692 248.471Z" fill="white"/>
<path d="M232 276.349L229.393 306.75C229.252 308.394 227.804 309.728 226.159 309.728H170.18C168.531 309.728 167.309 308.391 167.451 306.742L170.057 276.349C170.199 274.7 171.65 273.363 173.298 273.363H229.271C230.919 273.363 232.141 274.7 232 276.349Z" fill="white"/>
<path d="M224.367 279.298H198.807C198.654 279.298 198.529 279.174 198.529 279.02C198.529 278.867 198.654 278.742 198.807 278.742H224.367C224.52 278.742 224.645 278.867 224.645 279.02C224.645 279.174 224.52 279.298 224.367 279.298Z" fill="#E1E5E2"/>
<path d="M195.397 279.298H173.342C173.189 279.298 173.064 279.174 173.064 279.02C173.064 278.867 173.189 278.742 173.342 278.742H195.397C195.551 278.742 195.675 278.867 195.675 279.02C195.675 279.174 195.551 279.298 195.397 279.298Z" fill="#E1E5E2"/>
<path d="M224.8 284.306H196.042C195.888 284.306 195.764 284.181 195.764 284.028C195.764 283.874 195.888 283.75 196.042 283.75H224.8C224.954 283.75 225.078 283.874 225.078 284.028C225.078 284.181 224.954 284.306 224.8 284.306Z" fill="#E1E5E2"/>
<path d="M177.571 284.306H172.911C172.757 284.306 172.633 284.181 172.633 284.028C172.633 283.874 172.757 283.75 172.911 283.75H177.571C177.724 283.75 177.849 283.874 177.849 284.028C177.849 284.181 177.724 284.306 177.571 284.306Z" fill="#E1E5E2"/>
<path d="M224.372 289.318H203.893C203.74 289.318 203.615 289.193 203.615 289.04C203.615 288.886 203.74 288.762 203.893 288.762H224.372C224.526 288.762 224.65 288.886 224.65 289.04C224.65 289.193 224.526 289.318 224.372 289.318Z" fill="#E1E5E2"/>
<path d="M199.644 289.318H172.481C172.328 289.318 172.203 289.193 172.203 289.04C172.203 288.886 172.328 288.762 172.481 288.762H199.644C199.798 288.762 199.922 288.886 199.922 289.04C199.922 289.193 199.798 289.318 199.644 289.318Z" fill="#E1E5E2"/>
<path d="M209.918 294.327H191.854C191.701 294.327 191.576 294.203 191.576 294.049C191.576 293.896 191.701 293.771 191.854 293.771H209.918C210.071 293.771 210.196 293.896 210.196 294.049C210.196 294.203 210.071 294.327 209.918 294.327Z" fill="#E1E5E2"/>
<path d="M188.101 294.327H172.053C171.9 294.327 171.775 294.203 171.775 294.049C171.775 293.896 171.9 293.771 172.053 293.771H188.101C188.254 293.771 188.378 293.896 188.378 294.049C188.378 294.203 188.254 294.327 188.101 294.327Z" fill="#E1E5E2"/>
<path d="M223.513 299.339H205.071C204.917 299.339 204.793 299.215 204.793 299.061C204.793 298.908 204.917 298.783 205.071 298.783H223.513C223.667 298.783 223.791 298.908 223.791 299.061C223.791 299.215 223.667 299.339 223.513 299.339Z" fill="#E1E5E2"/>
<path d="M189.265 299.339H180.288C180.134 299.339 180.01 299.215 180.01 299.061C180.01 298.908 180.134 298.783 180.288 298.783H189.265C189.419 298.783 189.543 298.908 189.543 299.061C189.543 299.215 189.419 299.339 189.265 299.339Z" fill="#E1E5E2"/>
<path d="M177.968 299.339H171.622C171.468 299.339 171.344 299.215 171.344 299.061C171.344 298.908 171.468 298.783 171.622 298.783H177.968C178.121 298.783 178.246 298.908 178.246 299.061C178.246 299.215 178.121 299.339 177.968 299.339Z" fill="#E1E5E2"/>
<path d="M223.082 304.347H205.647C205.494 304.347 205.369 304.222 205.369 304.069C205.369 303.915 205.494 303.791 205.647 303.791H223.082C223.236 303.791 223.36 303.915 223.36 304.069C223.36 304.222 223.236 304.347 223.082 304.347Z" fill="#E1E5E2"/>
<path d="M201.185 304.347H179.45C179.296 304.347 179.172 304.222 179.172 304.069C179.172 303.915 179.296 303.791 179.45 303.791H201.185C201.338 303.791 201.462 303.915 201.462 304.069C201.462 304.222 201.338 304.347 201.185 304.347Z" fill="#E1E5E2"/>
<path d="M163.152 275.939L160.473 307.182C160.337 308.77 158.94 310.056 157.352 310.056H126.109C124.521 310.056 123.345 308.77 123.481 307.182L126.161 275.939C126.297 274.35 127.693 273.064 129.282 273.064H160.524C162.113 273.064 163.289 274.35 163.152 275.939Z" fill="#A0D2F4"/>
<path d="M159.822 273.064L157.354 301.843C157.218 303.432 155.822 304.717 154.233 304.717H123.693L126.161 275.939C126.298 274.35 127.694 273.064 129.283 273.064H159.822Z" fill="#008BCE"/>
<path d="M140.894 298.799H127.913C127.814 298.799 127.723 298.747 127.673 298.662C127.623 298.577 127.622 298.472 127.67 298.386L136.124 283.205C136.366 282.785 136.802 282.541 137.287 282.553C137.741 282.569 138.128 282.818 138.323 283.219L143.475 294.235C143.513 294.316 143.509 294.411 143.466 294.489L141.137 298.657C141.088 298.744 140.995 298.799 140.894 298.799ZM128.386 298.243H140.731L142.911 294.342L137.822 283.458C137.719 283.246 137.516 283.117 137.268 283.109C136.991 283.092 136.744 283.242 136.607 283.479L128.386 298.243Z" fill="white"/>
<path d="M154.605 298.796L140.891 298.792C140.793 298.792 140.702 298.74 140.652 298.655C140.602 298.57 140.6 298.465 140.649 298.379L147.182 286.666C147.419 286.242 147.862 285.981 148.342 286.006C148.798 286.022 149.184 286.275 149.375 286.684L154.856 298.4C154.897 298.486 154.89 298.587 154.839 298.667C154.788 298.747 154.7 298.796 154.605 298.796ZM141.364 298.237L154.168 298.24L148.872 286.92C148.77 286.7 148.57 286.57 148.323 286.561C148.058 286.568 147.802 286.696 147.667 286.937L141.364 298.237Z" fill="white"/>
<path d="M143.618 287.405C143.199 287.405 142.812 287.241 142.527 286.943C142.241 286.643 142.094 286.246 142.113 285.824C142.151 284.969 142.878 284.273 143.734 284.273C144.153 284.273 144.542 284.438 144.826 284.736C145.111 285.034 145.258 285.429 145.239 285.849C145.2 286.707 144.473 287.405 143.618 287.405ZM143.734 284.829C143.171 284.829 142.693 285.287 142.668 285.849C142.656 286.118 142.749 286.37 142.929 286.559C143.108 286.746 143.353 286.849 143.618 286.849C144.18 286.849 144.659 286.389 144.684 285.824C144.696 285.557 144.604 285.307 144.425 285.12C144.246 284.932 144 284.829 143.734 284.829Z" fill="white"/>
<path d="M114.93 95.3096H26.4355C26.8073 92.6484 27.482 90.009 28.9416 87.5977C30.5662 84.893 33.3063 82.4926 36.8726 81.4498C40.4388 80.4068 44.8449 80.9391 47.4059 83.1658C49.9258 85.36 50.4626 88.8467 53.5884 90.4977C57.0444 92.3336 61.8636 90.8997 64.8516 88.6186C67.8396 86.3484 69.8361 83.3396 72.9755 81.1782C77.6569 77.952 84.7344 77.0832 90.4348 79.0276C96.2591 81.0043 100.087 85.3709 104.273 89.1183C107.206 91.7359 110.855 94.2451 114.93 95.3096Z" fill="#F5F5F5"/>
<path d="M402.277 110.9H319.639C319.986 108.415 320.616 105.951 321.979 103.699C323.496 101.173 326.055 98.9315 329.385 97.9578C332.715 96.9839 336.83 97.4809 339.221 99.5603C341.574 101.609 342.076 104.865 344.994 106.407C348.222 108.121 352.722 106.782 355.512 104.652C358.303 102.532 360.167 99.7225 363.099 97.7042C367.47 94.6914 374.079 93.8802 379.403 95.6959C384.841 97.5418 388.416 101.619 392.325 105.119C395.064 107.563 398.471 109.906 402.277 110.9Z" fill="#F5F5F5"/>
<path d="M82.7301 342.273L85.1213 353.59L74.2742 352.696L71.2871 342.789C74.0414 342.096 80.1209 343.688 82.7301 342.273Z" fill="white"/>
<path d="M82.3383 348.951C82.3246 348.034 83.0569 347.28 83.974 347.266L83.9782 347.266C84.6777 347.255 85.3086 347.684 85.556 348.339L86.8329 351.715L97.8851 355.217C99.3696 355.688 100.386 357.055 100.41 358.612C100.413 358.86 100.215 359.064 99.9673 359.068L69.3573 359.523C69.1093 359.527 68.9052 359.329 68.9015 359.081L68.8398 354.926C68.8398 354.926 68.8677 349.696 73.1136 348.625C73.1136 348.625 75.2771 352.971 79.4631 352.493C82.0732 352.194 82.3383 348.951 82.3383 348.951Z" fill="white"/>
<path d="M33.1133 342.788V352.699L43.5925 353.593V342.277L33.1133 342.788Z" fill="white"/>
<path d="M42.5629 348.951C42.5493 348.034 43.2816 347.28 44.1987 347.266L44.2029 347.266C44.9024 347.255 45.5333 347.684 45.7806 348.339L47.0576 351.715L58.1097 355.217C59.5943 355.688 60.6112 357.055 60.6343 358.612C60.638 358.86 60.44 359.064 60.1919 359.068L29.5819 359.523C29.3339 359.527 29.1299 359.329 29.1261 359.081L29.0645 354.926C29.0645 354.926 29.0924 349.696 33.3382 348.625C33.3382 348.625 35.5017 352.971 39.6877 352.493C42.2978 352.194 42.5629 348.951 42.5629 348.951Z" fill="white"/>
<path d="M26.2969 236.542L30.3875 341.11C30.4568 342.745 31.7973 344.033 33.4231 344.033H43.2219C44.0609 344.033 44.7439 343.385 44.7872 342.546L45.2802 331.13L48.0736 266.647L68.0255 338.723L68.5618 340.669C69.1066 342.658 70.9228 344.033 72.9811 344.033H83.5582C83.9905 344.033 84.3192 343.653 84.2587 343.229L69.8504 236.542C66.5555 233.843 63.2084 231.785 59.7663 231.517C56.4712 231.249 53.0725 232.607 49.5179 236.542H26.2969Z" fill="#008BCE"/>
<path d="M61.8869 258.931C64.4296 267.087 67.5776 275.259 67.6036 283.804C67.6122 288.639 66.6177 293.542 67.6469 298.273C69.3939 306.359 76.8401 313.122 75.8716 321.33C75.3354 325.801 72.3689 329.528 70.1549 333.446C69.2381 335.072 68.4512 336.88 68.0274 338.722L68.5636 340.668C69.1085 342.657 70.9247 344.032 72.983 344.032H83.56C83.9924 344.032 84.3211 343.651 84.2606 343.228L69.8522 236.54C66.5572 233.842 63.2101 231.784 59.7681 231.516C57.0526 240.216 59.3789 250.888 61.8869 258.931Z" fill="#A0D2F4"/>
<path d="M26.2969 236.543L30.3875 341.111C30.4568 342.746 31.7973 344.035 33.4231 344.035H43.2219C44.0609 344.035 44.7439 343.386 44.7872 342.547L45.2802 331.131C44.104 328.407 43.1613 325.622 42.8154 322.673C41.8813 314.811 45.3581 307.01 45.0639 299.097C44.7871 291.452 41.0598 284.429 38.3008 277.294C36.3031 272.148 34.7982 266.821 33.7776 261.407C32.8869 256.694 32.3766 251.911 32.2383 247.129C32.1691 244.698 32.1951 242.268 32.3247 239.838C32.3766 238.887 32.6275 237.685 32.6879 236.543H26.2969Z" fill="#A0D2F4"/>
<path d="M29.1699 247.758L29.4465 250.404L29.8704 254.486C30.1731 257.453 32.8282 259.857 35.8032 259.857C37.36 259.857 38.6831 259.2 39.5566 258.153C40.2485 257.323 40.6549 256.242 40.6549 255.048C40.6549 254.867 40.6463 254.677 40.6291 254.486L39.9372 247.758L29.1699 247.758Z" fill="white"/>
<path d="M29.4473 250.404L29.8711 254.486C30.1738 257.453 32.829 259.857 35.8039 259.857C37.3607 259.857 38.6839 259.2 39.5574 258.153C39.393 257.781 39.1078 257.453 38.779 257.211C38.1822 256.77 37.4557 256.545 36.7725 256.268C36.0894 255.983 35.3974 255.593 35.0255 254.954C34.6882 254.383 34.6536 253.691 34.5672 253.034C34.4893 252.376 34.3163 251.676 33.8147 251.243C33.1661 250.69 32.2494 250.794 31.4624 250.819C30.7792 250.837 30.0008 250.863 29.4473 250.404Z" fill="#F5F5F5"/>
<path d="M53.7773 247.756L54.4742 254.492C54.7811 257.458 57.4398 259.862 60.4126 259.862C63.3853 259.862 65.5465 257.458 65.2397 254.492L64.5428 247.756H53.7773Z" fill="white"/>
<path d="M54.0605 249.92L54.4844 254.002C54.7871 256.968 57.4421 259.373 60.4172 259.373C61.9739 259.373 63.2972 258.715 64.1705 257.669C64.0062 257.297 63.7209 256.968 63.3922 256.726C62.7955 256.285 62.069 256.06 61.3859 255.783C60.7028 255.498 60.0108 255.109 59.639 254.469C59.3016 253.898 59.267 253.206 59.1806 252.549C59.1027 251.892 58.9298 251.191 58.4281 250.759C57.7795 250.205 56.8628 250.309 56.0758 250.335C55.3924 250.352 54.6141 250.378 54.0605 249.92Z" fill="#F5F5F5"/>
<path d="M18.9627 190.033L17.2696 208.744C16.9773 212.328 19.047 215.687 22.38 217.037L38.3924 220.792L40.317 210.725L28.3121 208.899L30.1057 192.697" fill="white"/>
<path d="M78.5167 201.671C78.465 201.671 78.4045 201.662 78.3613 201.637L78.7325 201.749L78.7756 201.576C78.6808 201.637 78.5944 201.671 78.5167 201.671Z" fill="white"/>
<path d="M17.2623 192.358C18.421 195.273 29.024 196.691 29.024 196.691L24.6307 237.892C48.8894 240.14 60.608 230.385 71.5916 238.229L71.4359 228.803L70.9688 199.51L78.3634 201.638C77.5244 201.266 77.68 197.694 78.9687 191.761C80.3352 185.5 82.2638 180.406 83.2757 180.406C83.388 180.406 83.4832 180.475 83.561 180.596L83.6216 180.337C83.6216 180.337 50.7402 164.432 30.2694 171.135C30.2348 171.143 30.2088 171.152 30.1742 171.16C23.61 173.34 16.1119 189.461 17.2623 192.358Z" fill="white"/>
<path d="M17.2623 192.358C18.421 195.273 29.024 196.691 29.024 196.691L24.6307 237.892C48.8894 240.141 60.608 230.385 71.5916 238.229L71.4359 228.803C71.237 228.768 71.0468 228.751 70.8479 228.733C67.5355 228.465 64.2145 229.174 61.0318 230.126C58.5671 230.852 55.5229 231.587 53.7499 229.737C52.3833 228.31 52.5133 225.983 51.4409 224.314C49.6419 221.546 45.6032 221.789 42.5243 220.613C37.3093 218.623 34.9829 212.336 35.2336 206.758C35.4844 201.179 37.6293 195.878 38.5545 190.378C39.48 184.869 38.892 178.529 34.732 174.802C33.2963 173.513 31.4975 172.605 30.2694 171.135C30.2348 171.143 30.2088 171.152 30.1742 171.161C23.61 173.34 16.1119 189.461 17.2623 192.358Z" fill="#F5F5F5"/>
<path d="M65.4858 155.39C65.1486 155.579 64.4811 155.593 63.9261 155.558C63.6661 154.062 63.2726 152.446 62.8652 150.949C63.3921 151.483 66.5889 154.785 65.4858 155.39Z" fill="white"/>
<path d="M48.8711 159.415V167.579L58.3499 169.11V161.707C58.3499 161.707 63.1152 162.823 64.0404 160.297C65.2253 157.045 61.152 145.361 61.152 145.361L48.8711 159.415Z" fill="white"/>
<path d="M48.8711 159.934V167.579L58.3499 169.11V166.809C57.4071 166.602 56.5336 166.135 55.6774 165.668C54.3282 164.932 52.9878 164.197 51.6387 163.462C50.8774 162.174 50.0126 160.876 48.8711 159.934Z" fill="#F5F5F5"/>
<path d="M60.9152 151.219C60.5695 151.331 60.2674 151.573 60.0829 151.887C59.8983 152.2 59.8327 152.581 59.9019 152.938" fill="white"/>
<path d="M64.1839 157.408C64.1839 157.408 63.6987 158.171 61.9668 157.782L64.1839 157.408Z" fill="white"/>
<path d="M58.4395 156.246C58.4773 155.675 58.371 154.999 58.1063 154.32C57.5079 152.785 56.3297 151.81 55.4802 152.141C54.6307 152.472 54.4236 153.987 55.0219 155.522C55.2677 156.153 55.6122 156.689 55.992 157.079" fill="white"/>
<path d="M56.0818 153.582C56.0818 153.582 55.6672 153.612 55.7413 154.204L56.0818 153.582Z" fill="white"/>
<path d="M143.072 147.877L142.994 147.978L138.636 152.555L137.807 153.627L137.799 153.635L137.752 153.69L137.721 153.729C137.721 153.729 140.357 153.494 139.95 155.747V155.755C139.95 155.771 139.95 155.794 139.943 155.81C139.943 155.81 142.211 156.318 141.093 158.266C144.504 160.386 137.994 166.082 131.814 167.412C131.814 167.412 112.873 197.837 101.991 201.382C97.6332 202.806 88.0808 201.311 80.3355 199.669C79.4672 199.489 78.6222 199.301 77.8086 199.121C77.8478 198.44 77.9416 197.595 78.0902 196.562C78.3014 195.099 78.5909 193.48 78.9664 191.767C79.8895 187.55 81.0631 183.873 82.0411 181.909L83.8718 182.465L96.006 186.118L124.726 162.452C125.493 160.403 129.811 149.129 131.767 149.669C132.37 149.817 133.183 151.546 132.753 153.08C132.737 153.181 132.682 153.322 132.636 153.479C136.078 149.888 139.794 146.477 142.775 144.928C143.886 144.716 143.98 146.727 143.072 147.877Z" fill="white"/>
<path d="M141.093 158.264C141.093 158.264 139.911 158.685 137.963 161.336L141.093 158.264Z" fill="white"/>
<path d="M139.966 155.74C139.966 155.74 138.784 156.162 136.836 158.812L139.966 155.74Z" fill="white"/>
<path d="M137.817 153.617C137.817 153.617 136.635 154.039 134.688 156.689L137.817 153.617Z" fill="white"/>
<path d="M11.1719 115.822V138.186C11.1719 138.938 11.7813 139.547 12.5334 139.547H25.6246L34.3552 147.22C34.8506 147.625 35.5945 146.745 35.5945 146.104V139.547H40.3387C41.0906 139.547 41.7001 138.938 41.7001 138.186V115.822C41.7001 115.07 41.0906 114.461 40.3387 114.461H12.5334C11.7814 114.461 11.1719 115.07 11.1719 115.822Z" fill="white"/>
<path d="M14.248 118.791V134.965C14.248 135.527 14.7077 135.976 15.2692 135.976H37.6009C38.1625 135.976 38.622 135.527 38.622 134.965V118.791C38.622 118.229 38.1625 117.77 37.6009 117.77H15.2692C14.7078 117.77 14.248 118.229 14.248 118.791Z" fill="#008BCE"/>
<path d="M14.248 124.338V134.968C14.248 135.529 14.7077 135.978 15.2692 135.978H37.6009C38.1625 135.978 38.622 135.529 38.622 134.968V132.333C38.5301 132.323 38.428 132.313 38.336 132.303C36.5184 132.109 34.7111 131.925 32.8935 131.731C31.4129 131.578 29.9119 131.424 28.4313 131.598C26.6852 131.792 25.0105 132.425 23.2748 132.619C21.5287 132.823 19.5682 132.476 18.4653 131.118C17.5974 130.046 17.4544 128.586 17.0767 127.258C16.6988 125.931 15.8512 124.522 14.4831 124.348C14.4115 124.338 14.3195 124.338 14.248 124.338Z" fill="#008BCE"/>
<path d="M295.6 263.357C295.6 271.402 298.116 275.019 301.217 275.019C304.32 275.019 306.835 271.402 306.835 263.357C306.835 255.309 304.32 245.881 301.217 245.881C298.116 245.881 295.6 255.309 295.6 263.357Z" fill="#F5F5F5"/>
<path d="M301.216 283.874C301.314 283.874 301.394 283.795 301.394 283.697V263.804C301.394 263.707 301.314 263.627 301.216 263.627C301.119 263.627 301.039 263.707 301.039 263.804V283.697C301.039 283.795 301.119 283.874 301.216 283.874Z" fill="#F5F5F5"/>
<path d="M91.1992 263.337C91.1992 270.98 93.59 274.416 96.5362 274.416C99.4841 274.416 101.873 270.98 101.873 263.337C101.873 255.691 99.4841 246.734 96.5362 246.734C93.5901 246.734 91.1992 255.691 91.1992 263.337Z" fill="#F5F5F5"/>
<path d="M96.5376 282.83C96.6303 282.83 96.7058 282.754 96.7058 282.661V263.762C96.7058 263.669 96.6302 263.594 96.5376 263.594C96.4448 263.594 96.3691 263.669 96.3691 263.762V282.661C96.3691 282.754 96.4448 282.83 96.5376 282.83Z" fill="#F5F5F5"/>
<path d="M283.844 265.608C283.844 271.023 285.838 273.458 288.296 273.458C290.755 273.458 292.748 271.023 292.748 265.608C292.748 260.191 290.755 253.844 288.296 253.844C285.838 253.844 283.844 260.19 283.844 265.608Z" fill="#F5F5F5"/>
<path d="M288.296 282.132C288.394 282.132 288.473 282.053 288.473 281.955V265.908C288.473 265.81 288.394 265.73 288.296 265.73C288.199 265.73 288.119 265.81 288.119 265.908V281.955C288.119 282.053 288.199 282.132 288.296 282.132Z" fill="#F5F5F5"/>
<path d="M410.075 152.746C410.226 157.95 406.097 162.17 400.854 162.17C395.605 162.17 391.231 157.95 391.08 152.746C390.929 147.536 395.058 143.316 400.306 143.316C405.55 143.316 409.924 147.536 410.075 152.746Z" fill="#008BCE"/>
<path d="M410.072 152.743C410.228 157.952 406.094 162.164 400.85 162.164C397.331 162.164 394.211 160.266 392.486 157.449C394.22 158.957 396.482 159.885 398.935 159.885C404.179 159.885 408.313 155.664 408.157 150.463C408.113 148.747 407.602 147.144 406.761 145.766C408.72 147.49 409.994 149.978 410.072 152.743Z" fill="#A0D2F4"/>
<path d="M399.514 154.425C399.435 154.425 399.357 154.392 399.302 154.326L397.8 152.537C397.701 152.42 397.716 152.244 397.834 152.146C397.951 152.047 398.126 152.062 398.225 152.18L399.55 153.758L402.761 151.123C402.881 151.026 403.055 151.044 403.152 151.162C403.25 151.28 403.233 151.456 403.114 151.553L399.691 154.362C399.639 154.404 399.576 154.425 399.514 154.425Z" fill="white"/>
<path d="M365.568 129.656L359.322 202.594C359.178 204.278 357.694 205.645 356.01 205.645H245.615C243.93 205.645 242.687 204.278 242.832 202.594L249.078 129.656C249.222 127.971 250.699 126.611 252.383 126.611H362.778C364.463 126.611 365.713 127.971 365.568 129.656Z" fill="white"/>
<path d="M365.565 129.661L364.688 139.898H273.015L271.157 133.67H258.904L255.98 139.898H248.195L249.072 129.661C249.216 127.977 250.701 126.609 252.385 126.609H362.775C364.459 126.609 365.709 127.977 365.565 129.661Z" fill="#F5F5F5"/>
<path d="M360.948 133.254C360.795 135.036 359.227 136.48 357.445 136.48H308.466C306.684 136.48 305.363 135.036 305.516 133.254C305.668 131.472 307.237 130.027 309.019 130.027H357.998C359.78 130.027 361.101 131.472 360.948 133.254Z" fill="white"/>
<path d="M360.948 133.249C360.795 135.038 359.229 136.48 357.447 136.48H352.109L352.662 130.025H358C359.782 130.025 361.1 131.468 360.948 133.249Z" fill="white"/>
<path d="M357.98 133.823C358.55 133.278 358.607 132.411 358.106 131.888C357.605 131.365 356.737 131.383 356.167 131.928C355.597 132.474 355.541 133.34 356.042 133.863C356.542 134.387 357.41 134.369 357.98 133.823Z" fill="white"/>
<path d="M351.156 152.988L347.101 189.553H259.473C259.473 189.553 259.997 187.456 261.297 184.738C263.772 179.534 269.1 172.063 279.052 172.7C289.039 173.338 300.437 181.145 305.494 175.144C310.561 169.142 320.482 154.307 328.9 156.148C335.436 157.582 341.017 160.857 346.474 157.6C348.04 156.671 349.595 155.192 351.156 152.988Z" fill="#A0D2F4"/>
<path d="M346.476 157.599L344.031 179.711C343.715 182.565 341.292 184.737 338.423 184.737H261.299C263.773 179.533 269.102 172.062 279.053 172.699C289.041 173.337 300.438 181.143 305.496 175.142C310.563 169.141 320.483 154.306 328.901 156.147C335.438 157.581 341.019 160.856 346.476 157.599Z" fill="#008BCE"/>
<path d="M260.826 177.321C260.826 177.321 270.446 162.68 279.933 164.79C289.42 166.9 301.314 173.23 306.374 167.23C311.435 161.229 321.363 146.394 329.78 148.24C338.198 150.086 345.029 154.971 352.033 145.078" fill="white"/>
<path d="M316.383 233.952L311.94 229.821C306.84 229.83 300.736 226.454 303.062 224.199C301.847 222.855 303.548 222.066 303.548 222.066C303.539 222.055 303.535 222.036 303.532 222.024L303.531 222.018C302.825 220.312 304.943 220.046 304.943 220.046L304.912 220.02L304.866 219.985L304.858 219.98L304.021 219.277L299.803 216.415L299.724 216.348C298.812 215.597 298.542 213.996 299.454 213.973C302.069 214.684 305.581 216.737 308.909 218.979C308.845 218.863 308.778 218.762 308.748 218.684C308.147 217.549 308.492 216.047 308.942 215.827C310.391 215.067 315.723 223.215 316.678 224.699L319.018 225.902L316.383 233.952Z" fill="white"/>
<path d="M303.059 224.199C303.059 224.199 304.062 224.329 306.051 226.086L303.059 224.199Z" fill="white"/>
<path d="M303.516 222.018C303.516 222.018 304.519 222.148 306.508 223.904L303.516 222.018Z" fill="white"/>
<path d="M304.844 219.975C304.844 219.975 305.848 220.105 307.836 221.861L304.844 219.975Z" fill="white"/>
<path d="M292.748 359.796C292.748 362.116 318.232 363.999 349.67 363.999C381.108 363.999 406.596 362.116 406.596 359.796C406.596 357.477 381.108 355.6 349.67 355.6C318.232 355.6 292.748 357.477 292.748 359.796Z" fill="#F5F5F5"/>
<path d="M361.334 359.934C361.487 357.351 368.907 355.266 378.064 355.266C387.2 355.266 394.62 357.351 394.773 359.934H361.334Z" fill="#008BCE"/>
<path d="M374.074 303.109V356.892C374.074 357.835 382.035 357.835 382.035 356.892V303.109H374.074Z" fill="white"/>
<path d="M378.025 303.109V357.599C376.045 357.597 374.074 357.361 374.074 356.892L374.074 303.109H378.025Z" fill="#E1E5E2"/>
<path d="M391.549 302.188C389.9 305.037 384.498 307.14 378.055 307.14C371.634 307.14 366.219 305.037 364.564 302.188H391.549Z" fill="#008BCE"/>
<path d="M313.939 347.558C313.939 347.588 313.945 347.625 313.952 347.655C314.056 348.627 314.88 349.366 315.87 349.366H324.144C325.152 349.366 325.989 348.59 326.068 347.582L329.447 303.105C329.704 299.739 332.453 297.099 335.826 296.977L366.317 295.889L368.92 287.347L365.266 282.41L361.337 277.112C361.337 277.112 320.007 271.918 314.367 285.263C310.456 294.52 313.341 337.757 313.939 347.558Z" fill="#008BCE"/>
<path d="M313.951 347.656C314.055 348.627 314.88 349.367 315.87 349.367H324.143C325.151 349.367 325.988 348.591 326.068 347.583L329.447 303.106C329.703 299.739 332.453 297.099 335.826 296.977L366.316 295.889L368.919 287.347L365.265 282.41C363.481 282.276 361.685 282.233 359.888 282.276C359.283 282.288 358.66 282.319 358.11 282.575C356.827 283.186 356.411 284.793 355.47 285.856C354.108 287.402 351.786 287.635 349.733 287.427C347.686 287.213 345.615 286.663 343.592 287.054C341.508 287.451 339.736 288.789 337.739 289.486C335.557 290.25 333.192 290.225 330.901 290.519C328.61 290.818 326.196 291.551 324.785 293.378C322.151 296.763 324.204 301.926 322.414 305.825C321.626 307.53 320.159 308.843 319.304 310.518C316.578 315.834 320.782 322.451 319.059 328.164C318.601 329.679 317.739 331.091 317.654 332.667C317.575 334.201 318.253 335.661 318.57 337.171C319.291 340.574 318.021 344.332 315.381 346.605C314.935 346.99 314.452 347.338 313.951 347.656Z" fill="#008BCE"/>
<path d="M344.12 342.566C344.23 344.888 344.321 346.733 344.382 347.925C344.425 348.768 345.122 349.422 345.959 349.422H355.436C356.255 349.422 356.939 348.793 357.006 347.968L360.599 303.106C360.746 301.145 361.754 299.452 363.22 298.34H343.539C342.855 311.104 343.631 331.867 344.12 342.566Z" fill="#008BCE"/>
<path d="M344.119 342.566C344.229 344.888 344.321 346.733 344.382 347.925C344.425 348.768 345.121 349.422 345.958 349.422H355.435C356.254 349.422 356.938 348.793 357.006 347.968L360.599 303.106C360.745 301.145 361.753 299.452 363.22 298.34H359.896C359.108 299.055 358.484 299.88 358.197 300.588C357.605 302.067 357.501 303.882 356.254 304.872C355.6 305.397 354.727 305.593 354.079 306.131C353.034 306.998 352.845 308.532 352.942 309.888C353.04 311.245 353.346 312.632 352.991 313.946C352.509 315.736 350.889 317.037 350.327 318.809C349.771 320.569 350.339 322.457 350.731 324.254C351.121 326.056 351.274 328.14 350.089 329.545C349.203 330.596 347.639 331.201 347.388 332.558C347.119 334.012 348.598 335.197 348.94 336.645C349.246 337.965 348.531 339.352 347.541 340.281C346.551 341.216 345.298 341.814 344.15 342.548C344.137 342.554 344.131 342.56 344.119 342.566Z" fill="#008BCE"/>
<path d="M360.629 245.817C360.251 253.833 359.282 260.395 359.594 272.828C359.627 274.397 359.693 276.056 359.775 277.83C360.621 295.733 378.056 293.434 378.056 293.434C378.056 293.434 407.58 262.678 406.57 235.806C406.225 226.658 403.925 220.835 400.919 217.164C394.259 209.025 384.125 211.415 384.125 211.415C372.274 212.992 366.156 215.833 363.093 219.554C363.084 219.554 363.084 219.554 363.084 219.554C363.084 219.554 363.076 219.57 363.068 219.587C362.674 220.063 362.329 220.564 362.025 221.065C362.025 221.073 362.025 221.081 362.017 221.09" fill="white"/>
<path d="M359.594 272.831C359.627 274.399 359.692 276.058 359.774 277.832C360.62 295.735 378.055 293.436 378.055 293.436C378.055 293.436 407.579 262.68 406.569 235.809C406.224 226.66 403.925 220.837 400.919 217.166C399.852 217.47 398.809 217.905 397.831 218.48C395.54 219.811 393.684 222.061 393.29 224.681C392.953 226.914 393.676 229.156 394.045 231.39C394.415 233.616 394.333 236.178 392.748 237.78C390.637 239.923 386.826 239.463 384.691 241.574C382.983 243.266 382.958 245.951 382.802 248.341C382.466 253.416 380.618 258.935 376.117 261.3C374.048 262.392 371.486 262.787 370.016 264.602C368.94 265.932 368.693 267.763 367.79 269.217C366.139 271.853 362.78 272.658 359.594 272.831Z" fill="#F5F5F5"/>
<path d="M337.856 302.427C340.681 302.55 347.259 302.821 355.332 303.01C368.595 303.314 385.891 303.379 397.167 302.107C416.696 299.905 414.922 278.676 414.922 278.676C414.922 278.676 416.524 251.632 415.99 244.085C415.957 243.584 415.899 243.116 415.817 242.672C414.75 236.464 409.953 235.996 409.953 235.996C381.431 233.573 378.541 252.109 378.541 252.109C378.541 252.109 370.772 280.746 366.559 288.162C366.082 288.999 365.63 289.755 365.195 290.42C362.937 293.943 359.044 296.078 354.856 296.078H339.227C339.227 296.078 335.17 295.816 334.645 299.019C334.645 299.06 334.645 299.093 334.636 299.117C334.341 301.096 335.86 302.345 337.856 302.427Z" fill="white"/>
<path d="M355.332 303.01C368.595 303.313 385.891 303.379 397.167 302.106C416.696 299.905 414.922 278.676 414.922 278.676C414.922 278.676 416.524 251.632 415.99 244.085C415.957 243.584 415.899 243.115 415.817 242.672C414.717 243.584 413.83 244.741 413.271 246.064C411.522 250.244 412.664 255.96 409.009 258.637C405.839 260.969 400.879 259.335 397.799 261.782C395.376 263.721 395.212 267.269 395.146 270.365C395.04 275.612 393.988 281.862 389.2 284.022C386.581 285.213 383.238 284.884 381.128 286.839C380.191 287.709 379.649 288.909 379.14 290.083C377.457 293.959 375.33 298.394 371.215 299.363C369.638 299.724 367.996 299.503 366.378 299.519C362.403 299.544 358.74 300.948 355.332 303.01Z" fill="#F5F5F5"/>
<path d="M323.245 349.367L323.365 355.032C321.588 358.999 319.45 359.632 316.825 355.73L316.689 349.367L323.245 349.367Z" fill="white"/>
<path d="M317.406 353.579C317.402 353.005 316.935 352.543 316.361 352.547H316.358C315.921 352.55 315.532 352.826 315.386 353.239C314.91 354.583 313.845 355.635 312.495 356.094L307.768 357.704C306.846 358.017 306.228 358.886 306.234 359.86C306.235 360.015 306.362 360.14 306.517 360.139L325.664 360.017C325.819 360.016 325.944 359.89 325.943 359.735L325.926 357.136C325.926 357.136 325.839 353.866 323.17 353.252C323.17 353.252 321.875 355.999 319.251 355.755C317.615 355.603 317.406 353.579 317.406 353.579Z" fill="white"/>
<path d="M353.96 349.422L354.076 354.876C352.298 358.843 350.161 359.476 347.535 355.574L347.404 349.422H353.96Z" fill="white"/>
<path d="M348.117 353.424C348.113 352.851 347.646 352.389 347.072 352.393H347.069C346.632 352.395 346.243 352.672 346.097 353.084C345.621 354.428 344.556 355.481 343.206 355.94L338.479 357.549C337.557 357.863 336.939 358.732 336.945 359.706C336.946 359.861 337.073 359.986 337.228 359.985L356.375 359.863C356.53 359.862 356.655 359.735 356.654 359.58L356.637 356.982C356.637 356.982 356.55 353.711 353.881 353.098C353.881 353.098 352.586 355.845 349.962 355.601C348.326 355.449 348.117 353.424 348.117 353.424Z" fill="white"/>
<path d="M367.738 199.58C367.809 201.248 370.345 199.285 370.345 199.285L369.503 195.543C369.503 195.543 367.667 197.912 367.738 199.58Z" fill="white"/>
<path d="M377.206 212.197L376.498 206.336C376.498 206.336 374.138 206.678 371.132 206.415C367.331 206.083 369.86 189.625 371.501 187.877C377.201 181.803 389.204 187.205 388.293 194.642C387.381 202.078 388.399 209.695 388.676 210.586C388.952 211.477 377.206 212.197 377.206 212.197Z" fill="white"/>
<path d="M371.291 201.129C370.65 201.473 369.96 201.701 369.17 201.769L371.291 201.129Z" fill="white"/>
<path d="M379.026 198.611C379.049 198.595 379.067 198.571 379.078 198.543C379.265 198.037 379.245 197.465 379.024 196.974C378.919 196.742 378.724 196.437 378.391 196.301" fill="white"/>
<path d="M372.902 194.623C372.443 194.294 371.929 194.072 371.391 193.963L372.902 194.623Z" fill="white"/>
<path d="M363.748 218.822L347.509 233.72L316.75 223.173C317.91 227.311 315.615 229.96 313.188 232.844C313.188 232.844 342.509 254.676 353.379 252.87C359.642 251.83 371.291 235.9 371.291 235.9" fill="white"/>
<path d="M244.89 94.6562C242.611 94.6562 240.532 96.5059 240.238 98.7763C239.952 101.063 241.564 102.968 243.898 102.968C246.176 102.968 248.264 101.118 248.549 98.8477C248.843 96.5376 247.2 94.6562 244.89 94.6562ZM248.002 98.7763C247.74 100.777 245.906 102.412 243.898 102.412C241.929 102.412 240.539 100.824 240.794 98.8477C241.048 96.8394 242.881 95.2119 244.89 95.2119C246.866 95.2119 248.248 96.7995 248.002 98.7763Z" fill="#3C4150"/>
<path d="M245.548 97.4161L244.421 98.4155L243.57 97.4412C243.469 97.325 243.294 97.3133 243.179 97.4145C243.063 97.5152 243.051 97.6909 243.152 97.8064L244.005 98.7841L242.875 99.7868C242.76 99.8884 242.749 100.064 242.851 100.179C242.953 100.293 243.127 100.305 243.244 100.202L244.371 99.2028L245.221 100.177C245.322 100.293 245.497 100.305 245.613 100.204C245.729 100.103 245.74 99.9275 245.64 99.812L244.786 98.8343L245.917 97.8317C246.032 97.7301 246.042 97.5546 245.94 97.4394C245.839 97.325 245.663 97.3141 245.548 97.4161Z" fill="#3C4150"/>
<path d="M140.411 96.0636H150.537C150.691 96.0636 150.815 95.9392 150.815 95.7857C150.815 95.6322 150.691 95.5078 150.537 95.5078H140.411C140.257 95.5078 140.133 95.6322 140.133 95.7857C140.133 95.9392 140.257 96.0636 140.411 96.0636Z" fill="#3C4150"/>
<path d="M140.026 99.0812H150.153C150.306 99.0812 150.431 98.9568 150.431 98.8033C150.431 98.6498 150.306 98.5254 150.153 98.5254H140.026C139.872 98.5254 139.748 98.6498 139.748 98.8033C139.748 98.9568 139.872 99.0812 140.026 99.0812Z" fill="#3C4150"/>
<path d="M150.046 101.821C150.046 101.667 149.922 101.543 149.768 101.543H139.641C139.488 101.543 139.363 101.667 139.363 101.821C139.363 101.974 139.488 102.099 139.641 102.099H149.768C149.922 102.099 150.046 101.974 150.046 101.821Z" fill="#3C4150"/>
<path d="M181.969 95.4336H197.417C198.553 95.4336 199.593 94.5048 199.735 93.3775C199.886 92.2026 199.045 91.25 197.878 91.25H182.438C181.302 91.25 180.262 92.1709 180.112 93.3061C179.969 94.4809 180.81 95.4336 181.969 95.4336ZM180.667 93.3775C180.778 92.5043 181.572 91.8057 182.438 91.8057H197.878C198.711 91.8057 199.291 92.4647 199.188 93.3061C199.077 94.1713 198.283 94.8779 197.417 94.8779H181.969C181.136 94.8778 180.556 94.211 180.667 93.3775Z" fill="#3C4150"/>
<path d="M204.666 95.4336H206.23C207.365 95.4336 208.405 94.5048 208.556 93.3775C208.699 92.2026 207.857 91.25 206.698 91.25H205.126C203.991 91.25 202.951 92.1709 202.808 93.3061C202.658 94.4809 203.507 95.4336 204.666 95.4336ZM203.356 93.3775V93.3696C203.467 92.5043 204.261 91.8057 205.126 91.8057H206.698C207.532 91.8057 208.111 92.4647 208 93.3061C207.889 94.1713 207.095 94.8779 206.23 94.8779H204.666C203.832 94.8778 203.253 94.211 203.356 93.3775Z" fill="#3C4150"/>
<path d="M148.882 111.744L152.177 108.859C152.292 108.759 152.304 108.583 152.203 108.468C152.102 108.352 151.926 108.341 151.811 108.442L148.282 111.53C148.223 111.582 148.189 111.657 148.188 111.735C148.187 111.814 148.219 111.89 148.277 111.943L151.806 115.184C151.919 115.288 152.095 115.281 152.199 115.168C152.302 115.054 152.295 114.879 152.182 114.775L148.882 111.744Z" fill="#3C4150"/>
<path d="M235.24 108.442C235.125 108.341 234.949 108.352 234.848 108.468C234.747 108.583 234.759 108.759 234.874 108.86L238.169 111.744L234.869 114.775C234.756 114.879 234.749 115.055 234.852 115.168C234.956 115.281 235.132 115.288 235.245 115.184L238.774 111.943C238.895 111.832 238.893 111.639 238.769 111.53L235.24 108.442Z" fill="#3C4150"/>
<path d="M150.444 325.189C147.849 325.189 145.586 327.246 145.403 329.77C145.229 332.279 147.174 334.39 149.825 334.39C152.429 334.39 154.684 332.334 154.866 329.81C155.049 327.269 153.08 325.189 150.444 325.189ZM149.825 333.834C147.515 333.834 145.8 332.024 145.959 329.81C146.118 327.563 148.127 325.745 150.445 325.745C152.747 325.745 154.469 327.547 154.311 329.77C154.152 332.009 152.143 333.834 149.825 333.834Z" fill="#3C4150"/>
<path d="M172.545 325.189C169.949 325.189 167.686 327.246 167.512 329.77C167.329 332.279 169.274 334.39 171.934 334.39C174.53 334.39 176.792 332.334 176.967 329.81C177.149 327.269 175.18 325.189 172.545 325.189ZM171.934 333.834C169.623 333.834 167.909 332.024 168.06 329.81C168.218 327.563 170.235 325.745 172.545 325.745C174.855 325.745 176.57 327.555 176.411 329.77C176.252 332.009 174.244 333.834 171.934 333.834Z" fill="#3C4150"/>
<path d="M194.646 325.189C192.051 325.189 189.788 327.246 189.613 329.77C189.431 332.279 191.376 334.39 194.035 334.39C196.631 334.39 198.894 332.334 199.068 329.81C199.251 327.269 197.282 325.189 194.646 325.189ZM194.035 333.834C191.725 333.834 190.01 332.024 190.169 329.81C190.328 327.563 192.336 325.745 194.647 325.745C196.965 325.745 198.679 327.555 198.52 329.77C198.362 332.009 196.345 333.834 194.035 333.834Z" fill="#3C4150"/>
<path d="M186.129 195.307C199.005 195.307 210.032 184.82 210.706 171.928C210.73 171.515 210.738 171.095 210.738 170.682C210.738 164.887 208.619 159.481 204.697 155.353C200.521 150.947 194.782 148.518 188.55 148.518C175.658 148.518 164.615 159.012 163.941 171.904C163.615 178.168 165.751 184.05 169.942 188.472C174.134 192.878 179.881 195.307 186.129 195.307ZM164.496 171.928C165.155 159.33 175.952 149.073 188.55 149.073C194.631 149.073 200.22 151.439 204.292 155.734C208.388 160.044 210.468 165.784 210.151 171.904C209.825 178.2 206.959 183.915 202.609 188.051C198.259 192.187 192.424 194.751 186.129 194.751C180.032 194.751 174.427 192.386 170.347 188.091C166.259 183.78 164.179 178.041 164.496 171.928Z" fill="#3C4150"/>
<path d="M148.047 166.611C147.928 166.635 147.841 166.746 147.833 166.865L147.309 176.931C147.301 177.066 147.396 177.185 147.523 177.217L154.771 178.9C155.391 182.766 156.708 186.418 158.693 189.744L154.359 196.119C154.287 196.23 154.295 196.373 154.382 196.468L161.122 203.589C161.217 203.684 161.36 203.7 161.471 203.629L168.068 199.62C171.252 201.763 174.816 203.271 178.658 204.113L179.968 211.448C179.992 211.575 180.103 211.67 180.238 211.67H190.296C190.415 211.67 190.526 211.591 190.558 211.472L192.638 204.121C196.568 203.279 200.291 201.771 203.72 199.62L209.896 203.629C210 203.7 210.143 203.684 210.238 203.597L217.716 196.476C217.811 196.389 217.827 196.254 217.763 196.135L214.104 189.768C216.43 186.418 218.137 182.766 219.161 178.908L226.599 177.217C226.718 177.185 226.805 177.082 226.813 176.955L227.337 166.897C227.345 166.762 227.25 166.643 227.123 166.611L219.883 164.944C219.264 161.094 217.946 157.45 215.969 154.1L220.296 147.71C220.367 147.607 220.359 147.464 220.272 147.368L213.532 140.256C213.437 140.16 213.294 140.144 213.183 140.208L206.586 144.225C203.395 142.081 199.831 140.565 195.996 139.716L194.694 132.396C194.671 132.261 194.559 132.166 194.424 132.166H184.358C184.239 132.166 184.128 132.253 184.096 132.372L182.024 139.716C178.079 140.565 174.348 142.081 170.926 144.225L164.766 140.216C164.663 140.144 164.52 140.16 164.425 140.248L156.947 147.353C156.851 147.448 156.836 147.583 156.899 147.694L160.559 154.076C158.225 157.403 156.526 161.054 155.494 164.936L148.047 166.611ZM155.994 165.238C157.01 161.308 158.732 157.609 161.114 154.251C161.17 154.164 161.178 154.045 161.122 153.949L157.486 147.606L164.647 140.803L170.767 144.78C170.863 144.844 170.982 144.844 171.069 144.788C174.53 142.597 178.309 141.065 182.302 140.224C182.405 140.2 182.484 140.128 182.516 140.025L184.572 132.722H194.186L195.48 140.001C195.504 140.112 195.583 140.2 195.694 140.224C199.592 141.057 203.204 142.597 206.427 144.78C206.514 144.844 206.633 144.844 206.729 144.788L213.278 140.803L219.708 147.591L215.413 153.933C215.35 154.029 215.35 154.14 215.397 154.235C217.43 157.617 218.763 161.308 219.367 165.214C219.383 165.325 219.47 165.412 219.581 165.444L226.765 167.103L226.273 176.717L218.874 178.4C218.771 178.424 218.692 178.503 218.668 178.598C217.644 182.52 215.921 186.211 213.548 189.593C213.484 189.681 213.484 189.792 213.54 189.887L217.176 196.23L210.015 203.041L203.879 199.056C203.783 199 203.664 199 203.577 199.056C200.108 201.247 196.337 202.779 192.36 203.613C192.257 203.636 192.177 203.708 192.146 203.811L190.082 211.114H180.476L179.174 203.835C179.15 203.724 179.071 203.636 178.96 203.613C175.054 202.779 171.45 201.247 168.227 199.064C168.14 199 168.02 199 167.925 199.056L161.376 203.041L154.946 196.246L159.248 189.911C159.312 189.815 159.312 189.696 159.256 189.609C157.232 186.251 155.898 182.552 155.287 178.63C155.271 178.519 155.184 178.424 155.073 178.4L147.881 176.725L148.373 167.111L155.787 165.444C155.883 165.42 155.97 165.341 155.994 165.238Z" fill="#3C4150"/>
<path d="M186.288 189.489V189.497C186.336 189.521 186.384 189.537 186.431 189.537C186.479 189.537 186.527 189.521 186.566 189.505V189.497C186.566 189.497 186.566 189.497 186.574 189.497L202.102 180.741C202.181 180.693 202.237 180.606 202.245 180.511L203.205 163.364C203.205 163.356 203.205 163.356 203.205 163.356V163.348C203.213 163.324 203.197 163.3 203.189 163.268C203.182 163.253 203.182 163.229 203.174 163.213C203.158 163.189 203.134 163.165 203.118 163.149C203.102 163.133 203.094 163.118 203.078 163.11C203.078 163.11 203.078 163.11 203.07 163.11L188.36 154.345C188.273 154.298 188.162 154.29 188.075 154.345L172.555 163.102H172.547C172.531 163.11 172.523 163.125 172.507 163.133C172.483 163.157 172.46 163.173 172.444 163.197C172.436 163.213 172.436 163.237 172.428 163.252C172.42 163.284 172.404 163.3 172.404 163.332L171.436 180.479C171.436 180.582 171.483 180.678 171.571 180.733L186.288 189.489ZM201.697 180.328L186.741 188.767L187.582 173.739L187.67 172.271L202.626 163.84L201.697 180.328ZM188.21 154.901L202.38 163.34L191.607 169.413L187.4 171.786L173.237 163.348L188.21 154.901ZM172.936 163.816L187.114 172.255L186.185 188.783L172.007 180.344L172.936 163.816Z" fill="#3C4150"/>
<path d="M128.392 228.317L125.788 258.714C125.629 260.524 126.979 262 128.797 262H230.227C232.005 262 233.585 260.555 233.736 258.769L236.34 228.365C236.419 227.491 236.149 226.666 235.577 226.039C235.006 225.42 234.212 225.078 233.339 225.078H131.909C130.123 225.078 128.551 226.531 128.392 228.317ZM235.165 226.42C235.633 226.928 235.855 227.603 235.792 228.317L233.18 258.722C233.053 260.222 231.728 261.444 230.227 261.444H128.797C127.304 261.444 126.217 260.254 126.344 258.761L128.948 228.365C129.075 226.864 130.408 225.634 131.909 225.634H233.339C234.053 225.634 234.704 225.912 235.165 226.42Z" fill="#3C4150"/>
<path d="M181.801 236.304H196.231C196.384 236.304 196.509 236.179 196.509 236.026C196.509 235.872 196.384 235.748 196.231 235.748H181.801C181.648 235.748 181.523 235.872 181.523 236.026C181.523 236.179 181.648 236.304 181.801 236.304Z" fill="#3C4150"/>
<path d="M207.96 241.314H228.439C228.592 241.314 228.717 241.189 228.717 241.036C228.717 240.882 228.592 240.758 228.439 240.758H207.96C207.806 240.758 207.682 240.882 207.682 241.036C207.682 241.189 207.806 241.314 207.96 241.314Z" fill="#3C4150"/>
<path d="M196.835 251.335H206.525C206.678 251.335 206.803 251.211 206.803 251.057C206.803 250.904 206.678 250.779 206.525 250.779H196.835C196.681 250.779 196.557 250.904 196.557 251.057C196.557 251.211 196.681 251.335 196.835 251.335Z" fill="#3C4150"/>
<path d="M162.848 256.343H171.417C171.57 256.343 171.695 256.219 171.695 256.065C171.695 255.911 171.57 255.787 171.417 255.787H162.848C162.695 255.787 162.57 255.911 162.57 256.065C162.57 256.219 162.695 256.343 162.848 256.343Z" fill="#3C4150"/>
<path d="M133.544 256.007H154.128C155.311 256.007 156.359 255.046 156.462 253.856L158.225 233.271C158.336 232.064 157.431 231.08 156.216 231.08H135.632C134.449 231.08 133.401 232.041 133.298 233.223L131.535 253.808C131.432 255.023 132.329 256.007 133.544 256.007ZM133.854 233.271C133.933 232.366 134.735 231.636 135.632 231.636H156.216C157.105 231.636 157.748 232.342 157.677 233.224L155.907 253.808C155.827 254.713 155.033 255.451 154.128 255.451H133.544C132.663 255.451 132.012 254.745 132.091 253.856L133.854 233.271Z" fill="#3C4150"/>
<path d="M229.266 273.082H173.299C171.513 273.082 169.934 274.535 169.783 276.321L167.171 306.718C167.012 308.528 168.362 310.004 170.18 310.004H226.154C227.94 310.004 229.512 308.551 229.671 306.773L232.275 276.369C232.433 274.567 231.084 273.082 229.266 273.082ZM229.115 306.725C228.988 308.226 227.662 309.448 226.154 309.448H170.18C168.695 309.448 167.6 308.25 167.727 306.765L170.331 276.369C170.466 274.868 171.791 273.638 173.3 273.638H229.266C230.758 273.638 231.846 274.836 231.719 276.321L229.115 306.725Z" fill="#3C4150"/>
<path d="M192.161 283.75H181.868C181.714 283.75 181.59 283.874 181.59 284.028C181.59 284.181 181.714 284.306 181.868 284.306H192.161C192.315 284.306 192.439 284.181 192.439 284.028C192.439 283.874 192.315 283.75 192.161 283.75Z" fill="#3C4150"/>
<path d="M223.939 293.771H214.129C213.976 293.771 213.852 293.896 213.852 294.049C213.852 294.203 213.976 294.327 214.129 294.327H223.939C224.093 294.327 224.217 294.203 224.217 294.049C224.217 293.896 224.093 293.771 223.939 293.771Z" fill="#3C4150"/>
<path d="M202.456 298.783H192.766C192.613 298.783 192.488 298.908 192.488 299.061C192.488 299.215 192.613 299.339 192.766 299.339H202.456C202.61 299.339 202.734 299.215 202.734 299.061C202.734 298.908 202.61 298.783 202.456 298.783Z" fill="#3C4150"/>
<path d="M178.242 303.791H171.192C171.038 303.791 170.914 303.915 170.914 304.069C170.914 304.222 171.038 304.347 171.192 304.347H178.242C178.395 304.347 178.52 304.222 178.52 304.069C178.52 303.915 178.395 303.791 178.242 303.791Z" fill="#3C4150"/>
<path d="M160.495 272.756H129.249C127.526 272.756 126.002 274.161 125.851 275.884L123.176 307.122C123.025 308.876 124.327 310.305 126.081 310.305H157.32C159.05 310.305 160.574 308.9 160.717 307.169L163.4 275.931C163.551 274.177 162.249 272.756 160.495 272.756ZM160.161 307.122C160.042 308.566 158.764 309.749 157.319 309.749H126.081C124.652 309.749 123.605 308.598 123.724 307.169L126.407 275.931C126.534 274.486 127.804 273.312 129.249 273.312H160.495C161.916 273.312 162.964 274.455 162.845 275.884L160.161 307.122Z" fill="#3C4150"/>
<path d="M56.3578 153.564C56.3469 153.412 56.2136 153.303 56.0608 153.307C56.0174 153.31 55.7926 153.336 55.6224 153.543C55.4809 153.715 55.4278 153.949 55.4642 154.24C55.4817 154.381 55.6015 154.483 55.7395 154.483C55.7511 154.483 55.7628 154.483 55.7744 154.481C55.9267 154.462 56.0346 154.323 56.0155 154.171C55.993 153.991 56.0283 153.875 56.1094 153.86C56.2578 153.845 56.3683 153.714 56.3578 153.564Z" fill="#3C4150"/>
<path d="M40.2121 247.727C40.1962 247.584 40.0771 247.48 39.9342 247.48H29.1697C29.0903 247.48 29.0188 247.512 28.9633 247.568C28.9157 247.623 28.8839 247.703 28.8918 247.782L29.5904 254.522C29.908 257.618 32.7023 260.142 35.8063 260.142C38.9896 260.142 41.2362 257.539 40.9107 254.466L40.2121 247.727ZM35.8062 259.587C32.9721 259.587 30.4398 257.285 30.146 254.466L29.4792 248.036H39.6881L40.3549 254.522C40.6487 257.316 38.6165 259.587 35.8062 259.587Z" fill="#3C4150"/>
<path d="M64.8199 247.727C64.804 247.584 64.6849 247.48 64.542 247.48H53.7774C53.698 247.48 53.6185 247.512 53.571 247.568C53.5154 247.623 53.4916 247.703 53.4995 247.782L54.1981 254.522C54.5157 257.618 57.3021 260.142 60.414 260.142C63.5021 260.142 65.8439 257.642 65.5105 254.466L64.8199 247.727ZM60.414 259.587C57.5799 259.587 55.0396 257.285 54.7459 254.466L54.087 248.036H64.288L64.9627 254.522C65.2486 257.269 63.2639 259.587 60.414 259.587Z" fill="#3C4150"/>
<path d="M60.916 152.67C60.916 152.964 61.1542 153.202 61.44 153.202C61.7337 153.202 61.9719 152.964 61.9719 152.67C61.9719 152.385 61.7337 152.146 61.44 152.146C61.1542 152.146 60.916 152.385 60.916 152.67Z" fill="#3C4150"/>
<path d="M59.8998 153.218C59.9157 153.218 59.9394 153.21 59.9554 153.21C60.1063 153.178 60.2016 153.035 60.1777 152.884C60.1142 152.591 60.1698 152.281 60.3206 152.027C60.4714 151.773 60.7175 151.574 61.0032 151.479C61.1461 151.432 61.2255 151.281 61.1779 151.13C61.1302 150.987 60.9794 150.908 60.8285 150.955C60.0091 151.212 59.4554 152.063 59.6298 152.987C59.6537 153.123 59.7728 153.218 59.8998 153.218Z" fill="#3C4150"/>
<path d="M34.1782 147.43C34.3131 147.541 34.4719 147.597 34.6386 147.597C34.7497 147.597 34.8768 147.573 34.9959 147.509C35.4722 147.287 35.8692 146.644 35.8692 146.104V139.825H40.3386C41.2435 139.825 41.9818 139.087 41.9818 138.182V115.819C41.9818 114.914 41.2435 114.184 40.3386 114.184H12.5378C11.6328 114.184 10.8945 114.914 10.8945 115.819V138.182C10.8945 139.087 11.6328 139.825 12.5378 139.825H25.5173L34.1782 147.43ZM11.4503 138.182V115.819C11.4503 115.224 11.9345 114.739 12.5378 114.739H40.3385C40.9338 114.739 41.426 115.224 41.426 115.819V138.182C41.426 138.777 40.9338 139.269 40.3385 139.269H35.5912C35.4404 139.269 35.3134 139.388 35.3134 139.547V146.104C35.3134 146.43 35.0355 146.874 34.7577 147.009C34.6227 147.073 34.5592 147.025 34.5354 147.009L25.811 139.333C25.7554 139.293 25.692 139.269 25.6284 139.269H12.5378C11.9345 139.269 11.4503 138.777 11.4503 138.182Z" fill="#3C4150"/>
<path d="M386.061 164.531C385.958 164.801 386.022 165.095 386.228 165.293C386.426 165.491 386.712 165.555 386.982 165.46L391.444 163.824C394.143 166.039 397.525 167.262 400.994 167.262C404.923 167.262 408.567 165.738 411.25 162.975C413.91 160.236 415.315 156.6 415.212 152.734C415.212 152.734 415.212 152.734 415.204 152.734C414.965 144.732 408.226 138.223 400.168 138.223C396.238 138.223 392.587 139.747 389.896 142.517C387.244 145.256 385.839 148.892 385.958 152.75C386.022 155.14 386.681 157.497 387.871 159.601L386.061 164.531ZM386.506 152.734C386.403 149.027 387.744 145.534 390.3 142.906C392.88 140.247 396.389 138.778 400.168 138.778C404.05 138.778 407.606 140.35 410.234 142.875C412.862 145.407 414.545 148.9 414.656 152.75C414.759 156.465 413.409 159.95 410.853 162.586C408.273 165.245 404.764 166.706 400.994 166.706C397.604 166.706 394.294 165.492 391.682 163.293C391.626 163.253 391.563 163.229 391.499 163.229C391.467 163.229 391.436 163.237 391.404 163.245L386.792 164.936C386.704 164.968 386.641 164.92 386.617 164.896C386.593 164.88 386.546 164.817 386.577 164.729L388.435 159.665C388.467 159.593 388.459 159.506 388.411 159.434C387.236 157.386 386.577 155.068 386.506 152.734Z" fill="#3C4150"/>
<path d="M229.071 111.539H158.87C158.716 111.539 158.592 111.663 158.592 111.817C158.592 111.97 158.716 112.095 158.87 112.095H229.071C229.224 112.095 229.349 111.97 229.349 111.817C229.349 111.664 229.224 111.539 229.071 111.539Z" fill="#3C4150"/>
<path d="M228.434 211.673H240.761C240.914 211.673 241.039 211.549 241.039 211.395C241.039 211.242 240.914 211.117 240.761 211.117H228.434C228.281 211.117 228.156 211.242 228.156 211.395C228.156 211.549 228.281 211.673 228.434 211.673Z" fill="#3C4150"/>
<path d="M129.912 211.395C129.912 211.549 130.036 211.673 130.19 211.673H142.517C142.671 211.673 142.795 211.549 142.795 211.395C142.795 211.242 142.671 211.117 142.517 211.117H130.19C130.037 211.117 129.912 211.242 129.912 211.395Z" fill="#3C4150"/>
<path d="M149.697 130.889C149.697 130.736 149.573 130.611 149.419 130.611H137.092C136.939 130.611 136.814 130.736 136.814 130.889C136.814 131.043 136.939 131.167 137.092 131.167H149.419C149.573 131.167 149.697 131.043 149.697 130.889Z" fill="#3C4150"/>
<path d="M359.598 202.618L365.844 129.68C366.003 127.819 364.61 126.332 362.773 126.332H268.941L270.617 106.993C271.578 95.9191 262.838 86.3691 251.716 86.3691C237.919 86.3771 146.094 86.3771 145.189 86.3771C135.266 86.3771 127.137 93.8313 126.287 103.715L120.953 165.198L95.9385 185.807L84.1498 182.25C84.134 181.695 84.0784 180.98 83.8561 180.536L83.8878 180.401C83.9195 180.274 83.8561 180.147 83.737 180.091C83.5623 180.004 74.044 175.455 62.1204 172.272C61.9149 172.017 60.9334 170.205 58.6275 168.628V162.047C59.7786 162.253 63.4461 162.73 64.2956 160.396C64.5496 159.697 64.5734 158.649 64.4622 157.427C64.4622 157.395 64.4622 157.371 64.4543 157.347C64.4066 156.871 64.3352 156.363 64.2479 155.847C64.4543 155.879 65.2402 155.855 65.6213 155.633C66.9788 154.87 64.2082 151.917 63.1127 150.806C63.0016 150.393 62.8904 149.996 62.7792 149.615C62.8983 149.591 64.1208 149.298 64.2003 149.282C65.8515 148.885 67.209 146.86 67.3519 144.574C67.4551 143.026 67.1057 139.192 61.6679 137.112C54.0151 134.183 50.0062 141.685 49.4426 142.836C46.6879 143.209 44.8383 144.733 44.092 147.273C42.6552 152.156 45.5765 159.189 47.2198 160.539C47.5374 160.793 48.0137 160.959 48.5931 161.047V165.254C47.061 164.952 45.783 164.817 44.989 165.016C43.7109 165.325 43.3378 168.279 43.2426 169.247C38.5985 169.112 34.0974 169.572 30.0885 170.898C25.9525 172.272 21.6419 178.853 19.2048 184.068C17.7601 187.164 16.4263 190.998 17.0059 192.459C17.2123 192.975 17.6806 193.451 18.3316 193.88L16.99 208.725C16.6884 212.448 18.8079 215.894 22.3167 217.307L26.4448 218.275C24.349 238.479 24.2299 237.875 24.4204 238.066C24.4204 238.145 25.3969 238.939 26.1352 239.344L30.1123 341.123C30.1758 342.711 31.3348 343.989 32.8352 344.259V348.483C30.152 349.387 28.7865 352.428 28.7865 354.929C28.7865 355.008 28.8501 359.088 28.8501 359.088C28.8501 359.279 28.9294 359.461 29.0644 359.596C29.2073 359.731 29.382 359.803 29.5725 359.803C29.5804 359.803 29.5804 359.803 29.5884 359.803C29.5963 359.803 29.5963 359.803 29.6043 359.803C29.9457 359.795 34.407 359.731 60.1913 359.35C60.5961 359.342 60.9137 359.009 60.9137 358.612C60.8898 356.929 59.7944 355.46 58.1908 354.952L47.2674 351.491L46.037 348.244C45.7511 347.482 44.9891 346.974 44.1952 346.99C44.0841 346.99 43.9729 347.006 43.8697 347.022V344.196C44.5366 343.949 45.0288 343.322 45.0684 342.56L47.5214 285.919L48.5375 269.359C48.5693 269.47 68.0742 339.933 68.2965 340.742C68.7252 342.306 69.8921 343.521 71.3687 344.037L72.7023 348.459C69.9635 349.332 68.5585 352.396 68.5585 354.928C68.5585 355.008 68.622 359.088 68.622 359.088C68.622 359.279 68.7013 359.461 68.8443 359.596C68.9791 359.731 69.1539 359.803 69.3444 359.803C69.3523 359.803 69.3523 359.803 69.3603 359.803C69.3681 359.803 69.3681 359.803 69.3761 359.803C69.7174 359.795 74.1788 359.731 99.9711 359.35C100.162 359.342 100.344 359.263 100.479 359.128C100.614 358.985 100.686 358.802 100.686 358.612C100.662 356.929 99.5662 355.46 97.9627 354.952L87.0393 351.491L85.8168 348.244C85.531 347.49 84.8007 346.99 84.0068 346.99L83.4432 344.315H83.5622C84.1576 344.315 84.6181 343.767 84.5387 343.195L70.7416 241.003C71.472 239.828 71.8689 238.392 71.8689 238.225L71.2497 199.882L78.2832 201.906C78.2832 201.906 78.2832 201.906 78.2912 201.906C78.2912 201.906 78.2912 201.906 78.299 201.906C78.4975 201.97 78.4975 201.946 78.6801 201.93C78.704 201.922 78.7199 201.922 78.7357 201.914C78.7755 201.843 79.5296 201.978 80.4902 199.985C85.8407 201.112 92.3503 202.224 97.2404 202.224C99.1615 202.224 100.829 202.057 102.075 201.644C107.013 200.033 113.483 193.11 119.159 185.91L106.671 329.883C105.719 340.965 114.467 350.499 125.589 350.499H223.598C223.606 350.499 223.606 350.499 223.606 350.499H232.108C242.031 350.499 250.16 343.045 251.017 333.161L262.044 205.923H356.008C357.832 205.923 359.442 204.44 359.598 202.618ZM362.777 126.89C364.306 126.89 365.416 128.123 365.287 129.638L364.432 139.62H273.22L271.422 133.591C271.387 133.473 271.279 133.392 271.156 133.392H258.903C258.795 133.392 258.697 133.455 258.651 133.552L255.802 139.62H248.502L249.353 129.68C249.485 128.141 250.844 126.89 252.382 126.89H362.777ZM141.45 158.173C141.712 157.625 141.752 157.117 141.553 156.681C141.283 156.053 140.616 155.744 140.251 155.617C140.323 154.998 140.188 154.497 139.846 154.124C139.418 153.656 138.759 153.505 138.282 153.458L138.838 152.743L143.212 148.147L143.292 148.044C143.975 147.178 144.173 145.837 143.728 145.106C143.514 144.741 143.141 144.574 142.72 144.654C142.696 144.662 142.665 144.67 142.641 144.677C140.196 145.956 136.996 148.607 133.13 152.568C133.234 151.6 132.94 150.687 132.622 150.131C132.456 149.845 132.178 149.488 131.836 149.401C130.344 148.98 128.01 153.624 126.137 158.109L129.391 120.584H256.368L255.869 126.332H252.384C250.56 126.332 248.95 127.815 248.794 129.638C247.756 141.765 243.542 191.023 242.553 202.57C242.395 204.427 243.773 205.923 245.613 205.923H248.967L237.966 332.773C237.315 340.282 231.147 345.943 223.606 345.943H125.589C117.118 345.943 110.49 338.726 111.212 330.288L124.327 179.027C128.431 173.304 131.439 168.525 131.987 167.659C136.727 166.596 141.799 162.944 142.276 160.229C142.418 159.395 142.133 158.689 141.45 158.173ZM129.439 120.028L130.82 104.112C131.479 96.594 137.663 90.9259 145.189 90.9259H174.72C175.633 90.9259 176.403 91.6324 176.467 92.5374L176.911 98.6342C177.007 99.8249 178.015 100.762 179.206 100.762H209.554C210.602 100.762 211.523 100.055 211.785 99.047L213.571 92.2198C213.603 92.0848 213.667 91.9578 213.73 91.8308C214.032 91.2831 214.603 90.9259 215.254 90.9259H242.833C251.843 90.9259 258.297 98.2214 257.583 106.596L256.423 120.028L129.439 120.028ZM251.716 86.9327C262.504 86.9327 270.998 96.189 270.07 106.946L268.389 126.332H260.439L262.115 106.993C262.917 97.7847 256.947 89.3143 247.953 86.9883C247.882 86.9645 247.818 86.9486 247.755 86.9327H251.716ZM126.843 103.762C127.669 94.1648 135.56 86.9328 145.189 86.9328H243.214C254.018 86.9328 262.496 96.1891 261.56 106.946L259.88 126.332H256.431C257.414 115.001 258.045 107.715 258.138 106.644C258.178 106.2 258.194 105.763 258.194 105.326C258.194 97.1496 251.652 90.3701 242.833 90.3701H215.254C214.405 90.3701 213.651 90.8386 213.254 91.5529C213.158 91.7197 213.079 91.8943 213.031 92.0848L211.245 98.904C211.047 99.6741 210.348 100.206 209.554 100.206H179.205C178.3 100.206 177.538 99.4994 177.467 98.5864L177.022 92.4975C176.935 91.3068 175.927 90.37 174.72 90.37H145.189C137.369 90.37 130.955 96.2525 130.264 104.056L125.43 159.864C125.081 160.721 124.771 161.539 124.493 162.285L121.556 164.706L126.843 103.762ZM65.3514 155.148C65.145 155.259 64.7163 155.315 64.1607 155.291C63.9702 154.204 63.6765 152.997 63.4144 151.933C63.8589 152.425 65.8991 154.783 65.3514 155.148ZM49.1489 161.102C49.395 161.126 49.6649 161.134 49.9347 161.134C51.2605 161.134 52.8085 160.936 54.1501 160.697C55.1428 160.526 55.7135 159.485 55.4044 158.602C54.9598 157.244 54.809 156.331 54.8011 155.72C55.0552 156.323 55.3965 156.863 55.7934 157.276C55.849 157.331 55.9204 157.355 55.9918 157.355C56.0632 157.355 56.1347 157.331 56.1823 157.276C56.2935 157.173 56.3014 156.998 56.1903 156.887C54.7852 155.45 54.5866 152.783 55.579 152.402C56.6665 151.981 58.2861 154.299 58.159 156.228C58.1511 156.387 58.2702 156.514 58.4211 156.522C58.5799 156.537 58.7068 156.418 58.7148 156.268C58.7704 155.41 58.5401 154.569 58.1829 153.799C58.1749 153.799 58.1749 153.791 58.1749 153.783C57.5398 150.98 59.1355 150.496 62.2394 149.75C62.8666 151.933 63.6604 155.053 63.8986 157.315C63.7397 157.45 63.2237 157.784 62.0251 157.514C61.8743 157.474 61.7313 157.57 61.6916 157.72C61.6598 157.871 61.7552 158.022 61.906 158.054C62.2711 158.133 62.5886 158.165 62.8665 158.165C63.3587 158.165 63.708 158.062 63.9541 157.935C64.0176 158.871 63.97 159.665 63.7714 160.205C62.9458 162.468 58.4606 161.443 58.4129 161.436C58.405 161.436 58.3891 161.428 58.3811 161.436C58.3811 161.436 58.3811 161.436 58.3732 161.428C58.3494 161.42 58.3256 161.404 58.3018 161.396C57.9683 161.285 57.6667 160.975 57.3571 160.419C57.2857 160.284 57.1189 160.237 56.9761 160.308C56.8491 160.38 56.7935 160.554 56.8729 160.689C57.2301 161.348 57.6112 161.729 58.0715 161.904V168.263C57.1268 167.683 56.1107 167.231 55.031 166.929C52.9988 166.349 50.9268 165.762 49.1486 165.373V161.102H49.1489ZM22.4834 216.783C19.2445 215.473 17.2599 212.25 17.5457 208.773L18.8634 194.198C21.8324 195.833 27.2544 196.706 28.6596 196.921C28.6596 197 28.612 197.151 28.6834 197.254L26.5003 217.728L22.4834 216.783ZM58.0241 355.485C59.3974 355.921 60.3342 357.175 60.358 358.62C60.358 358.708 60.2787 358.787 60.1834 358.795C60.0405 358.795 58.04 358.827 58.04 358.827L57.151 355.207L58.0241 355.485ZM44.2033 347.546C44.7748 347.506 45.3146 347.895 45.521 348.435L46.7991 351.817C46.8229 351.896 46.8943 351.952 46.9738 351.984L56.5238 355.008L57.4685 358.835L29.5805 359.247C29.5091 359.239 29.4853 359.232 29.4536 359.2C29.4218 359.168 29.4059 359.12 29.4059 359.081L29.3821 357.374C32.3511 357.326 24.1824 357.445 53.4993 357.009C53.6581 357.009 53.7772 356.882 53.7772 356.731C53.7772 356.58 53.6661 356.437 53.4913 356.453L32.8036 356.763C32.9464 356.366 33.01 355.969 33.01 355.58C33.01 353.857 31.6922 352.365 29.9219 352.182C30.3903 350.968 31.2556 349.689 32.8354 349.078C32.9545 349.031 33.0736 348.991 33.2005 348.951C33.2481 349.031 33.3116 349.142 33.3911 349.261C34.1452 350.428 36.2887 353.166 39.718 352.77C42.5204 352.452 42.8379 349.007 42.8379 348.975V348.951C42.8378 348.149 43.4728 347.546 44.2033 347.546ZM33.391 348.356V344.315H43.3141V347.213C42.6393 347.578 42.2821 348.237 42.2821 348.943C42.2583 349.181 41.9566 351.952 39.6545 352.214C35.7091 352.666 33.6054 348.546 33.5895 348.499C33.5418 348.419 33.4704 348.372 33.391 348.356ZM97.796 355.485C99.1694 355.921 100.106 357.175 100.13 358.62C100.13 358.66 100.114 358.708 100.082 358.739C100.051 358.771 100.003 358.787 99.9632 358.795C99.8442 358.795 97.9548 358.827 97.8119 358.827L96.9228 355.207L97.796 355.485ZM85.2929 348.435L86.5711 351.817C86.6029 351.896 86.6663 351.952 86.7457 351.984L96.2957 355.008H96.3036L97.2404 358.835C79.9742 359.089 86.6186 358.993 69.3524 359.247C69.281 359.239 69.2572 359.232 69.2254 359.2C69.1936 359.168 69.1778 359.12 69.1778 359.081L69.1539 357.374C74.9094 357.287 87.087 357.104 93.279 357.009C93.4299 357.009 93.549 356.882 93.549 356.731C93.549 356.58 93.422 356.453 93.2712 356.453L72.5755 356.763C72.7183 356.366 72.7819 355.969 72.7819 355.588C72.7819 353.865 71.48 352.349 69.6938 352.182C70.186 350.904 71.1148 349.554 72.8612 348.991C72.893 348.975 72.9327 348.959 72.9724 348.951C74.4013 351.333 76.6003 353.024 79.4898 352.77C82.3001 352.452 82.6097 349.007 82.6097 348.975V348.951C82.6097 347.411 84.7372 346.99 85.2929 348.435ZM83.4591 347.062C82.6334 347.308 82.054 348.038 82.054 348.943C82.0381 349.181 81.7285 351.952 79.4264 352.214C75.4888 352.666 73.3772 348.546 73.3614 348.499C73.3375 348.459 73.3057 348.419 73.2661 348.395L72.0039 344.212C72.3214 344.283 72.6469 344.315 72.9803 344.315H82.8717L83.4591 347.062ZM83.9831 343.267C84.0149 343.553 83.8084 343.759 83.5624 343.759H72.9803C71.083 343.759 69.3445 342.489 68.8285 340.592L48.3392 266.573C48.3312 266.534 48.3154 266.502 48.2836 266.478L45.9259 256.603L45.918 256.579L45.529 249.902C45.521 249.752 45.3861 249.648 45.2353 249.64C45.0844 249.656 44.9653 249.783 44.9812 249.934L45.3781 256.658V256.682L46.5848 292.183C46.5848 292.27 46.6245 292.342 46.688 292.389L44.5129 342.529C44.4732 343.219 43.9096 343.728 43.3142 343.751C43.2348 343.775 42.7346 343.759 33.391 343.759C31.9938 343.759 30.7315 342.64 30.6681 341.1C30.6681 341.02 26.6433 238.249 26.6433 238.328C48.109 239.813 59.6119 231.858 69.6859 237.367C70.4638 243.107 83.2925 338.163 83.9831 343.267ZM71.075 199.263C71.0671 199.255 71.0591 199.247 71.0512 199.247H71.0434L64.1925 197.088C64.0417 197.048 63.8908 197.127 63.8431 197.27C63.7955 197.421 63.8828 197.572 64.0257 197.619L70.6861 199.707C70.8051 207.09 71.2021 231.596 71.3053 237.693C68.0505 235.526 64.764 234.772 60.8582 234.843C53.0865 234.843 41.3693 239.13 24.9365 237.638C29.3423 196.079 30.2632 187.323 30.295 187.053C30.3109 186.903 30.1997 186.768 30.0489 186.752C29.89 186.736 29.7551 186.839 29.7393 186.998L28.7231 196.365C26.294 196.016 21.3879 195.04 18.919 193.595C18.8793 193.571 18.6094 193.388 18.3871 193.245C17.9664 192.936 17.6568 192.602 17.5218 192.253C17.1011 191.205 17.9823 188.006 19.7129 184.307C22.0944 179.186 26.2939 172.74 30.2632 171.43C34.3356 170.081 38.9321 169.644 43.6713 169.811C47.3786 171.168 53.1578 172.105 61.8266 172.764C72.0276 175.471 80.498 179.21 82.8478 180.29C82.4985 180.528 82.1413 181.084 81.7919 181.774V181.782C79.8519 185.658 78.4768 192.85 78.434 192.936C78.2308 194.032 77.3816 198.873 77.5449 199.199C77.5384 199.614 77.4624 200.529 77.6481 201.144L71.075 199.263ZM101.9 201.12C96.6268 202.839 83.5106 200.119 78.1007 198.897C78.3458 195.076 80.1902 186.469 82.181 182.243C92.5906 185.382 95.257 186.186 95.8012 186.35C95.7994 186.349 95.7975 186.349 95.7956 186.348C95.7998 186.349 95.8022 186.35 95.8067 186.352C95.8232 186.357 95.8379 186.361 95.8504 186.365C95.854 186.366 95.8582 186.367 95.862 186.368C95.8604 186.368 95.8586 186.367 95.8569 186.367C95.9153 186.384 95.9328 186.389 95.9224 186.386C96.0098 186.41 96.1051 186.394 96.1765 186.331C126.419 161.418 124.954 162.641 124.985 162.547C125.634 160.778 130.065 149.465 131.701 149.941C131.773 149.956 131.947 150.076 132.138 150.409C132.503 151.028 132.741 152.068 132.479 153.037C132.464 153.092 132.44 153.164 132.416 153.243L132.384 153.362L132.368 153.402L130.963 156.45C130.9 156.585 130.963 156.752 131.106 156.815C131.138 156.831 131.177 156.839 131.217 156.839C131.328 156.839 131.424 156.783 131.471 156.68L132.869 153.64L132.876 153.632C136.973 149.361 140.331 146.519 142.863 145.193C143.038 145.17 143.157 145.233 143.26 145.392C143.546 145.86 143.427 146.971 142.855 147.702C142.847 147.702 142.847 147.71 142.847 147.71L138.417 152.386L137.632 153.394C137.314 153.553 136.163 154.211 134.464 156.522C134.369 156.649 134.401 156.823 134.52 156.911C134.567 156.95 134.631 156.966 134.686 156.966C134.774 156.966 134.853 156.926 134.909 156.855C136.282 154.997 137.259 154.259 137.679 153.997C137.703 154.005 137.719 154.005 137.743 154.005C138.068 153.981 138.989 154.013 139.434 154.497C139.656 154.743 139.751 155.085 139.696 155.561V155.569C139.291 155.775 138.187 156.498 136.608 158.649C136.52 158.776 136.544 158.943 136.671 159.038C136.719 159.078 136.774 159.093 136.83 159.093C136.917 159.093 137.005 159.054 137.06 158.974C138.505 157.014 139.513 156.299 139.894 156.085C139.998 156.117 140.799 156.339 141.045 156.902C141.188 157.22 141.133 157.609 140.879 158.062C140.529 158.228 139.394 158.919 137.735 161.173C137.648 161.293 137.672 161.467 137.799 161.562C137.846 161.594 137.902 161.618 137.965 161.618C138.045 161.618 138.132 161.578 138.188 161.499C139.68 159.467 140.712 158.776 141.061 158.585C141.625 158.974 141.839 159.482 141.728 160.133C141.292 162.634 136.259 166.175 131.758 167.143C131.678 167.159 131.615 167.199 131.575 167.262C130.575 169.04 124.973 177.414 119.881 184.036C116.12 188.955 107.825 199.19 101.9 201.12ZM223.598 349.943H125.589C114.792 349.943 106.298 340.687 107.227 329.93L119.786 185.108C121.151 183.362 122.461 181.599 123.691 179.909L110.656 330.24C109.91 339.004 116.785 346.498 125.589 346.498H223.606C231.433 346.498 237.847 340.616 238.522 332.828C238.971 327.653 244.466 264.289 249.528 205.923H252.982L241.959 333.114C241.134 342.608 233.298 349.943 223.606 349.943C223.606 349.943 223.606 349.943 223.598 349.943ZM250.461 333.114C249.628 342.703 241.737 349.943 232.108 349.943H228.226C236.069 348.014 241.801 341.283 242.515 333.161L253.542 205.923H261.489L250.461 333.114ZM245.613 205.367C244.115 205.367 242.975 204.163 243.107 202.617L248.454 140.176H255.979C256.087 140.176 256.185 140.114 256.23 140.016L259.079 133.948H270.949L272.747 139.978C272.782 140.096 272.89 140.176 273.013 140.176H364.387L359.044 202.57C358.912 204.112 357.55 205.367 356.008 205.367H245.613Z" fill="#3C4150"/>
<path d="M308.465 136.757C309.496 136.757 305.375 136.757 357.446 136.759C359.402 136.759 361.067 135.102 361.223 133.277C361.223 133.276 361.223 133.276 361.223 133.276C361.223 133.275 361.223 133.274 361.223 133.273C361.391 131.332 359.947 129.748 357.999 129.748C345.997 129.748 314.187 129.749 309.017 129.749C307.098 129.749 305.402 131.31 305.238 133.23C305.071 135.175 306.518 136.757 308.465 136.757ZM352.916 130.305H357.997C359.615 130.305 360.808 131.607 360.67 133.228C360.534 134.796 359.108 136.202 357.444 136.202H352.411L352.916 130.305ZM309.017 130.305H352.358L351.853 136.202H308.465C306.848 136.202 305.652 134.902 305.791 133.277C305.932 131.638 307.379 130.305 309.017 130.305Z" fill="#3C4150"/>
<path d="M358.346 131.706C357.727 131.029 356.679 131.08 356.017 131.689C355.401 132.257 355.272 133.147 355.67 133.792L354.566 134.809C354.453 134.912 354.446 135.088 354.55 135.201C354.605 135.261 354.68 135.291 354.754 135.291C354.822 135.291 354.889 135.266 354.943 135.217L356.044 134.203C356.687 134.685 357.578 134.573 358.164 134.033C358.855 133.396 358.938 132.352 358.346 131.706ZM356.245 133.641C355.86 133.221 355.927 132.528 356.394 132.098C356.853 131.674 357.545 131.652 357.936 132.081C358.321 132.502 358.254 133.194 357.787 133.625C357.328 134.048 356.637 134.07 356.245 133.641Z" fill="#3C4150"/>
<path d="M350.928 152.83C344.064 162.525 337.395 157.731 328.962 155.881C321.665 154.28 313.394 164.753 307.922 171.683C306.963 172.899 306.056 174.047 305.284 174.963C302.174 178.649 296.612 176.937 290.171 174.953C286.509 173.825 282.722 172.659 279.073 172.425C263.847 171.451 259.245 189.303 259.2 189.484C259.156 189.661 259.29 189.829 259.47 189.829H347.103C347.245 189.829 347.364 189.723 347.379 189.582L351.431 153.021C351.445 152.895 351.372 152.776 351.254 152.731C351.134 152.686 351.002 152.727 350.928 152.83ZM346.854 189.273H259.835C260.554 186.815 265.447 172.113 279.037 172.98C282.62 173.209 286.376 174.366 290.008 175.484C296.361 177.441 302.362 179.289 305.709 175.321C306.487 174.399 307.396 173.247 308.358 172.028C313.744 165.207 321.886 154.897 328.843 156.424C337.118 158.24 343.847 162.949 350.765 153.986L346.854 189.273Z" fill="#3C4150"/>
<path d="M353.734 195.08L351.016 192.671C350.901 192.57 350.726 192.581 350.624 192.695C350.522 192.81 350.532 192.986 350.648 193.088L352.814 195.007H253.113L258.331 147.382L259.992 149.759C260.081 149.885 260.255 149.915 260.379 149.827C260.505 149.739 260.536 149.566 260.448 149.44L258.323 146.401C258.22 146.253 258.011 146.248 257.896 146.367L255.238 149.107C255.131 149.217 255.133 149.393 255.243 149.499C255.353 149.606 255.529 149.604 255.636 149.494L257.783 147.281L252.527 195.255C252.519 195.333 252.544 195.412 252.596 195.47C252.649 195.529 252.724 195.563 252.803 195.563H352.748L350.316 197.471C350.195 197.566 350.174 197.741 350.269 197.862C350.363 197.982 350.538 198.003 350.659 197.909L353.721 195.506C353.727 195.501 353.729 195.494 353.735 195.489C353.848 195.386 353.866 195.199 353.734 195.08C353.734 195.08 353.734 195.08 353.734 195.08Z" fill="#3C4150"/>
<path d="M261.059 177.475C261.154 177.329 270.68 163.015 279.873 165.062C282.269 165.594 284.871 166.414 287.388 167.207C294.912 169.577 302.692 172.028 306.587 167.409C307.365 166.486 308.274 165.335 309.237 164.115C314.623 157.294 322.762 146.986 329.721 148.512C338.102 150.351 344.839 155.105 351.812 145.848L351.726 148.168C351.72 148.321 351.84 148.45 351.993 148.456C351.997 148.456 352 148.456 352.004 148.456C352.153 148.456 352.276 148.338 352.281 148.189L352.4 144.988C352.407 144.817 352.259 144.683 352.095 144.701L348.901 145.03C348.748 145.045 348.637 145.182 348.653 145.334C348.669 145.487 348.804 145.601 348.958 145.582L351.511 145.319C344.741 154.48 338.125 149.786 329.84 147.969C322.543 146.368 314.273 156.841 308.801 163.771C307.841 164.987 306.934 166.135 306.162 167.05C302.506 171.387 294.905 168.993 287.555 166.677C285.027 165.881 282.413 165.057 279.994 164.519C270.427 162.391 260.991 176.564 260.594 177.169C260.51 177.297 260.546 177.47 260.674 177.554C260.803 177.639 260.974 177.602 261.059 177.475Z" fill="#3C4150"/>
<path d="M416.266 244.066C416.234 243.55 416.178 243.082 416.091 242.63C415.004 236.279 410.034 235.723 409.978 235.723C408.891 235.628 407.843 235.572 406.835 235.54C406.501 227.435 404.572 221.196 401.135 216.988C397.92 213.059 393.879 211.55 390.537 211.05C390.474 210.352 390.212 209.597 389.426 209.232C389.291 209.169 389.045 209.137 388.703 209.121C388.584 208.224 388.441 206.946 388.346 205.422C389.323 205.152 390.085 204.787 390.45 204.374C392.164 202.373 395.3 189.124 392.014 184.972C390.783 183.408 388.854 183.273 386.29 184.567C384.925 183.9 374.128 178.836 368.857 182.21C366.991 183.4 366.047 185.52 366.047 188.505C366.047 188.656 366.047 188.814 366.055 188.973C366.11 190.728 367.857 191.807 369.746 192.466C369.564 193.387 369.397 194.387 369.262 195.411C369.254 195.419 369.254 195.419 369.254 195.419C368.992 195.761 367.396 197.952 367.46 199.595C367.495 200.366 368.004 200.713 368.881 200.421C368.867 201.223 368.889 201.431 368.889 201.794L368.897 201.802C368.964 202.524 368.978 203.905 369.452 205.12C369.826 206.097 370.389 206.629 371.104 206.692C373.549 206.906 375.541 206.732 376.256 206.644L376.756 210.796C376.01 211.003 375.446 211.225 375.16 211.439C374.835 211.677 374.7 212.312 374.644 212.955C369.524 214.337 365.904 216.194 363.562 218.616L363.53 218.647L347.439 233.405L316.836 222.91C316.82 222.91 316.812 222.902 316.796 222.902C316.717 222.886 316.63 222.91 316.558 222.974C316.424 223.08 316.433 223.065 316.114 223.331C313.7 219.671 310.176 214.869 308.818 215.575C308.54 215.71 308.381 216.059 308.294 216.321C308.143 216.79 308.072 217.512 308.262 218.211C304.595 215.797 301.658 214.281 299.53 213.702C299.498 213.694 299.475 213.694 299.451 213.694C299.078 213.702 298.8 213.908 298.681 214.257C298.451 214.924 298.847 215.98 299.546 216.56L303.841 219.489L304.349 219.91C303.277 220.283 302.912 221.06 303.206 221.942C302.335 222.489 302.066 223.322 302.69 224.189C302.253 224.713 302.158 225.324 302.42 225.967C303.261 228.039 307.897 230.071 311.827 230.095L312.573 230.785C312.597 231.484 312.7 232.175 312.915 232.873C312.915 233.351 343.052 254.993 353.425 253.14C355.346 252.823 357.743 251.164 360.149 248.997C359.498 259.396 358.934 264.754 359.442 276.622C351.107 275.757 319.138 273.28 314.113 285.156C309.969 294.96 313.454 341.75 313.669 347.577C313.732 348.736 314.701 349.649 315.868 349.649H316.423L316.479 352.276C316.447 352.268 316.408 352.268 316.368 352.268C316.36 352.268 316.36 352.268 316.36 352.268C315.804 352.276 315.312 352.626 315.121 353.15C314.677 354.42 313.685 355.396 312.407 355.833L307.675 357.444C306.643 357.794 305.953 358.77 305.96 359.866C305.96 360.183 306.223 360.421 306.516 360.421L325.664 360.294C325.974 360.294 326.22 360.04 326.22 359.739C326.22 359.659 326.204 357.127 326.204 357.127C326.204 355.738 325.354 353.697 323.608 353.094L323.528 349.649H324.148C325.291 349.649 326.259 348.752 326.347 347.609L329.728 303.129C329.959 300.152 332.205 297.771 335.095 297.326C334.746 297.747 334.484 298.287 334.373 298.977C334.365 298.993 334.365 299.065 334.365 299.08C334.047 301.208 335.666 302.605 337.842 302.708C339.294 302.764 341.065 302.835 343.081 302.915C343.018 305.352 342.994 307.956 342.994 310.655C342.994 321.962 343.514 336.784 344.105 347.942C344.153 348.926 344.97 349.696 345.955 349.696H347.138L347.185 352.118C347.153 352.11 347.114 352.11 347.074 352.11H347.066C346.51 352.118 346.018 352.467 345.836 352.991C345.383 354.261 344.391 355.238 343.113 355.674L338.389 357.286C337.349 357.635 336.659 358.611 336.667 359.707C336.667 360.001 336.905 360.263 337.223 360.263H337.23L356.378 360.144C356.529 360.136 356.664 360.08 356.767 359.977C356.878 359.866 356.934 359.731 356.934 359.58C356.934 359.499 356.928 357.025 356.894 356.754C356.894 356.503 356.641 355.389 356.561 355.309C356.227 354.396 355.576 353.364 354.314 352.927L354.243 349.696H355.434C356.41 349.696 357.204 348.966 357.283 347.99L360.856 303.391C362.276 303.415 363.721 303.431 365.198 303.447C366.913 305.201 370.064 306.519 373.795 307.091V355.142C366.516 355.69 361.197 357.587 361.054 359.921C361.054 359.993 361.078 360.072 361.133 360.128C361.189 360.183 361.26 360.215 361.332 360.215H394.777C394.848 360.215 394.928 360.183 394.975 360.128C395.031 360.072 395.055 359.993 395.055 359.921C394.912 357.587 389.593 355.682 382.313 355.142V307.091C386.433 306.455 389.839 304.923 391.411 302.891C393.467 302.748 395.412 302.581 397.198 302.383C416.766 300.176 415.219 278.869 415.203 278.695C415.218 278.424 416.798 251.544 416.266 244.066ZM368.889 199.841C368.587 199.96 368.317 200.016 368.167 199.944C368.079 199.904 368.024 199.778 368.016 199.571C367.976 198.626 368.611 197.412 369.119 196.602C368.992 197.69 368.913 198.793 368.889 199.841ZM371.159 206.136C370.667 206.097 370.262 205.684 369.977 204.922C369.691 204.175 369.532 203.167 369.468 202.008C370.143 201.913 370.786 201.715 371.421 201.373C371.753 201.197 371.471 200.716 371.159 200.881C370.604 201.183 370.04 201.365 369.445 201.452C369.367 199.463 369.691 195.553 370.27 192.633C371.802 193.109 373.342 193.331 374.081 193.411C373.882 193.808 373.676 194.451 373.914 195.062C374.136 195.634 374.684 196.023 375.557 196.237L375.43 199.468C375.43 199.633 375.558 199.753 375.708 199.753C376.428 199.729 376.555 199.812 376.716 199.674C376.764 199.619 376.796 199.547 376.796 199.476C376.781 198.374 377.03 195.343 378.13 195.395C378.582 195.435 378.931 195.602 379.193 195.919C380.39 197.336 379.639 201.151 379.606 203.254C379.582 204.294 380.265 205.223 381.265 205.517C382.218 205.803 383.321 205.922 384.441 205.922C385.608 205.922 386.775 205.787 387.783 205.557C387.886 207.001 388.013 208.224 388.14 209.113C385.639 209.137 380.368 209.843 377.296 210.637L376.804 206.581C377.875 206.43 378.63 206.303 379.4 205.89C379.535 205.819 379.582 205.644 379.511 205.509C379.439 205.374 379.273 205.326 379.138 205.398C377.44 206.302 373.098 206.309 371.159 206.136ZM312.835 230.269C312.755 230.196 312.049 229.545 312.129 229.618C312.077 229.567 312.009 229.539 311.922 229.539C307.905 229.539 303.626 227.467 302.928 225.76C302.745 225.3 302.817 224.887 303.158 224.506C303.491 224.617 304.396 224.998 305.865 226.292C306.154 226.54 306.509 226.102 306.23 225.879C304.563 224.403 303.547 224.038 303.214 223.95V223.942C302.651 223.271 302.883 222.753 303.634 222.331C303.983 222.45 304.889 222.839 306.325 224.109C306.451 224.217 306.615 224.198 306.714 224.085C306.818 223.974 306.81 223.799 306.691 223.696C305.135 222.315 304.134 221.902 303.745 221.791V221.783C303.626 221.458 303.642 221.196 303.769 220.973C304.079 220.441 304.968 220.322 304.976 220.322C304.984 220.322 304.992 220.322 305 220.306C305.373 220.433 306.262 220.838 307.651 222.069C307.707 222.116 307.77 222.14 307.834 222.14C307.913 222.14 307.993 222.109 308.048 222.045C308.143 221.926 308.135 221.751 308.024 221.656C306.317 220.148 305.293 219.798 304.984 219.719L304.174 219.044L299.982 216.202L299.903 216.131C299.339 215.67 299.062 214.845 299.205 214.44C299.244 214.321 299.308 214.265 299.427 214.249C301.642 214.869 304.762 216.52 308.707 219.179L310.326 221.338C310.382 221.41 310.461 221.45 310.549 221.45C310.604 221.45 310.668 221.426 310.715 221.394C310.843 221.299 310.866 221.124 310.771 221.005L309.128 218.814L309.088 218.735C309.056 218.671 309.025 218.624 308.993 218.552C308.636 217.877 308.651 217.028 308.826 216.488C308.921 216.202 309.033 216.091 309.072 216.075C309.755 215.718 312.526 218.933 315.693 223.696C316.004 224.14 316.456 224.905 316.55 224.943L316.781 225.062C316.884 227.523 315.637 229.42 314.034 231.389C313.954 231.314 312.756 230.195 312.835 230.269ZM360.474 252.616C360.482 252.537 360.482 252.457 360.49 252.378L363.935 245.249C364.007 245.162 368.143 240.7 371.516 236.064C371.604 235.937 371.58 235.763 371.453 235.675C371.334 235.588 371.159 235.612 371.064 235.739C371.008 235.818 368.301 239.502 364.824 243.407C364.824 243.415 364.816 243.415 364.816 243.423C362.443 246.138 356.902 252.005 353.337 252.592C344.055 254.133 321.276 238.289 313.589 232.794C315.591 230.39 317.664 227.871 317.312 224.712C317.312 224.681 317.304 224.649 317.304 224.617L317.296 224.609C317.277 224.352 317.258 224.161 317.146 223.601C338.684 230.99 345.199 233.224 346.889 233.804C346.887 233.803 346.886 233.803 346.884 233.802C346.896 233.806 346.909 233.811 346.924 233.816C346.921 233.815 346.918 233.814 346.915 233.813C346.926 233.817 346.938 233.821 346.948 233.824C346.964 233.83 346.982 233.836 347.001 233.843C346.997 233.841 346.991 233.839 346.987 233.837C347.034 233.854 347.076 233.868 347.115 233.881C347.097 233.875 347.08 233.87 347.064 233.864C347.086 233.872 347.109 233.879 347.135 233.888C347.167 233.899 347.196 233.909 347.222 233.918C347.23 233.921 347.237 233.923 347.246 233.926C347.244 233.926 347.242 233.925 347.24 233.924C347.255 233.929 347.269 233.934 347.282 233.939C347.303 233.946 347.326 233.954 347.349 233.962C347.348 233.961 347.348 233.961 347.347 233.961C347.348 233.961 347.349 233.962 347.35 233.962C347.366 233.968 347.381 233.973 347.399 233.979C347.402 233.98 347.405 233.981 347.407 233.982C347.406 233.981 347.406 233.981 347.405 233.981C347.409 233.982 347.412 233.983 347.415 233.984C347.518 234.016 347.622 233.992 347.693 233.921C350.297 231.539 361.482 221.569 363.935 219.028C366.19 216.686 369.675 214.884 374.62 213.535C374.605 213.916 374.62 214.257 374.628 214.448C374.636 214.519 374.676 214.591 374.732 214.646C374.779 214.686 374.843 214.71 374.906 214.71H374.946L390.172 212.797C390.291 212.781 390.378 212.701 390.41 212.59C390.418 212.551 390.529 212.138 390.545 211.606C393.76 212.106 397.626 213.575 400.706 217.338C404.064 221.45 405.938 227.562 406.279 235.525C381.241 234.937 378.296 251.886 378.272 252.037C375.351 262.428 371.572 275.828 367.42 285.791C366.841 287.093 366.293 288.157 365.309 289.721C364.245 289.07 363.118 287.633 362.475 286.569C360.022 282.592 359.982 278.218 359.871 272.82C359.648 264.008 360.069 258.221 360.474 252.616ZM307.778 359.85L306.516 359.857C306.508 359.008 307.048 358.246 307.858 357.968L308.231 357.841L307.778 359.85ZM325.219 355.356C323.846 355.587 323.068 357 323.473 358.23C314.335 358.294 317.662 358.27 310.668 358.317C310.517 358.317 310.39 358.445 310.39 358.595C310.398 358.746 310.517 358.873 310.668 358.873C314.484 358.845 321.863 358.8 325.656 358.778L325.664 359.738L308.35 359.85L308.842 357.635L312.581 356.357C314.026 355.872 315.137 354.769 315.645 353.332C315.756 353.03 316.042 352.832 316.36 352.824C316.368 352.824 316.368 352.824 316.368 352.824C316.757 352.824 317.13 353.149 317.13 353.586V353.61C317.209 354.388 317.749 355.896 319.226 356.031C321.026 356.196 322.546 355.005 323.314 353.578C324.215 353.855 324.856 354.507 325.219 355.356ZM316.971 349.648H322.973L323.044 353.007C322.988 353.03 322.949 353.078 322.917 353.134C322.909 353.165 321.671 355.698 319.273 355.483C317.932 355.356 317.701 353.729 317.685 353.562C317.678 353.054 317.368 352.625 317.027 352.451L316.971 349.648ZM329.173 303.081L325.791 347.561C325.727 348.418 325.005 349.093 324.147 349.093H315.868C314.994 349.093 314.272 348.41 314.216 347.545C314.01 341.837 310.541 295.063 314.629 285.37C317.733 278.019 332.11 276.416 344.097 276.416C350.726 276.416 356.616 276.908 359.474 277.186C359.474 277.376 359.482 277.575 359.498 277.781C358.72 282.6 359.553 288.84 363.419 292.198C361.188 294.492 358.124 295.802 354.854 295.802H339.247C339.223 295.802 337.23 295.691 335.785 296.699C332.277 296.842 329.442 299.58 329.173 303.081ZM338.484 359.691L337.222 359.699C337.214 358.849 337.754 358.087 338.564 357.809L338.937 357.682L338.484 359.691ZM354.322 353.538C355.147 353.88 355.647 354.547 355.933 355.198C355.116 355.333 354.441 355.92 354.179 356.722C354.036 357.166 354.036 357.635 354.179 358.079C348.13 358.121 350.917 358.103 341.382 358.159C341.223 358.159 341.104 358.286 341.104 358.437C341.104 358.587 341.231 358.714 341.382 358.714L356.37 358.619V359.588L339.064 359.691L339.556 357.476L343.295 356.206C344.732 355.714 345.851 354.61 346.359 353.173C346.463 352.872 346.748 352.673 347.074 352.673C347.114 352.673 347.153 352.673 347.193 352.689C347.447 352.721 347.661 352.888 347.757 353.11C347.812 353.205 347.836 353.316 347.836 353.427C347.836 353.435 347.836 353.443 347.844 353.451C347.923 354.229 348.463 355.738 349.94 355.88C351.94 356.063 353.21 354.65 353.774 353.808C353.885 353.658 353.964 353.523 354.02 353.419C354.123 353.451 354.226 353.491 354.322 353.538ZM347.685 349.696H353.687L353.758 352.856C353.703 352.871 353.655 352.919 353.631 352.975C353.615 353.007 352.377 355.539 349.987 355.325C348.646 355.197 348.416 353.57 348.392 353.403C348.384 352.927 348.13 352.514 347.741 352.3L347.685 349.696ZM356.727 347.942C356.672 348.624 356.116 349.141 355.433 349.141H345.955C345.264 349.141 344.692 348.601 344.661 347.91C343.987 335.279 343.302 315.844 343.645 302.93C348.86 303.129 355.473 303.319 360.299 303.383L356.727 347.942ZM394.435 359.659H361.673C362.244 357.952 366.88 356.222 373.795 355.706V356.896C373.795 357.706 376.113 357.881 378.058 357.881C379.995 357.881 382.313 357.706 382.313 356.896V355.698C389.227 356.214 393.863 357.952 394.435 359.659ZM381.773 356.841C381.622 357.039 380.336 357.325 378.058 357.325C375.771 357.325 374.486 357.039 374.351 356.896V307.17C376.724 307.487 379.233 307.511 381.757 307.17V308.019C381.757 308.471 381.757 313.409 381.773 356.841ZM366.007 303.454C373.914 303.502 382.686 303.439 390.648 302.938C386.123 307.828 371.572 308.289 366.007 303.454ZM397.134 301.835C385.798 303.129 374.104 302.692 373.89 302.907C358.68 302.994 345.764 302.454 337.865 302.152C336.071 302.073 334.658 300.977 334.896 299.207C334.983 298.969 334.999 297.373 337.071 296.651C338.302 296.23 337.619 296.349 354.854 296.357C361.585 296.357 365.467 291.848 368.063 285.72C372.366 275.86 378.74 252.434 378.812 252.156C378.844 251.973 381.741 235.493 406.303 236.072C406.486 236.072 406.668 236.08 406.859 236.096C407.843 236.12 408.867 236.184 409.923 236.271C409.971 236.279 414.527 236.787 415.543 242.725C415.623 243.161 415.678 243.614 415.71 244.106C416.242 251.552 414.662 278.393 414.646 278.702C414.662 278.908 416.178 299.684 397.134 301.835Z" fill="#3C4150"/>
<path d="M346.884 233.803C346.865 233.796 346.851 233.792 346.844 233.789C346.852 233.792 346.866 233.797 346.884 233.803Z" fill="#3C4150"/>
<path d="M347.223 233.92C347.193 233.909 347.162 233.899 347.136 233.89C347.129 233.888 347.122 233.885 347.115 233.883C347.158 233.897 347.201 233.912 347.24 233.926C347.235 233.924 347.229 233.922 347.223 233.92Z" fill="#3C4150"/>
<path d="M346.948 233.825C346.939 233.822 346.931 233.819 346.924 233.816C346.943 233.823 346.963 233.83 346.986 233.838C346.973 233.833 346.962 233.829 346.948 233.825Z" fill="#3C4150"/>
<path d="M346.845 233.788C346.835 233.784 346.836 233.784 346.845 233.788V233.788Z" fill="#3C4150"/>
<path d="M347.397 233.98C347.387 233.977 347.371 233.971 347.349 233.963C347.349 233.963 347.348 233.963 347.348 233.963C347.374 233.972 347.393 233.979 347.404 233.982C347.402 233.981 347.4 233.981 347.397 233.98Z" fill="#3C4150"/>
<path d="M379.335 198.643C379.55 198.063 379.526 197.42 379.28 196.856C379.153 196.579 378.915 196.213 378.494 196.047C378.351 195.983 378.192 196.055 378.137 196.198C378.073 196.34 378.145 196.499 378.287 196.555C378.534 196.658 378.684 196.904 378.772 197.087C378.954 197.499 378.978 197.984 378.827 198.42C378.732 198.516 378.716 198.666 378.803 198.778C378.859 198.849 378.938 198.889 379.026 198.889C379.081 198.889 379.145 198.873 379.192 198.833C379.264 198.785 379.312 198.714 379.335 198.643Z" fill="#3C4150"/>
<path d="M371.532 194.83C371.305 194.752 371.057 194.879 370.987 195.099C370.909 195.325 371.029 195.573 371.256 195.644C371.475 195.722 371.723 195.601 371.801 195.375C371.871 195.155 371.758 194.907 371.532 194.83Z" fill="#3C4150"/>
<path d="M371.446 193.689C371.294 193.659 371.149 193.756 371.119 193.907C371.089 194.057 371.186 194.204 371.336 194.234C371.844 194.337 372.317 194.543 372.741 194.847C372.79 194.883 372.847 194.9 372.903 194.9C372.989 194.9 373.074 194.86 373.129 194.784C373.218 194.659 373.19 194.485 373.065 194.396C372.576 194.045 372.032 193.808 371.446 193.689Z" fill="#3C4150"/>
</g>
<defs>
<clipPath id="clip0_3443_9919">
<rect width="427" height="425" fill="white" transform="translate(0 0.900391)"/>
</clipPath>
</defs>
</svg>
