<svg width="51" height="42" viewBox="0 0 51 42" fill="none" xmlns="http://www.w3.org/2000/svg">
<path d="M49.1812 33.2058C48.7255 32.8803 48.2283 32.5548 47.8139 32.1207H47.7725C47.7725 32.0845 47.7725 3.72571 47.7725 3.72571C47.6068 1.66391 46.0737 0.253204 43.7949 0H3.97758C1.86448 0.18086 0.207166 1.62773 0 3.4725V32.1207C0 33.9293 2.07166 35.7741 4.06045 35.7741H39.1958V39.0295C39.1958 39.1381 39.693 39.6083 39.8173 39.6806C40.8946 40.2956 41.6818 39.6806 42.5519 38.9572C42.7591 38.8125 42.9248 38.6316 43.132 38.5231L43.2563 38.4146L43.3806 38.5231C43.6706 38.8487 43.8364 39.2104 44.0021 39.5721C44.2507 40.0785 44.4993 40.5849 44.9965 40.8743C45.7837 41.3445 46.7367 41.3807 47.5239 40.9466C48.3111 40.5126 48.684 39.7168 48.4769 38.8848C48.4769 38.7763 48.2283 38.3784 48.0625 38.0529C47.4825 36.9677 47.3996 36.7869 47.5653 36.6422H47.6068L47.6482 36.606C47.8139 36.606 48.0211 36.606 48.1868 36.5698C49.347 36.4613 50.4242 36.389 50.7971 35.34V34.6889C50.3828 34.074 49.7199 33.6037 49.0984 33.1697L49.1812 33.2058ZM3.64612 1.19368C18.5621 1.01282 31.8207 1.01282 44.1264 1.19368C45.0379 1.33836 46.4052 2.49586 46.4052 3.29164V5.13642H1.243V4.99173C1.07726 2.82141 1.90592 1.51922 3.64612 1.19368ZM39.4444 27.9609C39.4444 27.9971 39.2373 28.2865 39.2373 28.3588V34.5804H3.77041C3.64611 34.5804 2.90032 34.291 2.81745 34.2548C1.90592 33.7846 1.20156 32.808 1.20156 31.9398V6.33009H46.4052V31.1802L41.8476 27.8162C41.4747 27.5269 40.9775 27.346 40.4803 27.4183C40.0245 27.4545 39.6516 27.6715 39.4444 27.9609ZM49.4298 35.2676H49.347C48.8912 35.4123 48.3526 35.4847 47.8139 35.5209C47.2753 35.557 46.6952 35.6294 46.2809 35.7741C45.8666 35.9187 45.7423 36.172 45.8666 36.6422C45.9494 36.8954 46.1566 37.2571 46.4052 37.6188C46.861 38.3784 47.3167 39.1742 47.151 39.6806C47.0681 39.8977 46.861 40.0785 46.5709 40.1147C46.4881 40.1147 46.4052 40.1147 46.3223 40.1147C46.0323 40.1147 45.7837 40.0062 45.618 39.8615C45.3694 39.6445 45.0793 38.9572 44.7479 38.3423C44.5407 37.9444 44.375 37.5465 44.2507 37.3294C44.0435 37.0039 43.8778 36.8592 43.5463 36.8592L40.4388 38.8487L40.5631 28.4311L49.5541 34.9059L49.4298 35.2676Z" fill="white"/>
<path d="M35.0939 14.2153L15.786 14.143V14.0706C15.5374 13.7451 15.4545 13.3834 15.3302 13.0216C15.123 12.2982 14.9159 11.6471 14.1286 11.3216C13.6729 11.1407 12.3056 10.996 11.6841 11.3216C11.5183 11.3939 11.4355 11.5024 11.394 11.6471C11.394 11.8641 11.394 12.0088 11.4769 12.1173C11.6426 12.2982 12.057 12.2982 12.4713 12.2982C13.0099 12.2982 13.59 12.2982 13.8386 12.6961C14.4601 14.6132 15.0402 16.5303 15.5788 18.3751C16.366 20.9795 17.1533 23.6562 18.1062 26.2244C18.5205 26.7308 19.1835 27.0564 20.0121 27.1287C22.2081 27.3096 24.5698 27.201 26.8486 27.1287C28.9617 27.0564 31.1577 26.984 33.1879 27.1287C33.6022 27.0925 33.8509 26.767 33.8509 26.5138C33.8509 26.2606 33.6851 26.0074 33.1465 25.9712H19.7635C19.5978 25.9712 19.3492 25.9712 19.1006 25.5733C18.8934 25.2839 18.562 24.3796 18.7277 24.1988H18.7692C18.7692 24.1626 31.6134 24.1626 31.6134 24.1626C32.6907 24.1626 33.8094 23.186 34.1823 22.3178C34.6381 21.2327 34.9696 19.9667 35.301 18.773C35.5496 17.7602 35.8396 16.7112 36.1711 15.7707C36.1711 15.0473 35.6739 14.4323 34.9281 14.2515L35.0939 14.2153ZM17.1118 18.5198C16.6975 17.6878 16.4075 16.6388 16.1589 15.4452V15.2643H19.805L20.2607 18.6283H17.1947V18.5198H17.1118ZM18.3963 22.9689L17.4019 19.6773H20.5094L20.9651 22.9689H18.4377H18.3963ZM24.9013 22.9689H22.2495L21.7938 19.6773H24.8598V22.9689H24.9013ZM24.9013 18.5921H21.5452L21.0894 15.2281H24.8598V18.5921H24.9013ZM29.0032 22.9689H26.2686V19.6773H29.4589L29.0032 22.9689ZM29.5832 18.5921H26.2686V15.2281H30.1633L29.6247 18.5921H29.5832ZM33.105 22.0285C32.9807 22.2455 32.2764 22.9689 31.9035 22.9689H30.2462L30.7848 19.6773H33.6851C33.9337 19.9305 33.105 21.9923 33.105 22.0285ZM35.011 15.5175L34.1823 18.5921H30.9505L31.4063 15.4452L31.6134 15.192H31.6963C32.1107 15.2281 32.5664 15.192 33.0636 15.192C33.6022 15.192 34.1409 15.1196 34.5966 15.192C34.6381 15.192 34.7209 15.192 34.7624 15.2643C34.7624 15.2643 34.8452 15.2643 34.8452 15.3005H35.0524L35.011 15.4813V15.5175Z" fill="white"/>
<path d="M20.8824 28.8654C20.6752 29.5165 20.9652 30.2399 21.5039 30.674C21.8353 30.9272 22.4154 31.1442 23.3269 30.8186C24.3213 30.4569 24.5285 29.5888 24.2799 28.9377C24.0727 28.3951 23.5341 27.8525 22.5811 27.8525C21.6282 27.8525 22.2497 27.8525 22.0839 27.8887C21.2553 28.0334 21.0067 28.576 20.9238 28.8654H20.8824ZM22.4154 28.9739C22.6226 28.9377 22.8712 29.01 22.9955 29.1909C23.0783 29.3356 23.0783 29.4803 22.9955 29.625C22.9126 29.7335 22.7883 29.7697 22.664 29.7697C22.5397 29.7697 22.4983 29.7697 22.4154 29.7335C22.2082 29.6611 22.0839 29.5165 22.1254 29.3356C22.1254 29.1547 22.2911 29.0462 22.4568 29.01L22.4154 28.9739Z" fill="white"/>
<path d="M29.459 27.8887C28.4646 28.0334 28.1332 28.8654 28.216 29.5888C28.3403 30.3122 28.9204 31.0357 30.0805 30.9633C30.9921 30.891 31.4064 30.3846 31.5722 30.0952C31.8622 29.5165 31.7793 28.8654 31.365 28.3951C31.0335 28.0334 30.5777 27.8525 29.9977 27.8525C29.4176 27.8525 29.6662 27.8525 29.5005 27.8887H29.459ZM30.412 29.2271C30.4949 29.3718 30.4534 29.5165 30.412 29.625C30.3291 29.7335 30.2049 29.7697 30.0391 29.7697C29.8734 29.7697 29.7491 29.7697 29.6662 29.6611C29.5005 29.5526 29.3762 29.3718 29.5833 29.0824C29.6662 28.9739 29.8319 28.9015 29.9977 28.9015C30.2048 28.9015 30.3706 29.0462 30.4535 29.1909L30.412 29.2271Z" fill="white"/>
<path d="M40.0661 3.79799C40.9361 3.54479 40.6461 2.13408 39.4446 2.45963C38.6159 2.67666 38.9059 4.12354 40.0661 3.79799Z" fill="white"/>
<path d="M36.6686 3.79799C37.5387 3.54479 37.2487 2.13408 36.0471 2.45963C35.2184 2.67666 35.5085 4.12354 36.6686 3.79799Z" fill="white"/>
<path d="M42.8419 3.79821C44.292 4.1961 44.3335 2.06196 42.8419 2.45985C42.2618 2.60454 42.179 3.61735 42.8419 3.79821Z" fill="white"/>
</svg>
