<svg width="50" height="50" viewBox="0 0 50 50" fill="none" xmlns="http://www.w3.org/2000/svg">
<path fill-rule="evenodd" clip-rule="evenodd" d="M15.7241 6.397C16.3771 4.94 17.8521 4 19.4811 4H30.5181C32.1481 4 33.6221 4.94 34.2751 6.397L37.2361 13H41.9001C44.3601 13 46.2671 15.099 45.9701 17.481L42.8641 42.481C42.6131 44.49 40.8661 46 38.7931 46H11.2071C9.13312 46 7.38712 44.49 7.13712 42.481L4.03012 17.481C3.73412 15.1 5.64012 13 8.10012 13H12.7631L15.7241 6.397ZM32.9171 13H17.0821C17.0821 12.44 17.2051 11.866 17.4721 11.309L18.4281 9.309C19.1021 7.9 20.5511 7 22.1441 7H27.8551C29.4481 7 30.8971 7.9 31.5711 9.308L32.5281 11.308C32.7941 11.866 32.9171 12.44 32.9171 13Z" fill="#712258"/>
<path fill-rule="evenodd" clip-rule="evenodd" d="M8.51412 45.016C7.75294 44.374 7.26134 43.469 7.13712 42.481L4.03012 17.481C3.73412 15.1 5.64012 13 8.10012 13H12.7631L15.7241 6.397C16.3771 4.94 17.8521 4 19.4811 4H30.5181C32.1481 4 33.6221 4.94 34.2751 6.397L36.8651 12.174C35.5001 28.256 23.8481 41.405 8.51512 45.016H8.51412ZM17.0821 13H32.9171C32.9171 12.44 32.7941 11.866 32.5271 11.309L31.5711 9.309C30.8971 7.9 29.4481 7 27.8551 7H22.1441C20.5511 7 19.1021 7.9 18.4281 9.308L17.4721 11.308C17.2168 11.8356 17.0835 12.4139 17.0821 13Z" fill="#E10060"/>
</svg>
