<svg width="427" height="425" viewBox="0 0 427 425" fill="none" xmlns="http://www.w3.org/2000/svg">
<g clip-path="url(#clip0_3443_12965)">
<path d="M400.041 382.57C388.531 392.16 338.441 398.94 278.761 401.49C187.021 405.42 72.6009 399.37 40.7909 378.2C25.7309 368.19 15.5509 337.25 9.1009 297.66C-6.9291 199.16 0.220901 47.1301 13.1609 30.6501C31.3109 7.56009 323.301 -15.3099 399.911 13.9301C432.741 26.4601 429.231 358.23 400.031 382.57H400.041Z" fill="white"/>
<path d="M373.314 247.44L375.204 241.883L377.358 247.44C377.358 247.44 381.657 248.14 381.712 248.531C381.757 248.913 377.595 250.095 377.595 250.095C377.595 250.095 375.85 255.488 375.204 254.27C374.568 253.051 373.95 250.35 373.95 250.35C373.95 250.35 368.533 249.268 368.533 248.731C368.533 248.158 373.314 247.449 373.314 247.449V247.44Z" fill="white"/>
<path d="M304.094 233.142L305.566 228.822L307.238 233.142C307.238 233.142 310.574 233.688 310.619 233.988C310.656 234.279 307.429 235.198 307.429 235.198C307.429 235.198 306.075 239.381 305.575 238.435C305.075 237.49 304.594 235.389 304.594 235.389C304.594 235.389 300.395 234.543 300.395 234.134C300.395 233.688 304.103 233.142 304.103 233.142H304.094Z" fill="white"/>
<path d="M64.3353 334.236C64.3353 336.441 56.2561 338.226 46.2934 338.226C36.3307 338.226 28.2598 336.441 28.2598 334.236C28.2598 332.038 36.3307 330.254 46.2934 330.254C56.2561 330.254 64.3353 332.038 64.3353 334.236Z" fill="#F5F5F5"/>
<path d="M4 300.483H426.96C409.777 292.825 405.944 283.809 394.916 268.07C377.246 242.831 349.737 293.679 315.883 256.067C305.987 245.069 261.551 218.578 235.827 247.589C227.447 257.045 210.688 251.892 192.622 256.63C181.297 259.6 169.439 259.269 158.136 256.208C128.614 248.212 122.66 269.094 70.6534 272.21C59.9616 272.85 37.6264 245.745 23.3311 247.449C7.69706 249.313 17.9088 288.39 4 300.483Z" fill="#F5F5F5"/>
<path d="M170.2 347.043C218.519 347.043 257.689 343.531 257.689 339.199C257.689 334.867 218.519 331.355 170.2 331.355C121.881 331.355 82.7109 334.867 82.7109 339.199C82.7109 343.531 121.881 347.043 170.2 347.043Z" fill="#F5F5F5"/>
<path d="M73.9474 73.551L89.6116 320.538C90.2807 331.1 98.9284 339.198 109.521 339.198H118.804C108.211 339.198 99.5638 331.1 98.8948 320.538L83.2411 73.551C82.4791 61.6277 92.1258 51.3672 104.101 51.3672H94.8079C82.8322 51.3672 73.1957 61.6277 73.9474 73.551Z" fill="#008BCE"/>
<path d="M77.8567 73.551L93.5107 320.538C94.1798 331.1 102.827 339.198 113.42 339.198H118.805C108.212 339.198 99.5645 331.1 98.8955 320.538L83.2418 73.551C82.4798 61.6277 92.1265 51.3672 104.102 51.3672H98.7174C86.7416 51.3672 77.0947 61.6277 77.8567 73.551Z" fill="#A0D2F4"/>
<path d="M225.838 339.192H118.81C108.212 339.192 99.5743 331.098 98.9007 320.547L83.233 73.5612C82.4768 61.6272 92.1303 51.3711 104.1 51.3711H211.139C221.726 51.3711 230.375 59.4767 231.049 70.0282L246.705 317.014C247.461 328.948 237.819 339.192 225.838 339.192Z" fill="white"/>
<path d="M237.905 329.617C234.739 332.992 230.509 334.83 225.951 334.83H118.909C110.521 334.83 103.798 328.534 103.262 320.165C95.6173 199.616 96.0422 206.323 87.5957 73.1762C87.0023 63.8351 94.4256 55.7363 104.417 55.7363H134.53C135.531 55.7363 136.395 56.4095 136.622 57.3829L138.396 64.8248C138.633 65.8072 139.497 66.4805 140.498 66.4805H173.64C174.795 66.4805 175.778 65.5889 175.896 64.4336L176.533 57.7742C176.642 56.6279 177.634 55.7363 178.789 55.7363H211.04C219.428 55.7363 226.151 62.0499 226.697 70.4105C226.997 75.1438 241.591 305.223 242.363 317.39C242.645 321.93 241.071 326.269 237.905 329.617Z" fill="white"/>
<path d="M106.736 64.6524C106.979 66.987 105.28 68.8839 102.94 68.8839C100.601 68.8839 98.5065 66.987 98.2635 64.6524C98.0199 62.3129 99.7193 60.416 102.059 60.416C104.398 60.4161 106.493 62.3129 106.736 64.6524Z" fill="#E1E5E2"/>
<path d="M172.53 58.674C172.643 59.7678 171.849 60.6545 170.755 60.6545H153.889C152.795 60.6545 151.816 59.7678 151.702 58.674C151.588 57.5802 152.383 56.6934 153.477 56.6934H170.343C171.437 56.6934 172.416 57.5802 172.53 58.674Z" fill="white"/>
<path d="M147.748 58.674C147.862 59.7678 147.067 60.6545 145.974 60.6545H144.264C143.17 60.6545 142.191 59.7678 142.077 58.674C141.963 57.5802 142.758 56.6934 143.852 56.6934H145.561C146.655 56.6934 147.634 57.5802 147.748 58.674Z" fill="white"/>
<path d="M204.21 320.573L203.654 312.822H211.588L212.144 320.573H204.21Z" fill="#F5F5F5"/>
<path d="M131.084 316.724L137.656 312.061L138.307 321.404L131.084 316.724Z" fill="#F5F5F5"/>
<path d="M172.661 320.573C170.562 320.573 168.731 318.866 168.581 316.767C168.424 314.583 170.079 312.822 172.234 312.822C174.334 312.822 176.165 314.534 176.315 316.639C176.47 318.805 174.824 320.573 172.661 320.573Z" fill="#F5F5F5"/>
<path d="M208.736 269.143L209.959 286.962C210.13 289.455 208.063 291.656 205.552 291.656H133.448C131.341 291.656 129.652 290.086 129.508 287.995L128.285 270.176C128.114 267.683 130.181 265.482 132.693 265.482H204.796C206.903 265.483 208.593 267.052 208.736 269.143Z" fill="#008BCE"/>
<path d="M141.038 282.66L140.651 274.339C140.635 273.998 140.878 273.709 141.232 273.709H144.436C146.548 273.709 147.528 274.818 147.593 276.19C147.64 277.211 147.157 277.938 146.36 278.3C147.468 278.65 148.273 279.424 148.327 280.59C148.42 282.585 146.944 283.276 144.963 283.276H141.678C141.332 283.276 141.055 283.009 141.038 282.66ZM144.303 277.849C145.55 277.849 146.474 277.523 146.416 276.286C146.369 275.285 145.398 274.874 144.396 274.874H141.911L142.05 277.849H144.303ZM144.787 282.111C146.077 282.111 147.189 281.825 147.129 280.535C147.081 279.493 146.256 278.972 144.654 278.972H142.102L142.248 282.111H144.787Z" fill="white"/>
<path d="M149.949 280.729L149.768 276.836C149.752 276.478 150.027 276.219 150.364 276.219C150.711 276.219 150.988 276.488 151.004 276.836L151.179 280.591C151.231 281.707 151.754 282.264 152.75 282.264C153.695 282.264 154.357 281.701 154.915 280.948L154.724 276.835C154.707 276.475 154.985 276.219 155.319 276.219C155.666 276.219 155.943 276.488 155.959 276.835L156.233 282.716C156.249 283.061 156.001 283.347 155.651 283.347C155.308 283.347 155.014 283.069 154.998 282.716L154.971 282.154C154.128 283.147 153.347 283.415 152.505 283.415C150.958 283.415 150.018 282.19 149.949 280.729Z" fill="white"/>
<path d="M159.678 286.321C159.497 286.14 159.448 285.898 159.519 285.677L160.295 283.388L157.451 277.11C157.33 276.84 157.377 276.583 157.54 276.404C157.839 276.075 158.373 276.21 158.553 276.603L160.888 281.839L162.777 276.631C162.881 276.357 163.065 276.219 163.328 276.219C163.77 276.219 164.07 276.671 163.938 277.083L160.65 286.075C160.442 286.595 159.945 286.59 159.678 286.321Z" fill="white"/>
<path d="M169.442 282.728L169.062 274.545C169.038 274.056 169.403 273.641 169.901 273.641H170.078C170.368 273.641 170.623 273.777 170.844 274.052L176.425 281.673L176.081 274.271C176.065 273.925 176.312 273.641 176.662 273.641C177.008 273.641 177.299 273.921 177.316 274.271L177.697 282.454C177.72 282.96 177.325 283.345 176.842 283.345H176.679C176.382 283.345 176.11 283.187 175.943 282.975L170.332 275.313L170.677 282.728C170.694 283.086 170.419 283.345 170.082 283.345C169.735 283.345 169.458 283.076 169.442 282.728Z" fill="white"/>
<path d="M179.349 279.781C179.251 277.674 180.477 276.148 182.656 276.148C184.785 276.148 186.201 277.654 186.3 279.781C186.399 281.908 185.126 283.413 182.994 283.413C180.841 283.413 179.448 281.916 179.349 279.781ZM185.064 279.767C184.989 278.173 183.951 277.286 182.708 277.286C181.441 277.286 180.508 278.152 180.584 279.767C180.66 281.415 181.701 282.276 182.941 282.276C184.129 282.276 185.14 281.416 185.064 279.767Z" fill="white"/>
<path d="M189.343 282.771L187.15 277.069C187.06 276.831 187.08 276.583 187.255 276.397C187.559 276.076 188.114 276.217 188.255 276.589L190.089 281.867L191.423 276.713C191.499 276.425 191.752 276.219 192.066 276.219C192.378 276.219 192.65 276.423 192.754 276.713L194.568 281.867L195.911 276.589C195.975 276.362 196.207 276.219 196.451 276.219C196.85 276.219 197.195 276.593 197.06 277.069L195.398 282.771C195.308 283.09 195.011 283.347 194.637 283.347C194.263 283.347 193.946 283.093 193.809 282.757L192.159 278.221L190.931 282.757C190.824 283.093 190.532 283.347 190.157 283.347C189.782 283.347 189.463 283.089 189.343 282.771Z" fill="white"/>
<path d="M220.677 98.5128L227.892 205.02C228.108 208.211 225.699 210.794 222.508 210.794H113.952C110.762 210.794 108.003 208.211 107.787 205.02L100.572 98.5128C100.356 95.3218 102.764 92.7383 105.955 92.7383H214.511C217.702 92.7383 220.461 95.3218 220.677 98.5128Z" fill="white"/>
<path d="M176.252 144.839C176.252 144.839 189.17 164.194 190.36 195.251C190.534 197.805 144.118 197.805 143.944 195.251C140.921 164.194 151.224 144.839 151.224 144.839L146.142 130.583L143.823 136.56L131.365 130.583L138.515 113.218C139.331 111.159 141.104 109.769 143.319 109.387L149.947 108.283C152.632 121.731 162.109 120.437 162.109 120.437C162.109 120.437 171.761 121.731 172.63 108.283L179.397 109.387C181.621 109.769 183.584 111.159 184.731 113.218L194.235 130.583L182.533 136.56L179.449 130.583L176.252 144.839Z" fill="#F5F5F5"/>
<path d="M147.85 222.749C147.877 223.15 147.739 223.512 147.496 223.773C147.253 224.033 146.902 224.196 146.501 224.196H110.605C109.805 224.196 109.114 223.549 109.06 222.749C109.006 221.956 109.603 221.305 110.409 221.305H146.305C147.105 221.305 147.796 221.952 147.85 222.749Z" fill="white"/>
<path d="M163.686 222.749C163.74 223.547 163.141 224.196 162.337 224.196H154.457C153.657 224.196 152.966 223.549 152.912 222.749C152.858 221.956 153.455 221.305 154.261 221.305H162.141C162.941 221.305 163.632 221.952 163.686 222.749Z" fill="#008BCE"/>
<path d="M195.554 222.749C195.608 223.547 195.01 224.196 194.205 224.196H170.295C169.494 224.196 168.804 223.549 168.749 222.749C168.696 221.956 169.293 221.305 170.099 221.305H194.009C194.809 221.305 195.5 221.952 195.554 222.749Z" fill="white"/>
<path d="M134.58 234.044C134.634 234.842 134.035 235.491 133.231 235.491H111.369C110.569 235.491 109.878 234.844 109.824 234.044C109.77 233.251 110.367 232.6 111.173 232.6H133.035C133.835 232.6 134.526 233.247 134.58 234.044Z" fill="#008BCE"/>
<path d="M179.552 234.044C179.606 234.842 179.007 235.491 178.202 235.491H141.189C140.389 235.491 139.698 234.844 139.644 234.044C139.59 233.251 140.187 232.6 140.993 232.6H178.007C178.807 232.6 179.498 233.247 179.552 234.044Z" fill="white"/>
<path d="M196.32 234.044C196.374 234.842 195.775 235.491 194.971 235.491H186.16C185.36 235.491 184.669 234.844 184.615 234.044C184.561 233.251 185.158 232.6 185.964 232.6H194.775C195.575 232.6 196.266 233.247 196.32 234.044Z" fill="#008BCE"/>
<path d="M213.278 228.95L209.2 233.323C208.911 233.625 208.424 233.625 208.102 233.323L203.432 228.95C202.137 227.736 201.808 225.762 202.808 224.443C203.963 222.929 206.206 222.849 207.653 224.204C207.804 224.345 207.939 224.505 208.065 224.664C208.16 224.505 208.282 224.345 208.414 224.204C209.677 222.849 211.931 222.929 213.282 224.443C214.469 225.762 214.408 227.736 213.278 228.95Z" fill="white"/>
<path d="M228.481 228.95L224.403 233.323C224.114 233.625 223.627 233.625 223.305 233.323L218.635 228.95C217.34 227.736 217.011 225.762 218.011 224.443C219.166 222.929 221.409 222.849 222.856 224.204C223.007 224.345 223.142 224.505 223.268 224.664C223.363 224.505 223.485 224.345 223.617 224.204C224.88 222.849 227.134 222.929 228.485 224.443C229.673 225.762 229.612 227.736 228.481 228.95Z" fill="#008BCE"/>
<path d="M124.643 100.08C124.694 100.837 124.113 101.414 123.399 101.414H107.34C106.604 101.414 105.965 100.821 105.915 100.08C105.866 99.3516 106.43 98.7461 107.159 98.7461H123.218C123.954 98.7461 124.593 99.3395 124.643 100.08Z" fill="#008BCE"/>
<path d="M125.109 106.947C125.161 107.704 124.579 108.281 123.866 108.281H107.806C107.071 108.281 106.432 107.688 106.382 106.947C106.333 106.219 106.897 105.613 107.626 105.613H123.685C124.42 105.613 125.059 106.207 125.109 106.947Z" fill="#008BCE"/>
<path d="M220.953 195.768C221.004 196.524 220.423 197.102 219.71 197.102H203.65C202.915 197.102 202.276 196.508 202.226 195.768C202.176 195.039 202.741 194.434 203.469 194.434H219.529C220.264 194.434 220.903 195.027 220.953 195.768Z" fill="#008BCE"/>
<path d="M221.416 202.637C221.467 203.393 220.886 203.971 220.172 203.971H204.113C203.378 203.971 202.739 203.377 202.689 202.637C202.639 201.908 203.203 201.303 203.932 201.303H219.992C220.727 201.303 221.366 201.896 221.416 202.637Z" fill="#008BCE"/>
<path d="M387.484 270.738H309.146V284.399H387.484V270.738Z" fill="#E1E5E2"/>
<path d="M387.484 284.398H313.184V335.062H387.484V284.398Z" fill="white"/>
<path d="M417.219 270.738H387.484V284.399H417.219V270.738Z" fill="#CBD1CC"/>
<path d="M413.729 284.398H387.484V335.062H413.729V284.398Z" fill="white"/>
<path d="M290.043 335.682C290.603 335.682 291.082 336.075 291.185 336.625C291.506 338.351 291.959 341.206 291.993 343.149C292.023 344.61 291.811 346.088 291.134 347.272H264.542C264.542 347.272 264.219 343.149 268.63 343.084C269.201 343.073 269.79 342.937 270.385 342.707C273.47 341.507 276.65 337.754 277.926 336.125C278.147 335.843 278.48 335.682 278.839 335.682L290.043 335.682Z" fill="white"/>
<path d="M270.691 344.394C270.691 345.477 270.332 346.472 269.737 347.273H264.542C264.542 347.273 264.219 343.151 268.63 343.086C269.201 343.074 269.79 342.939 270.385 342.709C270.585 343.233 270.691 343.799 270.691 344.394Z" fill="white"/>
<path d="M279.412 335.678H289.529L290.238 331.021C288.426 331.704 287.489 331.326 280.736 331.435C280.559 331.435 280.393 331.412 280.239 331.364L279.412 335.678Z" fill="white"/>
<path d="M280.739 331.436H287.928C290.937 331.436 293.594 329.469 294.473 326.589L311.87 271.218C311.87 271.218 332.769 270.914 352.685 270.738C372.038 270.551 365.166 242.182 364.768 240.625C364.768 240.578 364.756 240.555 364.756 240.555C364.65 240.564 303.769 245.814 303.663 245.823C298.02 246.303 293.442 250.6 292.611 256.197L279.498 325.301L278.901 329.305C278.737 330.429 279.603 331.436 280.739 331.436Z" fill="#008BCE"/>
<path d="M280.739 331.436H287.928C290.937 331.436 293.594 329.469 294.473 326.589L311.87 271.218C311.87 271.218 332.769 270.914 352.685 270.738C372.038 270.551 365.166 242.182 364.768 240.625C361.923 243.243 362.607 246.48 361.372 249.465C360.19 252.275 357.251 254.265 354.195 254.276C351.678 254.3 348.798 253.199 346.854 254.815C346.128 255.424 345.707 256.302 345.133 257.039C342.768 260.072 338.272 260.341 334.502 259.592C332.383 259.17 330.088 258.526 328.156 259.51C327.407 259.885 326.798 260.47 326.096 260.927C322.185 263.491 316.624 261.442 312.503 263.655C308.44 265.833 307.386 271.125 304.436 274.672C303.136 276.229 301.462 277.47 300.361 279.168C297.856 283.055 298.921 288.499 296.334 292.339C295.585 293.452 294.554 294.365 293.887 295.536C292.037 298.767 288.22 317.702 285.235 319.915C284.805 322.52 281.99 324.588 279.498 325.301L278.901 329.305C278.737 330.429 279.603 331.436 280.739 331.436Z" fill="#008BCE"/>
<path d="M305.189 331.436H312.377C315.386 331.436 318.044 329.469 318.922 326.589L336.32 271.218C336.32 271.218 357.219 270.914 377.135 270.738C394.334 270.574 390.833 248.188 389.557 242.077C389.346 241.117 389.206 240.555 389.206 240.555L358.484 243.259L328.125 245.823C322.481 246.303 317.903 250.6 317.06 256.197L303.596 327.76L303.362 329.305C303.187 330.429 304.065 331.436 305.189 331.436Z" fill="#008BCE"/>
<path d="M305.189 331.436H312.377C315.386 331.436 318.044 329.468 318.922 326.588L336.32 271.217C336.32 271.217 357.219 270.913 377.135 270.738C394.334 270.573 390.833 248.188 389.557 242.076C389.475 242.123 389.393 242.181 389.311 242.24C387.531 243.587 386.138 245.436 385.342 247.509C384.042 250.904 384.054 255.236 381.033 257.285C376.385 260.434 369.501 254.814 364.666 257.66C363.073 258.596 362.066 260.294 360.603 261.406C358.132 263.279 354.76 263.268 351.658 263.174C348.415 263.08 345.172 262.987 341.928 262.893C338.627 262.799 334.95 262.835 332.527 265.082C330.958 266.534 330.22 268.665 329.541 270.702C325.272 283.51 324.968 285.514 322.809 287.223C321.744 288.065 320.374 288.487 319.308 289.342C317.014 291.192 311.816 308.663 312.003 311.614C312.19 314.552 312.694 317.667 311.453 320.336C309.931 323.626 306.231 325.289 303.596 327.759L303.362 329.305C303.187 330.428 304.065 331.436 305.189 331.436Z" fill="#008BCE"/>
<path d="M390.731 241.355C363.736 251.242 364.507 239.125 341.672 242.634C343.034 216.559 344.403 190.449 346.335 178.16C346.769 177.6 347.661 177.097 348.598 176.526C352.324 174.297 356.553 173.006 360.884 172.606L371.525 171.611C371.525 171.611 386.324 173.871 389.983 177.863C397.984 186.594 390.731 241.355 390.731 241.355Z" fill="white"/>
<path d="M360.26 155.879V172.661L360.644 200.127L370.901 171.616V155.879H360.26Z" fill="white"/>
<path d="M392.45 183.824L397.264 210.075C397.709 213.421 396.132 216.711 393.24 218.452C385.381 223.181 369.48 230.487 360.413 235.496C361.384 234.426 361.772 232.412 360.504 230.483C358.652 227.666 355.632 225.385 353.752 225.385C353.646 225.385 353.541 225.392 353.449 225.413L381.072 209.634L376.988 192.29" fill="white"/>
<path d="M314.492 335.682C315.052 335.682 315.532 336.075 315.634 336.625C315.955 338.351 316.409 341.206 316.443 343.149C316.472 344.61 316.26 346.088 315.583 347.272H288.992C288.992 347.272 288.668 343.149 293.079 343.084C296.399 343.016 300.338 338.726 302.375 336.125C302.596 335.843 302.929 335.682 303.288 335.682H314.492Z" fill="white"/>
<path d="M316.444 343.151C316.473 344.612 316.261 346.09 315.584 347.274H311.061C311.12 344.918 313.051 343.027 315.419 343.027C315.772 343.027 316.114 343.069 316.444 343.151Z" fill="white"/>
<path d="M294.186 347.273H288.992C288.992 347.273 288.668 343.151 293.079 343.086C293.65 343.074 294.239 342.939 294.834 342.709C295.383 344.146 295.212 345.892 294.186 347.273Z" fill="white"/>
<path d="M303.863 335.678H313.98L314.689 331.021C313.968 331.293 313.176 331.435 312.373 331.435C304.747 331.411 305.098 331.49 304.691 331.364L303.863 335.678Z" fill="white"/>
<path d="M270.991 205.775L285.867 241.373H348.194L333.002 204.436C332.155 202.409 330.164 201.098 327.968 201.121L273.726 201.621C271.599 201.644 270.17 203.812 270.991 205.775Z" fill="white"/>
<path d="M341.416 222.234C337.787 221.862 338.151 224.796 342.405 225.615C332.729 225.872 331.443 229.283 337.54 229.284C337.54 229.284 332.903 232.095 337.594 232.603C337.594 232.603 333.931 235.68 338.329 235.341C333.887 239.354 345.712 239.612 352.864 234.521L361.082 232.16C360.042 229.302 357.972 226.997 354.578 225.296L341.416 222.234Z" fill="white"/>
<path d="M350.652 152.592C350.652 160.394 355.296 166.716 361.024 166.716C365.481 166.716 369.28 162.888 370.748 157.516C373.329 157.972 376.19 156.431 376.19 154.061C376.19 152.61 375.078 151.363 373.481 150.821C362.23 149.848 356.922 145 354.544 141.568C352.173 144.155 350.652 148.135 350.652 152.592Z" fill="white"/>
<path d="M355.686 152.725C355.463 153.671 355.197 154.608 354.886 155.53C354.722 156.017 354.566 156.617 354.913 156.997C355.17 157.279 355.602 157.308 355.982 157.268C356.362 157.228 356.754 157.14 357.117 157.259" fill="white"/>
<path d="M360.04 160.062C359.17 160.99 357.906 161.535 356.635 161.53L360.04 160.062Z" fill="white"/>
<path d="M362.546 149.706C362.546 149.706 361.01 148.141 359.357 149.368L362.546 149.706Z" fill="white"/>
<path d="M353.415 149.099C353.415 149.099 352.12 147.779 350.727 148.814L353.415 149.099Z" fill="white"/>
<path d="M348.905 176.348L335.275 182.963L311.482 167.814L304.889 175.444C304.889 175.444 323.026 195.832 331.629 197.5C333.981 197.955 346.314 191.558 346.314 191.558" fill="white"/>
<path d="M295.52 166.419C296.022 166.982 296.569 167.499 297.17 167.963C298.736 169.156 302.165 171.688 303.975 172.342C304.894 173.217 306.141 174.475 307.13 175.688C307.161 175.68 307.184 175.672 307.206 175.657C308.065 175.216 308.643 174.456 308.643 174.456C310.446 172.573 311.496 170.267 311.654 169.316C310.748 167.971 309.177 165.391 309.016 163.766C308.78 161.409 308.643 156.2 307.115 156.588C305.594 156.984 304.355 160.147 304.743 162.473C304.743 162.473 300.247 158.852 299.449 155.605C299.449 155.605 298.989 153.616 297.791 154.622C297.424 154.93 297.786 158.52 298.432 159.47C298.044 158.983 296.448 157.037 296.159 156.444C295.802 155.752 294.349 155.995 295.018 158.451L295.011 158.443C294.904 158.398 294.129 158.002 293.695 158.443C293.163 158.998 293.992 160.664 294.068 160.808C293.992 160.755 293.46 160.337 292.851 160.922C291.84 161.918 294.189 164.891 295.52 166.419Z" fill="white"/>
<path d="M304.746 162.473C304.746 162.473 305.066 164.811 305.982 165.919L304.746 162.473Z" fill="white"/>
<path d="M295.014 158.445C295.014 158.445 296.211 160.162 297.644 161.378L295.014 158.445Z" fill="white"/>
<path d="M294.076 160.818C294.076 160.818 295.693 162.654 296.827 163.533L294.076 160.818Z" fill="white"/>
<path d="M342.713 244.566C342.713 246.331 344.143 247.762 345.908 247.762H373.969C375.733 247.762 377.164 246.331 377.164 244.566C377.164 242.802 375.733 241.371 373.969 241.371H345.908C344.143 241.371 342.713 242.802 342.713 244.566Z" fill="white"/>
<path d="M380.219 313.225H352.568V327.917H380.219V313.225Z" fill="#008BCE"/>
<path d="M377.473 324.625H355.814C355.654 324.625 355.525 324.496 355.525 324.336C355.525 324.176 355.654 324.047 355.814 324.047H377.473C377.633 324.047 377.762 324.176 377.762 324.336C377.762 324.496 377.633 324.625 377.473 324.625Z" fill="white"/>
<path d="M377.473 320.86H355.814C355.654 320.86 355.525 320.73 355.525 320.57C355.525 320.411 355.654 320.281 355.814 320.281H377.473C377.633 320.281 377.762 320.411 377.762 320.57C377.762 320.73 377.633 320.86 377.473 320.86Z" fill="white"/>
<path d="M377.473 317.096H355.814C355.654 317.096 355.525 316.967 355.525 316.807C355.525 316.647 355.654 316.518 355.814 316.518H377.473C377.633 316.518 377.762 316.647 377.762 316.807C377.762 316.967 377.633 317.096 377.473 317.096Z" fill="white"/>
<path d="M78.7673 261.983C78.7673 261.983 68.2139 264.291 64.0915 272.701C59.9691 281.111 52.2189 287.295 52.2189 287.295C52.2189 287.295 49.4981 272.371 55.2695 265.528C61.041 258.685 66.8123 256.376 78.7673 261.983Z" fill="#008BCE"/>
<path d="M69.8848 225.165C69.8848 225.165 43.1683 222.73 47.7065 266.167C47.7065 266.167 55.9911 258.879 58.5361 245.654C61.0813 232.428 69.8848 225.165 69.8848 225.165Z" fill="#008BCE"/>
<path d="M19.832 234.901C19.832 234.901 47.1722 225.041 43.0922 278.407C43.0922 278.407 35.2834 273.652 33.1294 261.959C30.9755 250.266 25.3054 236.564 19.832 234.901Z" fill="#008BCE"/>
<path d="M10.1621 270.035C10.1621 270.035 32.8963 258.635 37.2708 280.706C37.2708 280.706 39.5906 290.251 38.5964 294.824C37.6022 299.398 28.1787 278.737 24.5031 275.137C19.3017 270.043 10.1621 270.035 10.1621 270.035Z" fill="#008BCE"/>
<path d="M29.502 311.672L34.2889 333.215C34.5632 334.45 35.6586 335.329 36.9236 335.329H53.6141C54.8791 335.329 55.9744 334.45 56.2489 333.215L61.0358 311.672H29.502Z" fill="white"/>
<path d="M63.1458 305.943V310.95C63.1458 311.416 62.7675 311.795 62.3008 311.795H28.2357C27.7689 311.795 27.3906 311.416 27.3906 310.95V305.943C27.3906 305.476 27.769 305.098 28.2357 305.098H62.3008C62.7675 305.098 63.1458 305.476 63.1458 305.943Z" fill="white"/>
<path d="M257.984 89.164V125.526C257.984 126.996 259.176 128.188 260.647 128.188H286.245L303.316 142.158C304.285 142.951 305.74 142.262 305.74 141.01V128.188H315.016C316.486 128.188 317.678 126.996 317.678 125.526V89.164C317.678 87.6936 316.486 86.502 315.016 86.502H260.647C259.176 86.502 257.984 87.6936 257.984 89.164Z" fill="white"/>
<path d="M264.004 94.9713V119.232C264.004 120.33 264.903 121.208 266.001 121.208H309.667C310.765 121.208 311.664 120.329 311.664 119.232V94.9713C311.664 93.8732 310.765 92.9746 309.667 92.9746H266.001C264.903 92.9746 264.004 93.8732 264.004 94.9713Z" fill="#A0D2F4"/>
<path d="M270.957 109.861L270.944 110.535C270.941 110.698 270.828 110.82 270.65 110.82C270.489 110.82 270.37 110.716 270.373 110.535L270.386 109.861C269.713 109.817 269.085 109.669 268.503 109.415C268.358 109.354 268.245 109.195 268.248 109.026C268.254 108.732 268.54 108.54 268.816 108.666C269.318 108.894 269.846 109.02 270.401 109.045L270.442 106.863C269.331 106.564 268.367 106.171 268.388 105.004C268.406 104.039 269.134 103.186 270.513 103.068L270.525 102.404C270.528 102.245 270.643 102.109 270.812 102.109C270.968 102.109 271.099 102.231 271.096 102.404L271.084 103.058C271.695 103.083 272.237 103.188 272.707 103.371C273.012 103.483 273.025 103.824 272.854 104.026C272.759 104.138 272.613 104.186 272.431 104.111C272.01 103.96 271.556 103.874 271.069 103.855L271.026 106.114C272.223 106.401 273.178 106.77 273.153 108.021C273.138 108.955 272.377 109.778 270.957 109.861ZM270.459 105.971L270.497 103.884C269.851 103.971 269.253 104.286 269.242 104.937C269.229 105.581 269.838 105.806 270.459 105.971ZM272.313 107.964C272.323 107.375 271.613 107.172 271.01 107.005L270.972 109.045C271.853 108.982 272.3 108.622 272.313 107.964Z" fill="white"/>
<path d="M279.597 109.396L279.621 108.106H276.765C276.47 108.106 276.226 107.875 276.233 107.565L276.234 107.48C276.237 107.347 276.277 107.233 276.353 107.138L279.364 103.333C279.466 103.194 279.647 103.105 279.836 103.105H280.024C280.357 103.105 280.562 103.347 280.556 103.656L280.487 107.337H281.2C281.41 107.337 281.581 107.509 281.576 107.726C281.572 107.95 281.39 108.106 281.185 108.106H280.473L280.45 109.396C280.445 109.645 280.243 109.823 280.012 109.823C279.773 109.823 279.593 109.638 279.597 109.396ZM277.145 107.337H279.635L279.696 104.083L277.145 107.337Z" fill="white"/>
<path d="M282.907 108.948C282.054 107.711 282.1 105.214 282.999 103.977C283.89 102.748 285.901 102.726 286.768 103.977C287.626 105.216 287.579 107.712 286.675 108.948C285.765 110.196 283.754 110.181 282.907 108.948ZM286.054 108.379C286.653 107.455 286.697 105.492 286.125 104.555C285.554 103.62 284.228 103.625 283.625 104.555C283.018 105.494 282.988 107.451 283.554 108.379C284.124 109.314 285.45 109.31 286.054 108.379Z" fill="white"/>
<path d="M288.375 109.272L288.377 109.215C288.382 108.922 288.621 108.684 288.911 108.684H289.004C289.295 108.684 289.524 108.925 289.519 109.215L289.517 109.272C289.513 109.563 289.273 109.803 288.983 109.803H288.89C288.6 109.803 288.37 109.565 288.375 109.272Z" fill="white"/>
<path d="M291.223 108.948C290.37 107.711 290.416 105.214 291.316 103.977C292.206 102.748 294.218 102.726 295.084 103.977C295.943 105.216 295.896 107.712 294.991 108.948C294.081 110.196 292.07 110.181 291.223 108.948ZM294.37 108.379C294.97 107.455 295.014 105.492 294.441 104.555C293.871 103.62 292.545 103.625 291.941 104.555C291.334 105.494 291.304 107.451 291.87 108.379C292.44 109.314 293.767 109.31 294.37 108.379Z" fill="white"/>
<path d="M297.104 108.948C296.251 107.711 296.297 105.214 297.197 103.977C298.087 102.748 300.098 102.726 300.965 103.977C301.824 105.216 301.776 107.712 300.872 108.948C299.962 110.196 297.951 110.181 297.104 108.948ZM300.251 108.379C300.85 107.455 300.895 105.492 300.322 104.555C299.752 103.62 298.425 103.625 297.822 104.555C297.215 105.494 297.185 107.451 297.751 108.379C298.321 109.314 299.648 109.31 300.251 108.379Z" fill="white"/>
<path d="M302.983 108.948C302.13 107.711 302.176 105.214 303.076 103.977C303.966 102.748 305.977 102.726 306.844 103.977C307.703 105.216 307.655 107.712 306.751 108.948C305.841 110.196 303.83 110.181 302.983 108.948ZM306.13 108.379C306.729 107.455 306.774 105.492 306.201 104.555C305.631 103.62 304.304 103.625 303.701 104.555C303.094 105.494 303.064 107.451 303.63 108.379C304.2 109.314 305.527 109.31 306.13 108.379Z" fill="white"/>
<path d="M63.9759 127.643L66.691 161.329C66.7727 162.342 66.0134 163.168 65.0007 163.168H42.6731L38.1487 170.055L32.5064 163.168H10.171C9.15047 163.168 8.27366 162.342 8.19202 161.329L5.47691 127.643C5.39468 126.623 6.1383 125.797 7.15882 125.797H61.9886C63.0013 125.797 63.8937 126.623 63.9759 127.643Z" fill="white"/>
<path d="M9.95175 131.644L11.9939 156.981C12.0549 157.739 12.7246 158.345 13.4827 158.345H60.9188C61.6772 158.345 62.2488 157.739 62.1877 156.981L60.1456 131.644C60.0845 130.886 59.414 130.266 58.6556 130.266H11.2194C10.4613 130.266 9.89066 130.886 9.95175 131.644Z" fill="#A0D2F4"/>
<path d="M25.3874 144.381L22.1361 147.924L18.3071 144.381C17.1863 143.344 17.0507 141.662 18.0044 140.625C18.8923 139.652 20.4204 139.588 21.5321 140.432C22.5083 139.594 24.0404 139.659 25.0846 140.625C26.2054 141.662 26.341 143.344 25.3874 144.381Z" fill="white"/>
<path d="M31.2303 146.654C31.0631 146.542 31.0176 146.45 31.0056 146.296C30.9779 145.955 31.2705 145.772 31.572 145.919C32.1096 146.197 32.6429 146.336 33.1713 146.336C34.2831 146.336 35.0553 146.039 34.9664 144.936C34.8964 144.067 34.2309 143.606 33.3424 143.606C32.6723 143.606 32.2453 143.799 31.7628 144.097C31.6258 144.181 31.3038 144.184 31.065 143.993C30.9319 143.887 30.8593 143.748 30.8452 143.575C30.828 143.364 30.8402 143.479 31.0731 140.696C31.0883 140.376 31.2908 140.199 31.5519 140.199H34.6925C34.9284 140.199 35.128 140.387 35.1476 140.626C35.1675 140.873 34.9897 141.043 34.7603 141.043H31.923L31.7794 143.148C32.2533 142.878 32.7938 142.742 33.4005 142.742C34.832 142.742 35.753 143.64 35.8611 144.986C35.9651 146.272 35.1907 147.23 33.3606 147.23C32.5646 147.23 31.8547 147.038 31.2303 146.654Z" fill="white"/>
<path d="M37.3753 146.654C37.09 146.464 37.108 146.154 37.2338 145.994C37.3482 145.848 37.553 145.839 37.7175 145.919C38.2547 146.197 38.788 146.336 39.3164 146.336C40.4282 146.336 41.2004 146.039 41.1115 144.936C41.0415 144.067 40.376 143.606 39.4875 143.606C38.8173 143.606 38.3904 143.799 37.9079 144.097C37.7709 144.181 37.449 144.184 37.2101 143.993C37.0008 143.826 36.9676 143.603 36.9907 143.337L37.2182 140.696C37.2334 140.376 37.4359 140.199 37.697 140.199H40.8374C41.0733 140.199 41.2729 140.387 41.2924 140.626C41.3124 140.873 41.1346 141.043 40.9052 141.043H38.0679L37.9243 143.148C38.3982 142.878 38.9388 142.742 39.5454 142.742C41.0142 142.742 41.901 143.679 42.006 144.986C42.1099 146.272 41.3356 147.23 39.5055 147.23C38.7096 147.23 37.9998 147.038 37.3753 146.654Z" fill="white"/>
<path d="M43.7658 146.266C42.7496 144.975 42.5335 142.364 43.3463 141.063C44.1722 139.743 46.2793 139.793 47.2843 141.063C48.3077 142.356 48.5229 144.968 47.7038 146.266C46.8629 147.6 44.7546 147.524 43.7658 146.266ZM46.9955 145.671C47.5249 144.703 47.3693 142.652 46.6728 141.669C46.0026 140.722 44.6088 140.667 44.0602 141.669C43.5237 142.65 43.696 144.702 44.3829 145.671C45.0564 146.621 46.4489 146.669 46.9955 145.671Z" fill="white"/>
<path d="M49.912 146.266C48.8929 144.971 48.6824 142.358 49.4925 141.063C50.3185 139.743 52.4255 139.793 53.4306 141.063C54.457 142.359 54.6661 144.973 53.8501 146.266C53.0092 147.6 50.9009 147.524 49.912 146.266ZM53.1419 145.671C53.6713 144.703 53.5157 142.652 52.8191 141.669C52.1489 140.722 50.7551 140.667 50.2065 141.669C49.6701 142.65 49.8424 144.702 50.5293 145.671C51.2044 146.625 52.5976 146.666 53.1419 145.671Z" fill="white"/>
<path d="M231.339 69.928C230.65 59.1374 221.967 51 211.141 51C195.371 51 122.411 51.0002 94.8131 51.0002C82.7092 51.0002 72.8965 61.3783 73.6653 73.4958L89.3224 320.477C90.009 331.266 98.6918 339.401 109.519 339.401C124.605 339.401 224.655 339.399 225.84 339.399C237.982 339.399 247.761 328.997 246.995 316.914L231.339 69.928ZM109.519 338.823C99.0013 338.823 90.5665 330.92 89.8993 320.441L74.2422 73.459C73.4984 61.7341 82.9825 51.5786 94.8132 51.5786H99.2401C89.1106 54.0153 82.3079 63.4186 82.9469 73.4974C83.0118 74.5209 98.5374 319.416 98.6352 320.721C99.3107 329.71 105.581 336.817 113.897 338.823L109.519 338.823ZM225.84 338.821H118.813C108.296 338.821 99.8601 330.922 99.1913 320.447C98.9478 316.608 83.6181 74.8459 83.5302 73.459C82.7856 61.7241 92.2987 51.5786 104.101 51.5786C104.101 51.5786 104.101 51.5784 104.102 51.5784C104.102 51.5784 104.102 51.5784 104.102 51.5784H211.141C221.658 51.5784 230.093 59.4827 230.762 69.9646L246.418 316.95C247.162 328.689 237.662 338.821 225.84 338.821Z" fill="#0A0A0A"/>
<path d="M226.983 70.31C226.427 61.7901 219.572 55.3652 211.038 55.3652H178.787C177.484 55.3652 176.366 56.3754 176.243 57.6649L175.607 64.3222C175.504 65.3244 174.639 66.1094 173.638 66.1094H140.496C139.627 66.1094 138.879 65.5197 138.676 64.6761L136.902 57.2354C136.645 56.1344 135.668 55.3654 134.528 55.3654H104.415C94.2563 55.3654 86.7016 63.6062 87.3053 73.1127L102.972 320.102C103.517 328.616 110.368 335.037 118.907 335.037H225.949C235.393 335.037 243.251 326.98 242.649 317.29L226.983 70.31ZM225.949 334.459H118.907C110.677 334.459 104.074 328.271 103.548 320.065L87.8821 73.076C87.3016 63.9335 94.5575 55.9437 104.415 55.9437H134.528C135.398 55.9437 136.143 56.5288 136.339 57.368L138.113 64.8105C138.379 65.9157 139.359 66.6878 140.496 66.6878H173.638C174.932 66.6878 176.049 65.6745 176.183 64.3791L176.819 57.7197C176.914 56.7238 177.779 55.9437 178.787 55.9437H211.038C219.264 55.9437 225.87 62.1359 226.406 70.3471L242.072 317.326C242.645 326.558 235.172 334.459 225.949 334.459Z" fill="#0A0A0A"/>
<path d="M107.022 64.5407C106.764 62.0618 104.536 60.0449 102.057 60.0449C99.5459 60.0449 97.7126 62.086 97.974 64.6003C98.2318 67.0764 100.458 69.091 102.938 69.091C105.45 69.0911 107.283 67.0496 107.022 64.5407ZM98.5493 64.5407C98.323 62.3687 99.8884 60.6234 102.057 60.6234C104.249 60.6234 106.219 62.4075 106.447 64.6004C106.67 66.7459 105.126 68.5127 102.938 68.5127C100.746 68.5126 98.7772 66.7307 98.5493 64.5407Z" fill="#0A0A0A"/>
<path d="M104.141 66.0571C104.248 65.9389 104.24 65.756 104.121 65.6487L102.905 64.5473L103.873 63.4671C103.979 63.3481 103.969 63.1654 103.85 63.0587C103.732 62.9528 103.549 62.9615 103.442 63.0811L102.476 64.1591L101.262 63.0597C100.977 62.8024 100.591 63.2323 100.874 63.4885L102.09 64.5896L101.122 65.67C101.016 65.7891 101.026 65.9717 101.145 66.0785C101.264 66.1852 101.446 66.1748 101.553 66.056L102.519 64.9781L103.733 66.0775C103.851 66.1846 104.034 66.1756 104.141 66.0571Z" fill="#0A0A0A"/>
<path d="M205.07 61.553H216.129C216.289 61.553 216.418 61.4235 216.418 61.2638C216.418 61.104 216.289 60.9746 216.129 60.9746H205.07C204.911 60.9746 204.781 61.104 204.781 61.2638C204.781 61.4235 204.911 61.553 205.07 61.553Z" fill="#0A0A0A"/>
<path d="M205.123 64.5607C205.123 64.7204 205.252 64.8499 205.412 64.8499H216.471C216.631 64.8499 216.76 64.7204 216.76 64.5607C216.76 64.4009 216.631 64.2715 216.471 64.2715H205.412C205.252 64.2715 205.123 64.401 205.123 64.5607Z" fill="#0A0A0A"/>
<path d="M205.465 67.8576C205.465 68.0173 205.594 68.1467 205.754 68.1467H216.813C216.972 68.1467 217.102 68.0173 217.102 67.8576C217.102 67.6978 216.972 67.5684 216.813 67.5684H205.754C205.594 67.5684 205.465 67.6978 205.465 67.8576Z" fill="#0A0A0A"/>
<path d="M153.891 60.862H170.757C172.012 60.862 172.952 59.8389 172.819 58.5624V58.5622C172.69 57.327 171.58 56.3223 170.345 56.3223H153.479C152.216 56.3223 151.285 57.3526 151.417 58.6223C151.546 59.8572 152.656 60.862 153.891 60.862ZM153.479 56.9008H170.345C171.293 56.9008 172.145 57.6731 172.244 58.6222C172.34 59.5431 171.683 60.2836 170.757 60.2836H153.891C152.943 60.2836 152.091 59.5116 151.992 58.5625C151.895 57.6363 152.559 56.9008 153.479 56.9008Z" fill="#0A0A0A"/>
<path d="M144.264 60.862H145.974C147.239 60.862 148.167 59.8288 148.036 58.5624C147.907 57.3272 146.797 56.3223 145.561 56.3223H143.852C142.587 56.3223 141.658 57.3561 141.79 58.6221C141.918 59.8572 143.028 60.862 144.264 60.862ZM143.852 56.9008H145.561C146.51 56.9008 147.362 57.6731 147.46 58.6222C147.557 59.5431 146.899 60.2836 145.974 60.2836H144.264C143.316 60.2836 142.464 59.5116 142.365 58.5623C142.269 57.6386 142.929 56.9008 143.852 56.9008Z" fill="#0A0A0A"/>
<path d="M211.586 312.451H203.652C203.485 312.451 203.352 312.593 203.364 312.761L203.919 320.512C203.93 320.663 204.056 320.78 204.208 320.78H212.142C212.309 320.78 212.442 320.638 212.43 320.471L211.874 312.72C211.863 312.569 211.738 312.451 211.586 312.451ZM204.477 320.202L203.963 313.03H211.317L211.831 320.202H204.477Z" fill="#0A0A0A"/>
<path d="M137.778 311.717C137.683 311.672 137.573 311.682 137.487 311.743L130.915 316.405C130.837 316.461 130.791 316.552 130.793 316.647C130.795 316.743 130.845 316.832 130.925 316.884L138.148 321.565C138.244 321.626 138.361 321.625 138.453 321.571C138.547 321.515 138.602 321.411 138.594 321.302L137.943 311.958C137.936 311.854 137.873 311.762 137.778 311.717ZM131.597 316.631L137.402 312.512L137.977 320.764L131.597 316.631Z" fill="#0A0A0A"/>
<path d="M172.234 312.451C169.934 312.451 168.123 314.332 168.292 316.706C168.453 318.953 170.413 320.78 172.661 320.78C174.988 320.78 176.771 318.875 176.604 316.536C176.442 314.284 174.482 312.451 172.234 312.451ZM172.661 320.202C170.71 320.202 169.009 318.615 168.869 316.665C168.725 314.658 170.237 313.03 172.234 313.03C174.185 313.03 175.886 314.621 176.027 316.578C176.17 318.575 174.657 320.202 172.661 320.202Z" fill="#0A0A0A"/>
<path d="M205.55 291.863C208.234 291.863 210.427 289.512 210.245 286.861L209.022 269.041C208.869 266.801 207.051 265.111 204.794 265.111H132.691C130.013 265.111 127.812 267.456 127.995 270.113L129.218 287.933C129.371 290.173 131.189 291.863 133.446 291.863H205.55ZM129.794 287.893L128.572 270.074C128.412 267.753 130.345 265.69 132.691 265.69H204.794C206.743 265.69 208.313 267.147 208.446 269.081L209.669 286.9C209.828 289.221 207.896 291.285 205.55 291.285H133.446C131.497 291.285 129.927 289.827 129.794 287.893Z" fill="#0A0A0A"/>
<path d="M113.953 211.001H222.508C225.865 211.001 228.408 208.284 228.18 204.918L220.965 98.4112C220.739 95.0786 217.844 92.3672 214.511 92.3672H105.955C102.599 92.3672 100.056 95.0845 100.284 98.4503L107.499 204.957C107.725 208.29 110.619 211.001 113.953 211.001ZM100.861 98.4112C100.656 95.3855 102.929 92.9456 105.955 92.9456H214.511C217.546 92.9456 220.183 95.415 220.388 98.4503L227.603 204.957C227.806 207.951 225.564 210.423 222.508 210.423H113.953C110.918 210.423 108.281 207.954 108.075 204.918L100.861 98.4112Z" fill="#0A0A0A"/>
<path d="M143.696 136.735C143.768 136.77 143.852 136.773 143.928 136.744C144.002 136.714 144.062 136.655 144.091 136.579L146.129 131.327L150.813 144.466H150.725C150.566 144.466 150.436 144.596 150.436 144.755C150.436 144.915 150.566 145.044 150.725 145.044H150.755C149.31 148.031 140.898 166.869 143.654 195.185C143.855 198.139 190.85 198.109 190.648 195.155C189.564 166.897 178.657 148.088 176.773 145.04C176.923 145.029 177.042 144.908 177.042 144.755C177.042 144.596 176.913 144.466 176.753 144.466H176.611L179.555 131.337L182.274 136.607C182.347 136.748 182.52 136.805 182.663 136.732L194.365 130.755C194.434 130.719 194.486 130.657 194.509 130.583C194.532 130.508 194.524 130.427 194.487 130.359L184.982 112.991C183.798 110.866 181.78 109.418 179.442 109.016L172.674 107.912C172.593 107.899 172.511 107.92 172.448 107.971C172.384 108.022 172.345 108.098 172.34 108.179C171.757 117.2 166.738 120.581 162.146 120.064C162.121 120.061 162.095 120.061 162.069 120.064C161.692 120.117 152.826 121.148 150.229 108.141C150.198 107.988 150.052 107.886 149.898 107.912L143.268 109.016C140.925 109.42 139.094 110.881 138.246 113.022L131.096 130.387C131.038 130.529 131.1 130.692 131.239 130.758L143.696 136.735ZM190.076 195.152C188.893 197.343 145.38 197.308 144.23 195.138C141.385 165.907 150.487 146.863 151.399 145.045H153.541L151.844 152.173C151.807 152.329 151.903 152.485 152.058 152.521C152.209 152.559 152.369 152.465 152.406 152.307L154.135 145.045H157.307L156.35 149.558C156.317 149.715 156.417 149.868 156.573 149.901C156.728 149.934 156.883 149.836 156.916 149.678L157.898 145.045H176.094C177.165 146.72 188.944 165.801 190.076 195.152ZM138.782 113.239C139.556 111.286 141.227 109.955 143.365 109.586L149.718 108.529C152.405 121.351 161.416 120.711 162.106 120.642C166.947 121.194 172.203 117.629 172.894 108.534L179.346 109.586C181.509 109.958 183.379 111.302 184.476 113.271L193.837 130.375L182.656 136.086L179.704 130.365C179.648 130.257 179.534 130.195 179.411 130.211C179.29 130.226 179.192 130.316 179.165 130.434L176.019 144.466H151.427L146.413 130.4C146.372 130.287 146.265 130.21 146.145 130.208C146.143 130.208 146.142 130.208 146.141 130.208C146.021 130.208 145.914 130.282 145.871 130.393L143.665 136.079L131.735 130.355L138.782 113.239Z" fill="#0A0A0A"/>
<path d="M146.501 224.401C147.466 224.401 148.204 223.618 148.138 222.646C148.074 221.7 147.252 220.932 146.305 220.932H110.409C109.436 220.932 108.706 221.724 108.772 222.684C108.835 223.631 109.658 224.401 110.605 224.401H146.501ZM109.348 222.646C109.306 222.022 109.767 221.51 110.409 221.51H146.305C146.954 221.51 147.517 222.037 147.561 222.685C147.604 223.32 147.135 223.823 146.501 223.823H110.605C109.956 223.823 109.392 223.295 109.348 222.646Z" fill="#0A0A0A"/>
<path d="M162.337 224.401C163.305 224.401 164.04 223.616 163.975 222.646C163.91 221.7 163.088 220.932 162.141 220.932H154.261C153.301 220.932 152.558 221.71 152.623 222.685C152.688 223.631 153.51 224.401 154.457 224.401H162.337ZM153.2 222.646C153.159 222.024 153.618 221.51 154.261 221.51H162.141C162.79 221.51 163.354 222.037 163.398 222.684C163.44 223.317 162.974 223.823 162.337 223.823H154.457C153.808 223.823 153.244 223.295 153.2 222.646Z" fill="#0A0A0A"/>
<path d="M195.842 222.645C195.778 221.7 194.956 220.932 194.009 220.932H170.099C169.125 220.932 168.395 221.724 168.461 222.684C168.525 223.631 169.347 224.401 170.294 224.401H194.205C195.172 224.401 195.908 223.617 195.842 222.645ZM169.038 222.646C168.996 222.022 169.457 221.51 170.099 221.51H194.009C194.658 221.51 195.222 222.037 195.266 222.685C195.309 223.317 194.841 223.823 194.205 223.823H170.294C169.645 223.823 169.082 223.295 169.038 222.646Z" fill="#0A0A0A"/>
<path d="M134.87 233.942C134.806 232.997 133.984 232.229 133.037 232.229H111.175C110.201 232.229 109.472 233.022 109.537 233.982C109.602 234.928 110.424 235.698 111.371 235.698H133.233C134.201 235.698 134.935 234.913 134.87 233.942ZM110.114 233.942C110.072 233.314 110.539 232.807 111.175 232.807H133.037C133.686 232.807 134.249 233.334 134.293 233.981C134.336 234.615 133.868 235.12 133.233 235.12H111.371C110.722 235.12 110.158 234.591 110.114 233.942Z" fill="#0A0A0A"/>
<path d="M179.84 233.942C179.776 232.997 178.953 232.229 178.007 232.229H140.993C140.014 232.229 139.29 233.028 139.356 233.981C139.419 234.928 140.242 235.698 141.189 235.698H178.203C179.169 235.698 179.906 234.914 179.84 233.942ZM139.932 233.942C139.89 233.315 140.356 232.807 140.993 232.807H178.006C178.655 232.807 179.219 233.334 179.263 233.981C179.306 234.614 178.838 235.12 178.202 235.12H141.189C140.54 235.12 139.976 234.592 139.932 233.942Z" fill="#0A0A0A"/>
<path d="M186.158 235.698H194.969C195.936 235.698 196.673 234.914 196.606 233.942C196.542 232.997 195.72 232.229 194.773 232.229H185.962C184.983 232.229 184.259 233.028 184.324 233.981C184.388 234.928 185.211 235.698 186.158 235.698ZM185.962 232.807H194.773C195.422 232.807 195.986 233.334 196.03 233.981C196.073 234.614 195.605 235.12 194.969 235.12H186.158C185.509 235.12 184.945 234.592 184.901 233.942C184.859 233.315 185.325 232.807 185.962 232.807Z" fill="#0A0A0A"/>
<path d="M208.042 224.109C206.563 222.482 203.925 222.417 202.576 224.187C201.513 225.59 201.801 227.739 203.233 229.08L207.903 233.454C208.336 233.86 209.011 233.855 209.41 233.44L213.487 229.066C214.747 227.715 214.751 225.564 213.496 224.17C211.997 222.489 209.401 222.414 208.042 224.109ZM213.064 228.672L208.99 233.042C208.81 233.231 208.506 233.226 208.298 233.032L203.628 228.658C202.41 227.517 202.15 225.707 203.036 224.537C204.139 223.091 206.449 223.013 207.836 224.763C207.963 224.923 208.207 224.903 208.311 224.732C209.249 223.167 211.644 222.963 213.066 224.555C214.122 225.73 214.122 227.538 213.064 228.672Z" fill="#0A0A0A"/>
<path d="M223.246 224.11C221.767 222.482 219.127 222.42 217.779 224.187C216.716 225.591 217.005 227.74 218.436 229.08L223.106 233.454C223.546 233.866 224.207 233.862 224.613 233.44L228.691 229.066C229.95 227.715 229.954 225.563 228.7 224.17C227.189 222.477 224.584 222.426 223.246 224.11ZM228.268 228.672L224.194 233.043C224.012 233.23 223.708 233.226 223.501 233.032L218.831 228.658C217.613 227.517 217.353 225.707 218.239 224.538C219.343 223.092 221.652 223.012 223.04 224.763C223.166 224.924 223.411 224.903 223.514 224.732C224.451 223.162 226.851 222.966 228.269 224.556C229.325 225.73 229.325 227.537 228.268 228.672Z" fill="#0A0A0A"/>
<path d="M114.978 248.809L114.81 246.338C115.352 246.358 115.864 246.452 116.346 246.618C116.555 246.7 116.712 246.647 116.807 246.525C116.976 246.307 116.934 245.931 116.582 245.808C116.042 245.608 115.432 245.493 114.752 245.465L114.703 244.749C114.675 244.331 114.04 244.311 114.07 244.749L114.119 245.476C112.586 245.606 111.876 246.55 111.946 247.594C112.034 248.878 113.167 249.308 114.4 249.63L114.562 252.018C113.944 251.991 113.346 251.852 112.769 251.603C112.443 251.464 112.15 251.681 112.172 251.997C112.184 252.184 112.326 252.357 112.491 252.423C113.161 252.7 113.871 252.863 114.622 252.911L114.673 253.649C114.701 254.076 115.333 254.058 115.306 253.649L115.256 252.911C116.874 252.817 117.586 251.885 117.518 250.897C117.424 249.509 116.311 249.12 114.978 248.809ZM112.886 247.522C112.838 246.808 113.47 246.465 114.179 246.369L114.334 248.654C113.642 248.476 112.934 248.232 112.886 247.522ZM115.195 252.018L115.044 249.786C115.698 249.96 116.535 250.181 116.579 250.834C116.628 251.555 116.167 251.949 115.195 252.018Z" fill="#0A0A0A"/>
<path d="M125.972 251.935H122.358C122.642 251.223 123.977 250.576 125.109 249.63C125.739 249.102 126.24 248.39 126.186 247.573C126.098 246.283 124.958 245.465 123.654 245.465C122.823 245.465 122.066 245.642 121.384 245.994C120.927 246.254 121.303 246.989 121.797 246.732C123.076 246.147 125.17 246.075 125.276 247.646C125.313 248.179 124.915 248.632 124.493 248.964C123.186 250 121.333 250.776 121.436 252.278C121.458 252.607 121.713 252.818 122.023 252.818H126.032C126.272 252.818 126.466 252.641 126.449 252.381C126.431 252.13 126.223 251.935 125.972 251.935Z" fill="#0A0A0A"/>
<path d="M132.603 251.913C133.491 250.555 133.302 247.824 132.235 246.472C131.181 245.136 128.947 245.097 128.055 246.472C127.173 247.832 127.365 250.564 128.423 251.913C129.479 253.259 131.71 253.281 132.603 251.913ZM128.804 247.105C129.393 246.071 130.866 246.098 131.577 247.105C132.301 248.134 132.437 250.276 131.86 251.29C131.269 252.329 129.793 252.291 129.087 251.29C128.372 250.275 128.221 248.13 128.804 247.105Z" fill="#0A0A0A"/>
<path d="M135.159 251.621H135.055C134.735 251.621 134.491 251.883 134.513 252.203L134.517 252.265C134.539 252.582 134.813 252.846 135.138 252.846H135.242C135.559 252.846 135.806 252.59 135.784 252.265L135.78 252.203C135.758 251.879 135.477 251.621 135.159 251.621Z" fill="#0A0A0A"/>
<path d="M137.277 246.472C136.395 247.832 136.587 250.564 137.646 251.913C138.702 253.259 140.932 253.281 141.826 251.913C142.714 250.555 142.525 247.824 141.457 246.472C140.403 245.136 138.169 245.097 137.277 246.472ZM141.083 251.29C140.491 252.329 139.015 252.291 138.31 251.29C137.595 250.275 137.443 248.13 138.026 247.105C138.615 246.071 140.089 246.097 140.799 247.105C141.524 248.133 141.66 250.276 141.083 251.29Z" fill="#0A0A0A"/>
<path d="M143.799 246.472C142.917 247.832 143.109 250.564 144.168 251.913C145.223 253.259 147.454 253.281 148.348 251.913C149.235 250.555 149.046 247.824 147.979 246.472C146.925 245.136 144.691 245.097 143.799 246.472ZM147.604 251.29C147.013 252.329 145.537 252.291 144.831 251.29C144.116 250.275 143.965 248.13 144.548 247.105C145.137 246.071 146.61 246.097 147.321 247.105C148.045 248.133 148.181 250.276 147.604 251.29Z" fill="#0A0A0A"/>
<path d="M107.341 101.621H123.401C124.279 101.621 124.996 100.904 124.933 99.9786C124.873 99.0944 124.105 98.375 123.22 98.375H107.161C106.265 98.375 105.568 99.1204 105.629 100.018C105.688 100.902 106.457 101.621 107.341 101.621ZM107.161 98.9534H123.22C123.807 98.9534 124.317 99.4307 124.356 100.018C124.395 100.599 123.957 101.043 123.401 101.043H107.341C106.755 101.043 106.245 100.566 106.206 99.9785C106.167 99.4144 106.602 98.9534 107.161 98.9534Z" fill="#0A0A0A"/>
<path d="M125.398 106.846C125.338 105.962 124.57 105.242 123.685 105.242H107.626C106.729 105.242 106.033 105.989 106.094 106.885C106.153 107.769 106.922 108.489 107.806 108.489H123.866C124.741 108.489 125.461 107.775 125.398 106.846ZM106.67 106.846C106.632 106.285 107.063 105.821 107.626 105.821H123.685C124.378 105.821 124.768 106.343 124.812 106.865C124.856 107.388 124.554 107.91 123.866 107.91H107.806C107.22 107.91 106.71 107.433 106.67 106.846Z" fill="#0A0A0A"/>
<path d="M203.65 197.307H219.71C220.587 197.307 221.304 196.592 221.242 195.664C221.242 195.664 221.242 195.664 221.242 195.664C221.182 194.78 220.413 194.061 219.529 194.061H203.47C202.572 194.061 201.877 194.807 201.937 195.704C201.997 196.588 202.766 197.307 203.65 197.307ZM203.47 194.639H219.529C220.115 194.639 220.625 195.116 220.665 195.703C220.704 196.287 220.263 196.728 219.71 196.728H203.65C203.064 196.728 202.554 196.251 202.514 195.664C202.476 195.099 202.91 194.639 203.47 194.639Z" fill="#0A0A0A"/>
<path d="M219.994 200.932H203.934C203.039 200.932 202.341 201.677 202.402 202.574C202.462 203.459 203.23 204.178 204.115 204.178H220.174C221.054 204.178 221.77 203.459 221.706 202.535C221.647 201.651 220.878 200.932 219.994 200.932ZM221.13 202.574C221.169 203.157 220.729 203.6 220.174 203.6H204.115C203.528 203.6 203.019 203.122 202.979 202.535C202.94 201.97 203.377 201.51 203.934 201.51H219.994C220.58 201.51 221.09 201.987 221.13 202.574V202.574Z" fill="#0A0A0A"/>
<path d="M417.216 270.363H381.389C383.793 269.685 385.767 268.397 387.287 266.505C393.813 258.401 389.831 242.193 389.831 241.896C390.162 241.78 390.492 241.664 390.831 241.54C390.93 241.507 391.005 241.416 391.013 241.309C391.85 234.947 391.945 232.918 393.509 218.534C396.418 216.722 398.003 213.37 397.547 209.942C392.595 183.839 392.707 180.327 390.195 177.584C386.51 173.561 372.169 171.339 371.492 171.24L371.186 171.265V166.911H375.086C376.729 166.911 378.15 165.755 378.481 164.144C380.1 156.139 383.313 133.429 367.874 131.852C353.128 130.34 348.428 138.064 349.088 145.218C346.932 145.796 345.288 148.555 345.288 151.86C345.288 155.577 347.378 158.601 349.939 158.601C350.402 158.601 350.848 158.501 351.269 158.311C352.781 162.97 356.069 166.333 359.968 166.853V172.33C355.945 172.818 352.095 174.073 348.774 176.006L335.293 182.549C309.056 165.878 311.518 167.242 310.733 167.2C310.122 166.143 309.403 164.705 309.304 163.656C309.089 161.31 308.949 157.204 307.784 156.362C307.561 156.205 307.305 156.155 307.04 156.221C305.438 156.643 304.314 159.46 304.389 161.707C303.183 160.641 300.332 157.907 299.729 155.453C299.705 155.337 299.432 154.247 298.713 154.007C298.358 153.892 297.986 153.999 297.606 154.313C297.218 154.644 297.334 156.486 297.639 157.931C297.119 157.27 296.565 156.535 296.417 156.23C296.202 155.817 295.723 155.627 295.293 155.792C295.046 155.891 294.335 156.312 294.616 157.915C293.583 157.667 292.774 158.336 293.534 160.244C293.228 160.261 292.914 160.368 292.65 160.633C291.766 161.5 292.658 163.483 295.302 166.523C295.302 166.523 295.302 166.523 295.302 166.531C297.003 168.415 302.026 171.843 303.819 172.512C304.066 172.743 304.298 172.975 304.537 173.214C304.257 174.189 304.289 174.949 304.612 175.461V175.469C305.72 176.577 322.966 196.029 331.575 197.7C333.696 198.085 342.492 193.722 344.421 192.759C343.711 201.169 343.075 211.338 342.48 222.102L341.48 221.871C341.439 221.83 340.679 221.83 340.506 221.838L333.269 204.242C332.377 202.119 330.328 200.748 328.023 200.748H327.965L273.724 201.252C271.359 201.27 269.836 203.677 270.725 205.804L285.512 241.185C284.125 241.64 283.117 242.945 283.117 244.49C283.117 246.406 284.686 247.968 286.603 247.968H297.094C294.575 249.884 292.815 252.742 292.328 256.063C292.011 257.754 294.757 243.113 278.615 329.181C278.466 330.18 279.036 331.106 279.903 331.469L279.168 335.31H278.838C278.392 335.31 277.97 335.509 277.698 335.864C275.722 338.383 271.81 342.661 268.627 342.712C265.744 342.762 264.249 344.546 264.249 347.016C263.943 347.173 263.729 347.504 263.729 347.867V349.701C263.729 350.048 264.009 350.329 264.356 350.329H280.622C280.754 350.329 280.878 350.304 280.994 350.246L283.348 349.189C283.414 349.156 283.497 349.156 283.563 349.172L286.471 350.073C286.554 350.097 286.644 350.114 286.735 350.114C290.209 350.452 303.038 350.319 305.075 350.329C305.198 350.329 305.331 350.304 305.438 350.246L307.792 349.189C307.867 349.156 307.941 349.156 308.015 349.172L310.923 350.073C311.006 350.097 311.097 350.114 311.179 350.114H316.111C316.458 350.114 316.739 349.825 316.739 349.486V348.222C316.739 347.702 316.433 347.247 315.987 347.041C316.516 345.983 316.764 344.645 316.731 343.059C316.689 340.82 316.103 337.467 315.921 336.492C315.789 335.806 315.194 335.31 314.492 335.31H314.31L314.319 335.269H413.731C413.888 335.269 414.02 335.137 414.02 334.98V284.605H417.217C417.374 284.605 417.506 284.472 417.506 284.316V270.652C417.505 270.495 417.373 270.363 417.216 270.363ZM386.841 266.141C384.619 268.909 381.347 270.321 377.126 270.363C351.933 270.594 337.284 270.842 336.309 270.842C336.207 270.853 336.209 270.83 336.028 271.106C284.01 436.573 370.66 160.941 318.638 326.421C317.781 329.248 315.206 331.064 312.368 331.064H305.173C304.256 331.064 303.488 330.23 303.645 329.263C310.606 292.117 313.264 277.811 317.341 256.154C317.862 252.701 319.803 249.776 322.554 247.967H373.962C375.655 247.967 377.068 246.753 377.382 245.158C380.67 244.696 384.527 243.754 389.278 242.094C390.104 246.067 392.318 259.334 386.841 266.141ZM309.147 284.605H311.419C309.824 293.113 307.238 306.917 303.075 329.18C302.921 330.13 303.445 331.083 304.355 331.477L303.62 335.31H303.29C302.835 335.31 302.422 335.509 302.15 335.864C300.18 338.377 296.263 342.656 293.071 342.712C292.79 342.72 292.526 342.737 292.27 342.778C292.195 340.539 291.642 337.417 291.468 336.491C291.345 335.806 290.741 335.31 290.039 335.31H289.866L290.502 331.163C292.509 330.395 294.095 328.751 294.748 326.595L308.858 281.68V284.315C308.858 284.472 308.99 284.605 309.147 284.605ZM309.436 284.026V279.838L312.079 271.42C312.385 271.412 312.996 271.404 313.889 271.395C313.879 271.424 311.531 283.996 311.526 284.026H309.436V284.026ZM343 244.49C343 242.92 344.264 241.582 345.908 241.582H373.962C375.573 241.582 376.87 242.895 376.87 244.49C376.87 244.539 376.87 244.589 376.862 244.638C376.804 246.109 375.556 247.389 373.962 247.389H345.908C344.297 247.389 343 246.084 343 244.49ZM390.467 241.061C386.147 242.598 381.992 243.903 377.448 244.555V244.489C377.448 242.54 375.854 241.003 373.962 241.003H348.386L346.982 237.583C349.055 236.947 351.162 235.997 352.988 234.7L355.59 233.948C356.581 235.427 357.572 236.501 358.803 236.501C359.456 236.501 360.1 236.187 360.604 235.642V235.634C361.357 235.219 361.923 234.918 362.447 234.637L392.294 223.559C391.524 232.699 390.624 239.864 390.467 241.061ZM366.197 149.704C366.246 150.084 366.271 150.48 366.271 150.885C366.271 153.892 364.669 157.056 362.198 157.056C359.613 157.056 358.126 153.702 358.126 150.893C358.126 150.885 358.126 150.885 358.126 150.877C358.126 149.183 358.58 147.655 359.315 146.54C361.133 147.762 363.396 148.877 366.197 149.704ZM354.516 141.955C355.524 143.342 356.92 144.838 358.845 146.217C358.085 147.366 357.597 148.91 357.556 150.612L354.524 150.72C354.276 148.646 353.384 146.895 352.153 145.92C352.748 144.425 353.541 143.078 354.516 141.955ZM351.947 146.482C352.541 147.002 353.045 147.737 353.401 148.621C352.971 148.274 352.244 147.927 351.459 148.093C351.6 147.539 351.765 147.002 351.947 146.482ZM349.939 158.022C347.692 158.022 345.867 155.255 345.867 151.86C345.867 148.861 347.279 146.358 349.146 145.796C349.353 147.366 349.815 148.886 350.493 150.265C350.402 151 350.361 151.752 350.361 152.512C350.361 154.363 350.617 156.13 351.104 157.758C350.741 157.931 350.344 158.022 349.939 158.022ZM350.939 152.512C350.939 151.399 351.016 150.208 351.319 148.729C352.318 148.34 353.169 149.183 353.211 149.216C353.307 149.329 353.478 149.342 353.615 149.224C353.871 150.026 354.012 150.918 354.012 151.86C354.012 153.95 353.252 156.362 351.608 157.477C351.178 155.932 350.939 154.264 350.939 152.512ZM351.781 158.047C353.698 156.841 354.59 154.206 354.59 151.86C354.59 151.67 354.582 151.48 354.574 151.298L357.556 151.182C357.638 154.173 359.315 157.634 362.198 157.634C365.189 157.634 366.841 153.908 366.841 150.885C366.841 150.546 366.825 150.207 366.783 149.877C369.858 150.693 371.927 150.84 373.4 151.025C374.92 151.537 375.903 152.702 375.903 153.983C375.903 155.767 374.003 157.221 371.674 157.221C370.856 157.221 370.765 157.072 370.608 157.188C370.542 157.221 370.484 157.279 370.468 157.362C369.691 160.187 368.279 162.525 366.494 164.119C361.042 168.951 354.177 165.523 351.781 158.047ZM370.608 158.832C370.608 159.195 370.608 171.488 370.608 171.488C370.575 171.57 368.097 178.476 367.94 178.906H360.637C360.628 177.679 360.671 183.349 360.546 166.911C365.305 167.159 368.964 163.367 370.608 158.832ZM304.074 171.983C302.34 171.355 297.35 167.944 295.731 166.143C293.5 163.574 292.468 161.616 293.054 161.046C293.327 160.781 293.591 160.748 293.889 160.955C295.7 162.927 296.395 163.517 296.672 163.68C297.014 163.883 297.269 163.435 297.003 163.218C295.904 162.367 294.31 160.558 294.293 160.542C293.955 159.873 293.641 158.832 293.897 158.559C294.062 158.394 294.368 158.402 294.814 158.592H294.822C295.045 158.914 296.144 160.401 297.457 161.516C297.745 161.756 298.125 161.327 297.829 161.07C296.565 159.997 295.466 158.501 295.277 158.237C295.277 158.229 295.268 158.22 295.268 158.22C294.797 156.362 295.673 156.04 295.896 156.486C296.178 157.069 297.53 158.725 298.201 159.567C298.421 159.842 298.879 159.551 298.672 159.22C298.06 158.328 297.788 155.123 297.978 154.759C298.193 154.577 298.374 154.511 298.531 154.561C298.878 154.677 299.109 155.354 299.167 155.593C299.927 158.708 303.876 162.062 304.487 162.557C304.562 163.094 304.917 165.011 305.76 166.019C305.989 166.313 306.449 165.96 306.206 165.655C305.355 164.623 305.033 162.376 305.033 162.351L305.024 162.343C305.033 162.334 305.024 162.326 305.024 162.318C304.669 160.12 305.842 157.138 307.18 156.783C307.28 156.758 307.362 156.775 307.453 156.833C308.362 157.485 308.552 161.806 308.725 163.714C308.89 165.341 310.501 168.084 311.344 169.29C310.799 171.487 308.527 174.511 307.205 175.246C306.321 174.156 304.273 172.082 304.074 171.983ZM345.024 192.454C345.726 192.107 346.23 191.842 346.445 191.735C346.782 191.557 346.525 191.041 346.181 191.223C344.363 192.156 333.698 197.534 331.683 197.129C324.363 195.709 309.783 180.277 306.016 176.163C309.268 175.804 312.138 170.246 312.03 168.423L335.119 183.127C335.275 183.221 335.395 183.136 335.416 183.136C335.52 183.067 348.942 176.57 349.03 176.527C352.277 174.635 356.036 173.396 359.976 172.908L360.356 200.046C360.356 200.425 360.966 200.402 361.058 200.145C362.085 197.252 357.341 210.625 371.095 171.851L371.475 171.818C371.624 171.835 386.221 174.107 389.765 177.973C392.002 180.401 391.957 182.716 396.977 210.033C397.39 213.172 395.969 216.254 393.334 217.964C393.024 218.181 362.853 233.757 361.256 234.618C362.69 231.025 358.523 226.859 354.681 224.961C366.954 217.887 378.709 211.365 383.768 208.191C384.085 208.005 383.797 207.494 383.462 207.704L381.264 209.091L377.266 192.14C377.186 191.778 376.621 191.895 376.704 192.272L380.736 209.406L353.88 224.754C340.053 221.538 343.72 222.389 343.041 222.235C344.124 202.854 345.016 192.603 345.024 192.454ZM341.364 222.441C341.687 222.505 354.397 225.473 354.442 225.473C357.329 226.944 359.516 228.891 360.695 231.883C360.612 231.908 353.12 234.064 352.781 234.163C352.748 234.172 352.723 234.18 352.69 234.205C347.37 237.988 339.068 238.781 337.787 237.195C337.391 236.708 337.92 236.03 338.465 235.526C338.601 235.499 342.388 234.588 342.471 234.568C342.628 234.527 342.719 234.37 342.686 234.213C342.653 234.081 342.537 233.99 342.405 233.998C342.322 233.998 342.502 233.969 338.25 234.973C336.771 235.08 336.515 234.758 336.474 234.651C336.3 234.246 337.118 233.304 337.746 232.767C337.832 232.81 341.887 231.846 341.976 231.825C342.133 231.784 342.232 231.627 342.199 231.478C342.167 231.332 342.021 231.221 341.852 231.255C337.821 232.189 337.722 232.18 337.639 232.238H337.631C337.631 232.238 337.631 232.23 337.622 232.23C336.532 232.114 335.871 231.85 335.789 231.503C335.673 230.966 336.805 230 337.655 229.471L337.664 229.463L341.736 228.538C341.885 228.504 341.984 228.348 341.951 228.19C341.918 228.034 341.761 227.943 341.604 227.976L337.507 228.909C335.045 228.909 334.128 228.339 334.12 227.976C334.12 226.497 340.324 225.82 342.414 225.82C342.562 225.82 342.678 225.704 342.695 225.555C342.703 225.407 342.604 225.274 342.455 225.25C342.211 225.209 341.58 225.053 341.125 224.878C339.737 224.349 339.159 223.581 339.225 223.118C339.329 222.409 340.604 222.364 341.364 222.441ZM286.057 241.003L271.254 205.58C270.519 203.795 271.806 201.847 273.724 201.83L327.973 201.326C330.047 201.276 331.93 202.54 332.732 204.465L339.91 221.921C339.093 222.111 338.721 222.565 338.655 223.027C338.539 223.788 339.216 224.705 340.687 225.324C336.391 225.638 333.525 226.679 333.541 227.984C333.549 228.81 334.689 229.339 336.639 229.463C335.937 230 335.053 230.851 335.226 231.627C335.342 232.172 335.912 232.528 336.945 232.718C336.399 233.263 335.656 234.18 335.937 234.874C336.119 235.328 336.672 235.559 337.622 235.568C336.837 236.501 337.011 237.154 337.333 237.558C337.853 238.211 339.208 238.55 340.992 238.55C342.802 238.55 344.759 238.195 346.42 237.74L347.758 241.004L286.057 241.003ZM279.184 329.263C295.328 243.196 292.58 257.847 292.898 256.154C293.41 252.701 295.351 249.776 298.094 247.967H321.555C317.191 251.287 316.738 256.165 316.768 256.082C316.768 256.081 316.768 256.08 316.768 256.08C314.881 266.218 319.397 242.108 313.996 270.817C312.666 270.834 311.906 270.842 311.865 270.842C311.734 270.855 311.641 270.925 311.592 271.048C306.492 287.289 300.465 306.464 294.195 326.422C293.335 329.255 290.766 331.064 287.925 331.064H280.738C279.82 331.064 279.044 330.238 279.184 329.263ZM280.465 331.626H280.506C280.58 331.634 280.663 331.642 280.737 331.642H287.924C288.577 331.642 289.419 331.518 289.882 331.37L289.279 335.31H279.762L280.465 331.626ZM264.827 346.9C264.893 344.802 266.132 343.323 268.635 343.29C269.209 343.275 269.913 343.111 270.205 343.001C270.591 344.209 270.433 345.687 269.585 346.9H264.827ZM288.701 346.9H270.271C271.065 345.553 271.151 343.986 270.742 342.778C271.535 342.448 272.328 341.944 273.096 341.374L274.145 342.596C274.394 342.88 274.831 342.503 274.583 342.216L273.55 341.019C273.848 340.771 274.145 340.523 274.426 340.267L275.475 341.489C275.684 341.768 276.171 341.432 275.913 341.11L274.847 339.879C275.145 339.598 275.434 339.309 275.706 339.028L276.739 340.234C276.992 340.523 277.427 340.143 277.177 339.854L276.111 338.615C276.111 338.606 276.111 338.606 276.111 338.606C276.417 338.284 276.698 337.962 276.954 337.665L277.945 338.821C278.202 339.114 278.631 338.749 278.391 338.449L277.334 337.219C277.4 337.136 277.697 336.797 278.152 336.219C278.317 336.012 278.565 335.888 278.837 335.888H290.039C290.46 335.888 290.824 336.186 290.898 336.599C291.072 337.532 291.633 340.68 291.7 342.885C289.758 343.373 288.726 344.975 288.701 346.9ZM289.279 346.9C289.312 344.794 290.667 343.29 293.088 343.29C293.691 343.274 294.442 343.084 294.657 343.001C295.045 344.207 294.888 345.686 294.038 346.9H289.279ZM315.409 346.9H311.369C311.567 344.852 313.327 343.232 315.417 343.232C315.673 343.232 315.904 343.257 316.152 343.298C316.142 343.381 316.231 345.459 315.409 346.9ZM314.491 335.888C314.913 335.888 315.276 336.186 315.351 336.599C315.524 337.508 316.053 340.523 316.136 342.712C315.904 342.671 315.656 342.654 315.417 342.654C313.013 342.654 310.989 344.538 310.791 346.9H294.723C295.5 345.587 295.599 344.009 295.186 342.786C295.979 342.448 296.772 341.952 297.54 341.374L298.589 342.597C298.831 342.873 299.283 342.526 299.035 342.217L298.003 341.019C298.3 340.771 298.598 340.523 298.878 340.267L299.919 341.49C300.168 341.775 300.614 341.406 300.357 341.11L299.3 339.879C299.597 339.598 299.886 339.309 300.159 339.028L301.191 340.234C301.433 340.51 301.876 340.163 301.629 339.854L300.555 338.615C300.861 338.284 301.15 337.962 301.406 337.665L302.397 338.821C302.662 339.123 303.077 338.728 302.835 338.45L301.786 337.227C302.108 336.839 302.389 336.492 302.604 336.219C302.769 336.012 303.017 335.889 303.29 335.889H314.491V335.888ZM313.732 335.31H304.215L304.917 331.626H304.958C305.033 331.634 305.107 331.642 305.181 331.642H312.401C312.95 331.642 313.795 331.533 314.326 331.37C314.314 331.453 313.692 335.573 313.732 335.31ZM387.196 334.691H314.409L314.946 331.163C316.953 330.395 318.539 328.751 319.192 326.595L332.385 284.605H387.196L387.196 334.691ZM387.196 284.026H332.566L336.532 271.42C385.539 270.696 378.622 271.02 387.196 270.941V284.026ZM413.441 334.691H387.774V284.605H413.441V334.691ZM416.927 284.026H387.774V270.941H416.927V284.026Z" fill="#0A0A0A"/>
<path d="M357.028 157.452C357.396 157.568 357.565 157.024 357.21 156.906C356.475 156.65 355.544 157.164 355.128 156.725C354.711 156.248 355.341 155.427 355.971 152.71C356.004 152.553 355.913 152.396 355.756 152.363C355.599 152.322 355.442 152.421 355.409 152.578C354.713 155.482 354.004 156.349 354.698 157.113C355.367 157.83 356.447 157.265 357.028 157.452Z" fill="#0A0A0A"/>
<path d="M359.827 159.782C359.018 160.65 357.803 161.145 356.639 161.162H356.63C356.239 161.162 356.252 161.74 356.647 161.74C357.869 161.74 359.155 161.274 360.249 160.179C360.51 159.898 360.104 159.505 359.827 159.782Z" fill="#0A0A0A"/>
<path d="M360.076 151.791C359.688 151.791 359.357 152.312 359.357 152.939C359.357 153.567 359.688 154.079 360.076 154.079C360.473 154.079 360.803 153.567 360.803 152.939C360.803 152.312 360.473 151.791 360.076 151.791Z" fill="#0A0A0A"/>
<path d="M353.229 153.339C353.229 152.85 352.975 152.199 352.502 152.199C352.048 152.199 351.783 152.823 351.783 153.339C351.783 153.967 352.114 154.479 352.502 154.479C352.899 154.479 353.229 153.967 353.229 153.339Z" fill="#0A0A0A"/>
<path d="M359.531 149.513C360.952 148.456 362.282 149.769 362.34 149.827C362.449 149.936 362.642 149.938 362.753 149.827C362.86 149.72 362.869 149.53 362.753 149.422C362.158 148.819 360.655 147.96 359.184 149.05C359.06 149.149 359.027 149.331 359.127 149.455C359.226 149.587 359.399 149.612 359.531 149.513Z" fill="#0A0A0A"/>
<path d="M305.76 217.863C303.453 217.863 302.009 219.785 302.638 222.143C303.241 224.423 305.57 226.273 307.826 226.273C310.133 226.273 311.576 224.355 310.94 221.994C310.345 219.722 308.016 217.863 305.76 217.863Z" fill="#0A0A0A"/>
<path d="M370.988 245.876H372.928C373.696 245.876 374.318 245.254 374.318 244.486C374.318 243.718 373.696 243.096 372.928 243.096H370.988C370.22 243.096 369.598 243.718 369.598 244.486C369.598 245.254 370.22 245.876 370.988 245.876Z" fill="#0A0A0A"/>
<path d="M364.574 245.876H366.514C367.282 245.876 367.904 245.254 367.904 244.486C367.904 243.718 367.282 243.096 366.514 243.096H364.574C363.806 243.096 363.184 243.718 363.184 244.486C363.184 245.254 363.806 245.876 364.574 245.876Z" fill="#0A0A0A"/>
<path d="M352.568 328.126H380.219C380.379 328.126 380.508 327.997 380.508 327.837V313.145C380.508 312.985 380.379 312.855 380.219 312.855H352.568C352.408 312.855 352.279 312.985 352.279 313.145V327.837C352.279 327.997 352.408 328.126 352.568 328.126ZM352.857 313.434H379.93V327.548H352.857V313.434Z" fill="#0A0A0A"/>
<path d="M78.8884 261.638C66.4296 255.795 60.7123 258.541 55.047 265.259C49.323 272.045 51.7595 286.296 51.9264 287.227C51.4408 292.983 51.3601 299.266 51.4273 304.601H47.4303C47.0448 293.296 46.7954 276.936 47.9838 266.223C48.854 265.417 56.4213 258.096 58.8209 245.626C61.3156 232.663 69.9824 225.378 70.0695 225.307C70.2684 225.142 70.1688 224.82 69.9119 224.796C69.8291 224.788 61.5815 224.119 55.0341 230.753C48.2529 237.625 45.6903 249.512 47.417 266.084C46.2167 276.82 46.4655 293.252 46.8519 304.601H42.6761C42.3126 282.064 43.7142 280.69 43.3811 278.34C45.0226 256.847 41.8489 242.9 33.9465 236.887C27.368 231.881 19.8089 234.521 19.7339 234.549C19.6165 234.591 19.5398 234.704 19.5426 234.828C19.5459 234.953 19.6286 235.061 19.7479 235.098C25.0828 236.718 30.7001 250.288 32.8448 261.931C34.8505 272.82 41.8107 277.821 42.8148 278.491C43.0998 280.72 41.7411 282.391 42.0979 304.601H38.844L38.6153 295.421C38.7331 295.274 38.8214 295.068 38.8787 294.804C39.8758 290.218 37.6472 280.949 37.5544 280.569C36.3371 274.427 33.5861 270.268 29.3778 268.208C21.1843 264.197 10.1425 269.64 10.0324 269.695C9.76086 269.831 9.85775 270.242 10.1615 270.243C10.2519 270.243 19.2461 270.311 24.3006 275.262C27.729 278.618 35.4217 295.56 38.0433 295.682L38.2653 304.601H28.2362C27.5425 304.601 26.9782 305.165 26.9782 305.859V310.866C26.9782 311.56 27.5425 312.124 28.2362 312.124H29.3243C30.6492 318.086 32.4302 326.102 34.0068 333.197C34.3123 334.572 35.5091 335.537 36.9235 335.537H36.9239H53.614C55.0254 335.537 56.225 334.575 56.5312 333.197L61.2136 312.124H62.3017C62.9955 312.124 63.5598 311.56 63.5598 310.866V305.859C63.5598 305.165 62.9955 304.601 62.3017 304.601H52.0055C51.9384 299.306 52.0183 293.074 52.4963 287.357C53.4043 286.609 60.4945 280.611 64.3498 272.746C68.3613 264.562 78.7234 262.206 78.8275 262.183C79.0976 262.123 79.137 261.754 78.8884 261.638ZM55.4374 231.168C60.6892 225.84 67.0636 225.355 69.157 225.351C67.1838 227.206 60.4205 234.254 58.2528 245.517C56.1439 256.477 50.0021 263.381 48.0972 265.304C50.2821 247.997 60.0082 231.627 60.1079 231.461C60.3044 231.133 59.809 230.836 59.6117 231.164C59.5149 231.325 50.3663 246.721 47.768 263.492C46.5699 248.433 49.1388 237.557 55.4374 231.168ZM35.6978 247.213C35.6439 246.836 35.0707 246.916 35.1259 247.295C35.1545 247.495 38.0446 267.336 42.38 276.937C42.487 277.174 42.5747 277.416 42.6465 277.66C40.8083 276.286 35.1745 271.384 33.4136 261.826C31.3426 250.584 26.0062 237.548 20.716 234.869C22.7712 234.363 28.4978 233.462 33.6036 237.352C41.0322 243.012 44.2396 256.609 42.9137 276.718C42.911 276.712 42.9095 276.705 42.9069 276.699C38.6054 267.173 35.7266 247.411 35.6978 247.213ZM26.5532 272.732C26.2343 272.52 25.9153 273.003 26.2345 273.214C26.3466 273.288 37.3797 280.749 38.0191 295.103C36.0417 294.934 27.8662 277.944 24.7057 274.849C20.5672 270.795 14.0991 269.911 11.3995 269.718C14.3642 268.482 22.6852 265.574 29.1254 268.729C33.1624 270.705 35.8072 274.726 36.9898 280.693C37.0114 280.78 38.9332 288.778 38.4847 293.526C37.1446 279.883 26.6636 272.805 26.5532 272.732ZM56.5177 330.592H34.0207L29.9172 312.124H60.6213L56.5177 330.592ZM62.3019 305.427C62.5404 305.427 62.7339 305.62 62.7339 305.859V310.866C62.7339 311.104 62.5404 311.298 62.3019 311.298H28.2364C27.998 311.298 27.8044 311.104 27.8044 310.866V305.859C27.8044 305.62 27.998 305.427 28.2364 305.427H62.3019ZM63.8303 272.491C60.4107 279.467 54.4129 284.951 52.5892 286.521C54.1827 273.468 68.7223 262.176 68.8716 262.062C69.1743 261.829 68.8255 261.37 68.5198 261.603C68.3736 261.715 54.6035 272.406 52.2191 285.131C51.7227 280.839 51.1259 270.805 55.4891 265.632C61.0925 258.988 66.6394 256.74 77.9151 261.827C75.3633 262.566 67.3049 265.403 63.8303 272.491Z" fill="#0A0A0A"/>
<path d="M303.133 142.3C304.294 143.249 306.029 142.42 306.029 140.928V128.395H315.017C316.644 128.395 317.968 127.071 317.968 125.444V89.0823C317.968 87.4549 316.644 86.1309 315.017 86.1309H260.647C259.02 86.1309 257.695 87.4549 257.695 89.0823V125.444C257.695 127.071 259.02 128.395 260.647 128.395H286.142L303.133 142.3ZM258.274 125.444V89.0822C258.274 87.7737 259.338 86.7092 260.647 86.7092H315.017C316.325 86.7092 317.39 87.7737 317.39 89.0822V125.444C317.39 126.752 316.325 127.817 315.017 127.817H305.74C305.58 127.817 305.451 127.946 305.451 128.106V140.928C305.451 141.938 304.281 142.493 303.499 141.852L286.428 127.882C286.376 127.84 286.312 127.817 286.245 127.817H260.647C259.338 127.817 258.274 126.752 258.274 125.444Z" fill="#0A0A0A"/>
<path d="M32.3678 163.373L37.9233 170.154C38.0469 170.306 38.2817 170.292 38.3883 170.13L42.8274 163.373H64.9987C66.1704 163.373 67.0735 162.415 66.9768 161.222L64.2618 127.536C64.1683 126.371 63.1472 125.424 61.9864 125.424H7.15698C5.96748 125.424 5.09028 126.393 5.18697 127.583L7.90208 161.269C7.99562 162.429 9.01249 163.373 10.1689 163.373L32.3678 163.373ZM8.47799 161.222L5.76288 127.536C5.69423 126.678 6.30978 126.002 7.15688 126.002H61.9865C62.8533 126.002 63.6153 126.711 63.6859 127.583L66.401 161.269C66.4692 162.112 65.845 162.795 64.9989 162.795H42.6714C42.5742 162.795 42.483 162.844 42.4298 162.925L38.121 169.483L32.728 162.901C32.6731 162.834 32.5912 162.795 32.5045 162.795H10.1688C9.30689 162.795 8.54812 162.089 8.47799 161.222Z" fill="#0A0A0A"/>
</g>
<defs>
<clipPath id="clip0_3443_12965">
<rect width="427" height="425" fill="white"/>
</clipPath>
</defs>
</svg>
