<svg width="57" height="50" viewBox="0 0 57 50" fill="none" xmlns="http://www.w3.org/2000/svg">
<path d="M0 14.6836C0.321335 13.44 0.964001 12.5356 2.07082 11.8949C9.64005 8.76707 17.0665 4.77247 24.6357 1.68231C32.2049 -1.40784 28.9916 0.476399 31.9193 1.68231C39.4528 4.77247 46.8435 8.72938 54.4127 11.8572C57.5904 13.8545 57.1976 17.3215 53.9486 18.9797C50.6995 20.6378 48.2003 21.4292 45.4511 22.8235C45.0583 26.8558 46.3437 30.8504 43.7016 34.242C37.6676 41.8544 18.9231 41.8544 12.8891 34.242C10.2113 30.8504 11.4966 26.8558 11.1396 22.8235L6.56952 20.7132V33.4883C7.96197 34.2043 8.74745 35.4856 8.24759 37.1438C7.74774 38.8019 7.78345 38.0859 7.78345 38.1236C7.78345 38.2366 8.2476 38.8396 8.35471 39.1411C8.78316 40.3847 9.14019 45.5852 9.1759 47.1302C9.2116 48.6753 8.81886 49.3913 7.46211 49.5044C6.10536 49.6174 4.35587 49.6174 3.60609 49.5044C2.8563 49.3913 2.21364 48.4492 2.21364 47.6201C2.7849 45.246 2.32074 41.4021 3.07053 39.2164C3.82031 37.0307 3.64179 38.3497 3.64179 38.1989C3.64179 37.9351 3.17764 37.3322 3.10623 36.88C2.85631 35.3349 3.53468 34.2043 4.85572 33.6391V20.0348C2.89201 19.055 0.535559 18.6028 0 16.0026V14.7213V14.6836ZM8.39042 19.6957L25.7068 27.4587C27.6705 28.2124 28.9916 28.1748 30.9196 27.4587C38.4888 24.557 45.9152 20.2609 53.4844 17.2462C55.1982 16.5301 55.341 14.1937 53.5915 13.44C46.0937 10.3498 38.7744 6.35523 31.2766 3.34045C23.7788 0.325659 27.8133 2.36064 25.3141 3.34045C17.8162 6.35523 10.4612 10.3498 2.99913 13.44C1.49956 14.0806 1.28534 16.0402 2.64209 16.9824C3.99883 17.9245 5.28417 18.2636 5.5698 18.2636L23.9216 14.7966C24.9927 11.8195 30.8125 11.8949 32.3834 14.156C33.9544 16.4171 32.7048 16.2663 31.8836 17.02C30.3483 18.3767 27.2778 18.339 25.5283 17.5476C23.7788 16.7563 24.4929 16.6809 24.0287 16.6809L8.67604 19.5072L8.39042 19.7334V19.6957ZM30.8839 15.588C30.9553 15.5127 31.0267 15.3242 31.0267 15.2112C29.5985 13.9676 26.9564 13.9676 25.5283 15.2112C25.3855 15.7764 27.2421 16.2663 27.6705 16.304C28.456 16.3794 30.3126 16.191 30.8839 15.588ZM43.5945 23.6526L30.8482 29.3807C28.9559 29.9836 27.4206 29.9836 25.564 29.3807L12.8891 23.6903V26.8935C12.8891 27.6849 14.2816 29.6068 14.8885 30.1721C18.7088 33.8275 25.1355 34.5812 30.0627 34.4304C34.9898 34.2797 32.7048 33.7521 32.6691 35.1841C32.6334 36.6162 32.312 35.9755 31.8122 36.0509C29.1701 36.4654 25.6711 36.277 23.029 35.7871C20.3869 35.2972 15.6026 33.6391 12.9962 30.6996C13.4247 33.413 16.1382 35.2218 18.3518 36.277C24.4215 39.1034 33.6688 39.028 39.4885 35.5233C45.3082 32.0186 43.1303 32.8854 43.4517 30.6996C42.8804 31.2272 42.3448 31.8302 41.7378 32.3201C41.1309 32.81 39.4885 33.9782 38.8101 33.8275C38.1318 33.6767 38.0961 32.9607 38.3817 32.4708C38.6673 31.9809 40.4882 31.0765 40.9524 30.7373C41.7736 30.059 43.5945 28.024 43.5945 26.8935V23.6903V23.6526ZM6.35529 37.0307C7.21218 36.2016 6.03395 34.6566 5.06995 35.4856C4.10594 36.3147 5.42699 37.9351 6.35529 37.0307ZM7.49782 47.7709L6.81944 40.0455C6.5338 38.7265 4.78432 38.7265 4.5701 40.1585L3.99883 47.7709H7.53351H7.49782Z" fill="white"/>
<path d="M35.9541 33.2623C37.3466 33.0362 37.6322 34.4682 36.6325 34.9205C35.6328 35.3727 33.6334 36.051 33.7405 34.4682C33.8476 32.8855 35.3471 33.3754 35.9184 33.2623H35.9541Z" fill="white"/>
</svg>
