<svg width="427" height="425" viewBox="0 0 427 425" fill="none" xmlns="http://www.w3.org/2000/svg">
<g clip-path="url(#clip0_3443_11700)">
<path d="M400.041 382.57C388.531 392.16 338.441 398.94 278.761 401.49C187.021 405.42 72.6009 399.37 40.7909 378.2C25.7309 368.19 15.5509 337.25 9.1009 297.66C-6.9291 199.16 0.220901 47.1301 13.1609 30.6501C31.3109 7.56009 323.301 -15.3099 399.911 13.9301C432.741 26.4601 429.231 358.23 400.031 382.57H400.041Z" fill="white"/>
<path d="M373.314 247.44L375.204 241.883L377.358 247.44C377.358 247.44 381.657 248.14 381.712 248.531C381.757 248.913 377.595 250.095 377.595 250.095C377.595 250.095 375.85 255.488 375.204 254.27C374.568 253.051 373.95 250.35 373.95 250.35C373.95 250.35 368.533 249.268 368.533 248.731C368.533 248.158 373.314 247.449 373.314 247.449V247.44Z" fill="white"/>
<path d="M304.094 233.142L305.566 228.822L307.238 233.142C307.238 233.142 310.574 233.688 310.619 233.988C310.656 234.279 307.429 235.198 307.429 235.198C307.429 235.198 306.075 239.381 305.575 238.435C305.075 237.49 304.594 235.389 304.594 235.389C304.594 235.389 300.395 234.543 300.395 234.134C300.395 233.688 304.103 233.142 304.103 233.142H304.094Z" fill="white"/>
<path d="M413.901 361.492H380.779V361.742H413.901V361.492Z" fill="#EBEBEB"/>
<path d="M295.22 364.207H286.527V364.457H295.22V364.207Z" fill="#EBEBEB"/>
<path d="M379.778 352.207H360.586V352.457H379.778V352.207Z" fill="#EBEBEB"/>
<path d="M59.652 353.887H16.459V354.137H59.652V353.887Z" fill="#EBEBEB"/>
<path d="M74.8896 353.887H68.5566V354.137H74.8896V353.887Z" fill="#EBEBEB"/>
<path d="M189.147 358.109H95.4707V358.359H189.147V358.109Z" fill="#EBEBEB"/>
<path d="M201.014 300.799H7.91503C4.76803 300.799 2.20703 298.238 2.20703 295.091V23.6592C2.20703 20.5122 4.76803 17.9512 7.91503 17.9512H201.014C204.16 17.9512 206.721 20.5122 206.721 23.6592V295.091C206.721 298.238 204.16 300.799 201.014 300.799ZM7.91503 18.2022C4.90503 18.2022 2.45703 20.6502 2.45703 23.6602V295.092C2.45703 298.102 4.90503 300.55 7.91503 300.55H201.014C204.023 300.55 206.471 298.102 206.471 295.092V23.6592C206.471 20.6502 204.023 18.2012 201.014 18.2012L7.91503 18.2022Z" fill="#EBEBEB"/>
<path d="M417.311 300.799H224.213C221.066 300.799 218.506 298.238 218.506 295.091V23.6592C218.506 20.5122 221.067 17.9512 224.213 17.9512H417.311C420.459 17.9512 423.019 20.5122 423.019 23.6592V295.091C423.02 298.238 420.459 300.799 417.311 300.799ZM224.213 18.2022C221.204 18.2022 218.756 20.6502 218.756 23.6602V295.092C218.756 298.102 221.204 300.55 224.213 300.55H417.311C420.321 300.55 422.769 298.102 422.769 295.092V23.6592C422.769 20.6502 420.321 18.2012 417.311 18.2012L224.213 18.2022Z" fill="#EBEBEB"/>
<path d="M464 345.396H-36V345.646H464V345.396Z" fill="#EBEBEB"/>
<path d="M278.72 134.897H133.02L141.707 35.5996H287.408L278.72 134.897Z" fill="#F5F5F5"/>
<path d="M229.066 117.223H149.973V118.004H229.066V117.223Z" fill="#E0E0E0"/>
<path d="M230.754 102.813H150.975L151.012 102.389L155.816 47.4688H235.595L235.558 47.8938L230.754 102.813ZM151.826 102.032H230.036L234.742 48.2507H156.532L151.826 102.032Z" fill="#E0E0E0"/>
<path d="M154.231 129.012H152.079C151.177 129.012 150.358 128.659 149.77 128.019C149.18 127.375 148.899 126.522 148.978 125.616L149.166 123.466C149.326 121.63 150.951 120.137 152.787 120.137H154.939C155.841 120.137 156.662 120.489 157.248 121.13C157.838 121.772 158.119 122.627 158.04 123.533L157.852 125.683C157.692 127.518 156.067 129.012 154.231 129.012ZM152.788 120.917C151.346 120.917 150.072 122.09 149.945 123.532L149.757 125.682C149.698 126.368 149.907 127.011 150.346 127.49C150.784 127.968 151.399 128.23 152.079 128.23H154.231C155.673 128.23 156.947 127.056 157.074 125.615L157.262 123.465C157.322 122.778 157.112 122.136 156.673 121.655C156.235 121.179 155.62 120.917 154.94 120.917H152.788Z" fill="#E0E0E0"/>
<path d="M190.395 112.645H150.113L150.485 108.375H190.767L190.395 112.645ZM150.965 111.864H189.678L189.916 109.157H151.203L150.965 111.864Z" fill="#E0E0E0"/>
<path d="M228.613 126.709H212.568L212.94 122.441H228.985L228.613 126.709ZM213.419 125.928H227.896L228.134 123.223H213.657L213.419 125.928Z" fill="#E0E0E0"/>
<path d="M229.892 112.645H225.619L225.991 108.375H230.264L229.892 112.645ZM226.471 111.864H229.175L229.413 109.157H226.709L226.471 111.864Z" fill="#E0E0E0"/>
<path d="M223.982 112.645H219.709L220.081 108.375H224.354L223.982 112.645ZM220.561 111.864H223.265L223.503 109.157H220.799L220.561 111.864Z" fill="#E0E0E0"/>
<path d="M218.07 112.645H213.799L214.171 108.375H218.442L218.07 112.645ZM214.65 111.864H217.352L217.59 109.157H214.887L214.65 111.864Z" fill="#E0E0E0"/>
<path d="M235.958 43.3339H175.928L176.257 39.5469H236.287L235.958 43.3339ZM176.779 42.5519H235.241L235.436 40.3269H176.974L176.779 42.5519Z" fill="#E0E0E0"/>
<path d="M172.033 43.5747H155.988L156.36 39.3047H172.405L172.033 43.5747ZM156.839 42.7927H171.315L171.553 40.0857H157.076L156.839 42.7927Z" fill="#E0E0E0"/>
<path d="M273.649 65.4314H245.459L246.874 49.2344H275.066L273.649 65.4314ZM246.311 64.6504H272.932L274.214 50.0164H247.591L246.311 64.6504Z" fill="#E0E0E0"/>
<path d="M270.989 95.8386H242.799L244.215 79.6406H272.405L270.989 95.8386ZM243.65 95.0576H270.271L271.553 80.4226H244.932L243.65 95.0576Z" fill="#E0E0E0"/>
<path d="M268.329 126.247H240.139L241.555 110.049H269.745L268.329 126.247ZM240.991 125.466H267.612L268.894 110.831H242.273L240.991 125.466Z" fill="#E0E0E0"/>
<path d="M274.462 49.273L245.715 64.7051L246.084 65.3932L274.831 49.9611L274.462 49.273Z" fill="#E0E0E0"/>
<path d="M273.093 65.3761L247.035 49.9601L247.432 49.2871L273.49 64.7031L273.093 65.3761Z" fill="#E0E0E0"/>
<path d="M271.8 79.7101L243.033 95.1035L243.402 95.793L272.169 80.3996L271.8 79.7101Z" fill="#E0E0E0"/>
<path d="M244.782 79.6852L244.385 80.3574L270.443 95.774L270.841 95.1018L244.782 79.6852Z" fill="#E0E0E0"/>
<path d="M240.113 126.54L241.578 109.787L254.951 117.699L269.135 110.094L269.504 110.784L255.737 118.164L268.169 125.521L267.772 126.192L254.933 118.596L240.113 126.54ZM242.249 111.09L241.016 125.17L254.147 118.131L242.249 111.09Z" fill="#E0E0E0"/>
<path d="M234.951 47.5515L151.176 102.096L151.602 102.751L235.378 48.2068L234.951 47.5515Z" fill="#E0E0E0"/>
<path d="M156.405 47.5496L155.941 48.1797L230.162 102.742L230.625 102.112L156.405 47.5496Z" fill="#E0E0E0"/>
<path d="M336.475 345.947H256.305L267.61 216.73H347.78L336.475 345.947Z" fill="#F5F5F5"/>
<path d="M282.522 340.181H262.992L264.192 326.449H283.723L282.522 340.181ZM263.858 339.386H281.792L282.856 327.243H264.92L263.858 339.386Z" fill="#E0E0E0"/>
<path d="M306.289 340.181H286.758L287.959 326.449H307.489L306.289 340.181ZM287.624 339.386H305.56L306.623 327.243H288.689L287.624 339.386Z" fill="#E0E0E0"/>
<path d="M330.055 340.181H310.525L311.724 326.449H331.255L330.055 340.181ZM311.391 339.386H329.325L330.389 327.243H312.453L311.391 339.386Z" fill="#E0E0E0"/>
<path d="M332.53 306.936H266.264V307.73H332.53V306.936Z" fill="#E0E0E0"/>
<path d="M311.44 288.43H267.6L268.041 283.375H311.881L311.44 288.43ZM268.466 287.636H310.711L311.015 284.17H268.77L268.466 287.636Z" fill="#E0E0E0"/>
<path d="M331.758 320.716H313.578L314.014 315.723H332.194L331.758 320.716ZM314.445 319.922H331.029L331.329 316.518H314.744L314.445 319.922Z" fill="#E0E0E0"/>
<path d="M333.467 301.19H326.557L327.161 294.285H334.069L333.467 301.19ZM327.423 300.395H332.737L333.202 295.079H327.889L327.423 300.395Z" fill="#E0E0E0"/>
<path d="M303.416 301.19H296.506L297.11 294.285H304.02L303.416 301.19ZM297.372 300.395H302.686L303.153 295.079H297.838L297.372 300.395Z" fill="#E0E0E0"/>
<path d="M273.365 301.19H266.455L267.057 294.285H273.967L273.365 301.19ZM267.321 300.395H272.635L273.101 295.079H267.786L267.321 300.395Z" fill="#E0E0E0"/>
<path d="M293.467 228.751H272.822L273.287 223.42H293.932L293.467 228.751ZM273.688 227.956H292.738L293.067 224.214H274.017L273.688 227.956Z" fill="#E0E0E0"/>
<path d="M271.222 322.101H269.486C268.201 322.101 267.036 321.6 266.203 320.691C265.365 319.777 264.966 318.564 265.08 317.274L265.232 315.538C265.462 312.914 267.784 310.779 270.408 310.779H272.143C273.428 310.779 274.593 311.28 275.428 312.191C276.266 313.105 276.665 314.318 276.552 315.606L276.4 317.342C276.168 319.966 273.846 322.101 271.222 322.101ZM270.407 311.573C268.183 311.573 266.217 313.382 266.022 315.606L265.87 317.342C265.777 318.408 266.103 319.406 266.789 320.154C267.469 320.897 268.428 321.307 269.486 321.307H271.222C273.446 321.307 275.413 319.498 275.607 317.274L275.759 315.538C275.852 314.474 275.526 313.474 274.84 312.726C274.159 311.983 273.2 311.573 272.142 311.573H270.407Z" fill="#E0E0E0"/>
<path d="M335.304 279.146H268.377L268.414 278.715L272.442 232.676H339.368L339.331 233.108L335.304 279.146ZM269.242 278.352H334.574L338.501 233.471H273.17L269.242 278.352Z" fill="#E0E0E0"/>
<path d="M273.037 232.762L272.566 233.402L334.698 279.078L335.169 278.437L273.037 232.762Z" fill="#E0E0E0"/>
<path d="M269.025 279.082L268.59 278.415L338.283 233.137L338.717 233.803L269.025 279.082Z" fill="#E0E0E0"/>
<path d="M281.919 340.102L264.318 327.164L264.79 326.525L282.391 339.463L281.919 340.102Z" fill="#E0E0E0"/>
<path d="M283.054 326.509L263.188 339.443L263.622 340.11L283.488 327.176L283.054 326.509Z" fill="#E0E0E0"/>
<path d="M305.686 340.102L288.086 327.164L288.558 326.525L306.158 339.463L305.686 340.102Z" fill="#E0E0E0"/>
<path d="M306.831 326.504L286.967 339.443L287.401 340.11L307.265 327.171L306.831 326.504Z" fill="#E0E0E0"/>
<path d="M329.453 340.102L311.852 327.164L312.324 326.525L329.925 339.463L329.453 340.102Z" fill="#E0E0E0"/>
<path d="M330.598 326.504L310.734 339.443L311.169 340.11L331.033 327.171L330.598 326.504Z" fill="#E0E0E0"/>
<path d="M360.765 65.4279C360.765 63.1479 360.429 60.9429 359.796 58.8709L365.548 53.8109L361.926 47.5369L354.666 49.9919C351.662 46.7859 347.736 44.4579 343.31 43.4299L341.803 35.9199H334.559L333.057 43.4299C328.631 44.4579 324.7 46.7859 321.696 49.9919L314.436 47.5369L310.814 53.8109L316.566 58.8709C315.937 60.9429 315.597 63.1479 315.597 65.4279C315.597 67.7129 315.938 69.9129 316.566 71.9899L310.814 77.0449L314.436 83.3189L321.696 80.8639C324.7 84.0699 328.631 86.3979 333.057 87.4309L334.559 94.9409H341.803L343.31 87.4309C347.736 86.3979 351.662 84.0699 354.666 80.8639L361.926 83.3189L365.548 77.0449L359.796 71.9899C360.429 69.9119 360.765 67.7129 360.765 65.4279ZM338.181 77.6189C331.699 77.6189 326.447 72.3619 326.447 65.8799C326.447 59.3979 331.699 54.1409 338.181 54.1409C344.663 54.1409 349.92 59.3979 349.92 65.8799C349.921 72.3629 344.663 77.6189 338.181 77.6189Z" fill="#EBEBEB"/>
<path d="M112.725 255.479C114.664 251.804 115.998 247.964 116.738 244.085L130.314 240.82L129.811 227.625L116.02 225.409C113.904 217.685 109.555 210.595 103.295 205.174L107.252 191.785L95.5752 185.625L86.7672 196.454C78.7582 194.347 70.4412 194.757 62.8722 197.371L53.2572 187.239L42.0832 194.274L47.0532 207.323C44.2782 210.129 41.8532 213.393 39.9142 217.068C37.9712 220.752 36.6502 224.588 35.8962 228.471L22.3242 231.727L22.8272 244.922L36.6182 247.138C38.7342 254.862 43.0912 261.957 49.3482 267.386L45.3832 280.77L57.0602 286.93L65.8772 276.105C73.8912 278.203 82.1982 277.789 89.7682 275.175L99.3832 285.307L110.557 278.272L105.582 265.232C108.37 262.423 110.782 259.162 112.725 255.479ZM65.9512 255.928C55.5022 250.416 51.5062 237.475 57.0192 227.025C62.5312 216.575 75.4682 212.567 85.9182 218.079C96.3672 223.591 100.371 236.537 94.8592 246.986C89.3462 257.436 76.4012 261.44 65.9512 255.928Z" fill="#EBEBEB"/>
<path d="M359.979 220.346L367.823 224.692C368.216 224.913 368.478 225.11 368.608 225.283C368.738 225.456 368.802 225.677 368.802 225.944C368.802 226.283 368.68 226.576 368.436 226.824C368.192 227.072 367.909 227.196 367.586 227.196C367.374 227.196 367.055 227.078 366.63 226.842L356.512 221.215C355.83 220.836 355.83 219.855 356.512 219.476L366.63 213.849C367.055 213.62 367.369 213.506 367.574 213.506C367.905 213.506 368.192 213.628 368.436 213.872C368.68 214.116 368.802 214.408 368.802 214.746C368.802 215.014 368.738 215.234 368.608 215.407C368.478 215.58 368.216 215.777 367.823 215.997L359.979 220.346Z" fill="#EBEBEB"/>
<path d="M380.159 212.243L372.399 228.968C372.202 229.385 372.025 229.657 371.867 229.783C371.662 229.948 371.414 230.031 371.123 230.031C370.792 230.031 370.507 229.913 370.266 229.676C370.026 229.44 369.906 229.172 369.906 228.873C369.906 228.661 370 228.349 370.189 227.94L377.973 211.227C378.17 210.81 378.343 210.538 378.493 210.412C378.706 210.247 378.954 210.164 379.237 210.164C379.568 210.164 379.851 210.28 380.087 210.512C380.324 210.744 380.442 211.01 380.442 211.309C380.443 211.522 380.348 211.834 380.159 212.243Z" fill="#EBEBEB"/>
<path d="M389.917 220.346L382.074 215.999C381.68 215.779 381.419 215.582 381.289 215.409C381.159 215.236 381.094 215.015 381.094 214.748C381.094 214.409 381.216 214.118 381.46 213.874C381.704 213.63 381.991 213.508 382.322 213.508C382.527 213.508 382.842 213.622 383.267 213.851L393.385 219.478C394.067 219.857 394.067 220.838 393.385 221.217L383.267 226.844C382.842 227.08 382.527 227.198 382.322 227.198C381.987 227.198 381.697 227.073 381.451 226.823C381.219 226.587 381.094 226.276 381.094 225.945C381.094 225.678 381.159 225.457 381.289 225.285C381.419 225.112 381.68 224.915 382.074 224.694L389.917 220.346Z" fill="#EBEBEB"/>
<path d="M209.178 386.714C316.26 386.714 403.067 381.645 403.067 375.391C403.067 369.138 316.26 364.068 209.178 364.068C102.096 364.068 15.2891 369.138 15.2891 375.391C15.2891 381.645 102.096 386.714 209.178 386.714Z" fill="#F5F5F5"/>
<path d="M77.5488 149.337H40.5348C38.8458 149.337 37.3108 148.678 36.2148 147.482C35.1118 146.279 34.5868 144.682 34.7358 142.984L42.4758 54.515C42.7778 51.06 45.8358 48.249 49.2918 48.249H58.9128C59.8148 48.249 60.5228 48.925 60.5588 49.822L60.5708 50.123C60.6208 51.372 61.6098 52.313 62.8708 52.313H72.0168C73.3208 52.313 74.5158 51.334 74.7948 50.037L74.8598 49.736C75.0448 48.874 75.8128 48.248 76.6858 48.248H86.3068C87.9958 48.248 89.5308 48.907 90.6278 50.104C91.7308 51.307 92.2548 52.904 92.1068 54.601L84.3668 143.07C84.0628 146.526 81.0048 149.337 77.5488 149.337ZM49.2908 49.249C46.3398 49.249 43.7288 51.65 43.4708 54.602L35.7308 143.071C35.6068 144.486 36.0408 145.812 36.9508 146.806C37.8558 147.793 39.1288 148.337 40.5338 148.337H77.5478C80.4988 148.337 83.1088 145.936 83.3678 142.984L91.1078 54.515C91.2308 53.101 90.7978 51.774 89.8878 50.781C88.9828 49.793 87.7098 49.249 86.3038 49.249H76.6828C76.2908 49.249 75.9178 49.556 75.8338 49.947L75.7688 50.249C75.3928 51.996 73.7778 53.314 72.0138 53.314H62.8698C61.0618 53.314 59.6438 51.96 59.5708 50.164L59.5588 49.863C59.5448 49.508 59.2728 49.25 58.9128 49.25L49.2908 49.249Z" fill="#008BCE"/>
<path d="M90.9016 62.1426H42.2676V63.1426H90.9016V62.1426Z" fill="#008BCE"/>
<path d="M86.3046 48.25H76.6836V49.25H86.3046V48.25Z" fill="#008BCE"/>
<path d="M77.2579 103.465H48.8789L51.3619 75.0898H79.7409L77.2579 103.465ZM49.9699 102.465H76.3419L78.6499 76.0898H52.2779L49.9699 102.465Z" fill="#008BCE"/>
<path d="M77.5984 135.518H42.8145L43.7345 124.994H78.5194L77.5984 135.518ZM43.9054 134.518H76.6824L77.4285 125.994H44.6515L43.9054 134.518Z" fill="#008BCE"/>
<path d="M54.72 118.063C53.915 118.063 53.184 117.748 52.659 117.176C52.132 116.601 51.881 115.84 51.951 115.032C52.093 113.409 53.53 112.088 55.154 112.088C55.959 112.088 56.691 112.403 57.215 112.975C57.741 113.55 57.993 114.311 57.922 115.119C57.781 116.743 56.345 118.063 54.72 118.063ZM55.156 113.088C54.037 113.088 53.047 113.999 52.949 115.119C52.903 115.644 53.062 116.135 53.398 116.5C53.73 116.863 54.2 117.063 54.721 117.063C55.84 117.063 56.83 116.152 56.928 115.032C56.974 114.507 56.815 114.017 56.48 113.651C56.146 113.288 55.676 113.088 55.156 113.088Z" fill="#008BCE"/>
<path d="M61.9126 118.063C61.1076 118.063 60.3766 117.748 59.8516 117.176C59.3246 116.601 59.0736 115.84 59.1446 115.032C59.2866 113.409 60.7236 112.088 62.3476 112.088C63.1526 112.088 63.8846 112.403 64.4086 112.975C64.9346 113.55 65.1866 114.311 65.1156 115.119C64.9736 116.743 63.5376 118.063 61.9126 118.063ZM62.3476 113.088C61.2286 113.088 60.2386 113.999 60.1406 115.119C60.0946 115.644 60.2536 116.135 60.5896 116.5C60.9226 116.863 61.3916 117.063 61.9126 117.063C63.0316 117.063 64.0216 116.152 64.1196 115.032C64.1656 114.507 64.0066 114.017 63.6716 113.651C63.3386 113.288 62.8686 113.088 62.3476 113.088Z" fill="#008BCE"/>
<path d="M69.1057 118.063C68.3007 118.063 67.5687 117.747 67.0447 117.175C66.5187 116.6 66.2677 115.838 66.3377 115.031C66.4797 113.409 67.9167 112.088 69.5407 112.088C70.3457 112.088 71.0777 112.403 71.6017 112.976C72.1277 113.551 72.3787 114.312 72.3087 115.119C72.1667 116.743 70.7297 118.063 69.1057 118.063ZM69.5407 113.088C68.4217 113.088 67.4317 113.999 67.3337 115.119C67.2877 115.644 67.4467 116.135 67.7817 116.5C68.1137 116.863 68.5837 117.063 69.1047 117.063C70.2237 117.063 71.2137 116.152 71.3117 115.032V115.031C71.3577 114.507 71.1987 114.016 70.8637 113.651C70.5317 113.289 70.0617 113.088 69.5407 113.088Z" fill="#008BCE"/>
<path d="M366.882 249.543H318.248V250.543H366.882V249.543Z" fill="#008BCE"/>
<path d="M353.504 336.738H316.49C314.801 336.738 313.266 336.079 312.17 334.883C311.068 333.68 310.543 332.082 310.691 330.384L318.431 241.916C318.733 238.461 321.791 235.65 325.247 235.65H334.868C335.77 235.65 336.478 236.326 336.514 237.223L336.526 237.524C336.576 238.773 337.565 239.714 338.826 239.714H347.973C349.278 239.714 350.472 238.736 350.75 237.439L350.815 237.137C350.997 236.289 351.782 235.65 352.641 235.65H362.262C363.952 235.65 365.486 236.309 366.583 237.505C367.685 238.708 368.21 240.305 368.062 242.003L360.322 330.471C360.018 333.927 356.961 336.738 353.504 336.738ZM325.247 236.65C322.296 236.65 319.685 239.051 319.427 242.004L311.687 330.472C311.563 331.887 311.997 333.213 312.907 334.207C313.812 335.194 315.084 335.738 316.49 335.738H353.504C356.455 335.738 359.066 333.337 359.324 330.384L367.064 241.916C367.188 240.502 366.754 239.176 365.844 238.182C364.939 237.195 363.666 236.651 362.261 236.651H352.64C352.248 236.651 351.875 236.958 351.791 237.349L351.726 237.651C351.351 239.398 349.736 240.715 347.971 240.715H338.824C337.016 240.715 335.597 239.361 335.525 237.566L335.513 237.264C335.499 236.909 335.227 236.651 334.867 236.651H325.247V236.65Z" fill="#008BCE"/>
<path d="M359.71 263.435H323.167C322.391 263.435 321.685 263.131 321.179 262.579C320.671 262.024 320.428 261.29 320.496 260.511C320.633 258.947 322.018 257.674 323.583 257.674H360.126C360.902 257.674 361.608 257.978 362.114 258.531C362.622 259.085 362.864 259.82 362.797 260.598C362.66 262.163 361.275 263.435 359.71 263.435ZM323.583 258.674C322.523 258.674 321.584 259.537 321.492 260.599C321.448 261.095 321.599 261.558 321.916 261.904C322.23 262.248 322.675 262.436 323.167 262.436H359.71C360.77 262.436 361.708 261.573 361.801 260.511C361.844 260.015 361.694 259.551 361.377 259.206C361.063 258.862 360.618 258.674 360.126 258.674H323.583Z" fill="#008BCE"/>
<path d="M358.875 272.959H322.332C321.556 272.959 320.85 272.655 320.344 272.102C319.836 271.547 319.593 270.813 319.662 270.034C319.799 268.47 321.183 267.197 322.749 267.197H359.292C360.068 267.197 360.774 267.501 361.28 268.053C361.788 268.608 362.03 269.342 361.962 270.121C361.826 271.687 360.441 272.959 358.875 272.959ZM322.749 268.197C321.688 268.197 320.75 269.06 320.658 270.122C320.614 270.618 320.765 271.082 321.081 271.427C321.395 271.771 321.839 271.959 322.332 271.959H358.875C359.936 271.959 360.874 271.096 360.966 270.035C361.009 269.538 360.859 269.075 360.543 268.729C360.229 268.385 359.784 268.197 359.292 268.197H322.749Z" fill="#008BCE"/>
<path d="M358.043 282.483H321.5C320.724 282.483 320.018 282.179 319.512 281.626C319.004 281.071 318.762 280.337 318.829 279.558C318.966 277.993 320.351 276.721 321.916 276.721H358.459C359.235 276.721 359.941 277.025 360.447 277.577C360.955 278.131 361.197 278.866 361.13 279.644C360.993 281.211 359.609 282.483 358.043 282.483ZM321.917 277.722C320.857 277.722 319.919 278.585 319.826 279.647C319.782 280.143 319.933 280.606 320.25 280.952C320.564 281.296 321.009 281.484 321.501 281.484H358.044C359.104 281.484 360.042 280.621 360.135 279.559C360.178 279.063 360.028 278.599 359.711 278.254C359.397 277.91 358.952 277.722 358.46 277.722H321.917Z" fill="#008BCE"/>
<path d="M355.76 308.575H319.217C318.441 308.575 317.734 308.271 317.228 307.719C316.72 307.164 316.478 306.43 316.546 305.651C316.683 304.087 318.068 302.814 319.633 302.814H356.176C356.952 302.814 357.658 303.118 358.164 303.671C358.672 304.226 358.915 304.96 358.847 305.739C358.711 307.303 357.326 308.575 355.76 308.575ZM319.634 303.813C318.573 303.813 317.635 304.676 317.543 305.738C317.5 306.234 317.65 306.698 317.966 307.043C318.28 307.387 318.725 307.575 319.217 307.575H355.76C356.82 307.575 357.759 306.712 357.851 305.65C357.894 305.154 357.743 304.691 357.427 304.345C357.113 304.001 356.668 303.813 356.176 303.813H319.634Z" fill="#008BCE"/>
<path d="M354.926 318.1H318.383C317.607 318.1 316.901 317.796 316.395 317.243C315.887 316.688 315.645 315.954 315.712 315.175C315.849 313.611 317.234 312.338 318.799 312.338H355.342C356.118 312.338 356.824 312.642 357.33 313.194C357.838 313.749 358.08 314.483 358.012 315.262C357.877 316.827 356.492 318.1 354.926 318.1ZM318.8 313.338C317.74 313.338 316.801 314.201 316.709 315.263C316.666 315.759 316.816 316.222 317.133 316.568C317.448 316.912 317.892 317.1 318.384 317.1H354.927C355.988 317.1 356.926 316.237 357.018 315.175C357.061 314.679 356.911 314.215 356.595 313.87C356.281 313.526 355.837 313.338 355.344 313.338H318.8Z" fill="#008BCE"/>
<path d="M354.094 327.624H317.551C316.775 327.624 316.068 327.32 315.562 326.768C315.054 326.213 314.812 325.479 314.88 324.7C315.017 323.136 316.402 321.863 317.967 321.863H354.51C355.286 321.863 355.992 322.167 356.498 322.719C357.006 323.274 357.249 324.008 357.181 324.787C357.044 326.352 355.659 327.624 354.094 327.624ZM317.967 322.862C316.906 322.862 315.968 323.725 315.876 324.787C315.833 325.283 315.983 325.747 316.299 326.092C316.614 326.436 317.058 326.624 317.55 326.624H354.093C355.153 326.624 356.092 325.761 356.184 324.699C356.227 324.203 356.077 323.74 355.76 323.394C355.446 323.05 355.001 322.862 354.509 322.862H317.967Z" fill="#008BCE"/>
<path d="M377.559 156.903H340.545C338.856 156.903 337.321 156.244 336.225 155.048C335.122 153.845 334.597 152.248 334.746 150.551L342.486 62.0824C342.788 58.6274 345.846 55.8164 349.302 55.8164H358.923C359.825 55.8164 360.533 56.4924 360.568 57.3894L360.58 57.6914C360.63 58.9404 361.619 59.8814 362.88 59.8814H372.026C373.33 59.8814 374.525 58.9034 374.804 57.6064L374.869 57.3054C375.054 56.4434 375.822 55.8174 376.695 55.8174H386.316C388.006 55.8174 389.541 56.4764 390.637 57.6734C391.739 58.8764 392.264 60.4734 392.116 62.1704L384.376 150.639C384.073 154.092 381.015 156.903 377.559 156.903ZM349.301 56.8154C346.35 56.8154 343.74 59.2164 343.481 62.1684L335.741 150.637C335.617 152.052 336.051 153.378 336.961 154.372C337.866 155.359 339.139 155.903 340.544 155.903H377.558C380.509 155.903 383.119 153.502 383.378 150.55L391.118 62.0814C391.242 60.6674 390.808 59.3404 389.898 58.3474C388.993 57.3594 387.72 56.8154 386.314 56.8154H376.693C376.301 56.8154 375.928 57.1224 375.844 57.5134L375.779 57.8154C375.403 59.5634 373.788 60.8804 372.024 60.8804H362.878C361.07 60.8804 359.651 59.5264 359.579 57.7304L359.567 57.4284C359.553 57.0734 359.281 56.8154 358.921 56.8154H349.301Z" fill="#008BCE"/>
<path d="M390.909 69.709H342.275V70.709H390.909V69.709Z" fill="#008BCE"/>
<path d="M379.921 146.568H340.562L343.044 118.193H382.404L379.921 146.568ZM341.652 145.568H379.004L381.311 119.193H343.96L341.652 145.568Z" fill="#008BCE"/>
<path d="M343.803 118.288L343.197 119.084L379.159 146.459L379.765 145.663L343.803 118.288Z" fill="#008BCE"/>
<path d="M381.575 118.279L340.824 145.652L341.382 146.482L382.133 119.109L381.575 118.279Z" fill="#008BCE"/>
<path d="M385.069 87.7388H345.709L346.63 77.2148H385.989L385.069 87.7388ZM346.8 86.7388H384.152L384.898 78.2148H347.546L346.8 86.7388Z" fill="#008BCE"/>
<path d="M385.343 77.2258L346.154 86.7598L346.391 87.7315L385.579 78.1975L385.343 77.2258Z" fill="#008BCE"/>
<path d="M347.207 77.2162L346.961 78.1855L384.484 87.7087L384.73 86.7394L347.207 77.2162Z" fill="#008BCE"/>
<path d="M383.871 101.426H344.512L345.432 90.9023H384.792L383.871 101.426ZM345.603 100.426H382.955L383.701 91.9024H346.349L345.603 100.426Z" fill="#008BCE"/>
<path d="M384.136 90.9153L344.947 100.445L345.184 101.417L384.372 91.887L384.136 90.9153Z" fill="#008BCE"/>
<path d="M346.01 90.9037L345.764 91.873L383.287 101.396L383.533 100.427L346.01 90.9037Z" fill="#008BCE"/>
<path d="M382.674 115.114H343.314L344.235 104.59H383.594L382.674 115.114ZM344.406 114.114H381.758L382.504 105.59H345.151L344.406 114.114Z" fill="#008BCE"/>
<path d="M382.948 104.601L343.76 114.135L343.996 115.106L383.185 105.572L382.948 104.601Z" fill="#008BCE"/>
<path d="M344.814 104.591L344.568 105.561L382.092 115.084L382.338 114.114L344.814 104.591Z" fill="#008BCE"/>
<path d="M371.876 202.387C363.059 202.387 355.885 195.213 355.885 186.396C355.885 177.579 363.058 170.406 371.876 170.406C380.694 170.406 387.867 177.579 387.867 186.396C387.866 195.213 380.693 202.387 371.876 202.387ZM371.876 171.406C363.61 171.406 356.885 178.131 356.885 186.396C356.885 194.662 363.61 201.387 371.876 201.387C380.142 201.387 386.867 194.662 386.867 186.396C386.866 178.13 380.142 171.406 371.876 171.406Z" fill="#008BCE"/>
<path d="M369.117 195.651L361.662 185.786L362.46 185.183L368.72 193.466C371.622 184.22 377.538 176.09 385.461 170.493L387.687 168.92L388.264 169.736L386.038 171.309C378.03 176.967 372.119 185.271 369.394 194.691L369.117 195.651Z" fill="#008BCE"/>
<path d="M261.167 70.791H235.2L209.014 370.101H234.981C247.017 370.101 257.628 360.344 258.681 348.307L281.054 92.584C282.107 80.548 273.203 70.791 261.167 70.791Z" fill="#161616"/>
<path d="M229.664 370.101H122.673C110.637 370.101 101.733 360.344 102.786 348.308L125.159 92.585C126.212 80.549 136.823 70.791 148.859 70.791H255.85C267.886 70.791 276.79 80.548 275.737 92.585L253.364 348.308C252.311 360.344 241.7 370.101 229.664 370.101Z" fill="#008BCE"/>
<path d="M255.412 75.791H227.603C225.782 75.791 224.126 77.145 223.737 78.951L223.55 79.822C222.601 84.234 218.557 87.54 214.108 87.54H187.67C183.222 87.54 179.756 84.234 179.579 79.822L179.544 78.951C179.471 77.144 178.052 75.791 176.231 75.791H148.422C139.147 75.791 130.971 83.31 130.159 92.585L107.786 348.308C106.974 357.583 113.835 365.101 123.11 365.101H230.101C239.376 365.101 247.552 357.582 248.364 348.308L270.737 92.585C271.547 83.31 264.687 75.791 255.412 75.791Z" fill="white"/>
<g opacity="0.2">
<path d="M195.198 78.623C195.095 79.797 194.061 80.748 192.887 80.748C191.713 80.748 190.845 79.797 190.948 78.623C191.051 77.449 192.085 76.498 193.259 76.498C194.433 76.498 195.301 77.45 195.198 78.623Z" fill="black"/>
<path d="M210.451 76.498C209.611 76.498 204.005 76.498 203.165 76.498C201.991 76.498 200.957 77.449 200.854 78.623C200.751 79.797 201.62 80.748 202.793 80.748C203.522 80.748 209.35 80.748 210.079 80.748C211.253 80.748 212.287 79.797 212.39 78.623C212.493 77.45 211.625 76.498 210.451 76.498Z" fill="black"/>
</g>
<path d="M142.248 87.498H144.498L144.695 85.248H142.445L142.248 87.498Z" fill="#161616"/>
<path d="M146.945 85.248L146.748 87.498H148.998L149.195 85.248L149.392 82.998H147.142L146.945 85.248Z" fill="#161616"/>
<path d="M151.839 80.748L151.642 82.998L151.445 85.248L151.248 87.498H153.498L153.695 85.248L153.892 82.998L154.089 80.748H151.839Z" fill="#161616"/>
<path d="M248.584 80.8984L248.44 82.5484H247.34L247.051 85.8484H248.151L248.007 87.4984H257.907L258.484 80.8984H248.584ZM252.551 85.8484H249.251L249.54 82.5484H252.84L252.551 85.8484Z" fill="#161616"/>
<path opacity="0.8" d="M244.096 259.248H99.3828L111.558 120.088H256.271L244.096 259.248Z" fill="#161616"/>
<path d="M240.27 255.056H95.5566L107.732 115.896H252.445L240.27 255.056Z" fill="#008BCE"/>
<g opacity="0.8">
<path d="M240.27 255.056H95.5566L107.732 115.896H252.445L240.27 255.056Z" fill="white"/>
<path d="M240.728 255.556H95.0117L95.0587 255.012L107.274 115.396H252.99L240.728 255.556ZM96.1027 254.556H239.813L251.9 116.396H108.19L96.1027 254.556Z" fill="#008BCE"/>
</g>
<path opacity="0.8" d="M232.217 216.731H110.316L118.108 127.668H240.009L232.217 216.731Z" fill="white"/>
<path d="M232.675 217.231H109.771L117.65 127.168H240.555L232.675 217.231ZM110.862 216.231H231.759L239.463 128.168H118.566L110.862 216.231Z" fill="#008BCE"/>
<path d="M118.418 127.278L117.803 128.066L231.91 217.132L232.525 216.343L118.418 127.278Z" fill="#008BCE"/>
<path d="M239.731 127.235L110.061 216.346L110.627 217.17L240.298 128.059L239.731 127.235Z" fill="#008BCE"/>
<path d="M157.577 229.771C157.355 232.31 155.117 234.368 152.578 234.368C150.039 234.368 148.161 232.31 148.383 229.771C148.605 227.232 150.843 225.174 153.382 225.174C155.921 225.175 157.799 227.233 157.577 229.771Z" fill="#008BCE"/>
<path d="M174.723 229.771C174.501 232.31 172.263 234.368 169.724 234.368C167.185 234.368 165.307 232.31 165.53 229.771C165.752 227.232 167.99 225.174 170.529 225.174C173.068 225.175 174.946 227.233 174.723 229.771Z" fill="#008BCE"/>
<path d="M191.868 229.771C191.646 232.31 189.408 234.368 186.869 234.368C184.33 234.368 182.452 232.31 182.674 229.771C182.896 227.232 185.134 225.174 187.673 225.174C190.213 225.175 192.091 227.233 191.868 229.771Z" fill="#008BCE"/>
<path d="M156.459 333.444H88.6992L94.4002 268.285H162.16L156.459 333.444Z" fill="#008BCE"/>
<g opacity="0.8">
<path d="M156.459 333.444H88.6992L94.4002 268.285H162.16L156.459 333.444Z" fill="white"/>
<path d="M156.917 333.945H88.1543L93.9423 267.785H162.705L156.917 333.945ZM89.2453 332.945H156.001L161.614 268.785H94.8583L89.2453 332.945Z" fill="#008BCE"/>
</g>
<path d="M152.689 315.501H95.6113L99.2593 273.799H156.337L152.689 315.501Z" fill="white"/>
<path d="M153.146 316.001H95.0645L98.8004 273.299H156.883L153.146 316.001ZM96.1555 315.001H152.23L155.791 274.299H99.7164L96.1555 315.001Z" fill="#008BCE"/>
<path d="M99.5671 273.412L98.9512 274.201L152.381 315.905L152.996 315.116L99.5671 273.412Z" fill="#008BCE"/>
<path d="M156.066 273.386L95.3496 315.111L95.916 315.936L156.632 274.211L156.066 273.386Z" fill="#008BCE"/>
<path d="M117.739 321.607C117.635 322.796 116.587 323.759 115.398 323.759C114.209 323.759 113.33 322.795 113.434 321.607C113.538 320.418 114.586 319.455 115.775 319.455C116.963 319.455 117.843 320.418 117.739 321.607Z" fill="#008BCE"/>
<path d="M125.766 321.607C125.662 322.796 124.614 323.759 123.425 323.759C122.236 323.759 121.357 322.795 121.461 321.607C121.565 320.418 122.613 319.455 123.802 319.455C124.991 319.455 125.87 320.418 125.766 321.607Z" fill="#008BCE"/>
<path d="M133.796 321.607C133.692 322.796 132.644 323.759 131.455 323.759C130.266 323.759 129.387 322.795 129.491 321.607C129.595 320.418 130.643 319.455 131.832 319.455C133.021 319.455 133.9 320.418 133.796 321.607Z" fill="#008BCE"/>
<path d="M233.412 333.444H165.652L171.353 268.285H239.113L233.412 333.444Z" fill="#008BCE"/>
<g opacity="0.8">
<path d="M233.412 333.444H165.652L171.353 268.285H239.113L233.412 333.444Z" fill="white"/>
<path d="M233.87 333.945H165.107L170.895 267.785H239.658L233.87 333.945ZM166.198 332.945H232.954L238.567 268.785H171.811L166.198 332.945Z" fill="#008BCE"/>
</g>
<path d="M229.642 315.501H172.564L176.212 273.799H233.291L229.642 315.501Z" fill="white"/>
<path d="M230.1 316.001H172.018L175.754 273.299H233.837L230.1 316.001ZM173.11 315.001H229.185L232.746 274.299H176.67L173.11 315.001Z" fill="#008BCE"/>
<path d="M176.522 273.414L175.906 274.203L229.336 315.907L229.952 315.118L176.522 273.414Z" fill="#008BCE"/>
<path d="M233.023 273.382L172.307 315.107L172.873 315.932L233.589 274.207L233.023 273.382Z" fill="#008BCE"/>
<path d="M194.692 321.607C194.588 322.796 193.54 323.759 192.351 323.759C191.162 323.759 190.283 322.795 190.387 321.607C190.491 320.418 191.539 319.455 192.728 319.455C193.917 319.455 194.796 320.418 194.692 321.607Z" fill="#008BCE"/>
<path d="M202.72 321.607C202.616 322.796 201.568 323.759 200.379 323.759C199.19 323.759 198.311 322.795 198.415 321.607C198.519 320.418 199.567 319.455 200.756 319.455C201.945 319.455 202.824 320.418 202.72 321.607Z" fill="#008BCE"/>
<path d="M210.749 321.607C210.645 322.796 209.597 323.759 208.408 323.759C207.219 323.759 206.34 322.795 206.444 321.607C206.548 320.418 207.596 319.455 208.785 319.455C209.974 319.455 210.853 320.418 210.749 321.607Z" fill="#008BCE"/>
<path d="M232.195 110.125H160.578L161.418 100.533H233.035L232.195 110.125Z" fill="#008BCE"/>
<path d="M152.668 107.975H141.596V108.975H152.668V107.975Z" fill="#161616"/>
<path d="M152.994 104.238H141.922V105.238H152.994V104.238Z" fill="#161616"/>
<path d="M153.322 100.502H142.25V101.502H153.322V100.502Z" fill="#161616"/>
<g opacity="0.2">
<path d="M187.749 87.541L113.893 362.169C116.429 364.017 119.595 365.101 123.112 365.101H128.886L203.531 87.541H187.749Z" fill="white"/>
<path d="M255.413 75.791H227.604C225.783 75.791 224.127 77.145 223.738 78.952L223.551 79.823C222.626 84.122 218.762 87.361 214.451 87.526L139.801 365.1H196.738L270.739 89.93C270.166 81.92 263.782 75.791 255.413 75.791Z" fill="white"/>
</g>
<path d="M270.424 94.8477H129.895V96.3477H270.424V94.8477Z" fill="#008BCE"/>
<path d="M282.681 130.917C282.829 130.609 282.99 130.287 283.273 130.095C283.493 129.945 283.763 129.893 284.024 129.843C286.048 129.459 288.16 129.078 290.142 129.64C290.289 129.682 290.443 129.734 290.536 129.855C290.616 129.959 290.636 130.095 290.654 130.225C290.808 131.352 290.961 132.479 291.115 133.606C291.149 133.856 291.182 134.117 291.094 134.353C291.006 134.589 290.809 134.766 290.62 134.932C289.653 135.783 285.566 138.365 284.925 138.499C283.941 138.704 280.842 137.705 279.918 137.309C278.864 136.859 281.776 132.793 282.681 130.917Z" fill="#FFCABC"/>
<path d="M260.189 165.213C261.088 158.083 277.022 138.853 279.116 136.069C280.282 134.52 285.123 135.669 286.091 138.611C281.745 144.647 279.344 149.743 276.367 156.559C275.676 158.139 272.482 164.352 271.479 165.755C263.432 177.006 259.798 168.314 260.189 165.213Z" fill="#008BCE"/>
<g opacity="0.1">
<path d="M260.189 165.213C261.088 158.083 277.022 138.853 279.116 136.069C280.282 134.52 285.123 135.669 286.091 138.611C281.745 144.647 279.344 149.743 276.367 156.559C275.676 158.139 272.482 164.352 271.479 165.755C263.432 177.006 259.798 168.314 260.189 165.213Z" fill="black"/>
</g>
<path d="M317.652 182.209C317.652 182.209 312.586 182.279 311.015 183.669L308.823 185.608C308.395 185.987 308.361 186.646 308.75 187.082C309.932 188.406 312.514 190.997 315.405 192.022C316.063 192.255 316.789 192.128 317.313 191.687C317.313 191.687 320.807 187.312 320.253 186.414L317.652 182.209Z" fill="#FFCABC"/>
<path d="M331.012 182.69C330.559 182.936 330.096 183.182 329.622 183.426L322.469 186.075C317.602 188.458 317.231 182.453 317.231 182.453L319.183 180.762L332.459 169.735C332.459 169.735 320.101 160.574 312.097 152.846C306.068 145.905 306.862 141.368 313.948 142.13C319.037 142.666 342.397 164.487 344.43 166.825C346.529 169.247 341.844 176.752 331.012 182.69Z" fill="#008BCE"/>
<path opacity="0.1" d="M331.012 182.69C330.559 182.936 330.096 183.182 329.622 183.426L322.469 186.075C317.602 188.458 317.231 182.453 317.231 182.453L319.183 180.762L332.459 169.735C332.459 169.735 320.101 160.574 312.097 152.846C306.068 145.905 306.862 141.368 313.948 142.13C319.037 142.666 342.397 164.487 344.43 166.825C346.529 169.247 341.844 176.752 331.012 182.69Z" fill="black"/>
<path d="M334.835 158.632C334.796 158.595 334.756 158.558 334.717 158.51C334.717 158.51 334.757 158.547 334.835 158.632Z" fill="#161616"/>
<path d="M288.615 113.957C288.204 113.887 287.777 114.323 287.657 114.945C287.537 115.567 287.764 116.143 288.175 116.213C288.586 116.283 289.013 115.847 289.133 115.225C289.284 114.582 289.026 114.027 288.615 113.957Z" fill="#161616"/>
<path d="M287.509 122.194C286.432 122.261 285.38 121.848 284.637 121.066C286.181 119.667 287.527 118.065 288.639 116.303L287.509 122.194Z" fill="#FFD3CC"/>
<path d="M291.816 112.138C291.196 111.411 290.264 111.029 289.313 111.111C289.274 111.125 289.232 111.133 289.191 111.133C288.982 111.136 288.81 110.969 288.807 110.76C288.804 110.551 288.971 110.379 289.18 110.376C290.368 110.239 291.548 110.686 292.348 111.575C292.409 111.642 292.444 111.728 292.447 111.818C292.454 112.027 292.29 112.202 292.081 112.209C291.986 112.22 291.891 112.195 291.816 112.138Z" fill="#161616"/>
<path d="M296.713 149.898C307.402 149.791 308.917 143.941 308.917 143.941C305.679 140.9 305.4 135.201 305.972 130.102C305.182 131.268 304.183 132.288 302.855 133.207C300.333 134.94 297.576 135.339 295.061 134.77C295.016 134.77 294.972 134.756 294.927 134.727C294.957 134.831 294.974 134.934 294.989 135.038C295.713 139.099 295.237 143.469 290.989 144.833C290.989 144.833 284.939 150.015 296.713 149.898Z" fill="#FFCABC"/>
<path d="M294.602 133.231C294.726 133.72 294.849 134.209 294.929 134.727C294.974 134.756 295.018 134.771 295.063 134.77C297.578 135.339 300.336 134.94 302.857 133.207C304.184 132.288 305.184 131.269 305.974 130.102C306.11 128.809 306.32 127.545 306.531 126.385L295.031 132.989L294.602 133.231Z" fill="#FFCABC"/>
<path d="M310.025 143.477C310.025 143.477 308.411 138.829 306.093 137.399C303.775 135.968 293.766 137.711 292.205 138.359C290.645 139.007 289.133 142.667 289.133 142.667L310.025 143.477Z" fill="#008BCE"/>
<path opacity="0.8" d="M310.025 143.477C310.025 143.477 308.411 138.829 306.093 137.399C303.775 135.968 293.766 137.711 292.205 138.359C290.645 139.007 289.133 142.667 289.133 142.667L310.025 143.477Z" fill="white"/>
<path d="M296.904 373.367C295.9 373.368 295.007 373.24 294.699 372.799C294.535 372.569 294.538 372.259 294.706 372.028C294.831 371.815 295.04 371.665 295.282 371.617C296.53 371.275 299.149 372.763 299.29 372.823C299.352 372.86 299.384 372.932 299.369 373.003C299.361 373.079 299.303 373.141 299.227 373.154C298.459 373.291 297.682 373.362 296.904 373.367ZM295.72 371.917C295.607 371.901 295.492 371.901 295.379 371.918C295.229 371.943 295.099 372.036 295.025 372.169C294.903 372.39 294.942 372.49 295.022 372.56C295.37 373.04 297.268 373.047 298.665 372.855C297.757 372.347 296.756 372.022 295.72 371.898V371.917Z" fill="#008BCE"/>
<path d="M299.176 373.135H299.106C298.195 372.726 296.409 371.136 296.557 370.266C296.559 370.066 296.731 369.816 297.223 369.765C297.585 369.722 297.948 369.83 298.224 370.063C299.222 370.852 299.37 372.864 299.379 372.954C299.377 373.017 299.347 373.075 299.297 373.114C299.261 373.136 299.217 373.143 299.176 373.135ZM297.36 370.134H297.26C296.939 370.135 296.918 370.295 296.907 370.335C296.823 370.845 298.028 372.115 298.958 372.674C298.873 371.819 298.528 371.013 297.971 370.363C297.803 370.199 297.577 370.106 297.341 370.104L297.36 370.134Z" fill="#008BCE"/>
<path d="M306.767 355.682L299.297 355.693L299.931 372.954L307.444 372.943L306.767 355.682Z" fill="#FFCABC"/>
<path d="M298.165 372.676C293.055 375.812 291.485 375.955 285.578 377.25C284.287 377.533 285.106 380.661 288.197 380.656C293.313 380.649 293.849 380.406 298.209 380.4C301.945 380.394 306.234 380.559 309.204 380.605C309.295 380.606 309.386 380.596 309.476 380.575C310.061 380.435 310.424 379.848 310.286 379.264L308.831 372.59C308.762 372.292 308.497 372.081 308.19 372.08L299.976 372.092C299.332 372.116 298.704 372.318 298.165 372.676Z" fill="#161616"/>
<path opacity="0.2" d="M306.777 355.691L307.118 365.319L299.616 365.33L299.297 355.702L306.777 355.691Z" fill="black"/>
<path d="M362.559 370.262C362.465 369.224 362.507 368.291 362.925 367.925C363.152 367.733 363.479 367.708 363.738 367.861C363.963 367.975 364.135 368.171 364.218 368.409C364.7 369.667 363.415 372.519 363.355 372.66C363.329 372.734 363.254 372.779 363.176 372.768C363.1 372.761 363.036 372.708 363.017 372.634C362.794 371.856 362.642 371.063 362.559 370.262ZM363.958 368.899C363.965 368.781 363.954 368.662 363.926 368.546C363.886 368.393 363.778 368.267 363.633 368.203C363.392 368.096 363.282 368.147 363.227 368.234C362.76 368.636 362.938 370.598 363.288 372.025C363.709 371.038 363.937 369.976 363.958 368.899Z" fill="#008BCE"/>
<path d="M362.999 372.582C362.994 372.558 362.991 372.534 362.993 372.509C363.325 371.541 364.824 369.542 365.722 369.607C365.93 369.591 366.207 369.747 366.305 370.241C366.388 370.612 366.309 370.998 366.087 371.304C365.379 372.406 363.287 372.747 363.204 372.764C363.14 372.78 363.072 372.757 363.03 372.704C363.004 372.67 362.992 372.625 362.999 372.582ZM365.954 370.425C365.954 370.425 365.947 370.352 365.944 370.311C365.913 369.979 365.745 369.971 365.703 369.974C365.164 369.932 363.965 371.302 363.479 372.313C364.358 372.148 365.162 371.72 365.784 371.087C365.926 370.896 365.998 370.662 365.986 370.423L365.954 370.425Z" fill="#008BCE"/>
<path d="M357.677 355.576L350.393 356.102L354.691 373.504L362.028 372.972L357.677 355.576Z" fill="#FFCABC"/>
<path d="M363.801 371.565C366.079 373.828 367.28 374.993 373.431 376.403C374.786 376.707 373.902 379.952 370.674 379.919C365.337 379.861 368.257 379.644 363.712 379.599C359.822 379.555 356.422 379.611 353.328 379.632C353.224 379.636 353.12 379.627 353.018 379.603C352.402 379.459 352.014 378.845 352.153 378.231L353.713 371.297C353.779 370.985 354.06 370.765 354.381 370.774L361.863 370.942C362.564 370.885 363.261 371.109 363.801 371.565Z" fill="#161616"/>
<path opacity="0.2" d="M357.687 355.586L359.915 364.522L352.609 365.051L350.393 356.102L357.687 355.586Z" fill="black"/>
<path d="M318.155 204.009C318.155 204.009 322.244 210.261 325.071 217.917C329.069 228.746 327.651 234.408 328.989 241.736C331.345 254.641 334.869 264.539 337.339 274.328C345.056 304.96 361.355 359.348 361.355 359.348L348.184 362.249C348.184 362.249 323.759 297.393 316.829 275.484C310.581 255.766 294.555 203.959 294.555 203.959L318.155 204.009Z" fill="#008BCE"/>
<path opacity="0.4" d="M318.155 204.009C318.155 204.009 322.244 210.261 325.071 217.917C329.069 228.746 327.651 234.408 328.989 241.736C331.345 254.641 334.869 264.539 337.339 274.328C345.056 304.96 361.355 359.348 361.355 359.348L348.184 362.249C348.184 362.249 323.759 297.393 316.829 275.484C310.581 255.766 294.555 203.959 294.555 203.959L318.155 204.009Z" fill="black"/>
<path d="M362.899 356.916L363.037 361.602L347.172 363.317C347.172 363.317 345.766 358.201 345.826 358.201L362.899 356.916Z" fill="#008BCE"/>
<path opacity="0.8" d="M362.899 356.916L363.037 361.602L347.172 363.317C347.172 363.317 345.766 358.201 345.826 358.201L362.899 356.916Z" fill="white"/>
<path opacity="0.3" d="M301.959 227.834C307.01 244.096 313.407 264.677 316.818 275.475C316.982 275.996 317.165 276.536 317.338 277.113C315.996 259.076 312.457 228.845 303.388 227.732C302.91 227.66 302.421 227.695 301.959 227.834Z" fill="black"/>
<path d="M306.006 203.943C306.006 203.943 309.86 253.64 310.296 277.134C310.699 299.03 309.087 362.836 309.087 362.836L296.394 362.855C296.394 362.855 290.333 297.718 288.084 275.482C285.945 254.428 280.393 204.388 280.393 204.388L306.006 203.943Z" fill="#008BCE"/>
<path opacity="0.4" d="M306.006 203.943C306.006 203.943 309.86 253.64 310.296 277.134C310.699 299.03 309.087 362.836 309.087 362.836L296.394 362.855C296.394 362.855 290.333 297.718 288.084 275.482C285.945 254.428 280.393 204.388 280.393 204.388L306.006 203.943Z" fill="black"/>
<path d="M310.973 358.381L310.538 363.042L295.101 363.065C295.101 363.065 294.375 357.84 294.435 357.84L310.973 358.381Z" fill="#008BCE"/>
<path opacity="0.8" d="M310.973 358.381L310.538 363.042L295.101 363.065C295.101 363.065 294.375 357.84 294.435 357.84L310.973 358.381Z" fill="white"/>
<path d="M330.616 219.809L327.069 218.785C321.38 217.135 315.367 216.955 309.593 218.263L305.44 208.781L306.71 218.756L304.889 218.718C299.645 218.595 294.439 219.657 289.66 221.809C287.119 222.956 284.881 223.933 284.872 223.8C284.872 223.497 280.396 204.389 280.396 204.389C275.845 173.391 276.594 157.697 277.959 150.054C278.699 145.958 281.885 142.743 285.981 141.975C287.527 141.69 289.262 141.416 291.035 141.235C296.374 140.875 301.731 140.818 307.079 141.074C307.127 141.083 310.569 141.34 310.616 141.34C316.211 141.634 321.938 146.366 320.933 151.885C317.576 170.205 317.017 183.604 317.244 192.432L330.616 219.809Z" fill="#008BCE"/>
<path opacity="0.2" d="M277.109 175.13C277.109 175.13 277 159.863 277.149 157.026L288.521 149.207C286.428 152.949 281.227 161.087 277.109 175.13Z" fill="black"/>
<path d="M286.764 124.668C286.922 128.616 289.152 131.905 292.214 133.656H292.229C292.244 133.671 292.259 133.67 292.274 133.67C293.096 134.167 293.99 134.514 294.928 134.727C294.973 134.756 295.017 134.771 295.062 134.77C297.577 135.339 300.335 134.94 302.856 133.207C304.183 132.288 305.183 131.269 305.973 130.102C308.008 127.186 308.8 123.333 310.187 117.914C310.616 116.321 310.674 114.643 310.346 113.028C309.175 107.249 303.54 103.519 297.776 104.69C289.684 106.301 286.454 117.455 286.764 124.668Z" fill="#FFCABC"/>
<path opacity="0.2" d="M292.273 133.67C293.095 134.167 293.989 134.514 294.927 134.727C294.972 134.756 294.538 129.98 294.538 129.98C294.567 129.9 292.838 133.664 292.273 133.67Z" fill="black"/>
<path d="M319.59 119.134C318.727 120.253 317.599 121.429 316.186 121.552C315.361 121.628 314.527 121.486 313.768 121.173C311.265 125.506 305.964 130.105 305.964 130.105C304.627 130.608 303.224 130.864 301.811 130.864C300.341 130.864 298.862 130.58 297.468 130.03C297.022 129.85 296.7 129.726 296.652 129.717C296.263 129.632 294.253 121.173 291.446 119.884C290.82 119.581 290.82 119.581 290.82 119.581C291.01 118.69 290.725 116.224 291.597 115.38C292.071 114.925 290.782 113.749 290.877 112.858C290.886 112.782 290.896 112.716 290.915 112.64C290.023 112.08 289.961 110.876 290.298 109.596C291.148 106.375 292.849 107.254 292.849 107.254C292.849 107.254 291.948 106.192 292.28 104.343C292.631 102.503 296.073 101.583 296.073 101.583C296.073 101.583 296.528 101.659 297.296 101.82C298.073 101.204 299.079 100.872 300.074 100.938C301.401 101.014 303.089 101.924 303.763 103.072C304.844 102.209 306.38 101.934 307.689 102.38C309.007 102.816 310.069 103.954 310.41 105.301C311.681 104.818 313.018 105.33 314.013 106.259C315.009 107.179 315.416 108.686 315.037 109.986C316.023 110.327 316.668 111.029 316.782 112.063C316.896 113.097 316.659 114.14 316.526 115.173C316.393 116.207 316.393 117.316 316.924 118.217C317.457 119.105 318.689 119.655 319.59 119.134Z" fill="#161616"/>
<path d="M294.451 114.736C292.217 115.442 291.115 118.777 291.062 120.881C291.001 123.206 292.583 124.642 294.576 123.044C296.076 121.814 297.131 120.126 297.578 118.239C298.082 115.951 296.684 114.03 294.451 114.736Z" fill="#FFCABC"/>
<path d="M275.335 149.808C275.335 149.808 275.335 149.808 261.228 165.827C259.276 170.365 266.036 175.363 270.819 170.929L287.741 151.436C288.964 148.775 289.131 146.576 287.334 144.808C284.971 142.48 280.824 140.996 275.335 149.808Z" fill="#008BCE"/>
<path d="M82.6133 180.331C89.0923 187.279 92.9813 190.723 95.4043 192.63C98.0343 194.701 120.536 181.008 123.327 179.45C123.327 179.45 120.813 176.969 119.771 177.235C115.842 178.236 98.3163 184.282 98.3163 184.282C97.4983 184.028 89.4103 174.744 89.4103 174.744L82.6133 180.331Z" fill="#FFC8B5"/>
<path d="M126.241 176.001L126.172 175.952L126.255 176.026C126.255 176.026 124.256 179.303 121.531 180.119L119.471 178.103L120.404 172.116L120.457 171.754L120.675 171.54L123.492 168.801C124.067 168.242 124.981 168.241 125.557 168.798L127.67 170.84C128.137 171.291 128.256 171.992 127.965 172.572L126.241 176.001Z" fill="#FFC8B5"/>
<path d="M94.6541 177.665C88.9181 169.485 78.8341 164.142 75.9621 164.101C71.8241 164.031 70.5431 164.991 72.1081 168.139C74.7631 173.478 79.1591 178.922 85.2181 185.424L94.6541 177.665Z" fill="#161616"/>
<path d="M78.3364 164.505C75.9844 163.66 75.0024 163.348 71.2824 162.385C66.9144 161.336 62.4804 160.605 58.0124 160.197C55.1854 159.878 52.3984 159.781 50.1774 159.764C49.9124 159.763 49.6464 159.792 49.3864 159.85C47.3804 160.3 46.0824 162.365 46.4884 164.464C50.8814 187.672 51.0914 197.967 50.4584 209.921L77.1744 210.875C77.8584 210.899 78.4554 210.389 78.5944 209.677C79.7754 203.652 83.4764 190.268 83.4764 190.268C87.2444 187.604 87.0824 184.539 86.1014 180.611C85.7944 179.381 85.0794 178.202 82.0454 171.565C82.0454 171.567 79.7094 165.008 78.3364 164.505Z" fill="#161616"/>
<path d="M61.4492 210.31L71.1912 210.665C72.6452 199.103 71.9072 190.474 71.8632 177.348C71.9042 189.603 64.8772 204.352 61.4492 210.31Z" fill="white"/>
<path d="M71.5519 214.973C71.5519 214.973 83.5589 274.38 82.9469 299.004C82.2979 324.945 77.2149 369.6 77.2149 369.6L70.8789 369.534C70.8789 369.534 65.1909 336.472 68.4479 300.207C51.8539 263.849 47.5469 217.31 47.5469 217.31L71.5519 214.973Z" fill="#FFC8B5"/>
<path d="M71.5519 214.973C71.5519 214.973 83.5589 274.38 82.9469 299.004C82.2979 324.945 77.2149 369.6 77.2149 369.6L70.8789 369.534C70.8789 369.534 65.1909 336.472 68.4479 300.207C51.8539 263.849 47.5469 217.31 47.5469 217.31L71.5519 214.973Z" fill="#FFD4C7"/>
<path d="M66.1582 229.622C66.1582 229.622 69.2892 276.117 66.0282 300.532C62.5892 326.252 52.7272 370.1 52.7272 370.1L46.4352 369.352C46.4352 369.352 44.3402 335.87 51.4842 300.167C38.9022 262.234 42.0412 229.361 42.0412 229.361L66.1582 229.622Z" fill="#FFC8B5"/>
<path d="M66.1582 229.622C66.1582 229.622 69.2892 276.117 66.0282 300.532C62.5892 326.252 52.7272 370.1 52.7272 370.1L46.4352 369.352C46.4352 369.352 44.3402 335.87 51.4842 300.167C38.9022 262.234 42.0412 229.361 42.0412 229.361L66.1582 229.622Z" fill="#FFC8B5"/>
<path d="M42.2599 283.078C46.0639 283.876 51.9719 285.551 61.9579 286.523C62.1549 286.536 62.3519 286.558 62.5569 286.571C62.9759 286.616 63.4129 286.645 63.8669 286.666C66.5519 286.808 84.5139 289.138 85.7549 281.744C85.7549 281.744 81.8889 263.423 78.1659 243.085C75.9099 230.76 77.7479 213.425 77.7479 213.425C69.9579 212.509 62.0969 212.277 54.2639 212.731L49.7069 212.995C49.7069 212.995 34.3049 228.238 38.1299 243.327C43.8559 265.907 42.2599 283.078 42.2599 283.078Z" fill="#008BCE"/>
<g opacity="0.4">
<path d="M42.2599 283.078C46.0639 283.876 51.9719 285.551 61.9579 286.523C62.1549 286.536 62.3519 286.558 62.5569 286.571C62.9759 286.616 63.4129 286.645 63.8669 286.666C66.5519 286.808 84.5139 289.138 85.7549 281.744C85.7549 281.744 81.8889 263.423 78.1659 243.085C75.9099 230.76 77.7479 213.425 77.7479 213.425C69.9579 212.509 62.0969 212.277 54.2639 212.731L49.7069 212.995C49.7069 212.995 34.3049 228.238 38.1299 243.327C43.8559 265.907 42.2599 283.078 42.2599 283.078Z" fill="black"/>
</g>
<path opacity="0.1" d="M54.1758 159.828C54.8128 162.175 55.8508 164.396 57.2808 166.363C61.1548 171.692 66.8638 177.476 69.3808 178.114C70.1028 176.438 71.2228 173.167 71.2228 173.167C72.8748 173.982 73.3298 176.312 73.8808 178.091C76.5308 173.791 78.5528 166.393 77.8838 163.703C77.8838 163.703 74.6698 162.752 73.0858 162.36C68.7148 161.342 64.2808 160.63 59.8138 160.229C57.8608 159.966 55.9218 159.842 54.1758 159.828Z" fill="black"/>
<path d="M54.0996 159.342L54.9836 160.938C58.3946 167.129 66.2926 175.092 69.3816 175.876C70.1036 174.2 70.8446 171.308 70.8446 171.308C72.4966 172.123 73.7106 174.453 74.2616 176.232C76.9116 171.932 78.4776 165.907 77.8076 163.217C76.2526 162.745 74.5936 162.266 73.0096 161.874C68.6396 160.856 64.2046 160.144 59.7376 159.742C57.7846 159.48 55.8456 159.355 54.0996 159.342Z" fill="white"/>
<path d="M50.4804 212.994L64.0124 213.357L65.1444 213.384L68.0684 213.458L69.1924 213.493L77.1334 213.7C77.3794 213.675 77.5984 213.582 77.6084 213.424L77.9204 210.876C77.9484 210.703 77.7294 210.546 77.4534 210.536L69.5994 210.226L68.6564 210.187L64.7774 210.039L63.8584 210.001L50.8304 209.488C50.6524 209.467 50.4764 209.539 50.3594 209.689L50.0374 212.579C49.9324 212.773 50.1624 212.981 50.4804 212.994Z" fill="#008BCE"/>
<path opacity="0.2" d="M50.4804 212.994L64.0124 213.357L65.1444 213.384L68.0684 213.458L69.1924 213.493L77.1334 213.7C77.3794 213.675 77.5984 213.582 77.6084 213.424L77.9204 210.876C77.9484 210.703 77.7294 210.546 77.4534 210.536L69.5994 210.226L68.6564 210.187L64.7774 210.039L63.8584 210.001L50.8304 209.488C50.6524 209.467 50.4764 209.539 50.3594 209.689L50.0374 212.579C49.9324 212.773 50.1624 212.981 50.4804 212.994Z" fill="white"/>
<path d="M73.3918 213.938L72.5238 213.925C72.3468 213.944 72.2218 213.823 72.2288 213.706L72.7148 210.097C72.7038 209.992 72.8828 209.896 73.0618 209.896L73.9298 209.919C74.1068 209.9 74.2318 210.021 74.2238 210.128L73.7408 213.746C73.6848 213.859 73.5718 213.948 73.3918 213.938Z" fill="#161616"/>
<path d="M58.3153 213.721L57.4913 213.7C57.3233 213.718 57.2053 213.603 57.2133 213.502L57.6983 209.875C57.6883 209.776 57.8673 209.684 58.0283 209.694L58.8513 209.715C59.0193 209.697 59.1363 209.803 59.1293 209.913L58.6433 213.522C58.6293 213.641 58.4843 213.721 58.3153 213.721Z" fill="#161616"/>
<path d="M87.0232 203.156H66.6172L69.0042 175.875H89.4092L87.0232 203.156Z" fill="#008BCE"/>
<path d="M50.5943 198.072C51.3603 197.176 51.8743 196.222 51.6913 195.083C51.6913 195.083 51.7203 193.423 51.7493 190.898C51.8353 183.506 51.8963 168.776 51.1233 166.827C49.4413 162.603 46.5602 160.314 45.0492 162.782C43.2852 165.665 43.1562 187.546 43.1562 187.546C43.5692 202.016 48.8673 200.091 50.5943 198.072Z" fill="#FFC8B5"/>
<path d="M78.7813 195.873L78.7433 195.797L78.7813 195.901C78.7813 195.901 75.4713 197.845 72.6833 197.276L71.8203 194.526L75.4713 189.69L75.6893 189.396L75.9833 189.311L79.7593 188.228C80.5293 188.007 81.3363 188.438 81.5803 189.201L82.4773 191.999C82.6753 192.617 82.4493 193.292 81.9183 193.665L78.7813 195.873Z" fill="#FFC8B5"/>
<path d="M46.222 198.869C48.617 201.811 73.032 197.461 73.227 197.371C74.02 197.013 74.143 194.921 73.232 194.162C72.732 193.744 47.757 191.476 46.03 191.342C43.075 195.882 45.002 197.371 46.222 198.869Z" fill="#FFC8B5"/>
<path d="M80.8266 130.97C84.1426 134.995 85.8806 137.996 83.8716 151.436C83.4926 153.973 84.5906 159.93 85.0696 159.986C72.0266 158.472 68.3066 156.331 62.1156 152.55C57.9746 150.021 54.5946 140.861 55.6736 136.133C56.8376 131.031 62.3966 125.074 67.7676 124.57C73.7966 124.003 77.0616 126.399 80.8266 130.97Z" fill="#161616"/>
<path d="M71.9145 156.295C70.5235 159.044 69.6835 162.17 73.0485 164.953C73.7595 165.542 74.3025 166.34 74.4755 167.252C74.7515 168.713 74.1465 170.279 68.9555 168.24C61.4485 165.296 61.2715 160.611 61.2715 160.611C64.6825 158.921 65.5805 150.979 65.6965 146.514L71.9145 156.295Z" fill="#FFC8B5"/>
<path opacity="0.2" d="M67.149 152.949C66.927 154.884 69.358 157.513 71.026 158.442C71.253 157.699 71.548 156.978 71.907 156.291L68.225 150.5C67.704 151.233 67.338 152.067 67.149 152.949Z" fill="black"/>
<path d="M62.2828 135.514C64.1968 130.533 69.7738 128.055 74.7498 129.972C81.7708 132.628 83.0538 143.136 81.7208 149.576C80.2728 156.761 71.6608 159.065 66.1108 153.666C62.4018 150.077 62.2968 147.047 61.6828 139.945C61.5358 138.439 61.7418 136.922 62.2828 135.514Z" fill="#FFC8B5"/>
<path d="M63.1372 147.459C63.1372 147.459 66.1402 144.563 65.5872 139.271C65.5872 139.271 68.8272 135.955 68.6692 132.399C68.6692 132.399 69.6282 135.231 68.6752 137.252C68.6752 137.252 77.0852 136.64 76.8882 132.399C76.8882 132.399 77.6122 136.076 76.3472 137.182C76.3472 137.182 82.1512 136.73 81.6902 132.756C80.9792 126.632 75.7722 126.315 75.7722 126.315C75.7722 126.315 70.1912 121.574 62.4762 129.95C62.4762 129.95 53.3902 135.623 59.8312 145.081L63.1372 147.459Z" fill="#161616"/>
<path d="M77.5144 147.072C78.2294 147.234 78.9784 147.073 79.5634 146.633C78.6774 145.519 77.9484 144.288 77.3984 142.977L77.5144 147.072Z" fill="#FFD3CC"/>
<path d="M72.1166 147.713C72.0626 147.635 72.0816 147.528 72.1596 147.474C72.2366 147.42 72.3437 147.439 72.3977 147.517C73.3127 148.664 74.7197 149.3 76.1767 149.226C76.2677 149.229 76.3406 149.301 76.3466 149.392C76.3466 149.395 76.3466 149.398 76.3466 149.401C76.3486 149.49 76.2777 149.563 76.1897 149.565C75.9147 149.578 75.6376 149.569 75.3636 149.536C74.0826 149.39 72.9136 148.733 72.1166 147.713Z" fill="#161616"/>
<path d="M59.0169 144.237C58.9719 142.781 60.1089 141.565 61.5569 141.52C63.5619 141.495 64.8869 143.996 65.1739 145.73C65.4639 147.654 64.3009 149.302 62.4029 148.509C60.9789 147.892 59.8539 146.736 59.2719 145.292C59.1149 144.961 59.0279 144.602 59.0169 144.237Z" fill="#FFC8B5"/>
<path d="M72.6688 141.005C72.6478 141.716 73.0098 142.307 73.4818 142.326C73.9538 142.345 74.3388 141.778 74.3528 141.055C74.3668 140.333 74.0118 139.754 73.5498 139.737C73.0868 139.72 72.6918 140.285 72.6688 141.005Z" fill="#161616"/>
<path d="M79.2918 141.758C79.2718 142.47 79.6358 143.061 80.0978 143.078C80.5608 143.095 80.9548 142.529 80.9768 141.808C80.9988 141.087 80.6328 140.506 80.1708 140.489C79.7078 140.473 79.3048 141.036 79.2918 141.758Z" fill="#161616"/>
<path d="M79.9648 140.52L81.6888 140.082C81.6888 140.082 80.7718 141.391 79.9648 140.52Z" fill="#161616"/>
<path d="M70.6689 138.653C70.6099 138.637 70.5559 138.607 70.5099 138.567C70.3709 138.434 70.3659 138.213 70.4989 138.074C70.5009 138.072 70.5019 138.071 70.5039 138.069C71.3959 137.091 72.7089 136.612 74.0219 136.785C74.2069 136.827 74.3279 137.008 74.2959 137.195C74.2599 137.38 74.0829 137.502 73.8969 137.47C72.8109 137.345 71.7319 137.75 70.9969 138.559C70.9119 138.646 70.7869 138.681 70.6689 138.653Z" fill="#161616"/>
<path d="M81.83 139.517C81.776 139.488 81.729 139.448 81.693 139.398C81.085 138.489 80.081 137.924 78.993 137.879C78.801 137.888 78.638 137.74 78.627 137.548C78.627 137.546 78.627 137.545 78.627 137.543C78.624 137.349 78.776 137.189 78.969 137.182C80.293 137.22 81.521 137.896 82.267 138.998C82.384 139.151 82.356 139.37 82.203 139.487C82.096 139.57 81.95 139.582 81.83 139.517Z" fill="#161616"/>
<path d="M73.3438 139.768L75.0677 139.33C75.0677 139.33 74.1488 140.639 73.3438 139.768Z" fill="#161616"/>
<path d="M47.9535 160.13C49.6605 159.722 51.4975 160.186 52.7075 161.457C54.0405 162.859 54.8765 164.817 55.1275 166.778C55.5155 169.813 52.2495 180.708 52.3325 183.793C49.1085 182.027 44.3625 179.612 39.8555 179.169C40.4775 171.994 41.3075 167.22 42.6995 164.845C43.4985 163.482 44.3245 162.087 45.5505 161.099C46.0945 160.66 47.0555 160.345 47.9535 160.13Z" fill="#161616"/>
<path d="M78.8657 370.39C81.1437 372.653 82.3447 373.818 88.4957 375.228C89.8507 375.532 88.9667 378.777 85.7387 378.744C80.4017 378.686 83.3217 378.469 78.7767 378.423C74.8867 378.379 71.4867 378.435 68.3927 378.456C68.2887 378.46 68.1847 378.451 68.0827 378.427C67.4657 378.283 67.0787 377.669 67.2177 377.055L68.7777 370.121C68.8437 369.809 69.1247 369.589 69.4457 369.598L76.9277 369.766C77.6287 369.711 78.3257 369.935 78.8657 370.39Z" fill="#161616"/>
<path d="M54.9998 370.883C56.4578 373.744 57.2348 375.226 62.6378 378.486C63.8308 379.198 61.9778 382.005 58.9208 380.966C53.8688 379.245 56.7108 379.95 52.4068 378.488C48.7248 377.232 45.4778 376.224 42.5318 375.277C42.4318 375.249 42.3358 375.207 42.2468 375.152C41.7058 374.823 41.5298 374.119 41.8538 373.579L45.5008 367.478C45.6608 367.202 45.9958 367.081 46.2988 367.19L53.3538 369.686C54.0378 369.852 54.6298 370.282 54.9998 370.883Z" fill="#161616"/>
</g>
<defs>
<clipPath id="clip0_3443_11700">
<rect width="427" height="425" fill="white"/>
</clipPath>
</defs>
</svg>
