<svg width="53" height="45" viewBox="0 0 53 45" fill="none" xmlns="http://www.w3.org/2000/svg">
<path d="M52.9293 43.9212C52.682 44.2392 52.47 44.4865 52.046 44.4512H0.529204C-0.0361376 44.2392 -0.177469 43.3912 0.246538 43.0379C0.670544 42.6845 0.741212 42.7905 0.776546 42.7905H4.55727V30.9537C4.55727 30.6357 5.15795 30.4237 5.44062 30.3883C7.06598 30.2117 10.9174 30.247 12.5781 30.3883C14.2388 30.5297 13.5674 30.6357 13.5674 31.0597V42.7905H16.2528V26.3249C16.2528 26.1836 16.7121 25.6889 16.9241 25.7596C19.2915 25.9716 22.1535 25.4769 24.4856 25.7596C26.8176 26.0423 25.1569 25.9716 25.1569 26.2189V42.7905H27.8423V27.7736C27.8423 27.2436 28.337 26.9609 28.8316 26.8903C31.0577 26.6429 33.7077 27.0669 35.9691 26.8903C36.1811 26.8196 36.8524 27.2083 36.8524 27.3496V42.7905H39.6438V19.3995C39.6438 19.2935 40.2091 18.8695 40.4212 18.9402C42.7532 19.1168 45.3679 18.7282 47.6646 18.9402C49.9613 19.1522 48.5479 19.1875 48.5479 19.5055V42.7905H52.2226C52.5053 42.7905 52.8587 43.0732 53 43.3205V43.9565L52.9293 43.9212ZM46.9579 20.5655H41.1632V42.7905H46.9579V20.5655ZM23.6022 27.2789H17.9841L17.8428 27.4203V42.7552H23.6376V27.2436L23.6022 27.2789ZM35.1564 28.5156H29.4677V42.7905H35.1564V28.5156ZM11.9067 32.0137H6.11195V42.7552H11.9067V32.0137Z" fill="white"/>
<path d="M43.3186 0.035334C49.0426 -0.494674 53.1414 5.44142 50.4913 10.6002C47.8413 15.7589 39.6085 15.7236 37.3118 9.99949C35.5098 5.54742 38.5131 0.45934 43.3186 0V0.035334ZM43.0005 1.66069C36.7464 2.50871 36.8524 12.2962 43.3892 12.8969C51.834 13.6742 51.6573 0.494675 43.0005 1.66069Z" fill="white"/>
<path d="M39.5733 15.1941C40.492 14.9821 40.9514 15.8655 40.4214 16.5722L31.7292 23.3916H31.3759C31.3759 23.4269 20.6344 19.0809 20.6344 19.0809L9.82221 26.7837C8.90353 27.3137 8.1262 26.2536 8.86821 25.5116L20.281 17.3848H20.8111L31.3052 21.6956L39.6087 15.1941H39.5733Z" fill="white"/>
<path d="M44.5553 2.58008V3.49876L45.686 3.71076L45.58 4.94745C45.474 5.05345 43.6013 4.2761 43.3187 5.23012C43.036 6.18413 44.414 6.53747 45.156 6.96148C46.534 7.80949 46.7814 9.64685 45.4033 10.6009C44.0253 11.5549 44.52 10.6715 44.6613 11.9789H43.5306L43.4247 10.9895L41.658 10.6362L41.764 9.29351C42.5766 9.68219 45.0853 10.2122 44.732 8.6575C44.3787 7.10281 43.5306 7.84482 43.036 7.56215C41.7286 6.82014 41.3046 5.26545 42.4 4.09943C43.4953 2.93342 43.566 3.81676 43.3187 2.61541H44.5553V2.58008Z" fill="white"/>
</svg>
