<svg width="424" height="403" viewBox="0 0 424 403" fill="none" xmlns="http://www.w3.org/2000/svg">
<path d="M400.166 382.433C388.656 392.023 338.566 398.803 278.886 401.353C187.146 405.283 72.7259 399.233 40.9159 378.063C25.8559 368.053 15.6759 337.113 9.2259 297.523C-6.8041 199.023 0.345901 46.9934 13.2859 30.5134C31.4359 7.42337 323.426 -15.4466 400.036 13.7934C432.866 26.3234 429.356 358.093 400.156 382.433H400.166Z" fill="white"/>
<path d="M278.846 134.761H133.146L141.833 35.4639H287.534L278.846 134.761Z" fill="#F5F5F5"/>
<path d="M229.193 117.086H150.1V117.867H229.193V117.086Z" fill="#E0E0E0"/>
<path d="M230.881 102.678H151.102L151.139 102.254L155.943 47.334H235.722L235.685 47.759L230.881 102.678ZM151.953 101.897H230.163L234.869 48.116H156.659L151.953 101.897Z" fill="#E0E0E0"/>
<path d="M154.358 128.877H152.206C151.304 128.877 150.485 128.524 149.897 127.884C149.307 127.24 149.026 126.387 149.105 125.481L149.293 123.331C149.453 121.495 151.078 120.002 152.914 120.002H155.066C155.968 120.002 156.789 120.354 157.375 120.995C157.965 121.637 158.246 122.492 158.167 123.398L157.979 125.548C157.819 127.383 156.194 128.877 154.358 128.877ZM152.915 120.782C151.473 120.782 150.199 121.955 150.072 123.397L149.884 125.547C149.825 126.233 150.034 126.876 150.473 127.355C150.911 127.833 151.526 128.095 152.206 128.095H154.358C155.8 128.095 157.074 126.921 157.201 125.48L157.389 123.33C157.449 122.643 157.239 122.001 156.8 121.52C156.362 121.044 155.747 120.782 155.067 120.782H152.915Z" fill="#E0E0E0"/>
<path d="M190.523 112.51H150.241L150.613 108.24H190.895L190.523 112.51ZM151.093 111.729H189.806L190.044 109.022H151.331L151.093 111.729Z" fill="#E0E0E0"/>
<path d="M228.74 126.573H212.695L213.067 122.305H229.112L228.74 126.573ZM213.546 125.792H228.023L228.261 123.087H213.784L213.546 125.792Z" fill="#E0E0E0"/>
<path d="M230.02 112.51H225.747L226.119 108.24H230.392L230.02 112.51ZM226.599 111.729H229.303L229.541 109.022H226.837L226.599 111.729Z" fill="#E0E0E0"/>
<path d="M224.109 112.51H219.836L220.208 108.24H224.481L224.109 112.51ZM220.688 111.729H223.392L223.63 109.022H220.926L220.688 111.729Z" fill="#E0E0E0"/>
<path d="M218.197 112.51H213.926L214.298 108.24H218.569L218.197 112.51ZM214.777 111.729H217.479L217.717 109.022H215.014L214.777 111.729Z" fill="#E0E0E0"/>
<path d="M236.084 43.1981H176.054L176.383 39.4111H236.413L236.084 43.1981ZM176.905 42.4161H235.367L235.562 40.1911H177.1L176.905 42.4161Z" fill="#E0E0E0"/>
<path d="M172.16 43.4389H156.115L156.487 39.1689H172.532L172.16 43.4389ZM156.966 42.6569H171.442L171.68 39.9499H157.203L156.966 42.6569Z" fill="#E0E0E0"/>
<path d="M273.775 65.2947H245.585L247 49.0977H275.192L273.775 65.2947ZM246.437 64.5137H273.058L274.34 49.8797H247.717L246.437 64.5137Z" fill="#E0E0E0"/>
<path d="M271.115 95.7029H242.925L244.341 79.5049H272.531L271.115 95.7029ZM243.776 94.9219H270.397L271.679 80.2869H245.058L243.776 94.9219Z" fill="#E0E0E0"/>
<path d="M268.455 126.11H240.265L241.681 109.912H269.871L268.455 126.11ZM241.117 125.329H267.738L269.02 110.694H242.399L241.117 125.329Z" fill="#E0E0E0"/>
<path d="M274.588 49.1372L245.841 64.5693L246.211 65.2575L274.957 49.8254L274.588 49.1372Z" fill="#E0E0E0"/>
<path d="M273.219 65.2413L247.161 49.8253L247.558 49.1523L273.616 64.5683L273.219 65.2413Z" fill="#E0E0E0"/>
<path d="M271.927 79.5744L243.16 94.9678L243.529 95.6573L272.296 80.2639L271.927 79.5744Z" fill="#E0E0E0"/>
<path d="M244.908 79.5495L244.51 80.2217L270.569 95.6382L270.966 94.966L244.908 79.5495Z" fill="#E0E0E0"/>
<path d="M240.239 126.405L241.704 109.652L255.077 117.564L269.261 109.959L269.63 110.649L255.863 118.029L268.295 125.386L267.898 126.057L255.059 118.461L240.239 126.405ZM242.375 110.955L241.142 125.035L254.273 117.996L242.375 110.955Z" fill="#E0E0E0"/>
<path d="M235.077 47.4158L151.301 101.96L151.728 102.615L235.504 48.0711L235.077 47.4158Z" fill="#E0E0E0"/>
<path d="M156.53 47.4139L156.067 48.0439L230.287 102.606L230.75 101.976L156.53 47.4139Z" fill="#E0E0E0"/>
<path d="M336.6 345.811H256.43L267.735 216.594H347.905L336.6 345.811Z" fill="#F5F5F5"/>
<path d="M282.647 340.044H263.117L264.317 326.312H283.848L282.647 340.044ZM263.983 339.249H281.917L282.981 327.107H265.045L263.983 339.249Z" fill="#E0E0E0"/>
<path d="M306.414 340.044H286.883L288.084 326.312H307.614L306.414 340.044ZM287.749 339.249H305.685L306.748 327.107H288.814L287.749 339.249Z" fill="#E0E0E0"/>
<path d="M330.18 340.044H310.65L311.849 326.312H331.38L330.18 340.044ZM311.516 339.249H329.45L330.514 327.107H312.578L311.516 339.249Z" fill="#E0E0E0"/>
<path d="M332.654 306.799H266.388V307.593H332.654V306.799Z" fill="#E0E0E0"/>
<path d="M311.564 288.293H267.724L268.165 283.238H312.005L311.564 288.293ZM268.59 287.499H310.835L311.139 284.033H268.894L268.59 287.499Z" fill="#E0E0E0"/>
<path d="M331.883 320.579H313.703L314.139 315.586H332.319L331.883 320.579ZM314.57 319.785H331.154L331.454 316.381H314.869L314.57 319.785Z" fill="#E0E0E0"/>
<path d="M333.592 301.053H326.682L327.286 294.148H334.194L333.592 301.053ZM327.548 300.258H332.862L333.327 294.942H328.014L327.548 300.258Z" fill="#E0E0E0"/>
<path d="M303.54 301.053H296.63L297.234 294.148H304.144L303.54 301.053ZM297.496 300.258H302.81L303.277 294.942H297.962L297.496 300.258Z" fill="#E0E0E0"/>
<path d="M273.49 301.053H266.58L267.182 294.148H274.092L273.49 301.053ZM267.446 300.258H272.76L273.226 294.942H267.911L267.446 300.258Z" fill="#E0E0E0"/>
<path d="M293.592 228.614H272.947L273.412 223.283H294.057L293.592 228.614ZM273.813 227.819H292.863L293.192 224.077H274.142L273.813 227.819Z" fill="#E0E0E0"/>
<path d="M271.346 321.966H269.61C268.325 321.966 267.16 321.465 266.327 320.556C265.489 319.642 265.09 318.429 265.204 317.139L265.356 315.403C265.586 312.779 267.908 310.644 270.532 310.644H272.267C273.552 310.644 274.717 311.145 275.552 312.056C276.39 312.97 276.789 314.183 276.676 315.471L276.524 317.207C276.292 319.831 273.97 321.966 271.346 321.966ZM270.531 311.438C268.307 311.438 266.341 313.247 266.146 315.471L265.994 317.207C265.901 318.273 266.227 319.271 266.913 320.019C267.593 320.762 268.552 321.172 269.61 321.172H271.346C273.57 321.172 275.537 319.363 275.731 317.139L275.883 315.403C275.976 314.339 275.65 313.339 274.964 312.591C274.283 311.848 273.324 311.438 272.266 311.438H270.531Z" fill="#E0E0E0"/>
<path d="M335.429 279.009H268.502L268.539 278.578L272.567 232.539H339.493L339.456 232.971L335.429 279.009ZM269.367 278.215H334.699L338.626 233.334H273.295L269.367 278.215Z" fill="#E0E0E0"/>
<path d="M273.163 232.625L272.692 233.266L334.823 278.941L335.294 278.3L273.163 232.625Z" fill="#E0E0E0"/>
<path d="M269.152 278.946L268.717 278.279L338.41 233.001L338.844 233.667L269.152 278.946Z" fill="#E0E0E0"/>
<path d="M282.046 339.966L264.445 327.028L264.917 326.389L282.518 339.327L282.046 339.966Z" fill="#E0E0E0"/>
<path d="M283.18 326.372L263.314 339.307L263.748 339.974L283.615 327.039L283.18 326.372Z" fill="#E0E0E0"/>
<path d="M305.813 339.966L288.213 327.028L288.685 326.389L306.285 339.327L305.813 339.966Z" fill="#E0E0E0"/>
<path d="M306.958 326.368L287.094 339.308L287.529 339.975L307.393 327.035L306.958 326.368Z" fill="#E0E0E0"/>
<path d="M329.579 339.966L311.978 327.028L312.45 326.389L330.051 339.327L329.579 339.966Z" fill="#E0E0E0"/>
<path d="M330.725 326.368L310.861 339.308L311.295 339.975L331.159 327.035L330.725 326.368Z" fill="#E0E0E0"/>
<path d="M360.891 65.2932C360.891 63.0132 360.555 60.8082 359.922 58.7362L365.674 53.6762L362.052 47.4022L354.792 49.8572C351.788 46.6512 347.862 44.3232 343.436 43.2952L341.929 35.7852H334.685L333.183 43.2952C328.757 44.3232 324.826 46.6512 321.822 49.8572L314.562 47.4022L310.94 53.6762L316.692 58.7362C316.063 60.8082 315.723 63.0132 315.723 65.2932C315.723 67.5782 316.064 69.7782 316.692 71.8552L310.94 76.9102L314.562 83.1842L321.822 80.7292C324.826 83.9352 328.757 86.2632 333.183 87.2962L334.685 94.8062H341.929L343.436 87.2962C347.862 86.2632 351.788 83.9352 354.792 80.7292L362.052 83.1842L365.674 76.9102L359.922 71.8552C360.555 69.7772 360.891 67.5782 360.891 65.2932ZM338.307 77.4842C331.825 77.4842 326.573 72.2272 326.573 65.7452C326.573 59.2632 331.825 54.0062 338.307 54.0062C344.789 54.0062 350.046 59.2632 350.046 65.7452C350.047 72.2282 344.789 77.4842 338.307 77.4842Z" fill="#EBEBEB"/>
<path d="M112.851 255.344C114.79 251.669 116.124 247.829 116.864 243.95L130.44 240.685L129.937 227.49L116.146 225.274C114.03 217.55 109.681 210.46 103.421 205.039L107.378 191.65L95.7012 185.49L86.8932 196.319C78.8842 194.212 70.5672 194.622 62.9982 197.236L53.3832 187.104L42.2092 194.139L47.1792 207.188C44.4042 209.994 41.9792 213.258 40.0402 216.933C38.0972 220.617 36.7762 224.453 36.0222 228.336L22.4502 231.592L22.9532 244.787L36.7442 247.003C38.8602 254.727 43.2172 261.822 49.4742 267.251L45.5092 280.635L57.1862 286.795L66.0032 275.97C74.0172 278.068 82.3242 277.654 89.8942 275.04L99.5092 285.172L110.683 278.137L105.708 265.097C108.496 262.288 110.908 259.027 112.851 255.344ZM66.0772 255.793C55.6282 250.281 51.6322 237.34 57.1452 226.89C62.6572 216.44 75.5942 212.432 86.0442 217.944C96.4932 223.456 100.497 236.402 94.9852 246.851C89.4722 257.301 76.5272 261.305 66.0772 255.793Z" fill="#EBEBEB"/>
<path d="M360.106 220.21L367.949 224.556C368.342 224.777 368.604 224.974 368.734 225.147C368.864 225.32 368.929 225.541 368.929 225.808C368.929 226.147 368.807 226.44 368.563 226.688C368.319 226.936 368.035 227.06 367.712 227.06C367.5 227.06 367.181 226.942 366.756 226.706L356.638 221.079C355.956 220.7 355.956 219.719 356.638 219.34L366.756 213.713C367.181 213.484 367.496 213.37 367.701 213.37C368.032 213.37 368.319 213.492 368.563 213.736C368.807 213.98 368.929 214.272 368.929 214.61C368.929 214.878 368.864 215.098 368.734 215.271C368.604 215.444 368.342 215.641 367.949 215.861L360.106 220.21Z" fill="#EBEBEB"/>
<path d="M380.286 212.107L372.526 228.832C372.329 229.249 372.152 229.521 371.994 229.647C371.789 229.812 371.541 229.895 371.25 229.895C370.919 229.895 370.634 229.777 370.393 229.54C370.153 229.304 370.033 229.036 370.033 228.737C370.033 228.525 370.127 228.213 370.316 227.804L378.1 211.091C378.297 210.674 378.47 210.402 378.62 210.276C378.833 210.111 379.081 210.028 379.364 210.028C379.695 210.028 379.978 210.144 380.214 210.376C380.451 210.608 380.569 210.874 380.569 211.173C380.57 211.386 380.475 211.698 380.286 212.107Z" fill="#EBEBEB"/>
<path d="M390.044 220.21L382.201 215.863C381.807 215.643 381.546 215.446 381.416 215.273C381.286 215.1 381.221 214.879 381.221 214.612C381.221 214.273 381.343 213.982 381.587 213.738C381.831 213.494 382.118 213.372 382.449 213.372C382.654 213.372 382.969 213.486 383.394 213.715L393.512 219.342C394.194 219.721 394.194 220.702 393.512 221.081L383.394 226.708C382.969 226.944 382.654 227.062 382.449 227.062C382.114 227.062 381.824 226.937 381.578 226.687C381.346 226.451 381.221 226.14 381.221 225.809C381.221 225.542 381.286 225.321 381.416 225.149C381.546 224.976 381.807 224.779 382.201 224.558L390.044 220.21Z" fill="#EBEBEB"/>
<path d="M221.596 386.578C321.889 386.578 403.192 381.508 403.192 375.255C403.192 369.001 321.889 363.932 221.596 363.932C121.303 363.932 40 369.001 40 375.255C40 381.508 121.303 386.578 221.596 386.578Z" fill="#F5F5F5"/>
<path d="M77.6738 149.201H40.6598C38.9708 149.201 37.4358 148.542 36.3398 147.346C35.2368 146.143 34.7118 144.546 34.8608 142.848L42.6008 54.3793C42.9028 50.9243 45.9608 48.1133 49.4168 48.1133H59.0378C59.9398 48.1133 60.6478 48.7893 60.6838 49.6863L60.6958 49.9873C60.7458 51.2363 61.7348 52.1773 62.9958 52.1773H72.1418C73.4458 52.1773 74.6408 51.1983 74.9198 49.9013L74.9848 49.6003C75.1698 48.7383 75.9378 48.1123 76.8108 48.1123H86.4318C88.1208 48.1123 89.6558 48.7713 90.7528 49.9683C91.8558 51.1713 92.3798 52.7683 92.2318 54.4653L84.4918 142.934C84.1878 146.39 81.1298 149.201 77.6738 149.201ZM49.4158 49.1133C46.4648 49.1133 43.8538 51.5143 43.5958 54.4663L35.8558 142.935C35.7318 144.35 36.1658 145.676 37.0758 146.67C37.9808 147.657 39.2538 148.201 40.6588 148.201H77.6728C80.6238 148.201 83.2338 145.8 83.4928 142.848L91.2328 54.3793C91.3558 52.9653 90.9228 51.6383 90.0128 50.6453C89.1078 49.6573 87.8348 49.1133 86.4288 49.1133H76.8078C76.4158 49.1133 76.0428 49.4203 75.9588 49.8113L75.8938 50.1133C75.5178 51.8603 73.9028 53.1783 72.1388 53.1783H62.9948C61.1868 53.1783 59.7688 51.8243 59.6958 50.0283L59.6838 49.7273C59.6698 49.3723 59.3978 49.1143 59.0378 49.1143L49.4158 49.1133Z" fill="#008BCE"/>
<path d="M91.0256 62.0059H42.3916V63.0059H91.0256V62.0059Z" fill="#008BCE"/>
<path d="M86.4286 48.1133H76.8076V49.1133H86.4286V48.1133Z" fill="#008BCE"/>
<path d="M77.3839 103.329H49.0049L51.4879 74.9541H79.8669L77.3839 103.329ZM50.0959 102.329H76.4679L78.7759 75.9541H52.4039L50.0959 102.329Z" fill="#008BCE"/>
<path d="M77.7239 135.382H42.9399L43.8599 124.858H78.6449L77.7239 135.382ZM44.0309 134.382H76.8079L77.5539 125.858H44.7769L44.0309 134.382Z" fill="#008BCE"/>
<path d="M54.845 117.927C54.04 117.927 53.309 117.612 52.784 117.04C52.257 116.465 52.006 115.704 52.076 114.896C52.218 113.273 53.655 111.952 55.279 111.952C56.084 111.952 56.816 112.267 57.34 112.839C57.866 113.414 58.118 114.175 58.047 114.983C57.906 116.607 56.47 117.927 54.845 117.927ZM55.281 112.952C54.162 112.952 53.172 113.863 53.074 114.983C53.028 115.508 53.187 115.999 53.523 116.364C53.855 116.727 54.325 116.927 54.846 116.927C55.965 116.927 56.955 116.016 57.053 114.896C57.099 114.371 56.94 113.881 56.605 113.515C56.271 113.152 55.801 112.952 55.281 112.952Z" fill="#008BCE"/>
<path d="M62.0381 117.927C61.2331 117.927 60.5021 117.612 59.9771 117.04C59.4501 116.465 59.1991 115.704 59.2701 114.896C59.4121 113.273 60.8491 111.952 62.4731 111.952C63.2781 111.952 64.0101 112.267 64.5341 112.839C65.0601 113.414 65.3121 114.175 65.2411 114.983C65.0991 116.607 63.6631 117.927 62.0381 117.927ZM62.4731 112.952C61.3541 112.952 60.3641 113.863 60.2661 114.983C60.2201 115.508 60.3791 115.999 60.7151 116.364C61.0481 116.727 61.5171 116.927 62.0381 116.927C63.1571 116.927 64.1471 116.016 64.2451 114.896C64.2911 114.371 64.1321 113.881 63.7971 113.515C63.4641 113.152 62.9941 112.952 62.4731 112.952Z" fill="#008BCE"/>
<path d="M69.2312 117.927C68.4262 117.927 67.6942 117.611 67.1702 117.039C66.6442 116.464 66.3932 115.702 66.4632 114.895C66.6052 113.273 68.0422 111.952 69.6662 111.952C70.4712 111.952 71.2032 112.267 71.7272 112.84C72.2532 113.415 72.5042 114.176 72.4342 114.983C72.2922 116.607 70.8552 117.927 69.2312 117.927ZM69.6662 112.952C68.5472 112.952 67.5572 113.863 67.4592 114.983C67.4132 115.508 67.5722 115.999 67.9072 116.364C68.2392 116.727 68.7092 116.927 69.2302 116.927C70.3492 116.927 71.3392 116.016 71.4372 114.896V114.895C71.4832 114.371 71.3242 113.88 70.9892 113.515C70.6572 113.153 70.1872 112.952 69.6662 112.952Z" fill="#008BCE"/>
<path d="M367.008 249.408H318.374V250.408H367.008V249.408Z" fill="#008BCE"/>
<path d="M353.629 336.604H316.615C314.926 336.604 313.391 335.945 312.295 334.749C311.193 333.546 310.668 331.948 310.816 330.25L318.556 241.782C318.858 238.327 321.916 235.516 325.372 235.516H334.993C335.895 235.516 336.603 236.192 336.639 237.089L336.651 237.39C336.701 238.639 337.69 239.58 338.951 239.58H348.098C349.403 239.58 350.597 238.602 350.875 237.305L350.94 237.003C351.122 236.155 351.907 235.516 352.766 235.516H362.387C364.077 235.516 365.611 236.175 366.708 237.371C367.81 238.574 368.335 240.171 368.187 241.869L360.447 330.337C360.143 333.793 357.086 336.604 353.629 336.604ZM325.372 236.516C322.421 236.516 319.81 238.917 319.552 241.87L311.812 330.338C311.688 331.753 312.122 333.079 313.032 334.073C313.937 335.06 315.209 335.604 316.615 335.604H353.629C356.58 335.604 359.191 333.203 359.449 330.25L367.189 241.782C367.313 240.368 366.879 239.042 365.969 238.048C365.064 237.061 363.791 236.517 362.386 236.517H352.765C352.373 236.517 352 236.824 351.916 237.215L351.851 237.517C351.476 239.264 349.861 240.581 348.096 240.581H338.949C337.141 240.581 335.722 239.227 335.65 237.432L335.638 237.13C335.624 236.775 335.352 236.517 334.992 236.517H325.372V236.516Z" fill="#008BCE"/>
<path d="M359.835 263.3H323.292C322.516 263.3 321.81 262.996 321.304 262.444C320.796 261.889 320.553 261.155 320.621 260.376C320.758 258.812 322.143 257.539 323.708 257.539H360.251C361.027 257.539 361.733 257.843 362.239 258.396C362.747 258.95 362.989 259.685 362.922 260.463C362.785 262.028 361.4 263.3 359.835 263.3ZM323.708 258.539C322.648 258.539 321.709 259.402 321.617 260.464C321.573 260.96 321.724 261.423 322.041 261.769C322.355 262.113 322.8 262.301 323.292 262.301H359.835C360.895 262.301 361.833 261.438 361.926 260.376C361.969 259.88 361.819 259.416 361.502 259.071C361.188 258.727 360.743 258.539 360.251 258.539H323.708Z" fill="#008BCE"/>
<path d="M359 272.824H322.457C321.681 272.824 320.975 272.52 320.469 271.967C319.961 271.412 319.718 270.678 319.787 269.899C319.924 268.335 321.308 267.062 322.874 267.062H359.417C360.193 267.062 360.899 267.366 361.405 267.918C361.913 268.473 362.155 269.207 362.087 269.986C361.951 271.552 360.566 272.824 359 272.824ZM322.874 268.062C321.813 268.062 320.875 268.925 320.783 269.987C320.739 270.483 320.89 270.947 321.206 271.292C321.52 271.636 321.964 271.824 322.457 271.824H359C360.061 271.824 360.999 270.961 361.091 269.9C361.134 269.403 360.984 268.94 360.668 268.594C360.354 268.25 359.909 268.062 359.417 268.062H322.874Z" fill="#008BCE"/>
<path d="M358.167 282.348H321.624C320.848 282.348 320.142 282.044 319.636 281.491C319.128 280.936 318.886 280.202 318.953 279.423C319.09 277.858 320.475 276.586 322.04 276.586H358.583C359.359 276.586 360.065 276.89 360.571 277.442C361.079 277.996 361.321 278.731 361.254 279.509C361.117 281.076 359.733 282.348 358.167 282.348ZM322.041 277.587C320.981 277.587 320.043 278.45 319.95 279.512C319.906 280.008 320.057 280.471 320.374 280.817C320.688 281.161 321.133 281.349 321.625 281.349H358.168C359.228 281.349 360.166 280.486 360.259 279.424C360.302 278.928 360.152 278.464 359.835 278.119C359.521 277.775 359.076 277.587 358.584 277.587H322.041Z" fill="#008BCE"/>
<path d="M355.884 308.441H319.341C318.565 308.441 317.858 308.137 317.352 307.585C316.844 307.03 316.602 306.296 316.67 305.517C316.807 303.953 318.192 302.68 319.757 302.68H356.3C357.076 302.68 357.782 302.984 358.288 303.537C358.796 304.092 359.039 304.826 358.971 305.605C358.835 307.169 357.45 308.441 355.884 308.441ZM319.758 303.679C318.697 303.679 317.759 304.542 317.667 305.604C317.624 306.1 317.774 306.564 318.09 306.909C318.404 307.253 318.849 307.441 319.341 307.441H355.884C356.944 307.441 357.883 306.578 357.975 305.516C358.018 305.02 357.867 304.557 357.551 304.211C357.237 303.867 356.792 303.679 356.3 303.679H319.758Z" fill="#008BCE"/>
<path d="M355.052 317.965H318.509C317.733 317.965 317.027 317.661 316.521 317.108C316.013 316.553 315.771 315.819 315.838 315.04C315.975 313.476 317.36 312.203 318.925 312.203H355.468C356.244 312.203 356.95 312.507 357.456 313.059C357.964 313.614 358.206 314.348 358.138 315.127C358.003 316.692 356.618 317.965 355.052 317.965ZM318.926 313.203C317.866 313.203 316.927 314.066 316.835 315.128C316.792 315.624 316.942 316.087 317.259 316.433C317.574 316.777 318.018 316.965 318.51 316.965H355.053C356.114 316.965 357.052 316.102 357.144 315.04C357.187 314.544 357.037 314.08 356.721 313.735C356.407 313.391 355.963 313.203 355.47 313.203H318.926Z" fill="#008BCE"/>
<path d="M354.218 327.489H317.675C316.899 327.489 316.192 327.185 315.686 326.633C315.178 326.078 314.936 325.344 315.004 324.565C315.141 323.001 316.526 321.728 318.091 321.728H354.634C355.41 321.728 356.116 322.032 356.622 322.584C357.13 323.139 357.373 323.873 357.305 324.652C357.168 326.217 355.783 327.489 354.218 327.489ZM318.091 322.727C317.03 322.727 316.092 323.59 316 324.652C315.957 325.148 316.107 325.612 316.423 325.957C316.738 326.301 317.182 326.489 317.674 326.489H354.217C355.277 326.489 356.216 325.626 356.308 324.564C356.351 324.068 356.201 323.605 355.884 323.259C355.57 322.915 355.125 322.727 354.633 322.727H318.091Z" fill="#008BCE"/>
<path d="M377.683 156.768H340.669C338.98 156.768 337.445 156.109 336.349 154.913C335.246 153.71 334.721 152.113 334.87 150.416L342.61 61.9467C342.912 58.4917 345.97 55.6807 349.426 55.6807H359.047C359.949 55.6807 360.657 56.3567 360.692 57.2537L360.704 57.5557C360.754 58.8047 361.743 59.7457 363.004 59.7457H372.15C373.454 59.7457 374.649 58.7677 374.928 57.4707L374.993 57.1697C375.178 56.3077 375.946 55.6817 376.819 55.6817H386.44C388.13 55.6817 389.665 56.3407 390.761 57.5377C391.863 58.7407 392.388 60.3377 392.24 62.0347L384.5 150.504C384.197 153.957 381.139 156.768 377.683 156.768ZM349.425 56.6797C346.474 56.6797 343.864 59.0807 343.605 62.0327L335.865 150.502C335.741 151.917 336.175 153.243 337.085 154.237C337.99 155.224 339.263 155.768 340.668 155.768H377.682C380.633 155.768 383.243 153.367 383.502 150.415L391.242 61.9457C391.366 60.5317 390.932 59.2047 390.022 58.2117C389.117 57.2237 387.844 56.6797 386.438 56.6797H376.817C376.425 56.6797 376.052 56.9867 375.968 57.3777L375.903 57.6797C375.527 59.4277 373.912 60.7447 372.148 60.7447H363.002C361.194 60.7447 359.775 59.3907 359.703 57.5947L359.691 57.2927C359.677 56.9377 359.405 56.6797 359.045 56.6797H349.425Z" fill="#008BCE"/>
<path d="M391.033 69.5732H342.399V70.5732H391.033V69.5732Z" fill="#008BCE"/>
<path d="M380.046 146.432H340.687L343.169 118.057H382.528L380.046 146.432ZM341.777 145.432H379.129L381.436 119.057H344.085L341.777 145.432Z" fill="#008BCE"/>
<path d="M343.927 118.153L343.321 118.948L379.283 146.323L379.889 145.527L343.927 118.153Z" fill="#008BCE"/>
<path d="M381.7 118.144L340.949 145.518L341.506 146.348L382.258 118.974L381.7 118.144Z" fill="#008BCE"/>
<path d="M385.193 87.6041H345.833L346.754 77.0801H386.113L385.193 87.6041ZM346.924 86.6041H384.276L385.022 78.0801H347.67L346.924 86.6041Z" fill="#008BCE"/>
<path d="M385.466 77.09L346.278 86.624L346.514 87.5957L385.703 78.0617L385.466 77.09Z" fill="#008BCE"/>
<path d="M347.33 77.0805L347.084 78.0498L384.608 87.573L384.854 86.6037L347.33 77.0805Z" fill="#008BCE"/>
<path d="M383.995 101.292H344.636L345.556 90.7676H384.916L383.995 101.292ZM345.727 100.292H383.079L383.825 91.7676H346.473L345.727 100.292Z" fill="#008BCE"/>
<path d="M384.26 90.7796L345.071 100.31L345.308 101.281L384.496 91.7513L384.26 90.7796Z" fill="#008BCE"/>
<path d="M346.134 90.768L345.888 91.7373L383.412 101.26L383.658 100.291L346.134 90.768Z" fill="#008BCE"/>
<path d="M382.798 114.979H343.438L344.359 104.455H383.717L382.798 114.979ZM344.53 113.979H381.882L382.628 105.455H345.275L344.53 113.979Z" fill="#008BCE"/>
<path d="M383.072 104.467L343.883 114.001L344.12 114.973L383.308 105.439L383.072 104.467Z" fill="#008BCE"/>
<path d="M344.937 104.456L344.691 105.425L382.214 114.948L382.46 113.979L344.937 104.456Z" fill="#008BCE"/>
<path d="M372.001 202.251C363.184 202.251 356.01 195.077 356.01 186.26C356.01 177.443 363.183 170.27 372.001 170.27C380.819 170.27 387.992 177.443 387.992 186.26C387.991 195.077 380.818 202.251 372.001 202.251ZM372.001 171.27C363.735 171.27 357.01 177.995 357.01 186.26C357.01 194.526 363.735 201.251 372.001 201.251C380.267 201.251 386.992 194.526 386.992 186.26C386.991 177.994 380.267 171.27 372.001 171.27Z" fill="#008BCE"/>
<path d="M369.243 195.514L361.788 185.649L362.586 185.046L368.846 193.329C371.748 184.083 377.664 175.953 385.587 170.356L387.813 168.783L388.39 169.599L386.164 171.172C378.156 176.83 372.245 185.134 369.52 194.554L369.243 195.514Z" fill="#008BCE"/>
<path d="M261.293 70.6543H235.326L209.14 369.964H235.107C247.143 369.964 257.754 360.207 258.807 348.17L281.18 92.4473C282.233 80.4113 273.329 70.6543 261.293 70.6543Z" fill="#161616"/>
<path d="M229.79 369.964H122.799C110.763 369.964 101.859 360.207 102.912 348.171L125.285 92.4483C126.338 80.4123 136.949 70.6543 148.985 70.6543H255.976C268.012 70.6543 276.916 80.4113 275.863 92.4483L253.49 348.171C252.437 360.207 241.826 369.964 229.79 369.964Z" fill="#008BCE"/>
<path d="M255.539 75.6543H227.73C225.909 75.6543 224.253 77.0083 223.864 78.8143L223.677 79.6853C222.728 84.0973 218.684 87.4033 214.235 87.4033H187.797C183.349 87.4033 179.883 84.0973 179.706 79.6853L179.671 78.8143C179.598 77.0073 178.179 75.6543 176.358 75.6543H148.549C139.274 75.6543 131.098 83.1733 130.286 92.4483L107.913 348.171C107.101 357.446 113.962 364.964 123.237 364.964H230.228C239.503 364.964 247.679 357.445 248.491 348.171L270.864 92.4483C271.674 83.1733 264.814 75.6543 255.539 75.6543Z" fill="white"/>
<g opacity="0.2">
<path d="M195.324 78.4873C195.221 79.6613 194.187 80.6123 193.013 80.6123C191.839 80.6123 190.971 79.6613 191.074 78.4873C191.177 77.3133 192.211 76.3623 193.385 76.3623C194.559 76.3623 195.427 77.3143 195.324 78.4873Z" fill="black"/>
<path d="M210.577 76.3623C209.737 76.3623 204.131 76.3623 203.291 76.3623C202.117 76.3623 201.083 77.3133 200.98 78.4873C200.877 79.6613 201.746 80.6123 202.919 80.6123C203.648 80.6123 209.476 80.6123 210.205 80.6123C211.379 80.6123 212.413 79.6613 212.516 78.4873C212.619 77.3143 211.751 76.3623 210.577 76.3623Z" fill="black"/>
</g>
<path d="M142.375 87.3623H144.625L144.822 85.1123H142.572L142.375 87.3623Z" fill="#161616"/>
<path d="M147.072 85.1123L146.875 87.3623H149.125L149.322 85.1123L149.519 82.8623H147.269L147.072 85.1123Z" fill="#161616"/>
<path d="M151.966 80.6123L151.769 82.8623L151.572 85.1123L151.375 87.3623H153.625L153.822 85.1123L154.019 82.8623L154.216 80.6123H151.966Z" fill="#161616"/>
<path d="M248.71 80.7627L248.566 82.4127H247.466L247.177 85.7127H248.277L248.133 87.3627H258.033L258.61 80.7627H248.71ZM252.677 85.7127H249.377L249.666 82.4127H252.966L252.677 85.7127Z" fill="#161616"/>
<path opacity="0.8" d="M244.222 259.111H99.5088L111.684 119.951H256.397L244.222 259.111Z" fill="#161616"/>
<path d="M240.396 254.92H95.6826L107.858 115.76H252.571L240.396 254.92Z" fill="#008BCE"/>
<g opacity="0.8">
<path d="M240.396 254.92H95.6826L107.858 115.76H252.571L240.396 254.92Z" fill="white"/>
<path d="M240.854 255.42H95.1377L95.1847 254.876L107.4 115.26H253.116L240.854 255.42ZM96.2287 254.42H239.939L252.026 116.26H108.316L96.2287 254.42Z" fill="#008BCE"/>
</g>
<path opacity="0.8" d="M232.343 216.595H110.442L118.234 127.532H240.135L232.343 216.595Z" fill="white"/>
<path d="M232.8 217.094H109.896L117.775 127.031H240.68L232.8 217.094ZM110.987 216.094H231.884L239.588 128.031H118.691L110.987 216.094Z" fill="#008BCE"/>
<path d="M118.544 127.142L117.929 127.931L232.036 216.996L232.652 216.208L118.544 127.142Z" fill="#008BCE"/>
<path d="M239.857 127.099L110.187 216.21L110.753 217.034L240.423 127.923L239.857 127.099Z" fill="#008BCE"/>
<path d="M157.703 229.635C157.481 232.174 155.243 234.232 152.704 234.232C150.165 234.232 148.287 232.174 148.509 229.635C148.731 227.096 150.969 225.038 153.508 225.038C156.047 225.039 157.925 227.097 157.703 229.635Z" fill="#008BCE"/>
<path d="M174.848 229.635C174.626 232.174 172.388 234.232 169.849 234.232C167.31 234.232 165.432 232.174 165.655 229.635C165.877 227.096 168.115 225.038 170.654 225.038C173.193 225.039 175.071 227.097 174.848 229.635Z" fill="#008BCE"/>
<path d="M191.994 229.635C191.772 232.174 189.534 234.232 186.995 234.232C184.456 234.232 182.578 232.174 182.8 229.635C183.022 227.096 185.26 225.038 187.799 225.038C190.339 225.039 192.217 227.097 191.994 229.635Z" fill="#008BCE"/>
<path d="M156.585 333.309H88.8247L94.5257 268.15H162.286L156.585 333.309Z" fill="#008BCE"/>
<g opacity="0.8">
<path d="M156.585 333.309H88.8247L94.5257 268.15H162.286L156.585 333.309Z" fill="white"/>
<path d="M157.043 333.809H88.2798L94.0678 267.649H162.831L157.043 333.809ZM89.3708 332.809H156.127L161.74 268.649H94.9838L89.3708 332.809Z" fill="#008BCE"/>
</g>
<path d="M152.814 315.364H95.7358L99.3839 273.662H156.462L152.814 315.364Z" fill="white"/>
<path d="M153.272 315.864H95.1899L98.9259 273.162H157.009L153.272 315.864ZM96.2809 314.864H152.356L155.917 274.162H99.8419L96.2809 314.864Z" fill="#008BCE"/>
<path d="M99.6926 273.276L99.0767 274.065L152.506 315.769L153.122 314.98L99.6926 273.276Z" fill="#008BCE"/>
<path d="M156.192 273.25L95.4756 314.975L96.042 315.799L156.758 274.074L156.192 273.25Z" fill="#008BCE"/>
<path d="M117.865 321.47C117.761 322.659 116.713 323.622 115.524 323.622C114.335 323.622 113.456 322.658 113.56 321.47C113.664 320.281 114.712 319.318 115.901 319.318C117.089 319.318 117.969 320.281 117.865 321.47Z" fill="#008BCE"/>
<path d="M125.892 321.47C125.788 322.659 124.74 323.622 123.551 323.622C122.362 323.622 121.483 322.658 121.587 321.47C121.691 320.281 122.739 319.318 123.928 319.318C125.117 319.318 125.996 320.281 125.892 321.47Z" fill="#008BCE"/>
<path d="M133.921 321.47C133.817 322.659 132.769 323.622 131.58 323.622C130.391 323.622 129.512 322.658 129.616 321.47C129.72 320.281 130.768 319.318 131.957 319.318C133.146 319.318 134.025 320.281 133.921 321.47Z" fill="#008BCE"/>
<path d="M233.538 333.309H165.778L171.479 268.15H239.239L233.538 333.309Z" fill="#008BCE"/>
<g opacity="0.8">
<path d="M233.538 333.309H165.778L171.479 268.15H239.239L233.538 333.309Z" fill="white"/>
<path d="M233.996 333.809H165.233L171.021 267.649H239.784L233.996 333.809ZM166.324 332.809H233.08L238.693 268.649H171.937L166.324 332.809Z" fill="#008BCE"/>
</g>
<path d="M229.767 315.364H172.689L176.337 273.662H233.416L229.767 315.364Z" fill="white"/>
<path d="M230.225 315.864H172.143L175.879 273.162H233.962L230.225 315.864ZM173.235 314.864H229.31L232.871 274.162H176.795L173.235 314.864Z" fill="#008BCE"/>
<path d="M176.648 273.277L176.032 274.066L229.461 315.77L230.077 314.981L176.648 273.277Z" fill="#008BCE"/>
<path d="M233.149 273.247L172.433 314.972L173 315.796L233.716 274.071L233.149 273.247Z" fill="#008BCE"/>
<path d="M194.818 321.47C194.714 322.659 193.666 323.622 192.477 323.622C191.288 323.622 190.409 322.658 190.513 321.47C190.617 320.281 191.665 319.318 192.854 319.318C194.043 319.318 194.922 320.281 194.818 321.47Z" fill="#008BCE"/>
<path d="M202.846 321.47C202.742 322.659 201.694 323.622 200.505 323.622C199.316 323.622 198.437 322.658 198.541 321.47C198.645 320.281 199.693 319.318 200.882 319.318C202.071 319.318 202.95 320.281 202.846 321.47Z" fill="#008BCE"/>
<path d="M210.874 321.47C210.77 322.659 209.722 323.622 208.533 323.622C207.344 323.622 206.465 322.658 206.569 321.47C206.673 320.281 207.721 319.318 208.91 319.318C210.099 319.318 210.978 320.281 210.874 321.47Z" fill="#008BCE"/>
<path d="M232.321 109.988H160.704L161.544 100.396H233.161L232.321 109.988Z" fill="#008BCE"/>
<path d="M152.793 107.838H141.721V108.838H152.793V107.838Z" fill="#161616"/>
<path d="M153.12 104.103H142.048V105.103H153.12V104.103Z" fill="#161616"/>
<path d="M153.447 100.365H142.375V101.365H153.447V100.365Z" fill="#161616"/>
<g opacity="0.2">
<path d="M187.874 87.4043L114.018 362.032C116.554 363.88 119.72 364.964 123.237 364.964H129.011L203.656 87.4043H187.874Z" fill="white"/>
<path d="M255.539 75.6543H227.73C225.909 75.6543 224.253 77.0083 223.864 78.8153L223.677 79.6863C222.752 83.9853 218.888 87.2243 214.577 87.3893L139.927 364.963H196.864L270.865 89.7933C270.292 81.7833 263.908 75.6543 255.539 75.6543Z" fill="white"/>
</g>
<path d="M270.55 94.71H130.021V96.21H270.55V94.71Z" fill="#008BCE"/>
<path d="M282.806 130.778C282.954 130.47 283.115 130.148 283.398 129.956C283.618 129.806 283.888 129.754 284.149 129.704C286.173 129.32 288.285 128.939 290.267 129.501C290.414 129.543 290.568 129.595 290.661 129.716C290.741 129.82 290.761 129.956 290.779 130.086C290.933 131.213 291.086 132.34 291.24 133.467C291.274 133.717 291.307 133.978 291.219 134.214C291.131 134.45 290.934 134.627 290.745 134.793C289.778 135.644 285.691 138.226 285.05 138.36C284.066 138.565 280.967 137.566 280.043 137.17C278.989 136.72 281.901 132.654 282.806 130.778Z" fill="#FFCABC"/>
<path d="M260.313 165.075C261.212 157.945 277.146 138.715 279.24 135.931C280.406 134.382 285.247 135.531 286.215 138.473C281.869 144.509 279.468 149.605 276.491 156.421C275.8 158.001 272.606 164.214 271.603 165.617C263.556 176.868 259.922 168.176 260.313 165.075Z" fill="#008BCE"/>
<g opacity="0.1">
<path d="M260.313 165.075C261.212 157.945 277.146 138.715 279.24 135.931C280.406 134.382 285.247 135.531 286.215 138.473C281.869 144.509 279.468 149.605 276.491 156.421C275.8 158.001 272.606 164.214 271.603 165.617C263.556 176.868 259.922 168.176 260.313 165.075Z" fill="black"/>
</g>
<path d="M317.777 182.071C317.777 182.071 312.711 182.141 311.14 183.531L308.948 185.47C308.52 185.849 308.486 186.508 308.875 186.944C310.057 188.268 312.639 190.859 315.53 191.884C316.188 192.117 316.914 191.99 317.438 191.549C317.438 191.549 320.932 187.174 320.378 186.276L317.777 182.071Z" fill="#FFCABC"/>
<path d="M331.137 182.553C330.684 182.799 330.221 183.045 329.747 183.289L322.594 185.938C317.727 188.321 317.356 182.316 317.356 182.316L319.308 180.625L332.584 169.598C332.584 169.598 320.226 160.437 312.222 152.709C306.193 145.768 306.987 141.231 314.073 141.993C319.162 142.529 342.522 164.35 344.555 166.688C346.654 169.11 341.969 176.615 331.137 182.553Z" fill="#008BCE"/>
<path opacity="0.1" d="M331.137 182.553C330.684 182.799 330.221 183.045 329.747 183.289L322.594 185.938C317.727 188.321 317.356 182.316 317.356 182.316L319.308 180.625L332.584 169.598C332.584 169.598 320.226 160.437 312.222 152.709C306.193 145.768 306.987 141.231 314.073 141.993C319.162 142.529 342.522 164.35 344.555 166.688C346.654 169.11 341.969 176.615 331.137 182.553Z" fill="black"/>
<path d="M334.96 158.495C334.921 158.458 334.881 158.421 334.842 158.373C334.842 158.373 334.882 158.41 334.96 158.495Z" fill="#161616"/>
<path d="M288.74 113.819C288.329 113.749 287.902 114.185 287.782 114.807C287.662 115.429 287.889 116.005 288.3 116.075C288.711 116.145 289.138 115.709 289.258 115.087C289.409 114.444 289.151 113.889 288.74 113.819Z" fill="#161616"/>
<path d="M287.634 122.056C286.557 122.123 285.505 121.71 284.762 120.928C286.306 119.529 287.652 117.927 288.764 116.165L287.634 122.056Z" fill="#FFD3CC"/>
<path d="M291.941 111.999C291.321 111.272 290.389 110.89 289.438 110.972C289.399 110.986 289.357 110.994 289.316 110.994C289.107 110.997 288.935 110.83 288.932 110.621C288.929 110.412 289.096 110.24 289.305 110.237C290.493 110.1 291.673 110.547 292.473 111.436C292.534 111.503 292.569 111.589 292.572 111.679C292.579 111.888 292.415 112.063 292.206 112.07C292.111 112.081 292.016 112.056 291.941 111.999Z" fill="#161616"/>
<path d="M296.838 149.76C307.527 149.653 309.042 143.803 309.042 143.803C305.804 140.762 305.525 135.063 306.097 129.964C305.307 131.13 304.308 132.15 302.98 133.069C300.458 134.802 297.701 135.201 295.186 134.632C295.141 134.632 295.097 134.618 295.052 134.589C295.082 134.693 295.099 134.796 295.114 134.9C295.838 138.961 295.362 143.331 291.114 144.695C291.114 144.695 285.064 149.877 296.838 149.76Z" fill="#FFCABC"/>
<path d="M294.726 133.092C294.85 133.581 294.973 134.07 295.053 134.588C295.098 134.617 295.142 134.632 295.187 134.631C297.702 135.2 300.46 134.801 302.981 133.068C304.308 132.149 305.308 131.13 306.098 129.963C306.234 128.67 306.444 127.406 306.655 126.246L295.155 132.85L294.726 133.092Z" fill="#FFCABC"/>
<path d="M310.149 143.339C310.149 143.339 308.535 138.691 306.217 137.261C303.899 135.83 293.89 137.573 292.329 138.221C290.769 138.869 289.257 142.529 289.257 142.529L310.149 143.339Z" fill="#008BCE"/>
<path opacity="0.8" d="M310.149 143.339C310.149 143.339 308.535 138.691 306.217 137.261C303.899 135.83 293.89 137.573 292.329 138.221C290.769 138.869 289.257 142.529 289.257 142.529L310.149 143.339Z" fill="white"/>
<path d="M297.028 373.231C296.024 373.232 295.131 373.104 294.823 372.663C294.659 372.433 294.662 372.123 294.83 371.892C294.955 371.679 295.164 371.529 295.406 371.481C296.654 371.139 299.273 372.627 299.414 372.687C299.476 372.724 299.508 372.796 299.493 372.867C299.485 372.943 299.427 373.005 299.351 373.018C298.583 373.155 297.806 373.226 297.028 373.231ZM295.844 371.781C295.731 371.765 295.616 371.765 295.503 371.782C295.353 371.807 295.223 371.9 295.149 372.033C295.027 372.254 295.066 372.354 295.146 372.424C295.494 372.904 297.392 372.911 298.789 372.719C297.881 372.211 296.88 371.886 295.844 371.762V371.781Z" fill="#008BCE"/>
<path d="M299.3 372.997H299.23C298.319 372.588 296.533 370.998 296.681 370.128C296.683 369.928 296.855 369.678 297.347 369.627C297.709 369.584 298.072 369.692 298.348 369.925C299.346 370.714 299.493 372.726 299.502 372.816C299.5 372.879 299.47 372.937 299.42 372.976C299.384 372.998 299.341 373.005 299.3 372.997ZM297.484 369.996H297.384C297.063 369.997 297.042 370.157 297.031 370.197C296.947 370.707 298.152 371.977 299.082 372.536C298.997 371.681 298.652 370.875 298.095 370.225C297.927 370.061 297.701 369.968 297.465 369.966L297.484 369.996Z" fill="#008BCE"/>
<path d="M306.891 355.544L299.421 355.555L300.055 372.816L307.568 372.805L306.891 355.544Z" fill="#FFCABC"/>
<path d="M298.289 372.537C293.179 375.673 291.609 375.816 285.702 377.111C284.411 377.394 285.23 380.522 288.321 380.517C293.437 380.51 293.973 380.267 298.333 380.261C302.069 380.255 306.358 380.42 309.328 380.466C309.419 380.467 309.51 380.457 309.6 380.436C310.185 380.296 310.548 379.709 310.41 379.125L308.955 372.451C308.886 372.153 308.621 371.942 308.314 371.941L300.1 371.953C299.456 371.977 298.828 372.179 298.289 372.537Z" fill="#161616"/>
<path opacity="0.2" d="M306.901 355.554L307.242 365.182L299.74 365.193L299.421 355.565L306.901 355.554Z" fill="black"/>
<path d="M362.683 370.124C362.589 369.086 362.631 368.153 363.049 367.787C363.276 367.595 363.603 367.57 363.862 367.723C364.087 367.837 364.259 368.033 364.342 368.271C364.824 369.529 363.539 372.381 363.479 372.522C363.453 372.596 363.378 372.641 363.3 372.63C363.224 372.623 363.16 372.57 363.141 372.496C362.918 371.718 362.766 370.925 362.683 370.124ZM364.082 368.761C364.089 368.643 364.078 368.524 364.05 368.408C364.01 368.255 363.902 368.129 363.757 368.065C363.516 367.958 363.406 368.009 363.351 368.096C362.884 368.498 363.062 370.46 363.412 371.887C363.833 370.9 364.061 369.838 364.082 368.761Z" fill="#008BCE"/>
<path d="M363.124 372.444C363.119 372.42 363.116 372.396 363.118 372.371C363.45 371.403 364.949 369.404 365.847 369.469C366.055 369.453 366.332 369.609 366.43 370.103C366.513 370.474 366.434 370.86 366.212 371.166C365.504 372.268 363.412 372.609 363.329 372.626C363.265 372.642 363.197 372.619 363.155 372.566C363.129 372.532 363.117 372.487 363.124 372.444ZM366.079 370.287C366.079 370.287 366.072 370.214 366.069 370.173C366.038 369.841 365.87 369.833 365.828 369.836C365.289 369.794 364.09 371.164 363.604 372.175C364.483 372.01 365.287 371.582 365.909 370.949C366.051 370.758 366.123 370.524 366.111 370.285L366.079 370.287Z" fill="#008BCE"/>
<path d="M357.801 355.438L350.517 355.964L354.815 373.366L362.152 372.833L357.801 355.438Z" fill="#FFCABC"/>
<path d="M363.926 371.428C366.204 373.691 367.405 374.856 373.556 376.266C374.911 376.57 374.027 379.815 370.799 379.782C365.462 379.724 368.382 379.507 363.837 379.462C359.947 379.418 356.547 379.474 353.453 379.495C353.349 379.499 353.245 379.49 353.143 379.466C352.527 379.322 352.139 378.708 352.278 378.094L353.838 371.16C353.904 370.848 354.185 370.628 354.506 370.637L361.988 370.805C362.689 370.748 363.386 370.972 363.926 371.428Z" fill="#161616"/>
<path opacity="0.2" d="M357.811 355.447L360.039 364.383L352.733 364.912L350.517 355.963L357.811 355.447Z" fill="black"/>
<path d="M318.279 203.871C318.279 203.871 322.368 210.123 325.195 217.779C329.193 228.608 327.775 234.27 329.113 241.598C331.469 254.503 334.993 264.401 337.463 274.19C345.18 304.822 361.479 359.21 361.479 359.21L348.308 362.111C348.308 362.111 323.883 297.255 316.953 275.346C310.705 255.628 294.679 203.821 294.679 203.821L318.279 203.871Z" fill="#008BCE"/>
<path opacity="0.4" d="M318.279 203.871C318.279 203.871 322.368 210.123 325.195 217.779C329.193 228.608 327.775 234.27 329.113 241.598C331.469 254.503 334.993 264.401 337.463 274.19C345.18 304.822 361.479 359.21 361.479 359.21L348.308 362.111C348.308 362.111 323.883 297.255 316.953 275.346C310.705 255.628 294.679 203.821 294.679 203.821L318.279 203.871Z" fill="black"/>
<path d="M363.024 356.777L363.162 361.463L347.297 363.178C347.297 363.178 345.891 358.062 345.951 358.062L363.024 356.777Z" fill="#008BCE"/>
<path opacity="0.8" d="M363.024 356.777L363.162 361.463L347.297 363.178C347.297 363.178 345.891 358.062 345.951 358.062L363.024 356.777Z" fill="white"/>
<path opacity="0.3" d="M302.084 227.697C307.135 243.959 313.532 264.54 316.943 275.338C317.107 275.859 317.29 276.399 317.463 276.976C316.121 258.939 312.582 228.708 303.513 227.595C303.035 227.523 302.546 227.558 302.084 227.697Z" fill="black"/>
<path d="M306.13 203.806C306.13 203.806 309.984 253.503 310.42 276.997C310.823 298.893 309.211 362.699 309.211 362.699L296.518 362.718C296.518 362.718 290.457 297.581 288.208 275.345C286.069 254.291 280.517 204.251 280.517 204.251L306.13 203.806Z" fill="#008BCE"/>
<path opacity="0.4" d="M306.13 203.806C306.13 203.806 309.984 253.503 310.42 276.997C310.823 298.893 309.211 362.699 309.211 362.699L296.518 362.718C296.518 362.718 290.457 297.581 288.208 275.345C286.069 254.291 280.517 204.251 280.517 204.251L306.13 203.806Z" fill="black"/>
<path d="M311.097 358.244L310.662 362.905L295.225 362.928C295.225 362.928 294.499 357.703 294.559 357.703L311.097 358.244Z" fill="#008BCE"/>
<path opacity="0.8" d="M311.097 358.244L310.662 362.905L295.225 362.928C295.225 362.928 294.499 357.703 294.559 357.703L311.097 358.244Z" fill="white"/>
<path d="M330.741 219.671L327.194 218.647C321.505 216.997 315.492 216.817 309.718 218.125L305.565 208.643L306.835 218.618L305.014 218.58C299.77 218.457 294.564 219.519 289.785 221.671C287.244 222.818 285.006 223.795 284.997 223.662C284.997 223.359 280.521 204.251 280.521 204.251C275.97 173.253 276.719 157.559 278.084 149.916C278.824 145.82 282.01 142.605 286.106 141.837C287.652 141.552 289.387 141.278 291.16 141.097C296.499 140.737 301.856 140.68 307.204 140.936C307.252 140.945 310.694 141.202 310.741 141.202C316.336 141.496 322.063 146.228 321.058 151.747C317.701 170.067 317.142 183.466 317.369 192.294L330.741 219.671Z" fill="#008BCE"/>
<path opacity="0.2" d="M277.234 174.993C277.234 174.993 277.125 159.726 277.274 156.889L288.646 149.07C286.553 152.812 281.352 160.95 277.234 174.993Z" fill="black"/>
<path d="M286.89 124.529C287.048 128.477 289.278 131.766 292.34 133.517H292.355C292.37 133.532 292.385 133.531 292.4 133.531C293.222 134.028 294.116 134.375 295.054 134.588C295.099 134.617 295.143 134.632 295.188 134.631C297.703 135.2 300.461 134.801 302.982 133.068C304.309 132.149 305.309 131.13 306.099 129.963C308.134 127.047 308.926 123.194 310.313 117.775C310.742 116.182 310.8 114.504 310.472 112.889C309.301 107.11 303.666 103.38 297.902 104.551C289.81 106.162 286.58 117.316 286.89 124.529Z" fill="#FFCABC"/>
<path opacity="0.2" d="M292.399 133.531C293.221 134.028 294.115 134.375 295.053 134.588C295.098 134.617 294.664 129.841 294.664 129.841C294.693 129.761 292.964 133.525 292.399 133.531Z" fill="black"/>
<path d="M319.716 118.996C318.853 120.115 317.725 121.291 316.312 121.414C315.487 121.49 314.653 121.348 313.894 121.035C311.391 125.368 306.09 129.967 306.09 129.967C304.753 130.47 303.35 130.726 301.937 130.726C300.467 130.726 298.988 130.442 297.594 129.892C297.148 129.712 296.826 129.588 296.778 129.579C296.389 129.494 294.379 121.035 291.572 119.746C290.946 119.443 290.946 119.443 290.946 119.443C291.136 118.552 290.851 116.086 291.723 115.242C292.197 114.787 290.908 113.611 291.003 112.72C291.012 112.644 291.022 112.578 291.041 112.502C290.149 111.942 290.087 110.738 290.424 109.458C291.274 106.237 292.975 107.116 292.975 107.116C292.975 107.116 292.074 106.054 292.406 104.205C292.757 102.365 296.199 101.445 296.199 101.445C296.199 101.445 296.654 101.521 297.422 101.682C298.199 101.066 299.205 100.734 300.2 100.8C301.527 100.876 303.215 101.786 303.889 102.934C304.97 102.071 306.506 101.796 307.815 102.242C309.133 102.678 310.195 103.816 310.536 105.163C311.807 104.68 313.144 105.192 314.139 106.121C315.135 107.041 315.542 108.548 315.163 109.848C316.149 110.189 316.794 110.891 316.908 111.925C317.022 112.959 316.785 114.002 316.652 115.035C316.519 116.069 316.519 117.178 317.05 118.079C317.583 118.967 318.815 119.517 319.716 118.996Z" fill="#161616"/>
<path d="M294.577 114.599C292.343 115.305 291.241 118.641 291.188 120.745C291.127 123.07 292.709 124.506 294.702 122.908C296.202 121.678 297.257 119.99 297.704 118.103C298.208 115.815 296.81 113.893 294.577 114.599Z" fill="#FFCABC"/>
<path d="M275.46 149.671C275.46 149.671 275.46 149.671 261.353 165.69C259.401 170.228 266.161 175.225 270.944 170.791L287.866 151.299C289.089 148.638 289.256 146.439 287.459 144.671C285.096 142.343 280.949 140.859 275.46 149.671Z" fill="#008BCE"/>
<path d="M82.7378 180.195C89.2168 187.143 93.1058 190.587 95.5288 192.494C98.1588 194.565 120.661 180.872 123.452 179.314C123.452 179.314 120.938 176.833 119.896 177.099C115.967 178.1 98.4408 184.146 98.4408 184.146C97.6228 183.892 89.5348 174.608 89.5348 174.608L82.7378 180.195Z" fill="#FFC8B5"/>
<path d="M126.366 175.864L126.297 175.815L126.38 175.889C126.38 175.889 124.381 179.166 121.656 179.982L119.596 177.966L120.529 171.979L120.582 171.617L120.8 171.403L123.617 168.664C124.192 168.105 125.106 168.104 125.682 168.661L127.795 170.703C128.262 171.154 128.381 171.855 128.09 172.435L126.366 175.864Z" fill="#FFC8B5"/>
<path d="M94.7791 177.528C89.0431 169.348 78.9591 164.005 76.0871 163.964C71.9491 163.894 70.6681 164.854 72.2331 168.002C74.8881 173.341 79.2841 178.785 85.3431 185.287L94.7791 177.528Z" fill="#161616"/>
<path d="M78.4599 164.369C76.1079 163.524 75.1259 163.212 71.4059 162.249C67.0379 161.2 62.6039 160.469 58.1359 160.061C55.3089 159.742 52.5219 159.645 50.3009 159.628C50.0359 159.627 49.7699 159.656 49.5099 159.714C47.5039 160.164 46.2059 162.229 46.6119 164.328C51.0049 187.536 51.2149 197.831 50.5819 209.785L77.2979 210.739C77.9819 210.763 78.5789 210.253 78.7179 209.541C79.8989 203.516 83.5999 190.132 83.5999 190.132C87.3679 187.468 87.2059 184.403 86.2249 180.475C85.9179 179.245 85.2029 178.066 82.1689 171.429C82.1689 171.431 79.8329 164.872 78.4599 164.369Z" fill="#161616"/>
<path d="M61.5728 210.174L71.3148 210.529C72.7688 198.967 72.0308 190.338 71.9868 177.212C72.0278 189.467 65.0008 204.216 61.5728 210.174Z" fill="white"/>
<path d="M71.6759 214.837C71.6759 214.837 83.6829 274.244 83.0709 298.868C82.4219 324.809 77.3389 369.464 77.3389 369.464L71.0029 369.398C71.0029 369.398 65.3149 336.336 68.5719 300.071C51.9779 263.713 47.6709 217.174 47.6709 217.174L71.6759 214.837Z" fill="#FFC8B5"/>
<path d="M71.6759 214.837C71.6759 214.837 83.6829 274.244 83.0709 298.868C82.4219 324.809 77.3389 369.464 77.3389 369.464L71.0029 369.398C71.0029 369.398 65.3149 336.336 68.5719 300.071C51.9779 263.713 47.6709 217.174 47.6709 217.174L71.6759 214.837Z" fill="#FFD4C7"/>
<path d="M66.2822 229.487C66.2822 229.487 69.4132 275.982 66.1522 300.397C62.7132 326.117 52.8512 369.965 52.8512 369.965L46.5592 369.217C46.5592 369.217 44.4642 335.735 51.6082 300.032C39.0262 262.099 42.1652 229.226 42.1652 229.226L66.2822 229.487Z" fill="#FFC8B5"/>
<path d="M66.2822 229.487C66.2822 229.487 69.4132 275.982 66.1522 300.397C62.7132 326.117 52.8512 369.965 52.8512 369.965L46.5592 369.217C46.5592 369.217 44.4642 335.735 51.6082 300.032C39.0262 262.099 42.1652 229.226 42.1652 229.226L66.2822 229.487Z" fill="#FFC8B5"/>
<path d="M42.384 282.942C46.188 283.74 52.096 285.415 62.082 286.387C62.279 286.4 62.476 286.422 62.681 286.435C63.1 286.48 63.537 286.509 63.991 286.53C66.676 286.672 84.638 289.002 85.879 281.608C85.879 281.608 82.013 263.287 78.29 242.949C76.034 230.624 77.872 213.289 77.872 213.289C70.082 212.373 62.221 212.141 54.388 212.595L49.831 212.859C49.831 212.859 34.429 228.102 38.254 243.191C43.98 265.771 42.384 282.942 42.384 282.942Z" fill="#008BCE"/>
<g opacity="0.4">
<path d="M42.384 282.942C46.188 283.74 52.096 285.415 62.082 286.387C62.279 286.4 62.476 286.422 62.681 286.435C63.1 286.48 63.537 286.509 63.991 286.53C66.676 286.672 84.638 289.002 85.879 281.608C85.879 281.608 82.013 263.287 78.29 242.949C76.034 230.624 77.872 213.289 77.872 213.289C70.082 212.373 62.221 212.141 54.388 212.595L49.831 212.859C49.831 212.859 34.429 228.102 38.254 243.191C43.98 265.771 42.384 282.942 42.384 282.942Z" fill="black"/>
</g>
<path opacity="0.1" d="M54.2998 159.691C54.9368 162.038 55.9748 164.259 57.4048 166.226C61.2788 171.555 66.9878 177.339 69.5048 177.977C70.2268 176.301 71.3468 173.03 71.3468 173.03C72.9988 173.845 73.4538 176.175 74.0048 177.954C76.6548 173.654 78.6768 166.256 78.0078 163.566C78.0078 163.566 74.7938 162.615 73.2098 162.223C68.8388 161.205 64.4048 160.493 59.9378 160.092C57.9848 159.829 56.0458 159.705 54.2998 159.691Z" fill="black"/>
<path d="M54.2231 159.206L55.1071 160.802C58.5181 166.993 66.4161 174.956 69.5051 175.74C70.2271 174.064 70.9681 171.172 70.9681 171.172C72.6201 171.987 73.8341 174.317 74.3851 176.096C77.0351 171.796 78.6011 165.771 77.9311 163.081C76.3761 162.609 74.7171 162.13 73.1331 161.738C68.7631 160.72 64.3281 160.008 59.8611 159.606C57.9081 159.344 55.9691 159.219 54.2231 159.206Z" fill="white"/>
<path d="M50.605 212.858L64.137 213.221L65.269 213.248L68.193 213.322L69.317 213.357L77.258 213.564C77.504 213.539 77.723 213.446 77.733 213.288L78.045 210.74C78.073 210.567 77.854 210.41 77.578 210.4L69.724 210.09L68.781 210.051L64.902 209.903L63.983 209.865L50.955 209.352C50.777 209.331 50.601 209.403 50.484 209.553L50.162 212.443C50.057 212.637 50.287 212.845 50.605 212.858Z" fill="#008BCE"/>
<path opacity="0.2" d="M50.605 212.858L64.137 213.221L65.269 213.248L68.193 213.322L69.317 213.357L77.258 213.564C77.504 213.539 77.723 213.446 77.733 213.288L78.045 210.74C78.073 210.567 77.854 210.41 77.578 210.4L69.724 210.09L68.781 210.051L64.902 209.903L63.983 209.865L50.955 209.352C50.777 209.331 50.601 209.403 50.484 209.553L50.162 212.443C50.057 212.637 50.287 212.845 50.605 212.858Z" fill="white"/>
<path d="M73.5158 213.803L72.6478 213.79C72.4708 213.809 72.3458 213.688 72.3528 213.571L72.8388 209.962C72.8278 209.857 73.0068 209.761 73.1858 209.761L74.0538 209.784C74.2308 209.765 74.3558 209.886 74.3478 209.993L73.8648 213.611C73.8088 213.724 73.6958 213.813 73.5158 213.803Z" fill="#161616"/>
<path d="M58.4398 213.585L57.6158 213.564C57.4478 213.582 57.3298 213.467 57.3378 213.366L57.8228 209.739C57.8128 209.64 57.9918 209.548 58.1528 209.558L58.9758 209.579C59.1438 209.561 59.2608 209.667 59.2538 209.777L58.7678 213.386C58.7538 213.505 58.6088 213.585 58.4398 213.585Z" fill="#161616"/>
<path d="M87.1472 203.019H66.7412L69.1282 175.738H89.5332L87.1472 203.019Z" fill="#008BCE"/>
<path d="M50.7178 197.935C51.4838 197.039 51.9978 196.085 51.8148 194.946C51.8148 194.946 51.8438 193.286 51.8728 190.761C51.9588 183.369 52.0198 168.639 51.2468 166.69C49.5648 162.466 46.6838 160.177 45.1728 162.645C43.4088 165.528 43.2798 187.409 43.2798 187.409C43.6928 201.879 48.9908 199.954 50.7178 197.935Z" fill="#FFC8B5"/>
<path d="M78.9048 195.735L78.8668 195.659L78.9048 195.763C78.9048 195.763 75.5948 197.707 72.8068 197.138L71.9438 194.388L75.5948 189.552L75.8129 189.258L76.1068 189.173L79.8829 188.09C80.6529 187.869 81.4598 188.3 81.7038 189.063L82.6008 191.861C82.7988 192.479 82.5728 193.154 82.0418 193.527L78.9048 195.735Z" fill="#FFC8B5"/>
<path d="M46.345 198.732C48.74 201.674 73.155 197.324 73.35 197.234C74.143 196.876 74.266 194.784 73.355 194.025C72.855 193.607 47.88 191.339 46.153 191.205C43.198 195.745 45.125 197.234 46.345 198.732Z" fill="#FFC8B5"/>
<path d="M80.9502 130.835C84.2662 134.86 86.0042 137.861 83.9952 151.301C83.6162 153.838 84.7142 159.795 85.1932 159.851C72.1502 158.337 68.4302 156.196 62.2392 152.415C58.0982 149.886 54.7182 140.726 55.7972 135.998C56.9612 130.896 62.5202 124.939 67.8912 124.435C73.9202 123.868 77.1852 126.264 80.9502 130.835Z" fill="#161616"/>
<path d="M72.038 156.159C70.647 158.908 69.807 162.034 73.172 164.817C73.883 165.406 74.426 166.204 74.599 167.116C74.875 168.577 74.27 170.143 69.079 168.104C61.572 165.16 61.395 160.475 61.395 160.475C64.806 158.785 65.704 150.843 65.82 146.378L72.038 156.159Z" fill="#FFC8B5"/>
<path opacity="0.2" d="M67.272 152.813C67.05 154.748 69.481 157.377 71.149 158.306C71.376 157.563 71.671 156.842 72.03 156.155L68.348 150.364C67.827 151.097 67.461 151.931 67.272 152.813Z" fill="black"/>
<path d="M62.4073 135.379C64.3213 130.398 69.8983 127.92 74.8743 129.837C81.8953 132.493 83.1783 143.001 81.8453 149.441C80.3973 156.626 71.7853 158.93 66.2353 153.531C62.5263 149.942 62.4213 146.912 61.8073 139.81C61.6603 138.304 61.8663 136.787 62.4073 135.379Z" fill="#FFC8B5"/>
<path d="M63.2612 147.322C63.2612 147.322 66.2642 144.426 65.7112 139.134C65.7112 139.134 68.9512 135.818 68.7932 132.262C68.7932 132.262 69.7522 135.094 68.7992 137.115C68.7992 137.115 77.2092 136.503 77.0122 132.262C77.0122 132.262 77.7362 135.939 76.4712 137.045C76.4712 137.045 82.2752 136.593 81.8142 132.619C81.1032 126.495 75.8962 126.178 75.8962 126.178C75.8962 126.178 70.3152 121.437 62.6002 129.813C62.6002 129.813 53.5142 135.486 59.9552 144.944L63.2612 147.322Z" fill="#161616"/>
<path d="M77.637 146.936C78.352 147.098 79.101 146.937 79.686 146.497C78.8 145.383 78.071 144.152 77.521 142.841L77.637 146.936Z" fill="#FFD3CC"/>
<path d="M72.2402 147.577C72.1862 147.499 72.2052 147.392 72.2832 147.338C72.3602 147.284 72.4672 147.303 72.5212 147.381C73.4362 148.528 74.8432 149.164 76.3002 149.09C76.3912 149.093 76.4642 149.165 76.4702 149.256C76.4702 149.259 76.4702 149.262 76.4702 149.265C76.4722 149.354 76.4012 149.427 76.3132 149.429C76.0382 149.442 75.7612 149.433 75.4872 149.4C74.2062 149.254 73.0372 148.597 72.2402 147.577Z" fill="#161616"/>
<path d="M59.14 144.101C59.095 142.645 60.232 141.429 61.68 141.384C63.685 141.359 65.01 143.86 65.297 145.594C65.587 147.518 64.424 149.166 62.526 148.373C61.102 147.756 59.977 146.6 59.395 145.156C59.238 144.825 59.151 144.466 59.14 144.101Z" fill="#FFC8B5"/>
<path d="M72.7909 140.87C72.7699 141.581 73.1319 142.172 73.6039 142.191C74.0759 142.21 74.4609 141.643 74.4749 140.92C74.4889 140.198 74.1339 139.619 73.6719 139.602C73.2089 139.585 72.8139 140.15 72.7909 140.87Z" fill="#161616"/>
<path d="M79.4148 141.622C79.3948 142.334 79.7588 142.925 80.2208 142.942C80.6838 142.959 81.0778 142.393 81.0998 141.672C81.1218 140.951 80.7558 140.37 80.2938 140.353C79.8308 140.337 79.4278 140.9 79.4148 141.622Z" fill="#161616"/>
<path d="M80.0879 140.386L81.8119 139.948C81.8119 139.948 80.8949 141.257 80.0879 140.386Z" fill="#161616"/>
<path d="M70.792 138.518C70.733 138.502 70.679 138.472 70.633 138.432C70.494 138.299 70.489 138.078 70.622 137.939C70.624 137.937 70.625 137.936 70.627 137.934C71.519 136.956 72.832 136.477 74.145 136.65C74.33 136.692 74.451 136.873 74.419 137.06C74.383 137.245 74.206 137.367 74.02 137.335C72.934 137.21 71.855 137.615 71.12 138.424C71.035 138.511 70.91 138.546 70.792 138.518Z" fill="#161616"/>
<path d="M81.954 139.381C81.9 139.352 81.853 139.312 81.817 139.262C81.209 138.353 80.205 137.788 79.117 137.743C78.925 137.752 78.762 137.604 78.751 137.412C78.751 137.41 78.751 137.409 78.751 137.407C78.748 137.213 78.9 137.053 79.093 137.046C80.417 137.084 81.645 137.76 82.391 138.862C82.508 139.015 82.48 139.234 82.327 139.351C82.22 139.434 82.074 139.446 81.954 139.381Z" fill="#161616"/>
<path d="M73.4658 139.634L75.1898 139.196C75.1898 139.196 74.2708 140.505 73.4658 139.634Z" fill="#161616"/>
<path d="M48.077 159.995C49.784 159.587 51.621 160.051 52.831 161.322C54.164 162.724 55 164.682 55.251 166.643C55.639 169.678 52.373 180.573 52.456 183.658C49.232 181.892 44.486 179.477 39.979 179.034C40.601 171.859 41.431 167.085 42.823 164.71C43.622 163.347 44.448 161.952 45.674 160.964C46.218 160.525 47.179 160.21 48.077 159.995Z" fill="#161616"/>
<path d="M78.9888 370.254C81.2668 372.517 82.4678 373.682 88.6188 375.092C89.9738 375.396 89.0898 378.641 85.8618 378.608C80.5248 378.55 83.4448 378.333 78.8998 378.287C75.0098 378.243 71.6098 378.299 68.5158 378.32C68.4118 378.324 68.3078 378.315 68.2058 378.291C67.5888 378.147 67.2018 377.533 67.3408 376.919L68.9008 369.985C68.9668 369.673 69.2478 369.453 69.5688 369.462L77.0508 369.63C77.7518 369.575 78.4488 369.799 78.9888 370.254Z" fill="#161616"/>
<path d="M55.1238 370.746C56.5818 373.607 57.3588 375.089 62.7618 378.349C63.9548 379.061 62.1018 381.868 59.0448 380.829C53.9928 379.108 56.8348 379.813 52.5308 378.351C48.8488 377.095 45.6018 376.087 42.6558 375.14C42.5558 375.112 42.4598 375.07 42.3708 375.015C41.8298 374.686 41.6538 373.982 41.9778 373.442L45.6248 367.341C45.7848 367.065 46.1198 366.944 46.4228 367.053L53.4778 369.549C54.1618 369.715 54.7538 370.145 55.1238 370.746Z" fill="#161616"/>
</svg>
