<svg width="57" height="41" viewBox="0 0 57 41" fill="none" xmlns="http://www.w3.org/2000/svg">
<path d="M0.142253 21.2344C0.257071 21.0832 0.60152 20.6675 0.754611 20.6675H6.80168C5.38559 17.5686 4.46705 14.3942 4.92632 10.9552C5.61523 5.92892 9.59557 1.46955 14.6093 0.335811C19.623 -0.797927 24.5984 1.35618 28.7701 3.88819C29.5356 3.58586 30.2628 3.01899 31.0282 2.60329C36.616 -0.26885 42.7014 -1.47817 47.983 2.75445C53.188 6.94928 54.03 13.7517 51.2744 19.6471H56.2116C56.9388 19.6471 57.398 20.932 56.5177 21.2722L50.4707 21.3478C47.2941 26.7897 42.5865 31.3246 37.6494 35.2171C32.7122 39.1096 33.4011 38.4294 31.2578 39.7521C29.1146 41.0748 29.2677 40.9992 28.9998 40.9992C28.1578 40.9992 23.8713 37.9759 22.9527 37.3335C17.2884 33.2142 11.8919 28.188 7.94986 22.4059C5.80659 22.1414 3.31887 22.5949 1.21388 22.3681C-0.891111 22.1414 0.448434 22.1414 0.142253 21.7257V21.1588V21.2344ZM28.8084 26.0339L33.8987 8.76326C34.3197 8.19639 35.1234 8.30977 35.4296 8.91443L38.5296 18.4756C39.2568 17.8332 40.4815 14.5453 41.7445 15.868L44.1174 19.6849C45.6866 19.5716 47.6002 19.9117 49.0929 19.6849C50.5855 19.4582 49.3225 19.6849 49.4373 19.5716C49.5904 19.3826 50.1645 17.9087 50.2793 17.5308C52.1547 12.0511 50.8534 6.30683 45.6483 3.24574C40.4433 0.184646 35.6209 2.14979 31.1048 4.64402C26.5886 7.13824 29.4208 5.92892 28.8084 5.89113C28.196 5.85334 26.5503 4.60622 25.9762 4.30389C21.2687 1.80967 15.8723 0.449185 11.203 3.88819C6.53377 7.32719 5.69177 13.7895 8.14122 19.1936C10.5907 24.5978 8.71531 20.4408 8.79185 20.5163C9.1363 20.8187 16.4846 20.5163 17.518 20.5541L21.6514 12.5802C21.9959 11.7866 22.991 11.6732 23.3354 12.5046C25.096 16.775 26.6651 21.121 28.4257 25.3536C30.1862 29.5862 28.617 25.9583 28.8467 26.1095L28.8084 26.0339ZM48.3657 21.3478H43.1989C42.7396 21.3478 41.4384 18.4756 40.9791 18.0599L38.7593 21.121C38.4531 21.3855 37.879 21.4611 37.5728 21.1966L34.5876 12.3534L29.3825 29.5862C28.7701 30.0019 28.196 29.6996 27.9281 29.0572L22.3403 14.8477L18.3983 22.2169C18.3217 22.2547 17.9007 22.4437 17.8242 22.4437H9.9783C9.9783 22.6704 10.1697 22.8216 10.2845 22.9728C13.4228 27.5077 18.4748 31.8915 22.8762 35.2171C23.5651 35.7462 28.4257 39.223 28.8084 39.223C36.2333 34.4613 43.6199 28.8682 48.2891 21.3478H48.3657Z" fill="white"/>
</svg>
