<svg width="52" height="52" viewBox="0 0 52 52" fill="none" xmlns="http://www.w3.org/2000/svg">
<path d="M34.6666 26.0002C34.6666 28.2987 33.7535 30.5031 32.1282 32.1284C30.5029 33.7537 28.2985 34.6668 25.9999 34.6668C23.7014 34.6668 21.497 33.7537 19.8717 32.1284C18.2463 30.5031 17.3333 28.2987 17.3333 26.0002C17.3333 23.7016 18.2463 21.4972 19.8717 19.8719C21.497 18.2466 23.7014 17.3335 25.9999 17.3335C28.2985 17.3335 30.5029 18.2466 32.1282 19.8719C33.7535 21.4972 34.6666 23.7016 34.6666 26.0002Z" fill="#E10060"/>
<path d="M26 52C11.6406 52 0 40.3594 0 26C0 11.6406 11.6406 0 26 0C40.3594 0 52 11.6406 52 26C52 33.1797 49.0905 39.6797 44.3857 44.3857L36.5052 36.5052C37.8868 35.1272 38.9825 33.4897 39.7294 31.6868C40.4762 29.884 40.8595 27.9514 40.8571 26C40.8571 17.7951 34.2049 11.1429 26 11.1429C17.7951 11.1429 11.1429 17.7951 11.1429 26C11.1429 34.2049 17.7951 40.8571 26 40.8571V52Z" fill="#4E134C"/>
<path fill-rule="evenodd" clip-rule="evenodd" d="M26.0001 40.8573C22.1429 40.8627 18.436 39.3626 15.6682 36.6763C14.9833 38.368 14.7245 40.2021 14.9146 42.0173C15.1046 43.8325 15.7375 45.5733 16.7578 47.0866C17.7782 48.5999 19.1546 49.8394 20.7661 50.6961C22.3776 51.5529 24.1749 52.0007 26.0001 52.0002H42.0953C42.0953 50.5369 41.8071 49.0879 41.2471 47.736C40.6871 46.3841 39.8663 45.1557 38.8316 44.121C37.7969 43.0863 36.5685 42.2655 35.2166 41.7055C33.8647 41.1455 32.4157 40.8573 30.9524 40.8573H26.0001Z" fill="#E10060"/>
</svg>
