<svg width="50" height="38" viewBox="0 0 50 38" fill="none" xmlns="http://www.w3.org/2000/svg">
<path d="M49.9191 35.9571C49.6764 36.7622 49.1101 37.3755 48.2203 37.5288C44.4181 37.2988 40.171 37.8738 36.4093 37.5288C32.6476 37.1838 34.5082 36.6855 34.5082 35.9188V28.482H22.6164V32.9288H31.7577C32.0813 32.9288 32.4858 34.1171 31.4746 34.2321H12.4233C11.2503 34.1171 11.7357 32.9288 12.0189 32.9288H21.1602V28.482H3.07975C1.74495 28.482 -0.115699 26.4887 0.00564606 25.1853V3.1817C0.16744 1.53335 1.5427 0.191669 3.28199 0H40.6564C42.0316 0.0766677 43.8114 1.72502 43.8114 3.02837V13.8002H47.9776C48.0585 13.8002 48.7056 13.9919 48.827 14.0302C49.4337 14.2602 49.7169 14.8352 50 15.3719V35.9955L49.9191 35.9571ZM42.3148 13.7618V2.91337C42.3148 2.14669 40.7373 1.15001 39.9283 1.30335H3.72691C2.95839 1.38002 2.23032 1.64835 1.78539 2.26169C1.34046 2.87504 1.42134 2.87504 1.42134 2.91337V23.307H34.5082V15.4869C34.5082 14.7202 35.7217 13.7618 36.4902 13.7618H42.3148ZM48.4629 31.9704V15.4485C48.4629 15.3719 47.9776 15.0652 47.8158 15.1419C44.2563 15.3719 40.2115 14.8352 36.6924 15.1419C33.1734 15.4485 35.9644 15.2952 35.9644 15.5635V31.9704H48.4629ZM34.5082 24.6487H1.42134C1.3 25.5303 1.78538 26.4887 2.6348 26.872C3.48422 27.2554 3.36287 27.1404 3.44377 27.1404H34.5082V24.6487ZM48.4629 33.3504H35.9644V35.8038C35.9644 36.0338 36.4902 36.2255 36.6924 36.2255C40.2115 35.9955 44.1754 36.5322 47.6135 36.2255C51.0517 35.9188 48.4225 36.0721 48.4225 35.8038V33.3504H48.4629Z" fill="white"/>
<path d="M40.8188 15.7937C41.2637 15.717 43.1648 15.717 43.5693 15.832C44.3783 16.062 44.176 17.0587 43.5693 17.1737C42.9626 17.2887 41.1019 17.212 40.7783 17.1737C40.0098 17.0204 40.0098 15.9853 40.8592 15.832L40.8188 15.7937Z" fill="white"/>
<path d="M40.6166 34.1171C40.8593 34.0404 43.3266 34.0404 43.6097 34.1171C44.2569 34.2704 44.176 35.3054 43.6097 35.3821C43.0435 35.4588 40.9402 35.4204 40.6166 35.3821C39.9289 35.2287 40.0503 34.2704 40.6166 34.1171Z" fill="white"/>
</svg>
