<svg width="49" height="49" viewBox="0 0 49 49" fill="none" xmlns="http://www.w3.org/2000/svg">
<path d="M0 25.9257C0 27.0713 0.928666 28 2.07433 28H14C21.7315 28 28 21.7315 28 14C28 6.2685 21.7315 0 14 0C6.2685 0 0 6.2685 0 14V25.9257Z" fill="#985184"/>
<path d="M49 2.07433C49 0.928666 48.0713 0 46.9257 0H35C27.2685 0 21 6.2685 21 14C21 21.7315 27.2685 28 35 28C42.7315 28 49 21.7315 49 14V2.07433Z" fill="#4E134C"/>
<path d="M24.5 23.2601C26.6782 20.7926 28 17.5504 28 14.0003C28 10.4501 26.6782 7.20792 24.5 4.73926C22.24 7.29434 20.9948 10.5891 21 14.0003C21 17.5504 22.3218 20.7926 24.5 23.2601Z" fill="#E10060"/>
<path d="M0 40.25C0 33.4845 5.4845 28 12.25 28C19.0155 28 24.5 33.4845 24.5 40.25V49H0V40.25Z" fill="#985184"/>
<path d="M24.5 40.25C24.5 33.4845 29.9845 28 36.75 28C43.5155 28 49 33.4845 49 40.25V49H24.5V40.25Z" fill="#4E134C"/>
</svg>
