<svg width="73" height="36" viewBox="0 0 73 36" fill="none" xmlns="http://www.w3.org/2000/svg">
<path d="M72.6692 16.21C71.4562 14.6662 70.2984 12.8467 69.1405 11.0823C67.8173 8.98716 66.3837 6.83686 64.8951 5.07251C64.454 4.52115 63.2961 3.69411 62.7448 3.69411H50.8905V3.36329C51.0559 2.20543 51.0008 0.27568 48.9608 0H18.0295C16.8716 0 15.9895 0.937313 15.9343 2.09517V28.5053C16.4305 30.3248 18.8014 30.2145 20.8966 30.1042C21.3928 30.1042 21.8339 30.1042 22.275 30.1042C22.716 30.1042 22.9366 30.1042 23.2123 30.1594H23.3777V30.3799C24.1496 33.7983 26.9064 35.0113 29.0015 35.0113C31.207 35.0113 34.0189 33.7983 34.846 30.3248V30.1042H53.8127V30.3248C54.6949 33.7983 57.5068 35.0113 59.7123 35.0113C61.8074 35.0113 64.5642 33.7432 65.3361 30.3799V30.2696L65.4464 30.2145C65.6118 30.1042 65.7772 30.0491 67.9275 30.1042C68.6994 30.1042 69.5265 30.1042 69.8022 30.1042C71.346 29.9388 72.6692 28.5604 72.8346 27.0718C73.0552 24.8112 73.0552 19.7387 72.8346 17.4781C72.8346 16.9819 72.6692 16.5959 72.5038 16.2651L72.6692 16.21ZM32.6957 30.821C32.1994 32.0891 31.0967 32.9162 29.6632 33.0816C29.4426 33.0816 29.2772 33.0816 29.0567 33.0816C26.7961 33.0816 25.528 31.3724 25.2523 29.6632C24.9766 27.7334 25.9691 25.5831 28.3951 25.1971C29.8837 24.9766 31.207 25.4177 32.0892 26.5204C33.0265 27.6782 33.247 29.3875 32.6957 30.821ZM49.0159 28.1745H34.9011V27.9539C34.1292 24.5355 31.3173 23.3225 29.167 23.3225C27.0167 23.3225 24.2047 24.5355 23.488 27.9539V28.1745H17.8641V1.87462H49.071V28.1745H49.0159ZM65.5016 9.26284L69.3611 14.7213H57.0658V9.26284H65.5016ZM63.3512 30.821C62.855 32.0891 61.7523 32.9162 60.3188 33.0816C60.0982 33.0816 59.9328 33.0816 59.7123 33.0816C57.4517 33.0816 56.1836 31.3724 55.9079 29.6632C55.6322 27.7334 56.6247 25.5831 59.0506 25.1971C60.5393 24.9766 61.8626 25.4177 62.7448 26.5204C63.6821 27.6782 63.9026 29.3875 63.3512 30.821ZM71.0703 26.7961C70.9049 28.0091 69.8573 28.2296 68.6443 28.2296C67.4313 28.2296 67.7621 28.2296 67.3762 28.1745C66.7697 28.1745 66.1632 28.0642 65.7772 28.1745H65.5016L65.4464 27.9539C64.6745 24.5355 61.9177 23.3225 59.7123 23.3225C57.562 23.3225 54.75 24.5355 54.0333 27.9539V28.1745H50.8905V5.56873H62.4139C62.855 5.56873 63.7372 6.61631 63.8475 7.00227V7.33309C63.9026 7.33309 55.6874 7.33309 55.6874 7.33309C55.4117 7.33309 55.136 7.93958 55.136 8.38066C55.0257 9.59366 55.0809 10.9721 55.136 12.2953C55.136 13.5083 55.2463 14.7213 55.136 15.8792C55.136 16.0446 55.5771 16.5408 55.7425 16.5959H70.8497V16.8165C70.9049 17.0921 71.0152 17.3678 71.0152 17.6986C71.1806 19.9041 71.2357 24.6458 71.0152 26.7961H71.0703Z" fill="white"/>
<path d="M12.9018 7.33301H0V9.20763H12.9018V7.33301Z" fill="white"/>
<path d="M12.9568 14.7207H2.48096V16.5953H12.9568V14.7207Z" fill="white"/>
<path d="M12.9568 22.0537H4.90698V23.9283H12.9568V22.0537Z" fill="white"/>
</svg>
