<svg width="427" height="425" viewBox="0 0 427 425" fill="none" xmlns="http://www.w3.org/2000/svg">
<g clip-path="url(#clip0_3445_15913)">
<path d="M400.041 382.57C388.531 392.16 338.441 398.94 278.761 401.49C187.021 405.42 72.6009 399.37 40.7909 378.2C25.7309 368.19 15.5509 337.25 9.1009 297.66C-6.9291 199.16 0.220901 47.1301 13.1609 30.6501C31.3109 7.56009 323.301 -15.3099 399.911 13.9301C432.741 26.4601 429.231 358.23 400.031 382.57H400.041Z" fill="white"/>
<path d="M373.314 247.44L375.204 241.883L377.358 247.44C377.358 247.44 381.657 248.14 381.712 248.531C381.757 248.913 377.595 250.095 377.595 250.095C377.595 250.095 375.85 255.488 375.204 254.27C374.568 253.051 373.95 250.35 373.95 250.35C373.95 250.35 368.533 249.268 368.533 248.731C368.533 248.158 373.314 247.449 373.314 247.449V247.44Z" fill="white"/>
<path d="M304.094 233.142L305.566 228.822L307.238 233.142C307.238 233.142 310.574 233.688 310.619 233.988C310.656 234.279 307.429 235.198 307.429 235.198C307.429 235.198 306.075 239.381 305.575 238.435C305.075 237.49 304.594 235.389 304.594 235.389C304.594 235.389 300.395 234.543 300.395 234.134C300.395 233.688 304.103 233.142 304.103 233.142H304.094Z" fill="white"/>
<path d="M122.077 120.136V111.162C122.077 110.284 121.366 109.573 120.488 109.573H118.179C117.503 109.573 116.904 109.114 116.752 108.454C115.953 104.97 114.592 101.7 112.755 98.7526C112.388 98.1643 112.458 97.4061 112.947 96.9158L114.572 95.2917C115.192 94.671 115.192 93.665 114.572 93.0442L108.227 86.6994C107.606 86.0786 106.6 86.0786 105.979 86.6994L104.357 88.3217C103.867 88.812 103.108 88.8812 102.52 88.5143C99.5731 86.6766 96.3021 85.3134 92.8158 84.5123C92.1566 84.3609 91.6978 83.7629 91.6978 83.087V80.7844C91.6978 79.9062 90.986 79.1953 90.1087 79.1953H81.1347C80.2565 79.1953 79.5456 79.9071 79.5456 80.7844V83.087C79.5456 83.7629 79.086 84.3617 78.4267 84.5132C74.9404 85.3134 71.6686 86.6766 68.7216 88.5143C68.1332 88.8812 67.375 88.812 66.8847 88.3217L65.2642 86.7011C64.6434 86.0804 63.6375 86.0804 63.0167 86.7011L56.6718 93.046C56.0511 93.6667 56.0511 94.6727 56.6718 95.2934L58.2942 96.9158C58.7845 97.4061 58.8536 98.1643 58.4868 98.7526C56.65 101.7 55.2885 104.971 54.4883 108.456C54.3368 109.115 53.7388 109.575 53.0621 109.575H50.7551C49.8769 109.575 49.166 110.287 49.166 111.164V120.138C49.166 121.016 49.8778 121.727 50.7551 121.727H53.0629C53.7388 121.727 54.3377 122.187 54.4883 122.845C55.2894 126.331 56.6517 129.601 58.4877 132.547C58.8545 133.135 58.7853 133.893 58.295 134.384L56.6701 136.009C56.0493 136.629 56.0493 137.635 56.6701 138.256L63.015 144.602C63.6357 145.222 64.6425 145.222 65.2624 144.602L66.8882 142.976C67.3785 142.486 68.1367 142.416 68.7242 142.782C71.6703 144.617 74.9395 145.977 78.4249 146.777C79.0842 146.929 79.5439 147.527 79.5439 148.204V150.518C79.5439 151.397 80.2557 152.108 81.1329 152.108H90.107C90.9851 152.108 91.696 151.396 91.696 150.518V148.204C91.696 147.527 92.1557 146.929 92.815 146.777C96.2995 145.978 99.5687 144.617 102.514 142.782C103.102 142.416 103.86 142.486 104.35 142.976L105.977 144.603C106.597 145.223 107.604 145.223 108.224 144.603L114.569 138.257C115.19 137.636 115.19 136.629 114.569 136.009L112.943 134.384C112.453 133.894 112.384 133.136 112.75 132.548C114.586 129.601 115.948 126.332 116.748 122.847C116.9 122.188 117.498 121.728 118.174 121.728H120.486C121.366 121.725 122.077 121.014 122.077 120.136ZM85.6191 140.951C71.6449 140.951 60.3324 129.616 60.3324 115.641C60.3324 101.688 71.6449 90.3538 85.6191 90.3538C99.5941 90.3538 110.907 101.689 110.907 115.641C110.907 129.616 99.5941 140.951 85.6191 140.951Z" stroke="#DEE3FC" stroke-width="0.7896" stroke-miterlimit="10"/>
<path d="M163.35 150.512V144.397C163.35 143.799 162.865 143.314 162.267 143.314H160.693C160.232 143.314 159.824 143 159.721 142.551C159.177 140.177 158.249 137.948 156.997 135.939C156.747 135.538 156.794 135.022 157.128 134.688L158.234 133.582C158.657 133.159 158.657 132.473 158.234 132.049L153.91 127.725C153.487 127.302 152.802 127.302 152.378 127.725L151.272 128.831C150.938 129.165 150.421 129.212 150.02 128.962C148.012 127.709 145.783 126.781 143.408 126.235C142.958 126.132 142.646 125.725 142.646 125.263V123.694C142.646 123.096 142.161 122.611 141.563 122.611H135.447C134.849 122.611 134.364 123.096 134.364 123.694V125.263C134.364 125.724 134.051 126.132 133.602 126.235C131.226 126.781 128.996 127.709 126.987 128.961C126.586 129.211 126.07 129.164 125.735 128.83L124.631 127.726C124.208 127.303 123.523 127.303 123.099 127.726L118.775 132.05C118.352 132.473 118.352 133.159 118.775 133.582L119.881 134.688C120.214 135.022 120.262 135.539 120.012 135.94C118.76 137.949 117.832 140.179 117.287 142.553C117.184 143.002 116.777 143.316 116.316 143.316H114.743C114.145 143.316 113.66 143.801 113.66 144.399V150.514C113.66 151.112 114.145 151.597 114.743 151.597H116.316C116.777 151.597 117.185 151.911 117.288 152.36C117.834 154.735 118.763 156.964 120.014 158.972C120.263 159.373 120.216 159.889 119.882 160.224L118.776 161.331C118.353 161.754 118.353 162.439 118.776 162.862L123.1 167.187C123.523 167.609 124.209 167.609 124.632 167.187L125.741 166.078C126.074 165.745 126.592 165.696 126.992 165.947C128.999 167.197 131.227 168.124 133.603 168.669C134.052 168.772 134.365 169.179 134.365 169.641V171.218C134.365 171.816 134.85 172.301 135.448 172.301H141.564C142.162 172.301 142.647 171.816 142.647 171.218V169.641C142.647 169.179 142.96 168.772 143.409 168.669C145.784 168.124 148.012 167.197 150.02 165.947C150.421 165.697 150.937 165.745 151.271 166.078L152.379 167.187C152.802 167.61 153.488 167.61 153.911 167.187L158.235 162.863C158.658 162.44 158.658 161.754 158.235 161.331L157.127 160.224C156.793 159.89 156.745 159.373 156.996 158.972C158.247 156.964 159.175 154.736 159.72 152.361C159.824 151.911 160.231 151.598 160.692 151.598H162.267C162.865 151.596 163.35 151.111 163.35 150.512ZM138.505 163.726C129.519 163.726 122.245 156.437 122.245 147.451C122.245 138.478 129.519 131.19 138.505 131.19C147.491 131.19 154.766 138.478 154.766 147.451C154.766 156.437 147.491 163.726 138.505 163.726Z" fill="#DEE3FC"/>
<path d="M48.1911 312.439C49.8283 312.439 51.1556 311.112 51.1556 309.474C51.1556 307.837 49.8283 306.51 48.1911 306.51C46.5538 306.51 45.2266 307.837 45.2266 309.474C45.2266 311.112 46.5538 312.439 48.1911 312.439Z" fill="#A4AFFF"/>
<path d="M332.836 88.4907C333.863 88.4907 334.696 87.6581 334.696 86.6311C334.696 85.6041 333.863 84.7715 332.836 84.7715C331.809 84.7715 330.977 85.6041 330.977 86.6311C330.977 87.6581 331.809 88.4907 332.836 88.4907Z" fill="#A4AFFF"/>
<path d="M59.7954 61.8596C59.7954 62.8866 58.9627 63.7192 57.9358 63.7192C56.9088 63.7192 56.0762 62.8866 56.0762 61.8596C56.0762 60.8326 56.9088 60 57.9358 60C58.9627 60 59.7954 60.8326 59.7954 61.8596Z" fill="#A4AFFF"/>
<path d="M100.954 176.375C100.954 177.402 100.121 178.235 99.094 178.235C98.067 178.235 97.2344 177.402 97.2344 176.375C97.2344 175.348 98.067 174.516 99.094 174.516C100.121 174.516 100.954 175.348 100.954 176.375Z" fill="#A4AFFF"/>
<path d="M32.7329 312.44C32.7329 313.467 31.9002 314.299 30.8733 314.299C29.8463 314.299 29.0137 313.467 29.0137 312.44C29.0137 311.413 29.8463 310.58 30.8733 310.58C31.9002 310.58 32.7329 311.413 32.7329 312.44Z" fill="#A4AFFF"/>
<path d="M401.867 314.191C403.504 314.191 404.831 312.863 404.831 311.226C404.831 309.589 403.504 308.262 401.867 308.262C400.23 308.262 398.902 309.589 398.902 311.226C398.902 312.863 400.23 314.191 401.867 314.191Z" fill="#A4AFFF"/>
<path d="M110.908 56.7415C112.545 56.7415 113.872 55.4143 113.872 53.777C113.872 52.1398 112.545 50.8125 110.908 50.8125C109.271 50.8125 107.943 52.1398 107.943 53.777C107.943 55.4143 109.271 56.7415 110.908 56.7415Z" fill="#A4AFFF"/>
<path d="M315.45 188.658C315.45 190.849 313.673 192.625 311.483 192.625C309.292 192.625 307.516 190.85 307.516 188.658C307.516 186.467 309.291 184.691 311.483 184.691C313.674 184.691 315.45 186.468 315.45 188.658Z" fill="#A4AFFF"/>
<path d="M22.8812 139.608C22.8812 141.798 21.1057 143.575 18.9142 143.575C16.7237 143.575 14.9473 141.798 14.9473 139.608C14.9473 137.417 16.7228 135.641 18.9142 135.641C21.1057 135.642 22.8812 137.417 22.8812 139.608Z" fill="#A4AFFF"/>
<path d="M11.7204 80.3947H6.73172C6.41041 80.3947 6.15039 80.1346 6.15039 79.8133V74.8255C6.15039 74.5042 6.41041 74.2441 6.73172 74.2441H11.7204C12.0417 74.2441 12.3018 74.5042 12.3018 74.8255V79.8133C12.3018 80.1346 12.0417 80.3947 11.7204 80.3947Z" fill="white"/>
<path d="M19.9489 80.3947H14.9603C14.6389 80.3947 14.3789 80.1346 14.3789 79.8133V74.8255C14.3789 74.5042 14.6389 74.2441 14.9603 74.2441H19.9489C20.2703 74.2441 20.5303 74.5042 20.5303 74.8255V79.8133C20.5303 80.1346 20.2703 80.3947 19.9489 80.3947Z" fill="white"/>
<path d="M28.1766 80.3947H23.1888C22.8675 80.3947 22.6074 80.1346 22.6074 79.8133V74.8255C22.6074 74.5042 22.8675 74.2441 23.1888 74.2441H28.1766C28.4979 74.2441 28.7579 74.5042 28.7579 74.8255V79.8133C28.7579 80.1346 28.4979 80.3947 28.1766 80.3947Z" fill="white"/>
<path d="M50.3415 293.043H45.3528C45.0315 293.043 44.7715 292.783 44.7715 292.462V287.474C44.7715 287.153 45.0315 286.893 45.3528 286.893H50.3415C50.6628 286.893 50.9229 287.153 50.9229 287.474V292.462C50.9229 292.782 50.662 293.043 50.3415 293.043Z" fill="#DEE3FC"/>
<path d="M58.5681 293.043H53.5794C53.2581 293.043 52.998 292.783 52.998 292.462V287.474C52.998 287.153 53.2581 286.893 53.5794 286.893H58.5681C58.8894 286.893 59.1494 287.153 59.1494 287.474V292.462C59.1494 292.782 58.8894 293.043 58.5681 293.043Z" fill="#DEE3FC"/>
<path d="M66.7977 293.043H61.8099C61.4885 293.043 61.2285 292.783 61.2285 292.462V287.474C61.2285 287.153 61.4885 286.893 61.8099 286.893H66.7977C67.119 286.893 67.379 287.153 67.379 287.474V292.462C67.379 292.782 67.119 293.043 66.7977 293.043Z" fill="#DEE3FC"/>
<path d="M273.338 345.913H154.879C144.556 345.913 136.188 337.545 136.188 327.221V63.5488C136.188 53.2256 144.556 44.8574 154.879 44.8574H273.338C283.661 44.8574 292.03 53.2256 292.03 63.5488V327.221C292.03 337.545 283.661 345.913 273.338 345.913Z" fill="#3945BA"/>
<path d="M272.739 341.635H155.478C146.435 341.635 139.105 334.305 139.105 325.263V63.8663C139.105 54.824 146.435 47.4941 155.478 47.4941H272.74C281.782 47.4941 289.112 54.824 289.112 63.8663V325.263C289.111 334.305 281.782 341.635 272.739 341.635Z" fill="white"/>
<path d="M282.545 63.3512V324.444C282.545 330.567 277.581 335.531 271.457 335.531H156.759C150.636 335.531 145.672 330.567 145.672 324.444V63.3512C145.672 57.2279 150.636 52.2637 156.759 52.2637H175.886C176.947 52.2637 177.918 52.8634 178.393 53.8125L180.425 57.867C181.35 59.738 183.26 60.9094 185.338 60.9094H242.879C244.956 60.9094 246.867 59.738 247.792 57.867L249.823 53.8125C250.299 52.8634 251.269 52.2637 252.331 52.2637H271.457C277.581 52.2637 282.545 57.227 282.545 63.3512Z" fill="#DEE3FC"/>
<path d="M238.257 56.1667H191.912C190.835 56.1667 189.961 55.293 189.961 54.2152C189.961 53.1374 190.835 52.2637 191.912 52.2637H238.257C239.335 52.2637 240.209 53.1374 240.209 54.2152C240.209 55.293 239.335 56.1667 238.257 56.1667Z" fill="#DEE3FC"/>
<path d="M264.338 326.469H161.209C157.157 326.469 153.873 323.185 153.873 319.133V282.719C153.873 278.667 157.157 275.383 161.209 275.383H264.338C268.39 275.383 271.674 278.667 271.674 282.719V319.133C271.674 323.185 268.39 326.469 264.338 326.469Z" stroke="#698BD1" stroke-miterlimit="10" stroke-linecap="round" stroke-linejoin="round" stroke-dasharray="2.84 2.84"/>
<path d="M259.111 201.106H207.952C205.029 201.106 202.66 198.737 202.66 195.815V170.53C202.66 167.607 205.029 165.238 207.952 165.238H259.111C262.033 165.238 264.403 167.607 264.403 170.53V195.815C264.403 198.737 262.033 201.106 259.111 201.106Z" stroke="#698BD1" stroke-miterlimit="10" stroke-linecap="round" stroke-linejoin="round" stroke-dasharray="2.84 2.84"/>
<path d="M270.126 266.887H164.467C160.985 266.887 158.162 264.064 158.162 260.582V216.018C158.162 212.536 160.985 209.713 164.467 209.713H270.126C273.608 209.713 276.431 212.536 276.431 216.018V260.582C276.431 264.064 273.608 266.887 270.126 266.887Z" fill="#D8D8D8"/>
<path d="M271.674 211.381V255.971C271.674 259.447 268.855 262.257 265.379 262.257H160.168C156.692 262.257 153.873 259.447 153.873 255.971V211.381C153.873 207.905 156.692 205.086 160.168 205.086H265.379C268.855 205.086 271.674 207.905 271.674 211.381Z" fill="white"/>
<path d="M194.568 257.611H163.572C161.222 257.611 159.316 255.706 159.316 253.355V222.359C159.316 220.01 161.222 218.104 163.572 218.104H194.568C196.919 218.104 198.824 220.009 198.824 222.359V253.355C198.824 255.706 196.919 257.611 194.568 257.611Z" fill="white"/>
<path d="M231.302 223.104H204.004C203.262 223.104 202.66 222.502 202.66 221.76C202.66 221.017 203.262 220.416 204.004 220.416H231.302C232.044 220.416 232.646 221.017 232.646 221.76C232.647 222.502 232.044 223.104 231.302 223.104Z" fill="#B2C1F9"/>
<path d="M218.862 228.471H204.004C203.262 228.471 202.66 227.87 202.66 227.127C202.66 226.385 203.262 225.783 204.004 225.783H218.862C219.605 225.783 220.206 226.385 220.206 227.127C220.206 227.869 219.605 228.471 218.862 228.471Z" fill="#B2C1F9"/>
<path d="M264.538 228.471H224.332C223.59 228.471 222.988 227.87 222.988 227.127C222.988 226.385 223.59 225.783 224.332 225.783H264.538C265.28 225.783 265.882 226.385 265.882 227.127C265.882 227.869 265.279 228.471 264.538 228.471Z" fill="#B2C1F9"/>
<path d="M226.995 233.836H204.006C203.264 233.836 202.662 233.235 202.662 232.492C202.662 231.75 203.264 231.148 204.006 231.148H226.995C227.737 231.148 228.338 231.75 228.338 232.492C228.338 233.235 227.736 233.836 226.995 233.836Z" fill="#B2C1F9"/>
<path d="M246.507 233.836H232.055C231.312 233.836 230.711 233.235 230.711 232.492C230.711 231.75 231.312 231.148 232.055 231.148H246.507C247.249 231.148 247.851 231.75 247.851 232.492C247.851 233.235 247.249 233.836 246.507 233.836Z" fill="#B2C1F9"/>
<path d="M264.537 233.836H251.229C250.486 233.836 249.885 233.235 249.885 232.492C249.885 231.75 250.486 231.148 251.229 231.148H264.537C265.28 231.148 265.881 231.75 265.881 232.492C265.881 233.235 265.279 233.836 264.537 233.836Z" fill="#B2C1F9"/>
<path d="M264.536 239.203H204.004C203.262 239.203 202.66 238.602 202.66 237.86C202.66 237.117 203.262 236.516 204.004 236.516H264.536C265.279 236.516 265.88 237.117 265.88 237.86C265.88 238.602 265.278 239.203 264.536 239.203Z" fill="#B2C1F9"/>
<path d="M237.32 244.569H204.006C203.264 244.569 202.662 243.967 202.662 243.225C202.662 242.482 203.264 241.881 204.006 241.881H237.32C238.063 241.881 238.664 242.482 238.664 243.225C238.664 243.967 238.062 244.569 237.32 244.569Z" fill="#B2C1F9"/>
<path d="M264.537 244.569H242.692C241.949 244.569 241.348 243.967 241.348 243.225C241.348 242.482 241.949 241.881 242.692 241.881H264.537C265.28 241.881 265.881 242.482 265.881 243.225C265.881 243.967 265.279 244.569 264.537 244.569Z" fill="#B2C1F9"/>
<path d="M223.578 249.934H204.004C203.262 249.934 202.66 249.332 202.66 248.59C202.66 247.848 203.262 247.246 204.004 247.246H223.578C224.32 247.246 224.922 247.848 224.922 248.59C224.922 249.332 224.32 249.934 223.578 249.934Z" fill="#B2C1F9"/>
<path d="M248.451 249.934H228.877C228.135 249.934 227.533 249.332 227.533 248.59C227.533 247.848 228.135 247.246 228.877 247.246H248.451C249.194 247.246 249.795 247.848 249.795 248.59C249.795 249.332 249.194 249.934 248.451 249.934Z" fill="#B2C1F9"/>
<path d="M264.538 249.934H253.18C252.437 249.934 251.836 249.332 251.836 248.59C251.836 247.848 252.437 247.246 253.18 247.246H264.538C265.28 247.246 265.882 247.848 265.882 248.59C265.882 249.332 265.28 249.934 264.538 249.934Z" fill="#B2C1F9"/>
<path d="M231.302 255.301H204.004C203.262 255.301 202.66 254.7 202.66 253.957C202.66 253.215 203.262 252.613 204.004 252.613H231.302C232.044 252.613 232.646 253.215 232.646 253.957C232.647 254.699 232.044 255.301 231.302 255.301Z" fill="#B2C1F9"/>
<path d="M264.538 223.104H237.24C236.498 223.104 235.896 222.502 235.896 221.76C235.896 221.017 236.498 220.416 237.24 220.416H264.538C265.281 220.416 265.882 221.017 265.882 221.76C265.882 222.502 265.28 223.104 264.538 223.104Z" fill="#B2C1F9"/>
<path d="M271.674 211.381V213.255H153.873V211.381C153.873 207.905 156.692 205.086 160.168 205.086H265.379C268.855 205.086 271.674 207.905 271.674 211.381Z" fill="#6B6B6B"/>
<path d="M249.47 209.319C249.47 210.125 248.817 210.778 248.01 210.778C247.204 210.778 246.551 210.125 246.551 209.319C246.551 208.513 247.204 207.859 248.01 207.859C248.817 207.859 249.47 208.513 249.47 209.319Z" fill="#DEE3FC"/>
<path d="M256.937 209.319C256.937 210.125 256.283 210.778 255.477 210.778C254.671 210.778 254.018 210.125 254.018 209.319C254.018 208.513 254.671 207.859 255.477 207.859C256.283 207.859 256.937 208.513 256.937 209.319Z" fill="#DEE3FC"/>
<path d="M264.403 209.319C264.403 210.125 263.75 210.778 262.944 210.778C262.138 210.778 261.484 210.125 261.484 209.319C261.484 208.513 262.138 207.859 262.944 207.859C263.749 207.86 264.403 208.513 264.403 209.319Z" fill="#DEE3FC"/>
<path d="M190.345 201.107H167.03C163.573 201.107 160.77 198.304 160.77 194.846V171.532C160.77 168.075 163.573 165.271 167.03 165.271H190.345C193.802 165.271 196.605 168.074 196.605 171.532V194.846C196.604 198.305 193.802 201.107 190.345 201.107Z" stroke="#008BCE" stroke-width="0.8956" stroke-miterlimit="10"/>
<path d="M173.097 178.008L167.934 183.171L173.138 188.374" stroke="#008BCE" stroke-width="1.6716" stroke-miterlimit="10" stroke-linecap="round" stroke-linejoin="round"/>
<path d="M184.277 178.008L189.44 183.171L184.236 188.374" stroke="#008BCE" stroke-width="1.6716" stroke-miterlimit="10" stroke-linecap="round" stroke-linejoin="round"/>
<path d="M181.106 178.008L176.271 188.374" stroke="#008BCE" stroke-width="1.6716" stroke-miterlimit="10" stroke-linecap="round" stroke-linejoin="round"/>
<path d="M271.674 77.8043V150.709C271.674 154.666 268.47 157.87 264.512 157.87H161.035C157.086 157.87 153.873 154.666 153.873 150.709V77.8043C153.873 73.847 157.086 70.6426 161.035 70.6426H264.512C268.47 70.6426 271.674 73.847 271.674 77.8043Z" fill="#B2C1F9"/>
<path d="M247.817 110.751C257.246 110.751 264.889 103.107 264.889 93.6781C264.889 84.2491 257.246 76.6055 247.817 76.6055C238.388 76.6055 230.744 84.2491 230.744 93.6781C230.744 103.107 238.388 110.751 247.817 110.751Z" fill="#F0F4FF"/>
<path d="M223.118 157.87H161.035C157.086 157.87 153.873 154.666 153.873 150.708V139.23L181.04 92.1713C182.459 89.7111 186.013 89.7111 187.432 92.1713L207.945 127.7L223.179 154.088C223.914 155.349 223.801 156.785 223.118 157.87Z" fill="white"/>
<path d="M249.89 157.869H190.521L207.944 127.699L217.33 111.441C218.608 109.226 221.804 109.226 223.082 111.441L249.89 157.869Z" fill="#F0F4FF"/>
<path d="M367.647 293.34H321.879V362.123H367.647V293.34Z" fill="#A2A2A2"/>
<path d="M367.648 362.125H385.172V293.342H367.648V362.125Z" fill="#008BCE"/>
<path d="M383.023 295.982H370.156V298.177H383.023V295.982Z" fill="#B2C1F9"/>
<path d="M383.023 300.697H370.156V302.892H383.023V300.697Z" fill="#B2C1F9"/>
<path d="M383.023 305.414H370.156V307.609H383.023V305.414Z" fill="#B2C1F9"/>
<path d="M383.023 310.129H370.156V312.324H383.023V310.129Z" fill="#B2C1F9"/>
<path d="M383.023 314.844H370.156V317.039H383.023V314.844Z" fill="#B2C1F9"/>
<path d="M383.023 319.561H370.156V321.755H383.023V319.561Z" fill="#B2C1F9"/>
<path d="M383.023 324.277H370.156V326.472H383.023V324.277Z" fill="#B2C1F9"/>
<path d="M383.023 328.992H370.156V331.187H383.023V328.992Z" fill="#B2C1F9"/>
<path d="M383.023 333.707H370.156V335.902H383.023V333.707Z" fill="#B2C1F9"/>
<path d="M383.023 338.424H370.156V340.619H383.023V338.424Z" fill="#B2C1F9"/>
<path d="M383.023 343.141H370.156V345.336H383.023V343.141Z" fill="#B2C1F9"/>
<path d="M383.023 347.855H370.156V350.05H383.023V347.855Z" fill="#B2C1F9"/>
<path d="M383.023 352.572H370.156V354.767H383.023V352.572Z" fill="#B2C1F9"/>
<path d="M383.023 357.287H370.156V359.482H383.023V357.287Z" fill="#B2C1F9"/>
<path d="M314.444 362.123H337.705C337.705 362.123 339.005 357.981 336.188 352.85C336.188 352.85 334.315 354.351 328.707 353.336C328.707 353.336 326.367 355.323 324.751 356.1C323.126 356.887 313.817 358.715 314.444 362.123Z" fill="#281616"/>
<path d="M316.065 296.533C317.567 305.497 324.5 335.826 327.48 353.744C332.926 354.208 335.543 353.583 336.928 353.263C336.657 347.015 336.119 332.071 336.183 325.517C336.286 314.441 336.806 299.835 331.93 291.818L315.535 293.109C315.635 293.975 315.725 294.679 315.806 295.182C315.885 295.665 315.975 296.111 316.065 296.533Z" fill="#263238"/>
<path d="M272.37 362.123H295.631C295.631 362.123 296.931 357.981 294.114 352.85C294.114 352.85 292.241 354.351 286.633 353.336C286.633 353.336 284.293 355.323 282.677 356.1C281.052 356.887 271.743 358.715 272.37 362.123Z" fill="#281616"/>
<path d="M285.961 353.22C290.406 354.321 293.625 354.213 295.149 354.042C296.387 346.84 298.34 330.994 300.099 323.567C302.827 312.022 305.497 296.144 303.642 290.48L287.515 286.43C287.461 286.94 286.147 335.533 285.961 353.22Z" fill="#263238"/>
<path d="M350.145 269.898C349.821 266.711 349.448 264.383 349.448 264.383L331.43 268.793L316.124 272.28C310.45 273.544 303.595 275.066 297.552 276.432C290.771 277.973 286.27 283.123 287.754 289.914L289.454 298.15C298.938 298.02 343.531 293.746 347.345 291.82C351.654 289.643 352.951 281.949 350.145 269.898Z" fill="#263238"/>
<path d="M377.043 269.896C376.719 266.709 375.165 263.289 375.165 263.289L358.328 268.791L343.022 272.278C337.348 273.542 330.494 275.064 324.451 276.43C317.67 277.971 313.168 283.121 314.653 289.912L316.352 298.148C325.837 298.018 365.478 296.637 374.243 291.818C378.473 289.492 379.849 281.947 377.043 269.896Z" fill="#263238"/>
<path d="M326.61 244.074C326.61 244.074 334.613 240.459 336.816 244.085C338.022 246.07 337.188 249.756 334.458 251.304C331.728 252.852 316.304 259.376 301.747 263.013C301.747 263.013 301.125 260.988 300.123 258.861C300.123 258.861 306.654 256.152 313.146 251.592C319.638 247.032 326.61 244.074 326.61 244.074Z" fill="#E5918F"/>
<path d="M328.613 219.082L321.754 246.478C321.754 246.478 322.463 253.404 329.458 250.004C336.452 246.605 341.087 224.779 341.087 224.779L328.613 219.082Z" fill="#E5918F"/>
<path d="M340.215 234.405C339.367 234.201 338.557 233.976 337.776 233.742C336.976 233.508 336.215 233.264 335.493 233.01C328.975 230.776 325.453 228.092 325.453 228.092C327.502 219.185 329.971 213.203 332.166 209.261C332.224 209.164 332.283 209.076 332.332 208.969C332.391 208.872 332.449 208.774 332.508 208.677C333.688 206.715 335.386 205.067 337.279 203.711C337.474 203.574 337.66 203.447 337.855 203.311L338.665 217.614L338.801 219.087L340.215 234.405Z" fill="white"/>
<path d="M340.217 234.404C339.368 234.199 338.558 233.975 337.777 233.741C336.977 233.507 336.216 233.263 335.494 233.009C336.863 223.374 338.1 217.32 338.1 217.32L338.802 219.086L340.217 234.404Z" fill="#C7E5F2"/>
<path d="M380.707 209.671C380.542 213.906 379.8 220.706 379.156 227.536C378.951 229.702 378.756 231.878 378.59 233.976C378.473 235.283 376.502 242.259 376.424 243.508C376.073 249.479 373.146 253.948 375.917 263.041C376.581 265.217 376.746 266.339 376.746 267.237C376.746 267.861 375.936 268.515 375.614 268.69C374.453 269.363 372.17 269.832 369.399 270.173H369.389C363.936 270.837 356.579 270.964 352.139 270.964C346.178 270.964 337.231 270.017 336.099 268.515C335.065 267.139 336.021 265.139 336.508 262.377C338.703 249.918 337.923 243.42 337.787 234.425C337.787 234.201 337.777 233.976 337.777 233.742C337.553 219.868 336.635 207.994 337.28 203.711C337.475 203.574 337.661 203.447 337.856 203.311C338.802 202.666 339.729 202.091 340.627 201.583C340.705 201.544 340.803 201.486 340.9 201.427C341.173 201.272 341.456 201.125 341.719 200.978C341.817 200.92 341.924 200.871 342.032 200.822C344.052 199.837 346.998 198.783 348.686 198.198C348.9 198.129 349.096 198.061 349.261 198.012C350.852 197.915 352.578 197.895 354.442 197.944C356.062 197.993 358.54 198.207 361.233 198.558C361.243 198.558 361.243 198.558 361.243 198.558C364.287 198.949 367.614 199.524 370.258 200.246C370.258 200.246 370.287 200.256 370.307 200.266C370.804 200.421 374.034 201.631 377.4 205.232C378.521 206.422 379.672 207.885 380.707 209.671Z" fill="white"/>
<path d="M375.916 263.04C376.579 265.216 376.745 266.338 376.745 267.236C376.745 267.86 375.935 268.514 375.613 268.689C374.452 269.362 372.168 269.831 369.397 270.172C370.539 270.036 372.51 268.224 372.51 266.591C372.51 265.448 371.027 257.722 371.436 252.737C371.846 247.761 372.656 239.839 371.114 233.497C369.563 227.154 368.109 218.812 368.109 218.812L376.802 224.061C376.802 224.061 377.925 225.632 379.154 227.534C378.949 229.7 378.754 231.876 378.588 233.974C378.472 235.282 373.144 253.947 375.916 263.04Z" fill="#C7E5F2"/>
<path d="M337.67 173.002C337.67 173.002 338.422 182.094 341.437 182.705C344.452 183.316 343.712 179.453 343.712 179.453L343.291 175.136L337.67 173.002Z" fill="#263238"/>
<path d="M351.572 205.955C345.669 205.253 347.873 199.515 348.683 198.199C348.898 198.13 349.913 197.818 349.99 197.77C350 197.76 350.01 197.76 350.01 197.76C350.205 197.604 350.351 197.369 350.468 197.077C351.044 195.565 350.781 192.55 350.761 192.354C350.761 192.345 350.761 192.345 350.761 192.345V191.799C350.858 191.438 350.956 191.096 351.034 190.774L354.137 188.335L360.703 183.174C360.703 183.174 358.957 191.808 360.362 197.253C360.469 197.663 360.684 198.239 361.23 198.56C361.23 198.57 361.24 198.56 361.24 198.56C361.416 198.677 361.63 198.755 361.894 198.794C363.504 199.554 361.26 207.106 351.572 205.955Z" fill="#E5918F"/>
<path d="M356.775 188.658C356.775 188.658 356.72 194.421 350.465 197.071C351.046 195.567 350.778 192.551 350.76 192.356L353.38 190.299L356.775 188.658Z" fill="#CC6362"/>
<path d="M339.111 174.297C339.111 174.297 340.475 193.162 345.569 194.765C345.569 194.765 352.059 195.376 356.719 189.108C358.061 187.303 359.758 186.897 360.312 184.716C361.212 181.173 362.482 174.64 360.862 170.703C358.556 165.095 339.33 160.643 339.111 174.297Z" fill="#E5918F"/>
<path d="M360.94 167.588C360.856 164.162 357.388 162.881 357.388 162.881C353.935 161.265 346.759 161.962 339.361 163.613C337.626 164 335.45 162.935 334.238 163.776C332.774 164.791 334.232 169.431 334.232 169.431C337.085 178.074 347.586 175.263 350.742 174.197C351.493 176.422 351.396 179.516 353.267 181.111C354.333 182.02 356.186 182.046 358.07 181.732C358.302 182.173 359.173 182.561 359.35 183.167C359.943 185.187 359.858 188.345 359.84 190.783L360.73 190.348C360.847 189.688 370.057 167.871 360.94 167.588Z" fill="#263238"/>
<path d="M344.338 180.65C344.604 182.217 343.832 183.655 342.612 183.863C341.392 184.07 340.188 182.969 339.922 181.401C339.655 179.835 340.428 178.397 341.647 178.189C342.867 177.982 344.072 179.083 344.338 180.65Z" stroke="white" stroke-width="0.501" stroke-miterlimit="10"/>
<path d="M350.492 179.5C350.758 181.066 349.986 182.505 348.766 182.712C347.547 182.92 346.342 181.818 346.076 180.251C345.81 178.685 346.582 177.246 347.802 177.039C349.021 176.831 350.226 177.934 350.492 179.5Z" stroke="white" stroke-width="0.501" stroke-miterlimit="10"/>
<path d="M344.338 180.651C344.338 180.651 344.608 180.214 346.025 180.336" stroke="white" stroke-width="0.501" stroke-miterlimit="10"/>
<path d="M350.547 179.876L355.808 179.035" stroke="white" stroke-width="0.501" stroke-miterlimit="10"/>
<path d="M356.194 185.714C359.817 187.103 360.949 178.184 357.508 177.789C354.899 177.49 354.792 181.13 354.792 181.13C354.792 181.13 354.125 184.922 356.194 185.714Z" fill="#E5918F"/>
<g opacity="0.5">
<path d="M357.388 179.133C357.388 179.133 357.154 179.374 356.939 179.772C356.723 180.169 356.532 180.711 356.497 181.293C356.463 181.581 356.471 181.877 356.484 182.158C356.494 182.441 356.528 182.706 356.547 182.941C356.572 183.179 356.593 183.377 356.607 183.516C356.621 183.657 356.621 183.743 356.621 183.743C356.621 183.743 356.569 183.679 356.492 183.559C356.425 183.434 356.288 183.269 356.196 183.039C356.094 182.813 355.988 182.541 355.931 182.23C355.86 181.923 355.84 181.58 355.867 181.236C355.899 180.893 355.988 180.549 356.134 180.256C356.272 179.958 356.472 179.719 356.658 179.545C357.049 179.198 357.388 179.133 357.388 179.133Z" fill="#CC6362"/>
<path d="M357.953 180.825C357.953 180.825 357.805 180.841 357.602 180.918C357.399 180.989 357.148 181.132 356.959 181.325C356.766 181.514 356.641 181.747 356.579 181.93C356.513 182.11 356.492 182.238 356.492 182.238L355.895 182.024C355.895 182.024 355.965 181.872 356.111 181.671C356.252 181.468 356.488 181.224 356.771 181.07C357.05 180.91 357.356 180.837 357.581 180.821C357.806 180.8 357.953 180.825 357.953 180.825Z" fill="#CC6362"/>
</g>
<path d="M391.032 247.684C391.032 247.684 391.032 247.684 391.031 247.692C389.438 249.54 383.395 250.886 380.488 248.331C379.575 247.516 378.543 245.371 377.529 242.71C374.951 235.904 372.512 225.723 372.512 225.723L386.035 218.812C386.035 218.812 387.775 226.613 389.274 234.026C389.274 234.026 389.287 234.102 389.315 234.233C389.802 236.607 390.257 238.943 390.613 240.947C390.628 241.004 390.633 241.051 390.638 241.107C390.996 243.499 391.225 245.995 391.032 247.684Z" fill="#E5918F"/>
<path d="M367.404 216.254C368.711 221.684 372.815 231.975 372.815 231.975C375.69 232.452 379.546 231.923 382.741 230.775C386.428 229.45 389.062 226.669 389.062 226.669C389.062 226.669 386.34 219.018 383.897 213.521C381.704 208.587 380.387 206.745 379.438 205.767C378.009 204.27 375.704 202.554 374.069 201.773L367.404 216.254Z" fill="white"/>
<path d="M384.505 219.799L376.569 216.375L370.316 200.264C370.316 200.264 371.462 200.612 372.971 201.221C372.971 201.221 372.971 201.221 372.978 201.221C373.007 201.236 373.073 201.257 373.181 201.301C373.217 201.316 373.261 201.33 373.298 201.352C374.647 201.983 379.877 205.066 383.496 216.266C383.525 216.361 383.554 216.455 383.583 216.549C383.967 217.841 384.25 218.878 384.403 219.415C384.418 219.466 384.432 219.516 384.446 219.574C384.469 219.647 384.484 219.726 384.505 219.799Z" fill="white"/>
<path d="M391.03 247.685C391.03 247.685 391.03 247.685 391.029 247.694C390.913 248.684 390.64 249.396 390.15 249.648C390.072 249.698 388.962 250.359 388.884 250.409C387.23 251.42 384.232 253.139 380.502 254.743C371.456 258.652 358.315 263.184 351.23 265.261C351.23 265.261 350.53 263.26 349.439 261.175C349.439 261.175 355.848 258.199 362.147 253.374C368.455 248.56 377.527 242.711 377.527 242.711L379.818 240.016C379.818 240.016 387.963 232.52 389.271 234.029C389.271 234.029 389.284 234.104 389.312 234.235C389.507 235.017 390.153 237.893 390.611 240.95C390.626 241.007 390.631 241.053 390.636 241.109C390.994 243.501 391.224 245.996 391.03 247.685Z" fill="#E5918F"/>
<path d="M350.377 260.717C350.377 260.717 348.784 261.677 347.162 261.335C346.264 261.146 345.902 260.779 345.238 260.663C344.575 260.546 342.807 260.328 341.931 259.898C341.057 259.469 340.715 259.421 340.746 260.3C340.777 261.179 342.503 261.938 342.972 262.183C343.44 262.426 344.027 263.205 344.09 263.303C344.153 263.401 341.213 264.94 340.422 264.628C340.422 264.628 340.187 265.336 340.321 265.731C340.454 266.127 341.059 266.265 341.106 266.464C341.153 266.663 340.967 267.069 341.098 267.384C341.229 267.699 341.769 267.701 341.987 268.213C342.205 268.725 341.965 268.734 342.123 269.268C342.282 269.803 342.965 269.898 343.095 270.174C343.225 270.45 343.156 270.772 343.443 270.962C343.73 271.152 346.375 270.303 347.34 269.89C348.306 269.476 350.886 265.762 353.741 264.496L350.377 260.717Z" fill="#E5918F"/>
<path d="M363.896 277.296H343.324V275.283H363.896C364.452 275.283 364.903 275.734 364.903 276.29C364.903 276.845 364.452 277.296 363.896 277.296Z" fill="#375F84"/>
<path d="M352.763 277.297H301.254C300.637 277.297 300.095 276.886 299.931 276.292L289.389 238.341C289.156 237.502 289.787 236.67 290.659 236.67H340.47C341.631 236.67 342.649 237.444 342.96 238.562L353.464 276.376C353.591 276.84 353.243 277.297 352.763 277.297Z" fill="#375F84"/>
<path d="M350.9 277.297H299.39C298.774 277.297 298.233 276.886 298.067 276.292L287.525 238.341C287.292 237.502 287.924 236.67 288.796 236.67H338.606C339.767 236.67 340.786 237.444 341.096 238.562L351.601 276.376C351.729 276.84 351.38 277.297 350.9 277.297Z" fill="#3A3B3D"/>
<path d="M146.752 252.774L152.719 246.657C152.719 246.657 152.925 243.929 153.25 243.354C153.575 242.778 154.414 240.647 154.832 240.415C155.251 240.183 156.087 240.415 156.087 240.415C156.087 240.415 156.916 240.137 157.287 240.137C157.659 240.137 158.354 240.477 158.354 240.477C158.354 240.477 159.246 240.416 159.618 240.416C159.99 240.416 160.109 240.52 160.109 240.52C160.109 240.52 161.547 238.866 162.244 238.309C162.941 237.751 164.007 236.725 164.323 236.729C164.62 236.732 164.752 237.256 164.535 237.813C164.317 238.371 163.374 239.27 163.374 239.27L160.655 243.39C160.655 243.39 161.12 243.205 161.368 243.05C161.616 242.895 163.274 241.346 163.374 241.284C163.474 241.222 164.218 240.726 164.651 241.222C165.084 241.717 161.805 245.647 161.278 246.173C160.751 246.7 157.736 248.226 157.736 248.226C157.736 248.226 154.553 253.952 154.243 254.324C153.934 254.695 146.752 252.774 146.752 252.774Z" fill="#E49191"/>
<path d="M152.366 224.536C152.366 224.536 149.033 243.843 145.896 244.291C145.896 244.291 133.372 244.797 130.583 229.604C128.163 216.428 137.868 213.618 142.407 214.626C146.946 215.633 153.341 216.289 152.366 224.536Z" fill="#E49191"/>
<path d="M141.299 241.205C141.299 241.205 139.544 243.571 138.929 249.299C138.929 249.299 133.714 250.045 128.904 247.569C128.904 247.569 131.496 239.488 131.814 230.715" fill="#E49191"/>
<path d="M137.765 211.394C130.921 212.906 131.469 217.17 131.469 217.17C128.264 217.963 127.576 219.286 127.602 225.2C127.629 231.115 129.769 238.216 130.949 238.794C132.13 239.372 138.82 239.4 139.379 239.197C139.937 238.994 142.279 233.568 141.733 232.613C141.187 231.659 141.76 227.904 143.319 227.763C144.877 227.62 144.572 230.036 144.572 230.036L145.852 229.755L146.841 227.33C155.885 227.869 158.222 217.562 158.222 217.562C156.05 216.145 144.61 209.882 137.765 211.394Z" fill="#263238"/>
<path d="M61.7941 342.096L68.7141 343.097L66.422 351.177L58.9276 349.286C58.9276 349.286 55.8782 345.153 60.4825 342.096C60.704 341.948 61.4316 342.014 61.7941 342.096Z" fill="#E5918F"/>
<path d="M113.445 321.339L103.245 290.456C103.245 290.456 100.154 289.355 98.5701 290.456C98.5701 290.456 87.9448 296.17 89.0786 312.462C89.9331 324.743 92.5264 338.063 93.577 343.406L66.3642 342.4C66.3642 342.4 63.0066 346.391 65.1787 351.585C65.1787 351.585 99.3721 360.781 104.189 361.631C108.104 362.321 112.388 362.854 114.457 361.082C118.103 357.959 113.445 321.339 113.445 321.339Z" fill="#263238"/>
<path d="M94.0128 342.096L100.933 343.097L98.6408 351.177L91.1464 349.286C91.1464 349.286 88.0969 345.153 92.7013 342.096C92.9228 341.948 93.6504 342.014 94.0128 342.096Z" fill="#E5918F"/>
<path d="M91.5025 346.332C91.3475 347.923 92.7396 349.356 92.4848 349.753C92.23 350.149 87.5784 357.954 87.5784 357.954C87.5784 357.954 91.0901 359.483 90.5237 361.692H81.6302C81.6302 361.692 79.3074 359.596 79.3643 356.594C79.3643 356.594 79.9684 353.138 81.5549 350.079C83.1413 347.02 86.7467 340.114 86.7467 340.114C86.7467 340.114 87.8402 339.672 89.7112 340.171C91.9017 340.755 94.0135 342.096 94.0135 342.096C94.0135 342.096 91.8851 342.401 91.5025 346.332Z" fill="#467CDB"/>
<path d="M162.744 354.594C160.549 346.401 139.889 311.423 132.9 301.979C118.544 295.746 103.244 290.457 103.244 290.457C96.9168 291.968 93.7999 304.718 97.3887 313.218C99.8506 319.05 115.47 333.726 125.035 342.366L98.4918 342.334C98.4918 342.334 95.3654 347.008 98.1985 351.447C98.1985 351.447 142.344 361.485 146.215 362.052C150.088 362.618 158.776 362.052 158.776 362.052C158.776 362.052 164.593 361.491 162.744 354.594Z" fill="#263238"/>
<path d="M59.2837 346.332C59.1288 347.923 60.5208 349.356 60.2661 349.753C60.0113 350.149 55.3597 357.954 55.3597 357.954C55.3597 357.954 58.8714 359.483 58.3049 361.692H49.4114C49.4114 361.692 47.0887 359.596 47.1456 356.594C47.1456 356.594 47.7497 353.138 49.3361 350.079C50.9225 347.02 54.5279 340.114 54.5279 340.114C54.5279 340.114 55.6215 339.672 57.4924 340.171C59.6821 340.755 61.7947 342.096 61.7947 342.096C61.7947 342.096 59.6663 342.401 59.2837 346.332Z" fill="#467CDB"/>
<path d="M195.981 246.83L181.744 271.873L171.548 261.71L163.109 274.271L165.56 275.448L164.678 276.182C164.678 276.182 184.355 285.764 186.712 283.65C189.07 281.536 200.056 249.676 200.056 249.676L195.981 246.83Z" fill="#E49191"/>
<path d="M173.364 263.299C173.364 263.299 170.676 274.637 165.301 280.012L151.546 274.777C151.546 274.777 145.164 285.511 138.921 293.74C136.522 296.919 135.726 301.392 132.906 301.979C132.731 301.918 132.565 301.865 132.39 301.821C124.747 299.528 113.47 301.962 104.163 298.503C93.8846 294.677 95.8808 292.523 95.8808 292.523C95.8808 292.523 102.115 281.291 105.652 269.392C107.228 264.13 108.322 259.254 109.049 255.445C110.353 248.704 115.755 243.433 122.567 242.514C122.645 242.505 122.715 242.488 122.794 242.479C130.586 241.49 150.986 243.897 154.952 245.596C158.918 247.294 173.364 263.299 173.364 263.299Z" fill="#008BCE"/>
<path d="M151.546 274.779C151.546 274.779 145.163 285.513 138.921 293.743C136.522 296.921 135.725 301.395 132.906 301.982C134.141 301.544 136.189 295.047 136.916 293.585C137.652 292.132 138.816 290.67 141.337 285.566C143.85 280.453 147.261 272.959 147.261 272.959L151.546 274.779Z" fill="#5996EF"/>
<path d="M125.035 342.367C125.035 342.367 125.251 342.319 125.633 342.27C126.015 342.23 126.562 342.151 127.22 342.125C128.535 342.054 130.296 342.106 132.038 342.348C132.908 342.474 133.775 342.627 134.575 342.829C135.377 343.018 136.116 343.243 136.736 343.469C137.36 343.682 137.861 343.919 138.211 344.076C138.561 344.236 138.755 344.34 138.755 344.34C138.755 344.34 138.534 344.314 138.157 344.249C137.784 344.17 137.241 344.097 136.6 343.988C135.317 343.773 133.618 343.5 131.911 343.271C131.06 343.139 130.202 343.046 129.4 342.934C128.595 342.834 127.844 342.739 127.199 342.659C125.901 342.483 125.035 342.367 125.035 342.367Z" fill="#263238"/>
<path d="M206.62 237.613C206.391 237.591 204.931 238.762 204.226 239.341L205.038 237.786C205.038 237.786 206.111 236.749 206.497 236.18C206.884 235.611 206.681 235.042 206.376 235.011C206.161 234.989 204.877 236.008 204.134 236.615L204.297 236.303C204.297 236.303 205.371 235.266 205.757 234.697C206.143 234.128 205.94 233.559 205.635 233.528C205.33 233.498 202.861 235.571 202.861 235.571L201.658 237.181L202.565 235.419C202.565 235.419 203.043 234.835 203.361 234.199C203.679 233.562 203.449 233.368 203.272 233.155C203.095 232.942 201.433 234.181 201.008 234.676C200.583 235.172 199.239 237.178 199.134 237.462L197.744 240.336C197.656 239.504 197.516 238.078 197.418 237.17C197.276 235.861 196.091 235.552 196.05 236.189C196.009 236.825 195.349 239.956 195.498 241.654C195.648 243.351 195.933 244.466 196.039 245.421C196.145 246.376 195.154 248.285 195.154 248.285C195.154 248.285 199.116 250.745 199.771 250.009C200.426 249.273 201.82 247.637 202.494 246.536C203.419 245.023 204.044 243.034 204.044 243.034L205.282 240.389C205.282 240.389 206.356 239.352 206.742 238.783C207.128 238.213 206.925 237.643 206.62 237.613Z" fill="#E49191"/>
<path d="M66.9286 205.99H113.387C116.365 205.99 118.778 208.404 118.778 211.382V222.357C118.778 225.105 116.724 227.371 114.067 227.706C113.678 227.755 113.387 228.086 113.387 228.478V234.486C113.387 234.833 112.941 234.976 112.739 234.693L108.007 228.076C107.86 227.87 107.623 227.749 107.37 227.749H66.9286C63.9509 227.749 61.5371 225.335 61.5371 222.357V211.382C61.5371 208.404 63.9509 205.99 66.9286 205.99Z" stroke="white" stroke-width="0.8956" stroke-miterlimit="10"/>
<path d="M106.26 216.853C106.26 217.833 107.055 218.627 108.034 218.627C109.015 218.627 109.81 217.832 109.81 216.853C109.81 215.872 109.015 215.078 108.034 215.078C107.055 215.077 106.26 215.872 106.26 216.853Z" stroke="white" stroke-width="0.8956" stroke-miterlimit="10"/>
<path d="M97.3223 216.853C97.3223 217.833 98.1172 218.627 99.0969 218.627C100.078 218.627 100.872 217.832 100.872 216.853C100.872 215.872 100.077 215.078 99.0969 215.078C98.1172 215.077 97.3223 215.872 97.3223 216.853Z" stroke="white" stroke-width="0.8956" stroke-miterlimit="10"/>
<path d="M88.3828 216.853C88.3828 217.833 89.1778 218.627 90.1575 218.627C91.1381 218.627 91.9322 217.832 91.9322 216.853C91.9322 215.872 91.1372 215.078 90.1575 215.078C89.1778 215.077 88.3828 215.872 88.3828 216.853Z" stroke="white" stroke-width="0.8956" stroke-miterlimit="10"/>
<path d="M79.4434 216.853C79.4434 217.833 80.2383 218.627 81.218 218.627C82.1986 218.627 82.9927 217.832 82.9927 216.853C82.9927 215.872 82.1977 215.078 81.218 215.078C80.2383 215.077 79.4434 215.872 79.4434 216.853Z" stroke="white" stroke-width="0.8956" stroke-miterlimit="10"/>
<path d="M70.5059 216.853C70.5059 217.833 71.3008 218.627 72.2814 218.627C73.262 218.627 74.0561 217.832 74.0561 216.853C74.0561 215.872 73.2611 215.078 72.2814 215.078C71.3 215.077 70.5059 215.872 70.5059 216.853Z" stroke="white" stroke-width="0.8956" stroke-miterlimit="10"/>
<path d="M347.501 132.554H262.825C258.155 132.554 254.369 128.768 254.369 124.098C254.369 119.428 258.155 115.643 262.825 115.643H347.501C352.171 115.643 355.957 119.428 355.957 124.098C355.957 128.768 352.171 132.554 347.501 132.554Z" fill="white" stroke="#008BCE" stroke-width="0.8956" stroke-miterlimit="10"/>
<path d="M346.261 123.516C346.261 126 344.248 128.013 341.764 128.013C339.28 128.013 337.268 126 337.268 123.516C337.268 121.032 339.28 119.02 341.764 119.02C344.248 119.02 346.261 121.032 346.261 123.516Z" stroke="#008BCE" stroke-width="1.6716" stroke-miterlimit="10"/>
<path d="M344.945 126.695L347.428 129.178" stroke="#008BCE" stroke-width="1.6716" stroke-miterlimit="10" stroke-linecap="round"/>
<path d="M219.232 362.53H197.93C194.203 362.53 191.182 359.508 191.182 355.781V334.479C191.182 330.752 194.203 327.73 197.93 327.73H219.232C222.959 327.73 225.981 330.752 225.981 334.479V355.781C225.981 359.508 222.959 362.53 219.232 362.53Z" fill="#193091"/>
<path d="M212.891 362.53H191.588C187.861 362.53 184.84 359.508 184.84 355.781V334.479C184.84 330.752 187.861 327.73 191.588 327.73H212.891C216.618 327.73 219.639 330.752 219.639 334.479V355.781C219.639 359.508 216.618 362.53 212.891 362.53Z" fill="#008BCE"/>
<path d="M198.128 338.563L208.117 344.33C208.733 344.686 208.733 345.575 208.117 345.932L198.128 351.699C197.512 352.055 196.74 351.609 196.74 350.898V339.364C196.741 338.652 197.512 338.207 198.128 338.563Z" fill="white"/>
<path d="M96.9584 71.491H69.1108C64.2386 71.491 60.2891 67.5416 60.2891 62.6693V34.8217C60.2891 29.9495 64.2386 26 69.1108 26H96.9584C101.831 26 105.78 29.9495 105.78 34.8217V62.6693C105.78 67.5407 101.831 71.491 96.9584 71.491Z" fill="#193091"/>
<path d="M88.6693 71.491H60.8217C55.9495 71.491 52 67.5416 52 62.6693V34.8217C52 29.9495 55.9495 26 60.8217 26H88.6693C93.5416 26 97.4911 29.9495 97.4911 34.8217V62.6693C97.4911 67.5407 93.5416 71.491 88.6693 71.491Z" fill="#008BCE"/>
<path d="M80.211 37.1612C80.211 40.18 77.7639 42.627 74.7451 42.627C71.7264 42.627 69.2793 40.18 69.2793 37.1612C69.2793 34.1424 71.7264 31.6953 74.7451 31.6953C77.7639 31.6953 80.211 34.1424 80.211 37.1612Z" fill="white"/>
<path d="M86.1405 55.6655V63.7334C86.1405 64.4627 85.5495 65.0536 84.8202 65.0536H64.6719C63.9426 65.0536 63.3516 64.4627 63.3516 63.7334V55.6655C63.3516 49.3731 68.4524 44.2715 74.7456 44.2715C81.0397 44.2724 86.1405 49.3731 86.1405 55.6655Z" fill="white"/>
<path d="M315.64 142.295H297.754C297.012 142.295 296.41 141.694 296.41 140.951C296.41 140.209 297.012 139.607 297.754 139.607H315.64C316.382 139.607 316.984 140.209 316.984 140.951C316.984 141.693 316.382 142.295 315.64 142.295Z" fill="#F0F4FF"/>
<path d="M333.532 142.295H320.588C319.846 142.295 319.244 141.694 319.244 140.951C319.244 140.209 319.846 139.607 320.588 139.607H333.532C334.274 139.607 334.876 140.209 334.876 140.951C334.877 141.693 334.274 142.295 333.532 142.295Z" fill="#F0F4FF"/>
<path d="M305.355 148.205H297.756C297.014 148.205 296.412 147.604 296.412 146.862C296.412 146.119 297.014 145.518 297.756 145.518H305.355C306.097 145.518 306.699 146.119 306.699 146.862C306.699 147.603 306.096 148.205 305.355 148.205Z" fill="#F0F4FF"/>
<path d="M333.532 148.205H309.863C309.121 148.205 308.52 147.604 308.52 146.862C308.52 146.119 309.121 145.518 309.863 145.518H333.532C334.275 145.518 334.876 146.119 334.876 146.862C334.877 147.603 334.275 148.205 333.532 148.205Z" fill="#F0F4FF"/>
<path d="M321.331 154.116H297.754C297.012 154.116 296.41 153.514 296.41 152.772C296.41 152.029 297.012 151.428 297.754 151.428H321.331C322.073 151.428 322.675 152.029 322.675 152.772C322.675 153.513 322.073 154.116 321.331 154.116Z" fill="#F0F4FF"/>
<path d="M333.531 154.116H325.932C325.189 154.116 324.588 153.514 324.588 152.772C324.588 152.029 325.189 151.428 325.932 151.428H333.531C334.274 151.428 334.875 152.029 334.875 152.772C334.876 153.513 334.274 154.116 333.531 154.116Z" fill="#F0F4FF"/>
<path d="M89.1538 279.57H26.7162C24.868 279.57 23.3691 278.071 23.3691 276.223V244.705C23.3691 242.855 24.868 241.357 26.7162 241.357H89.1538C91.002 241.357 92.5009 242.856 92.5009 244.705V276.223C92.5018 278.072 91.0029 279.57 89.1538 279.57Z" fill="#008BCE"/>
<path d="M26.3066 246.52H89.5628" stroke="white" stroke-width="0.8956" stroke-miterlimit="10" stroke-linecap="round"/>
<path d="M87.895 244.659C88.3181 244.659 88.6611 244.316 88.6611 243.893C88.6611 243.47 88.3181 243.127 87.895 243.127C87.4719 243.127 87.1289 243.47 87.1289 243.893C87.1289 244.316 87.4719 244.659 87.895 244.659Z" fill="white"/>
<path d="M83.9008 244.659C84.3239 244.659 84.6669 244.316 84.6669 243.893C84.6669 243.47 84.3239 243.127 83.9008 243.127C83.4778 243.127 83.1348 243.47 83.1348 243.893C83.1348 244.316 83.4778 244.659 83.9008 244.659Z" fill="white"/>
<path d="M79.9047 244.659C80.3278 244.659 80.6708 244.316 80.6708 243.893C80.6708 243.47 80.3278 243.127 79.9047 243.127C79.4817 243.127 79.1387 243.47 79.1387 243.893C79.1387 244.316 79.4817 244.659 79.9047 244.659Z" fill="white"/>
<path d="M38.0981 251.664H27.3643C26.7803 251.664 26.3066 251.19 26.3066 250.606C26.3066 250.022 26.7803 249.549 27.3643 249.549H38.0981C38.6821 249.549 39.1557 250.022 39.1557 250.606C39.1557 251.19 38.6821 251.664 38.0981 251.664Z" fill="#6589D1"/>
<path d="M38.0981 256.551H27.3643C26.7803 256.551 26.3066 256.077 26.3066 255.493C26.3066 254.909 26.7803 254.436 27.3643 254.436H38.0981C38.6821 254.436 39.1557 254.909 39.1557 255.493C39.1557 256.078 38.6821 256.551 38.0981 256.551Z" fill="#6589D1"/>
<path d="M38.0981 261.441H27.3643C26.7803 261.441 26.3066 260.968 26.3066 260.384C26.3066 259.8 26.7803 259.326 27.3643 259.326H38.0981C38.6821 259.326 39.1557 259.8 39.1557 260.384C39.1557 260.968 38.6821 261.441 38.0981 261.441Z" fill="#6589D1"/>
<path d="M38.0981 266.328H27.3643C26.7803 266.328 26.3066 265.854 26.3066 265.27C26.3066 264.687 26.7803 264.213 27.3643 264.213H38.0981C38.6821 264.213 39.1557 264.687 39.1557 265.27C39.1557 265.854 38.6821 266.328 38.0981 266.328Z" fill="#6589D1"/>
<path d="M38.0981 271.215H27.3643C26.7803 271.215 26.3066 270.741 26.3066 270.157C26.3066 269.573 26.7803 269.1 27.3643 269.1H38.0981C38.6821 269.1 39.1557 269.573 39.1557 270.157C39.1557 270.742 38.6821 271.215 38.0981 271.215Z" fill="#6589D1"/>
<path d="M38.0981 276.105H27.3643C26.7803 276.105 26.3066 275.632 26.3066 275.048C26.3066 274.464 26.7803 273.99 27.3643 273.99H38.0981C38.6821 273.99 39.1557 274.464 39.1557 275.048C39.1557 275.632 38.6821 276.105 38.0981 276.105Z" fill="#6589D1"/>
<path d="M88.5053 251.664H42.249C41.6651 251.664 41.1914 251.19 41.1914 250.606C41.1914 250.022 41.6651 249.549 42.249 249.549H88.5053C89.0892 249.549 89.5629 250.022 89.5629 250.606C89.5638 251.19 89.0901 251.664 88.5053 251.664Z" fill="white"/>
<path d="M88.5053 256.551H42.249C41.6651 256.551 41.1914 256.077 41.1914 255.493C41.1914 254.909 41.6651 254.436 42.249 254.436H88.5053C89.0892 254.436 89.5629 254.909 89.5629 255.493C89.5638 256.078 89.0901 256.551 88.5053 256.551Z" fill="white"/>
<path d="M88.5053 261.441H42.249C41.6651 261.441 41.1914 260.968 41.1914 260.384C41.1914 259.8 41.6651 259.326 42.249 259.326H88.5053C89.0892 259.326 89.5629 259.8 89.5629 260.384C89.5638 260.968 89.0901 261.441 88.5053 261.441Z" fill="white"/>
<path d="M88.5053 266.328H42.249C41.6651 266.328 41.1914 265.854 41.1914 265.27C41.1914 264.687 41.6651 264.213 42.249 264.213H88.5053C89.0892 264.213 89.5629 264.687 89.5629 265.27C89.5638 265.854 89.0901 266.328 88.5053 266.328Z" fill="white"/>
<path d="M88.5053 271.215H42.249C41.6651 271.215 41.1914 270.741 41.1914 270.157C41.1914 269.573 41.6651 269.1 42.249 269.1H88.5053C89.0892 269.1 89.5629 269.573 89.5629 270.157C89.5638 270.742 89.0901 271.215 88.5053 271.215Z" fill="white"/>
<path d="M88.5053 276.105H42.249C41.6651 276.105 41.1914 275.632 41.1914 275.048C41.1914 274.464 41.6651 273.99 42.249 273.99H88.5053C89.0892 273.99 89.5629 274.464 89.5629 275.048C89.5638 275.632 89.0901 276.105 88.5053 276.105Z" fill="white"/>
<path d="M413.276 79.9372C416.938 64.6521 407.516 49.2924 392.231 45.6303C376.946 41.9681 361.586 51.3904 357.924 66.6755C354.262 81.9606 363.684 97.3203 378.969 100.982C394.254 104.645 409.614 95.2223 413.276 79.9372Z" stroke="#DEE3FC" stroke-width="0.7896" stroke-miterlimit="10"/>
<path d="M395.613 95.9595C408.109 90.4307 413.758 75.8185 408.229 63.3221C402.7 50.8258 388.088 45.1774 375.592 50.7061C363.095 56.2349 357.447 70.8471 362.976 83.3435C368.504 95.8398 383.116 101.488 395.613 95.9595Z" fill="#008BCE"/>
<path d="M387.845 73.3163C387.845 74.5604 386.837 75.5681 385.594 75.5681C384.35 75.5681 383.342 74.5595 383.342 73.3163C383.342 72.0722 384.35 71.0645 385.594 71.0645C386.837 71.0636 387.845 72.0722 387.845 73.3163Z" fill="white"/>
<path d="M385.348 72.8736C385.007 73.0619 384.579 72.9393 384.39 72.5987L377.114 59.4739C376.925 59.1333 377.048 58.7051 377.389 58.516C377.729 58.3278 378.157 58.4504 378.346 58.7901L385.623 71.915C385.811 72.2564 385.689 72.6854 385.348 72.8736Z" fill="white"/>
<path d="M385.95 73.673C386.225 73.3981 386.672 73.3981 386.947 73.673L393.242 79.968C393.517 80.2429 393.517 80.6894 393.242 80.9643C392.967 81.2392 392.52 81.2392 392.245 80.9643L385.95 74.6693C385.675 74.3944 385.675 73.9479 385.95 73.673Z" fill="white"/>
<path d="M385.744 53.5114V50.666" stroke="white" stroke-width="2" stroke-miterlimit="10" stroke-linecap="round"/>
<path d="M405.398 73.4668H408.244" stroke="white" stroke-width="2" stroke-miterlimit="10" stroke-linecap="round"/>
<path d="M385.443 93.1172V95.9626" stroke="white" stroke-width="2" stroke-miterlimit="10" stroke-linecap="round"/>
<path d="M365.789 73.1641H362.943" stroke="white" stroke-width="2" stroke-miterlimit="10" stroke-linecap="round"/>
<g opacity="0.5">
<path d="M375.823 56.0915L374.4 53.627" stroke="#DEE3FC" stroke-miterlimit="10" stroke-linecap="round"/>
<path d="M402.82 63.5477L405.284 62.125" stroke="#DEE3FC" stroke-miterlimit="10" stroke-linecap="round"/>
<path d="M395.365 90.5449L396.788 93.0095" stroke="#DEE3FC" stroke-miterlimit="10" stroke-linecap="round"/>
<path d="M368.369 83.0898L365.904 84.5126" stroke="#DEE3FC" stroke-miterlimit="10" stroke-linecap="round"/>
</g>
<g opacity="0.5">
<path d="M368.518 63.284L366.055 61.8613" stroke="#DEE3FC" stroke-miterlimit="10" stroke-linecap="round"/>
<path d="M395.627 56.2419L397.05 53.7773" stroke="#DEE3FC" stroke-miterlimit="10" stroke-linecap="round"/>
<path d="M402.668 83.3516L405.132 84.7743" stroke="#DEE3FC" stroke-miterlimit="10" stroke-linecap="round"/>
<path d="M375.559 90.3926L374.137 92.8572" stroke="#DEE3FC" stroke-miterlimit="10" stroke-linecap="round"/>
</g>
<path d="M47.4615 216.539H16.2099C11.5827 216.539 7.83203 212.788 7.83203 208.161V176.909C7.83203 172.282 11.5827 168.531 16.2099 168.531H47.4615C52.0886 168.531 55.8393 172.282 55.8393 176.909V208.161C55.8393 212.787 52.0886 216.539 47.4615 216.539Z" fill="#193091"/>
<path d="M45.4069 212.377H10.8239C7.11699 212.377 4.11133 209.373 4.11133 205.665V171.082C4.11133 167.375 7.11611 164.369 10.8239 164.369H45.4069C49.1138 164.369 52.1195 167.374 52.1195 171.082V205.665C52.1186 209.372 49.1138 212.377 45.4069 212.377Z" fill="#7E89FD" stroke="#DEE3FC" stroke-miterlimit="10"/>
<path d="M36.4284 182.877H36.178V180.128C36.178 175.613 32.507 171.941 27.9928 171.941C23.4786 171.941 19.8076 175.613 19.8076 180.128V182.877H19.7524C18.4838 182.877 17.4551 183.906 17.4551 185.175V195.538C17.4551 196.807 18.4838 197.836 19.7524 197.836H36.4284C37.697 197.836 38.7258 196.807 38.7258 195.538V185.175C38.7258 183.905 37.697 182.877 36.4284 182.877ZM21.8808 180.128C21.8808 176.758 24.6238 174.016 27.9928 174.016C31.3618 174.016 34.1048 176.758 34.1048 180.128V182.877H21.8799L21.8808 180.128Z" fill="#DEE3FC"/>
<path d="M30.7865 188.206C30.7865 186.551 29.2824 185.248 27.5664 185.59C26.5552 185.791 25.7164 186.621 25.5054 187.63C25.2515 188.847 25.8267 189.957 26.7688 190.509C26.9596 190.621 27.0691 190.831 27.0113 191.044L26.5464 192.759C26.2706 193.779 27.0384 194.783 28.0943 194.783C29.1511 194.783 29.9189 193.779 29.6431 192.759L29.1835 191.063C29.1248 190.846 29.2369 190.633 29.4321 190.523C30.2402 190.064 30.7865 189.201 30.7865 188.206Z" fill="#7E89FD"/>
<path d="M37.7419 201.47H18.442C17.8983 201.47 17.457 201.029 17.457 200.485C17.457 199.941 17.8983 199.5 18.442 199.5H37.7419C38.2856 199.5 38.7269 199.941 38.7269 200.485C38.7269 201.03 38.2856 201.47 37.7419 201.47Z" fill="#DEE3FC"/>
<path d="M37.7419 204.808H18.442C17.8983 204.808 17.457 204.367 17.457 203.823C17.457 203.279 17.8983 202.838 18.442 202.838H37.7419C38.2856 202.838 38.7269 203.279 38.7269 203.823C38.7269 204.367 38.2856 204.808 37.7419 204.808Z" fill="#DEE3FC"/>
<path d="M403.522 167.708H385.124C382.4 167.708 380.191 165.5 380.191 162.775V144.377C380.191 141.653 382.399 139.445 385.124 139.445H403.522C406.246 139.445 408.454 141.653 408.454 144.377V162.775C408.454 165.5 406.246 167.708 403.522 167.708Z" fill="#193091"/>
<path d="M402.31 165.262H381.951C379.769 165.262 378 163.492 378 161.31V140.951C378 138.769 379.769 137 381.951 137H402.31C404.493 137 406.262 138.769 406.262 140.951V161.31C406.262 163.492 404.493 165.262 402.31 165.262Z" fill="#008BCE" stroke="#DEE3FC" stroke-miterlimit="10"/>
<path d="M386.42 159.569C386.34 159.569 386.26 159.558 386.181 159.535C385.715 159.405 385.444 158.921 385.576 158.456L389.851 143.326C389.982 142.859 390.468 142.587 390.93 142.722C391.396 142.852 391.667 143.337 391.534 143.802L387.26 158.931C387.152 159.317 386.8 159.569 386.42 159.569Z" fill="white"/>
<path d="M393.567 159.569C393.488 159.569 393.408 159.558 393.329 159.535C392.863 159.405 392.593 158.921 392.725 158.456L397 143.326C397.131 142.859 397.617 142.587 398.08 142.722C398.545 142.852 398.816 143.337 398.684 143.802L394.409 158.931C394.3 159.317 393.949 159.569 393.567 159.569Z" fill="white"/>
<path d="M399.695 148.575H384.565C384.081 148.575 383.689 148.184 383.689 147.7C383.689 147.216 384.081 146.824 384.565 146.824H399.695C400.179 146.824 400.57 147.216 400.57 147.7C400.57 148.184 400.179 148.575 399.695 148.575Z" fill="white"/>
<path d="M399.695 155.487H384.565C384.081 155.487 383.689 155.096 383.689 154.612C383.689 154.128 384.081 153.736 384.565 153.736H399.695C400.179 153.736 400.57 154.128 400.57 154.612C400.57 155.096 400.179 155.487 399.695 155.487Z" fill="white"/>
<path d="M84.4229 183.19H73.4807C72.8179 183.19 72.2812 182.652 72.2812 181.99C72.2812 181.328 72.8188 180.791 73.4807 180.791H84.4229C85.0857 180.791 85.6224 181.329 85.6224 181.99C85.6224 182.652 85.0857 183.19 84.4229 183.19Z" fill="#F0F4FF"/>
<path d="M95.4457 188.514H73.4807C72.8179 188.514 72.2812 187.977 72.2812 187.315C72.2812 186.652 72.8188 186.115 73.4807 186.115H95.4457C96.1085 186.115 96.6451 186.653 96.6451 187.315C96.6451 187.977 96.1085 188.514 95.4457 188.514Z" fill="#F0F4FF"/>
<path d="M76.0749 193.842H73.4807C72.8179 193.842 72.2812 193.306 72.2812 192.643C72.2812 191.98 72.8188 191.443 73.4807 191.443H76.0749C76.7376 191.443 77.2743 191.98 77.2743 192.643C77.2743 193.305 76.7376 193.842 76.0749 193.842Z" fill="#F0F4FF"/>
<path d="M95.4451 193.842H80.1506C79.4879 193.842 78.9512 193.306 78.9512 192.643C78.9512 191.98 79.4887 191.443 80.1506 191.443H95.4451C96.1078 191.443 96.6445 191.98 96.6445 192.643C96.6445 193.305 96.1078 193.842 95.4451 193.842Z" fill="#F0F4FF"/>
<path d="M95.4457 183.19H88.8127C88.15 183.19 87.6133 182.652 87.6133 181.99C87.6133 181.328 88.1508 180.791 88.8127 180.791H95.4457C96.1084 180.791 96.6451 181.329 96.6451 181.99C96.6451 182.652 96.1084 183.19 95.4457 183.19Z" fill="#F0F4FF"/>
<path d="M60.5709 314.19C59.1456 314.19 57.8113 314.581 56.6696 315.262C56.2117 311.176 52.7473 308 48.5396 308C44.0201 308 40.3561 311.664 40.3561 316.183C40.3561 316.486 40.3736 316.785 40.406 317.08C40.0304 317.01 39.6443 316.971 39.2486 316.971C35.7973 316.971 33 319.769 33 323.22C33 326.671 35.7973 329.469 39.2486 329.469H60.5718C64.7909 329.469 68.2107 326.049 68.2107 321.83C68.2107 317.61 64.79 314.19 60.5709 314.19Z" fill="white"/>
</g>
<defs>
<clipPath id="clip0_3445_15913">
<rect width="427" height="425" fill="white"/>
</clipPath>
</defs>
</svg>
