<svg width="59" height="40" viewBox="0 0 59 40" fill="none" xmlns="http://www.w3.org/2000/svg">
<path d="M58.8232 12.9683C58.8232 12.1036 57.9561 11.5213 57.1785 11.8648L24.2375 26.4565C24.0255 26.5527 23.8459 26.7082 23.7202 26.9042C23.5945 27.1002 23.5282 27.3283 23.5293 27.5612V38.7964C23.5293 39.4611 24.0564 39.9999 24.7058 39.9999H54.1173C56.7173 39.9999 58.8232 37.847 58.8232 35.1894V12.9683Z" fill="#813B7F"/>
<path d="M49.4115 7.07992C49.4115 6.23051 48.5656 5.65169 47.7927 5.97169L12.4988 20.5528C12.2804 20.6443 12.094 20.7986 11.9633 20.996C11.8326 21.1935 11.7635 21.4254 11.7647 21.6622V38.8032C11.7647 39.4644 12.2917 39.9997 12.9411 39.9997H44.7056C47.3056 39.9997 49.4115 37.8574 49.4115 35.2138V7.07992Z" fill="#C966C5"/>
<path d="M49.4115 15.3052L24.2375 26.4557C23.8081 26.6463 23.5293 27.0792 23.5293 27.5592V38.7968C23.5293 39.4603 24.0564 39.9991 24.7058 39.9991H44.7056C47.3056 39.9991 49.4115 37.8556 49.4115 35.2133V15.3052Z" fill="#E10060"/>
<path d="M37.6468 1.19438C37.6468 0.347325 36.8009 -0.229143 36.028 0.0885022L0.734119 14.6343C0.516072 14.7253 0.329929 14.879 0.19925 15.0758C0.0685708 15.2727 -0.000769058 15.5039 6.43433e-06 15.7402V38.8071C6.43433e-06 39.4659 0.527062 40 1.17647 40H32.941C35.5409 40 37.6468 37.8624 37.6468 35.2259V1.19438Z" fill="#8B3489"/>
<path d="M37.6468 10.1636L12.4988 20.5529C12.2804 20.6444 12.094 20.7987 11.9633 20.9962C11.8326 21.1937 11.7635 21.4255 11.7647 21.6623V38.8034C11.7647 39.4646 12.2917 39.9998 12.9411 39.9998H32.941C35.541 39.9998 37.6468 37.8622 37.6468 35.2258V10.1636Z" fill="#4E134C"/>
</svg>
