<svg width="40" height="43" viewBox="0 0 40 43" fill="none" xmlns="http://www.w3.org/2000/svg">
<path d="M17.9429 42.0656C17.4365 41.8319 17.0471 41.5982 16.8913 41.014V37.314C15.3333 36.9634 13.9312 36.3403 12.568 35.6003C11.7501 36.0676 10.3869 38.1319 9.53009 38.2877C8.67323 38.4435 8.47849 38.1708 7.97217 37.7424C7.46585 37.314 4.4279 34.3929 4.03842 33.7308C3.64894 33.0686 3.76578 33.1076 3.84368 32.6402C3.99947 31.8612 5.90793 30.4591 6.4532 29.758L6.53109 29.5244C5.75213 28.2001 5.16791 26.798 4.81738 25.279C3.3763 25.0064 0.260465 26.0969 0.0657248 23.9158C-0.129015 21.7348 0.182569 19.9042 0.0657248 18.0347C0.221517 17.4894 0.533097 17.1 1.07837 16.9442H4.77843C5.12896 15.3862 5.79108 13.9841 6.49214 12.6209C5.63528 11.1799 2.67524 10.0504 4.27211 8.10296C5.86898 6.15556 6.99847 5.2208 7.97217 4.4029C8.94587 3.58499 9.17956 3.58499 9.95852 4.13026C10.7375 4.67553 12.2564 6.58399 12.5291 6.58399C13.8923 5.84398 15.2944 5.18186 16.8134 4.87028C17.086 3.4292 15.9955 0.313356 18.1765 0.118616C20.3576 -0.0761237 22.4219 0.0017723 23.824 0.118616C25.2261 0.23546 25.0703 0.585996 25.1872 1.24811C25.304 1.91023 25.0703 4.75343 25.1872 4.87028L26.6283 5.2987C27.1735 4.94817 27.4462 4.44185 28.1083 4.325C28.7704 4.20816 31.4189 4.4029 31.5747 4.325C32.2757 1.24811 36.4042 0.508099 38.0011 3.27341C39.5979 6.03871 38.3127 7.44084 36.3653 8.25875C34.4179 9.07666 32.042 7.90822 31.5357 5.72713H28.3809L25.9272 8.14191V12.7767H28.0693C28.5757 10.4398 31.1462 9.23245 33.2494 10.4009C35.3526 11.5693 35.3916 16.0094 32.4705 16.7884C29.5494 17.5673 28.6146 16.1652 28.0693 14.1788H25.6156L23.3177 18.4631C23.5514 18.7747 23.8629 19.0473 24.0577 19.3589C24.2524 19.6705 24.3303 19.9821 24.4861 20.3326H32.9768C33.6389 17.9568 36.3653 16.7494 38.4684 18.2684C40.5716 19.7874 40.4159 22.7864 38.3127 24.0716C36.2095 25.3569 33.6389 24.1885 32.9768 21.8516H24.4861C24.3303 22.2411 24.2524 22.5527 24.0577 22.8642C23.8629 23.1758 23.5903 23.4874 23.3177 23.7601L25.6156 28.0443H28.0693C28.6146 26.0969 30.4452 24.8895 32.4705 25.4348C35.4305 26.2138 35.9368 30.3423 33.2494 31.8223C30.562 33.3023 28.5367 31.8223 28.0693 29.4465H25.9272V34.0813L28.3809 36.496H31.5357C32.042 34.4318 33.9894 33.2634 36.0926 33.8476C38.1958 34.4318 39.1306 36.9634 38.079 38.8329C36.521 41.7151 32.2757 41.014 31.5747 37.8982C31.4189 37.8203 28.6535 37.9371 28.1083 37.8982C27.563 37.8592 27.1735 37.3529 26.7451 36.9634L25.1872 37.3529V41.053C24.9924 41.5982 24.6419 41.8709 24.0966 42.1046H17.865L17.9429 42.0656ZM23.8629 1.4818H18.2934V5.53239C18.2934 5.64924 17.9818 5.92187 17.865 5.99977C17.2807 6.31135 15.9565 6.54504 15.1776 6.85662C14.3986 7.16821 14.3596 7.20715 13.9312 7.44084C13.5028 7.67453 12.5291 8.57033 11.9449 8.02506L9.2185 5.25976L5.28475 9.1935L8.05006 12.0367C8.51744 12.6209 7.69954 13.3999 7.4269 13.9452C6.99847 14.802 6.68688 15.6199 6.3753 16.5157C6.06372 17.4115 6.02477 18.3073 5.51844 18.3073H1.46785V23.8769H5.51844C6.02477 23.8769 6.21951 25.279 6.3753 25.6685C6.68688 26.5643 6.99847 27.3822 7.4269 28.2391C7.85533 29.0959 8.47849 29.6023 8.05006 30.1475L5.28475 32.9907L9.2185 36.9245L11.9449 34.1592C12.5291 33.6139 13.347 34.4708 13.9312 34.7434C14.5154 35.016 14.7491 35.1329 15.1776 35.3276C15.9565 35.6392 17.2807 35.8729 17.865 36.1845C18.4492 36.4961 18.2934 36.535 18.2934 36.6518V40.7024H23.8629V36.6518C23.8629 36.1845 25.2261 35.9118 25.5767 35.8729C25.6935 35.756 24.603 34.7823 24.603 34.5097V33.2244C18.2544 34.9771 11.5554 31.6665 9.25745 25.4738C6.02477 16.7105 13.1133 7.55769 22.4219 8.57034C23.1619 8.64823 23.8629 8.84297 24.603 8.95982V7.67453C24.603 7.59664 24.9924 7.05136 25.1093 6.93452C25.2261 6.81767 25.6935 6.4282 25.6156 6.31135C25.2261 6.31135 23.9019 5.99977 23.9019 5.53239V1.4818H23.8629ZM34.8463 2.88393C32.1199 3.15656 32.4705 7.44084 35.4695 7.05136C38.4685 6.66188 37.6116 2.61129 34.8463 2.88393ZM22.1103 17.6842L24.564 13.2051C24.6419 12.8936 24.6809 10.9462 24.564 10.6346C24.4472 10.323 23.9408 10.284 23.6682 10.2062C17.826 8.72613 11.7891 12.3483 10.1922 18.1126C8.01111 26.0969 14.7102 33.3802 22.8503 32.1339C30.9904 30.8875 24.4472 31.8612 24.5251 31.6275C24.603 31.3939 24.564 29.2128 24.5251 28.9791L22.0713 24.5001C18.9555 25.318 16.346 22.1242 18.0597 19.281C18.8776 17.9179 20.5913 17.4115 22.0713 17.7621L22.1103 17.6842ZM30.0557 11.9199C29.0041 13.0104 29.4715 14.841 30.8736 15.3473C32.2757 15.8536 34.2231 14.2178 33.4831 12.5041C32.7431 10.7904 31.0294 10.9072 30.0557 11.9199ZM20.9808 18.9694C17.7481 19.1252 18.7997 24.3053 21.9545 22.9811C25.1093 21.6569 23.2787 18.8526 20.9808 18.9694ZM36.4042 18.9694C33.6389 19.0863 33.7947 23.2537 36.521 23.2148C39.2474 23.1758 39.1695 18.8916 36.4042 18.9694ZM30.0557 30.2254C31.0294 31.277 32.8989 30.9654 33.4831 29.6412C34.0673 28.317 32.6262 26.1359 30.8736 26.798C29.1209 27.4601 29.043 29.1349 30.0557 30.2254ZM34.5736 35.0939C32.1978 35.4834 32.5484 39.495 35.2747 39.2614C38.0011 39.0277 37.6505 34.5876 34.5736 35.0939Z" fill="white"/>
<path d="M15.3334 13.3608C15.8786 13.2439 16.346 13.8281 16.1123 14.3734C15.8786 14.9187 15.2165 15.0745 14.9828 15.3082C13.347 16.7882 13.0354 18.1903 12.7238 20.2546C12.4123 22.3188 11.5165 21.2672 11.3607 20.5661C11.0491 19.2419 11.9838 16.905 12.7238 15.8145C13.4639 14.7239 14.6713 13.4776 15.3334 13.3608Z" fill="white"/>
</svg>
