<svg width="58" height="55" viewBox="0 0 58 55" fill="none" xmlns="http://www.w3.org/2000/svg">
<g clip-path="url(#clip0_390_1317)">
<path fill-rule="evenodd" clip-rule="evenodd" d="M25.4006 18.6999H5.80005V14.2999C5.80005 13.1329 6.2889 12.0138 7.15907 11.1886C8.02924 10.3635 9.20944 9.8999 10.44 9.8999H28.811L37.3335 18.6999H53.36C54.5907 18.6999 55.7709 19.1635 56.641 19.9886C57.5112 20.8138 58 21.933 58 23.0999V27.4999H33.9231L25.4006 18.6999Z" fill="#E10060"/>
<path fill-rule="evenodd" clip-rule="evenodd" d="M19.4555 36.3H0V31.9C0 30.733 0.488856 29.6139 1.35902 28.7887C2.22919 27.9636 3.4094 27.5 4.64 27.5H23.1559L31.6784 37.4H47.56C48.7906 37.4 49.9708 37.8636 50.841 38.6887C51.7111 39.5139 52.2 40.633 52.2 41.8V46.2H27.9792L19.4555 36.3Z" fill="#4E134C"/>
<path fill-rule="evenodd" clip-rule="evenodd" d="M36.221 27.5002H58V23.1002C58 21.9332 57.5111 20.8141 56.641 19.9889C55.7708 19.1638 54.5906 18.7002 53.36 18.7002H32.4324L22.9622 27.5002H4.64C3.4094 27.5002 2.22919 27.9638 1.35902 28.7889C0.488856 29.6141 0 30.7332 0 31.9002L0 36.3002H26.7519L36.221 27.5002Z" fill="#985184"/>
<path d="M28.9629 34.2452L23.1559 27.5H4.64C3.40987 27.5015 2.23056 27.9655 1.36072 28.7903C0.490883 29.6152 0.00153479 30.7335 0 31.9L0 36.3H26.7519L28.9629 34.2452Z" fill="#EC258F"/>
</g>
<defs>
<clipPath id="clip0_390_1317">
<rect width="58" height="55" fill="white"/>
</clipPath>
</defs>
</svg>
