<svg width="57" height="39" viewBox="0 0 57 39" fill="none" xmlns="http://www.w3.org/2000/svg">
<path d="M10.8301 0L6.84009 31.92H13.7017C13.8444 33.7818 14.6847 35.5211 16.0546 36.79C17.4244 38.0589 19.2228 38.7638 21.0901 38.7638C22.9573 38.7638 24.7558 38.0589 26.1256 36.79C27.4955 35.5211 28.3358 33.7818 28.4784 31.92H28.5001C28.5001 33.7341 29.2207 35.4739 30.5035 36.7566C31.7862 38.0394 33.526 38.76 35.3401 38.76C37.1542 38.76 38.894 38.0394 40.1767 36.7566C41.4594 35.4739 42.1801 33.7341 42.1801 31.92H42.2017C42.3444 33.7818 43.1847 35.5211 44.5546 36.79C45.9244 38.0589 47.7228 38.7638 49.5901 38.7638C51.4573 38.7638 53.2557 38.0589 54.6256 36.79C55.9955 35.5211 56.8358 33.7818 56.9784 31.92H57.0001V30.78L56.9488 30.4688C56.9314 30.3214 56.9093 30.1747 56.8827 30.0287L56.8564 29.8942L56.8336 29.7802L52.5051 3.81102C52.3278 2.74627 51.7785 1.77894 50.955 1.0811C50.1315 0.383266 49.0872 0.000182146 48.0078 0H10.8301Z" fill="#4E134C"/>
<path d="M15.96 3.53023e-09L13.68 31.92C13.68 33.7341 12.9594 35.4739 11.6766 36.7566C10.3939 38.0394 8.65408 38.76 6.84 38.76C5.02592 38.76 3.28614 38.0394 2.00339 36.7566C0.720641 35.4739 0 33.7341 0 31.92L0 30.78L3.98316 3.89196C4.14338 2.81009 4.68709 1.82185 5.51516 1.10742C6.34322 0.392984 7.40048 -4.301e-05 8.49414 3.53023e-09H15.96ZM39.9 3.53023e-09L42.18 31.92C42.18 33.7341 41.4594 35.4739 40.1766 36.7566C38.8939 38.0394 37.1541 38.76 35.34 38.76C33.5259 38.76 31.7861 38.0394 30.5034 36.7566C29.2206 35.4739 28.5 33.7341 28.5 31.92V3.53023e-09H39.9Z" fill="#E10060"/>
<path d="M13.68 31.9199C13.68 33.734 12.9594 35.4738 11.6766 36.7565C10.3939 38.0393 8.65408 38.7599 6.84 38.7599C5.02592 38.7599 3.28614 38.0393 2.00339 36.7565C0.720641 35.4738 0 33.734 0 31.9199H13.68ZM42.18 31.9199C42.18 33.734 41.4594 35.4738 40.1766 36.7565C38.8939 38.0393 37.1541 38.7599 35.34 38.7599C33.5259 38.7599 31.7861 38.0393 30.5034 36.7565C29.2206 35.4738 28.5 33.734 28.5 31.9199H42.18Z" fill="#B90652"/>
<path d="M13.7029 31.9199C13.8473 33.7803 14.6883 35.5177 16.0579 36.785C17.4274 38.0524 19.2247 38.7564 21.0907 38.7564C22.9566 38.7564 24.7539 38.0524 26.1234 36.785C27.493 35.5177 28.334 33.7803 28.4784 31.9199H13.7029ZM42.2029 31.9199C42.3473 33.7803 43.1883 35.5177 44.5579 36.785C45.9274 38.0524 47.7247 38.7564 49.5906 38.7564C51.4566 38.7564 53.2539 38.0524 54.6235 36.785C55.993 35.5177 56.834 33.7803 56.9784 31.9199H42.2029Z" fill="#350C34"/>
</svg>
