<svg width="57" height="55" viewBox="0 0 57 55" fill="none" xmlns="http://www.w3.org/2000/svg">
<path d="M36.428 40.1877L25.4284 54.2842L1.9703 35.7878C0.886695 34.9223 0.190275 33.6626 0.0335813 32.2847C-0.123113 30.9068 0.272693 29.5229 1.1343 28.4362L8.93513 18.6064L36.428 40.1877Z" fill="#985184"/>
<path d="M25.2736 54.1622L11.0847 42.8505L22.1155 28.9507L36.4293 40.1878L25.4297 54.2857L25.2736 54.1622Z" fill="#E10060"/>
<path d="M25.2328 54.1308L25.4283 54.2855L55.8919 15.2447C56.7403 14.1567 57.1255 12.7781 56.9639 11.4079C56.8023 10.0377 56.107 8.78648 55.0288 7.92569L45.0878 0L22.1155 28.9505L36.4292 40.1876L25.4296 54.2842L25.2328 54.1308Z" fill="#4E134C"/>
</svg>
