<svg width="42" height="42" viewBox="0 0 42 42" fill="none" xmlns="http://www.w3.org/2000/svg">
<path d="M41.2993 38.0711C41.1654 37.4016 40.0942 36.1631 39.3578 36.1631H36.9478V18.5563H39.2574C39.4917 18.5563 40.1612 18.1547 40.2951 18.0543C40.8976 17.5856 41.2993 16.9162 41.3662 16.1798C41.4332 15.4434 41.1988 14.7404 40.6968 14.1714C39.8934 13.2676 38.6214 13.2342 37.5838 13.2676C37.2825 6.40568 31.5921 0.514447 24.7971 0.112772C23.5251 0.0458258 17.0314 -0.288904 13.7176 0.648338C8.1276 2.28851 4.07738 7.44334 3.8096 13.2342C2.50416 13.1337 1.39955 13.435 0.73009 14.1045C0.194524 14.64 -0.0397861 15.3429 0.0271598 16.2132C0.127578 17.2509 1.13177 18.389 2.10248 18.5563C2.50416 18.6233 2.97278 18.5898 3.4414 18.5563C3.77613 18.5563 4.14433 18.5229 4.44558 18.5563V36.1966H2.03553C1.26566 36.1966 0.227997 37.4351 0.0941058 38.1045C-0.00631291 38.5397 -0.0397866 40.5146 0.0606322 40.9497C0.127578 41.2845 0.361888 41.3849 0.562726 41.4184H40.998C40.998 41.3849 41.0315 41.3849 41.0315 41.3849H41.065C41.2658 41.251 41.2993 41.0836 41.3327 40.9497C41.3997 40.5146 41.3997 38.5732 41.2993 38.1045V38.0711ZM5.08157 13.2342C5.44977 6.90777 10.6046 1.71947 16.8975 1.35127C19.2406 1.21738 22.4205 1.21738 24.5963 1.35127C27.9101 1.55211 31.2909 3.32617 33.4331 5.93706C35.1068 8.01238 36.0775 10.4559 36.3118 13.2342H5.08157ZM40.0608 15.8785C40.0608 16.481 39.6926 17.184 38.8557 17.2844L2.2029 17.2174C1.49997 16.9831 1.26566 16.3471 1.29913 15.8785C1.29913 15.4099 1.56691 14.8074 2.26985 14.64H38.8557C39.6591 14.64 40.0273 15.3095 40.0608 15.8785ZM17.5 18.5563V36.1631H10.772V18.5563H17.5ZM18.772 36.1296V18.5563H22.5879V36.1296H22.5544C22.5544 36.1631 18.8389 36.1631 18.8389 36.1631H18.8055L18.772 36.1296ZM31.8599 36.1631V18.5563H35.5754V36.1631H31.8599ZM23.8599 36.1631V18.5563H30.4875V36.1631H23.8599ZM1.29913 40.1129V38.4393C1.29913 38.2049 1.8347 37.6024 2.13595 37.5355C9.56694 37.4016 17.1653 37.4016 24.4959 37.4351C29.1486 37.4351 33.9687 37.4351 38.6884 37.4351C38.9227 37.4016 39.3244 37.569 39.6591 37.8367C39.8934 38.0376 40.0273 38.2719 40.0273 38.4393V40.1129H1.29913ZM9.53347 18.5563V36.1631H5.81797V18.5563H9.53347Z" fill="white"/>
<path d="M26.7049 3.29239C26.069 3.12504 24.2281 2.68992 23.4248 2.92422C23.1905 2.99116 23.0566 3.15851 23.0566 3.42628C23.0566 3.72751 23.1905 3.99528 23.4583 4.12916C23.6256 4.1961 23.9938 4.22957 24.5628 4.26304C24.8975 4.26304 25.1988 4.29651 25.3996 4.32998C28.4789 4.83205 31.2904 7.00764 32.6962 10.0535C32.6962 10.1204 32.7631 10.2208 32.7966 10.3212C33.0644 11.0911 33.3321 11.7939 33.7673 11.8274C33.7673 11.8274 33.7673 11.8274 33.8007 11.8274C33.9681 11.8274 34.1354 11.6935 34.3028 11.4592C34.5036 11.1245 34.3363 10.6559 34.2024 10.2878C34.2024 10.2208 34.1354 10.1539 34.1354 10.0869C33.0309 6.90723 30.119 4.22957 26.7384 3.25892L26.7049 3.29239Z" fill="white"/>
</svg>
