<svg width="50" height="50" viewBox="0 0 50 50" fill="none" xmlns="http://www.w3.org/2000/svg">
<mask id="mask0_390_1419" style="mask-type:luminance" maskUnits="userSpaceOnUse" x="0" y="0" width="50" height="50">
<path d="M0 0H50V50H0V0Z" fill="white"/>
</mask>
<g mask="url(#mask0_390_1419)">
<path d="M26.0009 34.5C26.0009 34.5 25.1709 32.5 25.0039 32.333C45.5059 22.493 48.5219 28.793 48.9439 31.378C49.0119 31.796 48.9489 32.221 48.8199 32.625C48.3475 34.1003 47.7381 35.5282 46.9999 36.89C45.4999 38.39 36.9999 38.5 36.9999 38.5L26.0009 34.5Z" fill="#E10060"/>
<path d="M20.9999 13.9999L25.0039 17.6669C4.50187 27.5069 1.48587 21.2069 1.06387 18.6219C0.995869 18.2039 1.05887 17.7789 1.18787 17.3749C1.57361 16.1689 2.051 14.9941 2.61587 13.8609C6.71287 5.64391 14.5009 10.9999 14.5009 10.9999L20.9999 13.9999Z" fill="#4E134C"/>
<path d="M1.18689 32.6248C1.05789 32.2208 0.994892 31.7958 1.06289 31.3778C1.48489 28.7918 4.50089 22.4918 25.0029 32.3328C39.1999 39.1478 45.0129 38.2228 47.3849 36.1508C43.2859 44.3598 34.8029 49.9998 25.0029 49.9998C13.8549 49.9998 4.41089 42.7028 1.18689 32.6248Z" fill="#A00044"/>
<path d="M48.8189 17.375C48.9479 17.779 49.0109 18.204 48.9429 18.622C48.5209 21.208 45.5049 27.508 25.0028 17.667C10.8059 10.852 4.99285 11.777 2.62085 13.849C6.71985 5.64 15.2028 0 25.0028 0C36.1498 0 45.5939 7.297 48.8189 17.375Z" fill="#813B7F"/>
</g>
</svg>
